<?xml version="1.0" encoding="UTF-8"?>
<svg xmlns="http://www.w3.org/2000/svg" viewBox="0 0 172.13 175.31">
  <defs>
    <style>
      .cls-1 {
        fill: #fff;
      }

      .cls-2 {
        fill: #1a71ff;
      }

      .cls-3 {
        isolation: isolate;
      }

      .cls-4 {
        fill: #1a8be7;
      }

      .cls-5 {
        fill: #ffc709;
      }

      .cls-6 {
        mix-blend-mode: overlay;
        opacity: .25;
      }
    </style>
  </defs>
  <g class="cls-3">
    <g id="Layer_2" data-name="Layer 2">
      <g id="OBJECTS">
        <g>
          <g>
            <path class="cls-5" d="m90.49,60.66c22.09-10.39,45.14-10.21,68.44-9.41C147.83,21.33,119.03,0,85.25,0,41.85,0,6.68,35.18,6.68,78.57c0,25.57,12.22,48.27,31.13,62.62,3.93-33.89,21.48-65.6,52.69-80.53Z"/>
            <path class="cls-2" d="m143.04,74.56c-1.59.34-3.15-.67-3.49-2.26l-5.79-23.68c-.34-1.59.68-3.15,2.26-3.49l21.96-4.69c1.59-.34,3.15.67,3.49,2.26l5.79,23.67c.34,1.59-.67,3.15-2.26,3.49l-21.96,4.69Z"/>
            <g>
              <path class="cls-4" d="m157.9,66.68c-.81-3.37-1.84-6.63-3.05-9.78C141.25,21.4,103.14-.21,65.3,8.84,24.09,18.69-1.18,61.15,8.67,102.37c1.97,8.24,5.2,23.24,5.2,23.24-21.05,4.71-15.66,21.55-.22,19.45,18.74-2.56,25.69,17.18,42.26,19.67,1.09.16,2.23.26,3.41.26,19.1.05,24.2-25.46,24.21-25.48h0c.7-2.37.99-4.5.96-6.41.65-10.51,1.45-18.25,3.93-28.87,6.83-29.34,44.22-30.59,70.5-33.07-.34-2.57-.38-1.9-1-4.48Z"/>
              <path class="cls-2" d="m139.35,71.13c-9.26-20.93-30.2-35.54-54.56-35.54-32.95,0-59.66,26.71-59.66,59.66s24.16,57.01,54.87,59.45c1.81-37.61,17.35-80.99,59.35-83.56Z"/>
              <path class="cls-1" d="m69.08,129.92c.96,7.03-3.96,13.51-11,14.48-7.04.96-13.52-3.97-14.47-11-.96-7.03,3.96-13.51,11-14.47,7.03-.96,13.51,3.96,14.47,11Z"/>
            </g>
            <path class="cls-1" d="m57.96,171.2c-2.27,0-4.19-1.75-4.37-4.05-.18-2.41,1.62-4.52,4.04-4.71.81-.07,20.35-1.98,22.79-23.21.32-2.76.55-5.63.8-8.67,1.38-16.74,2.95-35.71,18.83-48.3,18.05-14.31,57.09-15.45,58.74-15.49,2.42-.11,4.43,1.85,4.5,4.27.06,2.42-1.85,4.43-4.27,4.5-.38,0-37.77,1.11-53.52,13.6-12.9,10.22-14.24,26.45-15.53,42.15-.26,3.11-.5,6.04-.83,8.95-2.62,22.82-21.31,30.22-30.84,30.95-.11,0-.23.01-.34.01Z"/>
            <path class="cls-1" d="m169.38,125.95H55.58c-1.52,0-2.75,1.22-2.75,2.72v39.07c0,1.5,1.23,2.89,2.74,3.1,44.23,5.97,69.59,5.97,113.82,0,1.51-.21,2.74-1.6,2.74-3.1v-39.07c0-1.5-1.23-2.72-2.75-2.72Zm-4.01,38.56c-9.41,1.02-18.83,1.82-28.28,2.38-.02-11.72-.03-21.97-.04-33.71,9.44-.09,18.87-.24,28.3-.4,0,10.94.01,20.76.02,31.74Zm-77.44-31.33c-.01,11.74-.03,21.99-.05,33.71-9.44-.56-18.87-1.36-28.28-2.38,0-10.97.01-20.79.02-31.74,9.43.17,18.87.31,28.3.4Zm6.75,34.06c.02-11.82.03-22.18.04-34.02,18.34.15,17.19.15,35.53,0,.01,11.84.03,22.2.03,34.02-18.36.87-17.25.87-35.61,0Z"/>
            <path class="cls-2" d="m60.07,131.15c.28,2.06-1.16,3.95-3.22,4.23-2.06.28-3.95-1.16-4.23-3.22-.28-2.06,1.16-3.95,3.22-4.23,2.06-.28,3.95,1.16,4.23,3.21Z"/>
          </g>
          <path class="cls-6" d="m76.45,166.06c-.94-.07-1.89-.12-2.83-.2.96-.61,1.9-1.3,2.83-2.03V.5C37.2,4.88,6.68,38.15,6.68,78.57c0,.28.02.55.02.82-.48,7.55.13,15.29,1.97,22.97,1.97,8.24,5.2,23.24,5.2,23.24-21.05,4.71-15.66,21.55-.22,19.45,17.54-2.39,24.76,14.75,39.19,18.99v3.69c0,1.5,1.23,2.89,2.74,3.1.35.05.69.09,1.04.14.43.14.88.23,1.35.23.1,0,.21,0,.31,0,6.42.84,12.43,1.56,18.18,2.14v-7.27Z"/>
        </g>
      </g>
    </g>
  </g>
</svg>