<?xml version="1.0" encoding="UTF-8"?>
<svg id="Layer_2" data-name="Layer 2" xmlns="http://www.w3.org/2000/svg" viewBox="0 0 64.86 73.4">
  <defs>
    <style>
      .cls-1 {
        fill: #7c411e;
      }

      .cls-2 {
        fill: #c48d74;
      }

      .cls-3 {
        fill: #e0af99;
      }

      .cls-4 {
        opacity: .7;
      }

      .cls-4, .cls-5 {
        fill: #a8685a;
      }

      .cls-6 {
        fill: #b71d1d;
      }

      .cls-7 {
        fill: #d69f83;
      }

      .cls-8 {
        fill: #d62525;
      }

      .cls-9 {
        fill: #14110f;
      }

      .cls-5 {
        opacity: .5;
      }
    </style>
  </defs>
  <g id="Layer_1-2" data-name="Layer 1">
    <g>
      <path class="cls-2" d="m9.94,50.75c-7.04.64-.48,7.37.82,10.26,1.1,2.45.6,3.99,3.36,5.01,1.56.58,4.33,1.69,5.75.54-1.09-2.54-3.68-2.93-4.37-6.07-.11-.51-.22-.96-.3-1.36-.51-2.23-.46-2.97,2.71-3.7,3.68-.84,7.55-1.25,11.43-1.53,2.07-.14,4.12-.26,6.15-.38.09,0,.18,0,.27-.02.89-.06,2.17-.09,3.49-.21,1.16-.11,2.35-.27,3.37-.59,1.06-.32,1.92-.79,2.34-1.48,1.64-2.7,0-5.95-1.92-7.74-3.39-3.14-7.17-7.03-11.33-9.92-2.3-1.61-4.73-2.91-7.26-3.59-4.17-.61-6.24,1.77-6.75,4.53-.48,2.5.31,5.32,1.94,6.54,2.09,1.57,5.1,1.8,7.64,2.34.18.03.37.08.54.12.43.11,1.09.35,1.85.64h0c1.26.34,2.19.77,2.86,1.18.05.02.09.04.14.06-.03,0-.05-.01-.08-.02,1.24.77,1.6,1.47,1.6,1.47l-.47-.04.14.04c-.1-.02-.2-.03-.29-.05l-2.68-.22c-5.7.19-11.03,4.11-11.03,4.11-3.46,2.1-7.77.73-8.08.63-.02,0-.04-.01-.06-.02-.25-.05-1.04-.09-1.33-.41l-.47-.13Z"/>
      <path class="cls-3" d="m45.08,26.55c0,.83.1,1.64.23,2.44.43,2.75,1.37,5.4,1.54,8.18.22,3.66,0,6.72.99,10.27.93,3.29,2.47,6.71,2.69,10.09.06.9-.11,2.25-.13,3.57-.12.59-.22,1.17-.47,1.7-.46.96-1.32,1.29-1.89,2.02-.85,1.09.36.74,1.11.3.59-.35,1.08-.88,1.59-1.33.37.9,1.1,1.43,2.49,1.15.16.87.4,1.97,1.28,2.21.06-.99.16-1.91.25-2.81.68.5,1.6.79,2.18.02-.64-.79-1.64-.64-2.03-1.77,0-.02,0-.05-.02-.08.02-.58.02-1.16-.04-1.77-.3-3.3-1.13-6.42-1.45-9.64-.33-3.38.79-6.78-.31-10.08-.97-2.92-1.09-6.85-1.13-9.91,0-.88.18-1.74.41-2.61.08-.27.15-.53.23-.79.59-1.92,1.25-3.82.54-5.75-.06-.17-.13-.35-.22-.52l.13.44.11.36c-.04-.13-.09-.26-.13-.38-.36-.94-.84-1.51-1.44-1.75-.59-.24-1.29-.17-2.11.16-.41.16-.86.39-1.32.68-2.2,1.38-3.12,2.98-3.08,5.58Z"/>
      <path class="cls-6" d="m53.34,22.6h0c.38,1.71-.2,3.41-.72,5.11-1.86-.19-4.57-.11-7.3,1.28-.13-.81-.22-1.62-.23-2.44l-.72-10.31c8.34-.24,8.99,6.36,8.99,6.36Z"/>
      <g>
        <path class="cls-8" d="m15.5,60.49c-.11-.51-.22-.96-.3-1.36-2.93-2.66-3.24-5.89-3.16-7.66-.64-.2-5.05-1.41-4.59,4.04.99,2.01,2.7,4.16,3.3,5.5,1.1,2.45.6,3.99,3.36,5.01,1.56.58,4.33,1.69,5.75.54-1.09-2.54-3.68-2.93-4.37-6.07Z"/>
        <path class="cls-8" d="m12.06,51.23s0-.05,0-.07h-.02s.02.07.02.07Z"/>
      </g>
      <path class="cls-7" d="m35.78,64.86c-.48.57-1.06.93-1.7,1.11-1.5.45-3.34-.02-5.18-.83-2.4-1.06-4.8-2.71-6.36-3.59-2.45-1.4-4.97-2.44-7.52-3.44-.37-.14-.75-.29-1.12-.43-2.09-.8-4.19-1.59-6.28-2.56-.05.14-.1.26-.16.4v.02c-.25.63-.55,1.18-.85,1.71h0c-.38.64-.78,1.21-1.14,1.79-.29.48-.56.95-.77,1.46-.05.11-.09.22-.13.34-.04.12-.08.24-.11.36-.27.95-.32,2.04.02,3.44-1.63.58-2.69.18-3.37-.73-.13-.18-.25-.38-.35-.59-.37-.74-.58-1.68-.69-2.67-.17-1.55.01-3.12.34-4.64.11-.53.19-1.05.24-1.58.12-1.24-.26-3.16-.19-4.85.06-1.43,1.19-2.59,2.6-2.73.08-.01.17-.01.26-.01.27,0,.52,0,.75.03h.01c1.24.15,1.98.71,2.68,1.38.32.31.62.62.97.96h.01c.56.55,1.2,1.07,2.11,1.46.01,0,.03,0,.04.01.57.24,1.19.43,1.85.61.61.16,1.25.3,1.89.43.03,0,.06.01.09.01.89.18,1.77.34,2.57.5,1.39.29,2.92.41,4.38.69,0,0,.96-.02,2.36.18-1.14-.83-2.2-1.65-3.15-2.43-.21-.16-.41-.32-.6-.49-.22-.18-.44-.36-.65-.54-3.75-3.17-5.69-5.49-5.69-5.49-.61-.38-1.2-.78-1.74-1.21-.4-.3-.76-.62-1.1-.96-.17-.16-.33-.33-.47-.5-.09-.09-.16-.18-.23-.28,0-.01-.02-.03-.03-.04-.01,0-.02,0-.02-.02-.45-.58-.8-1.22-1-1.92-.06-.2-.12-.4-.15-.6v-.02c-.5-2.47.52-4.35,2.24-5.65,1.68-1.28,3.8-1.74,5.83-1.45.8.12,1.59.36,2.34.72.27.12.55.27.81.43.59.36,1.17.74,1.73,1.15.29.22.58.43.86.66.18.12.35.27.51.4h.01c.49.41.97.82,1.43,1.25h.01c.24.22.47.44.69.66,2.73,2.65,4.86,5.53,6.22,7.54.07.11.13.2.2.3,0,.02.03.04.04.06.6.93,1.03,1.64,1.24,2.01.07.12.11.2.14.25.31.62.62,1.24.91,1.88.25.55.5,1.1.74,1.68.41,1,.89,2.01,1.35,3.04,1.76,3.82,3.31,7.77.28,11.33Z"/>
      <path class="cls-4" d="m39.37,53.67c-2.18.66-1.93-.26-3.6-.15.89-.06,2.17-.09,3.49-.21.04.13.08.24.11.37Z"/>
      <path class="cls-9" d="m17.72,34.52c2.91.64,6.2,1.5,6.94,2.26,0,0,2.05-3.07,6.7-3.29.13,0,.24.06.37.09-2.3-1.61-4.73-2.91-7.26-3.59-4.17-.61-6.24,1.77-6.75,4.53Z"/>
      <path class="cls-8" d="m8.03,29.68c.87-1.96,2.49-3.83,4.33-5.47h0c1.69-1.52,3.56-2.85,5.17-3.89,3.43-2.21,6.56-4.83,10.07-6.89,1.03-.62,2.05-1.04,3.07-1.37h0c3.59-1.39,7.65-1.08,10.28-.63h0s.06,0,.09.01c.14.02.29.05.42.07.6.06,1.17.19,1.72.37,3.8,1.56,5.35,5.12,5.87,6.74.47,2.21.23,3.68-.04,4.49l-.05.02c-.07.22-.16.45-.26.69-.03.05-.05.08-.05.08h.01c-.46,1.03-1.23,2.09-2.52,3.05-1.4.89-2.89,1.46-4.47,2.09-3.62,1.43-7.52,2.19-11.19,3.48-.08.03-.15.06-.23.09-.8.29-1.73.64-2.67.88-.62.16-1.65.44-2.93.8h0c-.65.18-1.38.38-2.13.59-1.57.43-3.28.91-4.94,1.38-3.49.98-6.68,1.91-7.43,2.22-.02.41-.05.83-.11,1.25-.8-.16-1.41-.55-1.85-1.1-1.82-2.17-1.13-6.79-.17-8.94Z"/>
      <path class="cls-3" d="m29.7,72.34c.23.82,1.32.23,2,.13-.05.2-.04.42-.08.6.86.17,1.59-.35,2.38-.6-.18.27-.18.69-.3.93,1.12-.16,2.38-.42,3.36-1.07.44-.29,1.3-1.45,1.77-1.47.4,0,.98.79,1.41.93.06-.87-.61-1.42-.79-2.23-.16-.74,0-1.66-.12-2.41-.21-1.42-.58-2.86-.72-4.33-.31-3.19.23-6.51.84-9.62.7-3.63.79-6.87.45-10.59-.14-1.56-.21-3.2-.17-4.85.04-1.74.18-3.46.49-5.09.18-1,.4-1.95.62-2.89.12-.49.23-.98.35-1.46.31-1.31.57-2.61.71-3.99.02-.64-.11-4.04-3.78-3.73-2.1.55-3.51,1.58-4.47,3.78-.54,1.23-.82,2.53-.92,3.84-.08.94-.06,1.91.03,2.87.13,1.53.42,3.07.78,4.54.05.21.1.41.14.62.76,3.11-.48,6.45-.48,9.7,0,3.44.97,6.75,1.45,10.11.42,2.98.12,6.59-.48,9.5-.39,1.9-1.7,3.03-2.9,4.48-.31.38-1.72,1.81-1.58,2.29Z"/>
      <path class="cls-7" d="m62,6.19c-.74-2.94-3.48-5.3-6.99-5.7-2.87-.32-5.53.77-7.17,2.67,0,0-.03.04-.07.09-.42.5-.77,1.07-1.03,1.67-.4.84-.82,1.94-.98,3.25,0,0,0,0,0,0l-.12-.04s-.75,3.66-4.71,3.29c0,0,2.72,8.13,6,9.16,0,0,1.11-2.74,3.39-2.24.37.45.79,1.11,1.26,1.78.44.64.92,1.28,1.44,1.75,0,0,.02.02.03.02.03.03.07.06.1.08.45.39.93.64,1.44.64.21,0,.41-.05.62-.13,1.41-.54,2.79-2.7,4.47-3.18-1.28-3.18.76-5.32,1.87-7.77,1-2.57.6-4.72.44-5.34Z"/>
      <path class="cls-9" d="m7.07,33.57v-.33l.07.04c.14-1.39.49-2.72.89-3.61.87-1.96,2.49-3.83,4.33-5.47.02.26.29,4.42,3.91,7.29.58.48,1.24.91,2.01,1.29.84.41,1.78.76,2.87,1.01,1.04.25,2.2.41,3.5.47h0l-.69,1.84h0s-2.78-1.22-6.36.47c-2,.95-4.25,2.83-6.41,6.35-.39-.3-.76-.62-1.1-.95-3.62-3.04-3.03-8.41-3.03-8.41Z"/>
      <g>
        <path class="cls-8" d="m32.73,28.22c-.03.34-.03.69-.03,1.04,0-.09,0-.19,0-.28h-.01c-1.28-11.38,4.61-11.34,4.61-11.34,2.18.2,3.31,1.23,3.9,2.34h0s0,.01.02.03c.4.77.54,1.57.58,2.17.07.5.11,1.08.1,1.73.01.18.01.34.01.43-.01.14-.04.28-.06.42-.05.54-.13,1.12-.26,1.73h0c-.12.62-.25,1.23-.39,1.84-1.61-.41-4.36-.75-8.46-.11Z"/>
        <path class="cls-8" d="m32.76,31.09c-.03-.4-.05-.79-.06-1.19.01.4.03.79.06,1.19Z"/>
      </g>
      <path class="cls-1" d="m45.67,5.35c.19-.41.41-.8.66-1.18.1-.16.21-.3.33-.45.05-.06.09-.12.14-.18.01-.02.03-.03.04-.05h0c1.51-1.77,3.81-2.99,6.25-3.39,1.24-.2,2.29-.14,3.2.1h0s4.38-.08,6.84,6.65c0,0,1.2,2.66,1.71,3.43-2.96.94-5.69-.92-7.66-2.61-.09.14-.21.29-.36.44h.01s-6.88,7.35-12.78,2.47c0,0,.46-2.91,1.59-5.26Z"/>
      <g>
        <path class="cls-5" d="m27.55,56.23c.1.09.19.18.29.27h.23c-.17-.09-.35-.17-.52-.27Z"/>
        <path class="cls-5" d="m25.57,54.85c.48.27.95.58,1.39.91.48.3.96.61,1.46.91.01,0,.02.01.03.02,0,0,.01,0,.02.01,0,0,0,0,0,0,.38.24,1.02.67,1.62,1.19.41-1.64.12-5.19-7.64-9.12,0,0-9.19-3.33-13.11-7.64.22.3.48.58.75.85.34.34.7.65,1.1.95.55.43,1.14.83,1.74,1.21,0,0,1.94,2.32,5.69,5.49,1.68,1.43,3.74,3.04,6.15,4.69.26.18.53.35.8.53Z"/>
      </g>
      <path class="cls-8" d="m5.86,55.38c-1.27-4.32,1.72-6.08,1.87-6.17-.35-.34-.65-.65-.97-.96-.7-.67-1.44-1.23-2.68-1.38h-.01c-.24-.03-.47-.04-.74-.04-.09,0-.18.01-.27.02-1.41.14-2.54,1.3-2.6,2.73-.07,1.69.31,3.61.19,4.85-.05.53-.13,1.05-.24,1.58-.33,1.52-.51,3.09-.34,4.64.11.99.32,1.93.69,2.67.1.21.22.41.35.59.68.91,1.74,1.31,3.37.73-.34-1.4-.29-2.49-.02-3.44.03-.12.07-.24.11-.36.04-.12.08-.23.13-.34.21-.51.48-.98.77-1.46.36-.58.76-1.15,1.14-1.78h0c.3-.54.6-1.09.85-1.72h0s0-.01,0-.02c-.49-.37-1.07-.32-1.59-.14Z"/>
    </g>
  </g>
</svg>