<?xml version="1.0"?>
<svg xmlns="http://www.w3.org/2000/svg" data-name="Layer 2" viewBox="0 0 64 64"><circle cx="32" cy="32" r="32" fill="#f26635"/><path fill="#020202" d="M64,32A32,32,0,0,1,13.12,57.84,32,32,0,0,0,47.48,4,32,32,0,0,1,64,32Z" opacity=".15"/><path fill="#fff" d="M39.5,20.31a25,25,0,0,1-38,21.35A31.79,31.79,0,0,1,0,32a32.35,32.35,0,0,1,.32-4.54A32,32,0,0,1,29.24.12,24.94,24.94,0,0,1,39.5,20.31Z" opacity=".2"/><path fill="#f1f2f2" d="M30.38,20.31A15.88,15.88,0,0,1,.32,27.46a32,32,0,0,1,15.36-23A15.88,15.88,0,0,1,30.38,20.31Z" opacity=".15"/><path fill="#3a3a3a" d="M15.89,21.81A42.69,42.69,0,0,0,13,29.9a19.9,19.9,0,0,1,6.26,5.44A103.31,103.31,0,0,1,29.91,50.72a25.31,25.31,0,0,0,11,10.66,17.38,17.38,0,0,0,1.8.77,29.52,29.52,0,0,1-3.43,1A27.74,27.74,0,0,1,27.88,51.83a105.1,105.1,0,0,0-10.4-15,19.15,19.15,0,0,0-5-4.56c-1.38,7.09-1.36,15.61,1,25.85a30.82,30.82,0,0,1-2.84-2.25,60.69,60.69,0,0,1-.23-24.56,9.82,9.82,0,0,0-3.19-.62A13.1,13.1,0,0,0,0,32.94c0-.31,0-.63,0-.94,0-.6,0-1.21.06-1.79a14.81,14.81,0,0,1,7.22-1.86,12.07,12.07,0,0,1,3.66.67,44.42,44.42,0,0,1,2.88-7.87c-5.37-1.64-9.25-2.51-10.76-2.81.34-.73.71-1.44,1.11-2.14,1.94.42,5.72,1.32,10.7,2.86A44.57,44.57,0,0,1,18.7,13.2,6.3,6.3,0,0,1,14.45,10a8,8,0,0,1-.63-4.33A27.14,27.14,0,0,1,16.49,4a7.44,7.44,0,0,0,0,5c.61,1.19,1.8,1.9,3.67,2.21l.12,0A47.58,47.58,0,0,1,34.47.11a29.59,29.59,0,0,1,4.25.61,42.47,42.47,0,0,0-16,11c3.14.46,9.74,1,21.56.18a56.74,56.74,0,0,1,13.15.7,31,31,0,0,1,1.9,2.78,52.76,52.76,0,0,0-14.88-1.16c-14,1-20.86.08-23.49-.45a41.36,41.36,0,0,0-4,6c11.8,3.85,29.18,11.05,45,23.57A22.63,22.63,0,0,1,61,45.52C45.16,32.8,27.63,25.6,15.89,21.81Z"/></svg>
