<svg height="512" viewBox="0 0 64 64" width="512" xmlns="http://www.w3.org/2000/svg"><g id="Flat"><g id="Color_copy" data-name="Color copy"><g fill="#84d2f4"><path d="m44 31a19.468 19.468 0 0 1 -6.162-1l-.157-.053a8.544 8.544 0 0 0 -5.365 0 10.521 10.521 0 0 1 -6.632 0 8.554 8.554 0 0 0 -5.368 0 10.521 10.521 0 0 1 -6.632 0l-3-1a1 1 0 1 1 .632-1.9l3 1a8.554 8.554 0 0 0 5.368 0 10.521 10.521 0 0 1 6.632 0 8.554 8.554 0 0 0 5.368 0 10.521 10.521 0 0 1 6.632 0l.157.052a17.569 17.569 0 0 0 11.057 0l3.154-1.051a1 1 0 1 1 .632 1.9l-3.153 1.052a19.451 19.451 0 0 1 -6.163 1z"/><path d="m44 25a19.468 19.468 0 0 1 -6.162-1l-.157-.053a8.552 8.552 0 0 0 -5.365 0 10.521 10.521 0 0 1 -6.632 0 8.554 8.554 0 0 0 -5.368 0 10.521 10.521 0 0 1 -6.632 0l-3-1a1 1 0 1 1 .632-1.9l3 1a8.554 8.554 0 0 0 5.368 0 10.521 10.521 0 0 1 6.632 0 8.554 8.554 0 0 0 5.368 0 10.521 10.521 0 0 1 6.632 0l.157.052a17.569 17.569 0 0 0 11.057 0l3.154-1.051a1 1 0 1 1 .632 1.9l-3.153 1.052a19.451 19.451 0 0 1 -6.163 1z"/><path d="m33.46 37h-2.92a10.457 10.457 0 0 1 -3.317-.539l-1.539-.512a8.54 8.54 0 0 0 -5.368 0 10.521 10.521 0 0 1 -6.632 0l-3-1a1 1 0 1 1 .632-1.9l3 1a8.554 8.554 0 0 0 5.368 0 10.521 10.521 0 0 1 6.632 0l1.539.511a8.419 8.419 0 0 0 2.685.44h2.92a8.435 8.435 0 0 0 2.684-.436l1.54-.513a10.535 10.535 0 0 1 6.632 0 8.554 8.554 0 0 0 5.368 0l3-1a1 1 0 1 1 .632 1.9l-3 1a10.521 10.521 0 0 1 -6.632 0 8.554 8.554 0 0 0 -5.368 0l-1.54.514a10.474 10.474 0 0 1 -3.316.535z"/><path d="m33.46 43h-2.92a10.457 10.457 0 0 1 -3.317-.539l-1.539-.512a8.54 8.54 0 0 0 -5.368 0 10.521 10.521 0 0 1 -6.632 0l-3-1a1 1 0 1 1 .632-1.9l3 1a8.554 8.554 0 0 0 5.368 0 10.521 10.521 0 0 1 6.632 0l1.539.511a8.419 8.419 0 0 0 2.685.44h2.92a8.435 8.435 0 0 0 2.684-.436l1.54-.513a10.535 10.535 0 0 1 6.632 0 8.554 8.554 0 0 0 5.368 0l3-1a1 1 0 1 1 .632 1.9l-3 1a10.521 10.521 0 0 1 -6.632 0 8.554 8.554 0 0 0 -5.368 0l-1.54.514a10.474 10.474 0 0 1 -3.316.535z"/><path d="m18 42a1 1 0 0 1 -1-1v-17a1 1 0 0 1 2 0v17a1 1 0 0 1 -1 1z"/><path d="m25 41a1 1 0 0 1 -1-1v-17a1 1 0 0 1 2 0v17a1 1 0 0 1 -1 1z"/><path d="m32 42a1 1 0 0 1 -1-1v-18a1 1 0 0 1 2 0v18a1 1 0 0 1 -1 1z"/><path d="m39 41a1 1 0 0 1 -1-1v-16a1 1 0 0 1 2 0v16a1 1 0 0 1 -1 1z"/><path d="m46 42a1 1 0 0 1 -1-1v-17a1 1 0 0 1 2 0v17a1 1 0 0 1 -1 1z"/><path d="m46 15a1 1 0 0 1 -.858-.485l-.942-1.571a6.1 6.1 0 0 0 -5.2-2.944 1 1 0 0 1 0-2 8.108 8.108 0 0 1 6.916 3.915l.941 1.57a1 1 0 0 1 -.343 1.372.988.988 0 0 1 -.514.143z"/><path d="m45 18a1 1 0 0 1 -.707-.293l-2.419-2.419a2.091 2.091 0 0 0 -2.426-.393 1 1 0 0 1 -.9-1.79 4.1 4.1 0 0 1 4.736.769l2.419 2.419a1 1 0 0 1 -.703 1.707z"/><path d="m40 20a1 1 0 0 1 -.446-.105l-2-1a1 1 0 0 1 .894-1.79l2 1a1 1 0 0 1 -.448 1.895z"/></g><path d="m53 48a22.787 22.787 0 0 0 -16 0 22.787 22.787 0 0 1 -16 0 22.787 22.787 0 0 0 -16 0l-2 .75v12.25h58v-10z" fill="#f9e109"/><path d="m61 56v5h-58v-12.25l2-.75a22.715 22.715 0 0 1 8.17-1.45 7.522 7.522 0 0 0 5.52 5.72 22.739 22.739 0 0 1 2.26.71 22.339 22.339 0 0 0 15.82.11 22.808 22.808 0 0 1 16.23-.09z" fill="#fcbc04"/><path d="m7 20h4v41h-4z" fill="#57b7eb"/><path d="m53 20h4v41h-4z" fill="#57b7eb"/><path d="m57 53v8h-4v-41h2v31a2.006 2.006 0 0 0 2 2z" fill="#4891d3"/><path d="m11 53v8h-4v-41h2v31a2.006 2.006 0 0 0 2 2z" fill="#4891d3"/><circle cx="31" cy="13" fill="#84d2f4" r="6"/><path d="m37 13a6 6 0 0 1 -12 0 5.8 5.8 0 0 1 .35-2 5.99 5.99 0 0 0 11.3 0 5.8 5.8 0 0 1 .35 2z" fill="#57b7eb"/><path d="m61 57.75-2-.75a22.787 22.787 0 0 0 -16 0 22.787 22.787 0 0 1 -16 0 22.787 22.787 0 0 0 -16 0l-8 3v1h58z" fill="#e59730"/><path d="m36.83 14.42a5.958 5.958 0 0 1 -2.12 3.29 9.016 9.016 0 0 1 -6.71-8.71 8.656 8.656 0 0 1 .09-1.25 5.943 5.943 0 0 1 2.91-.75h.06a8.987 8.987 0 0 0 5.77 7.42z" fill="#f8664f"/><path d="m36.83 14.42a5.958 5.958 0 0 1 -2.12 3.29 8.925 8.925 0 0 1 -4.45-2.76 5.92 5.92 0 0 0 4.74-1.48 8.368 8.368 0 0 0 1.83.95z" fill="#cc5144"/></g></g></svg>