<?xml version="1.0" encoding="iso-8859-1"?>
<!-- Generator: Adobe Illustrator 19.0.0, SVG Export Plug-In . SVG Version: 6.00 Build 0)  -->
<svg version="1.1" id="Layer_1" xmlns="http://www.w3.org/2000/svg" xmlns:xlink="http://www.w3.org/1999/xlink" x="0px" y="0px"
	 viewBox="0 0 512 512" style="enable-background:new 0 0 512 512;" xml:space="preserve">
<polygon style="fill:#D6D5D6;" points="483.703,309.682 434.603,309.682 469.327,274.931 457.681,263.293 422.972,298.029 
	422.972,248.896 406.506,248.896 406.506,298.026 371.799,263.292 360.152,274.929 394.877,309.682 345.777,309.682 
	345.777,326.146 394.875,326.146 360.152,360.897 371.799,372.535 406.506,337.8 406.506,386.93 422.972,386.93 422.972,337.797 
	457.681,372.534 469.327,360.897 434.604,326.146 483.703,326.146 "/>
<path style="fill:#444444;" d="M414.739,220.578c-53.714,0-97.26,43.579-97.26,97.335s43.546,97.334,97.26,97.334
	c53.716,0,97.261-43.578,97.261-97.334S468.455,220.578,414.739,220.578z M414.739,385.884c-37.51,0-67.918-30.433-67.918-67.971
	c0-37.54,30.409-67.972,67.918-67.972c37.511,0,67.918,30.432,67.918,67.972C482.657,355.452,452.25,385.884,414.739,385.884z"/>
<polygon style="fill:#D6D5D6;" points="166.223,309.682 105.491,309.682 105.491,248.896 89.027,248.896 89.027,298.027 
	54.318,263.292 42.673,274.93 77.398,309.682 28.297,309.682 28.297,326.146 77.397,326.146 42.673,360.896 54.318,372.534 
	89.027,337.799 89.027,386.93 105.491,386.93 105.491,337.797 140.201,372.534 151.848,360.896 117.125,326.146 166.223,326.146 "/>
<path style="fill:#444444;" d="M97.259,220.578C43.545,220.578,0,264.158,0,317.914s43.545,97.334,97.259,97.334
	c53.715,0,97.26-43.578,97.26-97.334S150.974,220.578,97.259,220.578z M97.259,385.884c-37.51,0-67.917-30.433-67.917-67.971
	c0-37.54,30.408-67.971,67.917-67.971c37.511,0,67.919,30.432,67.919,67.971C165.178,355.452,134.77,385.884,97.259,385.884z"/>
<g style="opacity:0.1;">
	<path d="M16.707,317.914c0-50.94,39.103-92.734,88.905-96.974c-2.754-0.235-5.539-0.362-8.354-0.362
		C43.545,220.578,0,264.158,0,317.914s43.545,97.334,97.259,97.334c2.814,0,5.599-0.126,8.354-0.362
		C55.811,410.646,16.707,368.853,16.707,317.914z"/>
</g>
<g>
	<path style="fill:#0184B8;" d="M339.318,204.491l-91.244,105.586H97.259c-4.328,0-7.837,3.509-7.837,7.837
		c0,4.328,3.509,7.837,7.837,7.837h154.401c2.277,0,4.441-0.991,5.93-2.713l101.236-117.149c0.378-0.438,0.696-0.909,0.961-1.398
		H339.318z"/>
	<polygon style="fill:#0184B8;" points="356.888,135.528 340.2,135.528 360.97,192.383 218.513,192.383 203.786,149.054 
		187.232,149.054 204.012,198.425 95.96,308.127 107.126,319.126 209.656,215.03 244.241,316.785 259.079,311.742 223.84,208.056 
		366.696,208.056 405.588,314.519 420.31,309.141 	"/>
</g>
<ellipse style="fill:#FF9B4B;" cx="97.259" cy="317.911" rx="20.668" ry="20.684"/>
<path style="opacity:0.1;enable-background:new    ;" d="M93.939,317.914c0-8.318,4.918-15.471,11.994-18.755
	c-2.64-1.226-5.572-1.929-8.675-1.929c-11.413,0-20.667,9.261-20.667,20.684c0,11.424,9.254,20.684,20.667,20.684
	c3.102,0,6.033-0.703,8.675-1.929C98.858,333.386,93.939,326.232,93.939,317.914z"/>
<path style="fill:#114B7F;" d="M409.637,101.083h-40.181v15.673h40.181c9.198,0,16.682,7.491,16.682,16.7
	c0,9.209-7.484,16.701-16.682,16.701h-22.633c-4.329,0-7.837,3.509-7.837,7.837c0,4.328,3.508,7.837,7.837,7.837h22.633
	c17.841,0,32.355-14.523,32.355-32.374C441.992,115.605,427.477,101.083,409.637,101.083z"/>
<path style="fill:#868686;" d="M369.456,132.082c0,2.966-2.425,5.394-5.39,5.394h-27.395c-2.963,0-5.389-2.427-5.389-5.394v-10.829
	c0-2.966,2.425-5.394,5.389-5.394h27.395c2.964,0,5.39,2.427,5.39,5.394V132.082z"/>
<path style="fill:#444444;" d="M379.547,110.299c0,5.933-4.851,10.788-10.779,10.788h-36.796c-5.929,0-10.779-4.855-10.779-10.788
	v-2.76c0-5.933,4.851-10.788,10.779-10.788h36.796c5.929,0,10.779,4.855,10.779,10.788V110.299z"/>
<path style="opacity:0.1;enable-background:new    ;" d="M343.711,110.299v-2.76c0-5.933,4.85-10.788,10.778-10.788H331.97
	c-5.929,0-10.779,4.855-10.779,10.788v2.76c0,5.933,4.851,10.788,10.779,10.788h22.519
	C348.561,121.086,343.711,116.232,343.711,110.299z"/>
<ellipse style="fill:#FF9B4B;" cx="414.741" cy="317.911" rx="20.668" ry="20.684"/>
<path style="fill:#868686;" d="M217.617,160.031c0,2.966-2.425,5.394-5.39,5.394h-27.394c-2.963,0-5.39-2.427-5.39-5.394v-10.829
	c0-2.966,2.425-5.394,5.39-5.394h27.394c2.964,0,5.39,2.427,5.39,5.394V160.031z"/>
<path style="fill:#444444;" d="M247.693,138.267c0,5.933-4.85,10.788-10.779,10.788H169.72c-5.928,0-10.778-4.854-10.778-10.788
	v-7.626c0-5.933,4.85-10.788,10.778-10.788h67.194c5.929,0,10.779,4.855,10.779,10.788V138.267z"/>
<path style="opacity:0.1;enable-background:new    ;" d="M181.56,138.267v-7.626c0-5.933,4.85-10.788,10.779-10.788h-22.619
	c-5.928,0-10.778,4.855-10.778,10.788v7.626c0,5.933,4.85,10.788,10.778,10.788h22.619C186.411,149.054,181.56,144.2,181.56,138.267
	z"/>
<ellipse style="fill:#D6D5D6;" cx="251.664" cy="317.911" rx="39.433" ry="39.464"/>
<path style="opacity:0.1;enable-background:new    ;" d="M231.899,317.914c0-18.396,12.578-33.853,29.598-38.226
	c-3.146-0.808-6.441-1.237-9.837-1.237c-21.779,0-39.433,17.668-39.433,39.463c0,21.794,17.655,39.464,39.433,39.464
	c3.396,0,6.69-0.429,9.837-1.238C244.477,351.765,231.899,336.31,231.899,317.914z"/>
<path style="fill:#868686;" d="M259.497,382.509v-60.982c0-4.328-3.509-7.837-7.837-7.837c-4.328,0-7.837,3.509-7.837,7.837v60.982
	H259.497z"/>
<path style="fill:#114B7F;" d="M277.191,394.039c0,2.966-2.425,5.394-5.39,5.394h-40.283c-2.964,0-5.39-2.427-5.39-5.394v-8.68
	c0-2.966,2.425-5.394,5.39-5.394h40.283c2.964,0,5.39,2.427,5.39,5.394V394.039z"/>
<g>
</g>
<g>
</g>
<g>
</g>
<g>
</g>
<g>
</g>
<g>
</g>
<g>
</g>
<g>
</g>
<g>
</g>
<g>
</g>
<g>
</g>
<g>
</g>
<g>
</g>
<g>
</g>
<g>
</g>
</svg>
