<svg id="Line_Color_copy" enable-background="new 0 0 256 256" height="512" viewBox="0 0 256 256" width="512" xmlns="http://www.w3.org/2000/svg"><g><ellipse cx="72.962" cy="88.724" fill="#005696" rx="53.763" ry="53.763" transform="matrix(.965 -.262 .262 .965 -20.671 22.179)"/><path d="m112.4709 83.4834c-2.1464.1847-4.0997-1.2432-4.575-3.3444-1.8893-8.4861-6.614-16.075-13.3952-21.5154-1.8523-1.4959-2.1412-4.2101-.6453-6.0623 1.4959-1.8523 4.2101-2.1412 6.0623-.6454 8.2961 6.6554 14.0763 15.9394 16.3876 26.321.5253 2.3221-.9314 4.6304-3.2535 5.1557h-.0001c-.1913.0433-.3854.0736-.5808.0908z" fill="#fff"/><ellipse cx="55.215" cy="91.754" fill="#fff" rx="25.12" ry="29.248" transform="matrix(.9 -.435 .435 .9 -34.435 33.184)"/><ellipse cx="177.193" cy="113.883" fill="#f29327" rx="59.156" ry="59.156" transform="matrix(.623 -.782 .782 .623 -22.279 181.54)"/><ellipse cx="190.956" cy="99.636" fill="#fff" rx="27.64" ry="32.182" transform="matrix(.468 -.884 .884 .468 13.553 221.782)"/><ellipse cx="101.4" cy="153.424" fill="#4f5153" rx="68.486" ry="68.486" transform="matrix(.628 -.778 .778 .628 -81.669 135.912)"/><path d="m151.729 146.749c-2.7341.2354-5.2223-1.5834-5.8279-4.26-2.4067-10.81-8.4253-20.4772-17.0635-27.4075-2.3731-1.8885-2.766-5.3433-.8775-7.7164s5.3433-2.766 7.7164-.8775c.0205.0163.0408.0327.061.0493 10.568 8.478 17.9311 20.3045 20.8753 33.5291.6691 2.958-1.1864 5.8984-4.1444 6.5676-.0001 0-.0001 0-.0002 0-.2434.055-.4904.0936-.7392.1154z" fill="#fff"/><ellipse cx="85.015" cy="137.378" fill="#fff" rx="37.257" ry="31.999" transform="matrix(.474 -.881 .881 .474 -76.246 147.136)"/><g><path d="m205.0581 72.9985c-7.8227-4.2584-16.9107-5.5783-25.6216-3.7212-8.5366 1.9336-15.3311 6.9521-19.1318 14.1313s-4.1313 15.62-.9316 23.7671c3.3607 8.2479 9.5609 15.0217 17.48 19.0972 5.5233 2.9553 11.6851 4.5161 17.9492 4.5464 11.3145 0 21.7051-5.3247 26.8042-14.9565 7.7763-14.688.3525-33.917-16.5484-42.8643zm12.13 40.5249c-6.4854 12.2515-23.53 15.9878-37.9946 8.3306-6.863-3.5163-12.2423-9.3709-15.1665-16.5063-2.6582-6.7686-2.4111-13.729.6968-19.5991s8.7251-9.9883 15.8174-11.5947c2.152-.4844 4.3513-.7274 6.5571-.7246 5.4537.0377 10.8158 1.4068 15.62 3.9883 14.4643 7.6576 20.9555 23.8544 14.4697 36.1058z"/><g><path d="m238.4561 106.94c-3.8343-33.835-34.3713-58.1554-68.2063-54.3211-16.2481 1.8413-31.3748 10.0061-42.301 24.1928-6.8238-32.1867-39.7283-50.5112-69.7172-42.3741s-47.7033 39.0442-39.5662 69.0331c2.7272 10.0509 8.1905 19.1477 15.7816 26.2774-13.0567 36.9915 6.3463 77.5636 43.3378 90.6203 46.0902 15.5067 82.9652-15.9933 91.2324-45.3976 21.4785 2.8653 42.8866-5.7418 56.4042-22.6772 10.2277-12.7703 14.9214-29.1016 13.0347-45.3536zm-214.9717-4.8047c-7.4014-27.327 8.7516-55.4799 36.0786-62.8812s55.4799 8.7516 62.8812 36.0785c.6703 2.4748 1.154 4.9964 1.4469 7.5436-.5298.9067-1.0359 1.8237-1.5183 2.751-1.855-.5712-3.7245-1.0653-5.6086-1.4822.4197-.3929 2.7358-2.645 1.9795-6.46-2.4336-10.9311-8.52-20.7065-17.2554-27.7139-2.9306-2.3581-7.2179-1.8939-9.576 1.0367-2.3521 2.9232-1.8971 7.1981 1.0177 9.5607 6.3421 5.0882 10.761 12.1859 12.5278 20.1226.1607.6902.4293 1.3506.796 1.957-8.109-.5434-16.2513.2987-24.0775 2.49-.5536-1.8551-1.2543-3.6631-2.0955-5.4067-7.6208-15.7592-24.9748-23.1899-38.6858-16.559-6.8296 3.3944-11.8057 9.6387-13.59 17.0537-1.9899 7.9025-1.0872 16.2562 2.545 23.5512 2.4009 5.0275 5.9585 9.4148 10.3814 12.8027-1.594 2.6119-3.0168 5.3245-4.2595 8.1207-6.211-6.2696-10.6864-14.0454-12.9875-22.5654zm88.7721-21.1421c-.4544.2868-1.819-.4307-1.9219-1.4053-2.0118-9.0359-7.0427-17.1164-14.2633-22.9092-.7781-.6283-.8996-1.7685-.2712-2.5466 1.2625-1.3195 2.5466-.2713 2.5466-.2713 7.8571 6.3029 13.3314 15.0956 15.52 24.9277.1333 1.899-1.528 2.1975-1.6102 2.2047zm-60.3755-8.8119c-9.4251.3087-15.218 9.8252-16.4526 13.8987l4.754 5.7871c.51-4.687 4.7884-11.1528 9.4637-11.2606 1.501-.0969 6.2976 1.7908 4.6716 9.7945-.2672 2.0405-2.5135 8.3015-2.5991 12.3392-1.9633 1.9191-5.0311 5.2598-8.2166 9.635-3.6753-2.8773-6.6362-6.5649-8.6514-10.7751-3.1113-6.2191-3.8962-13.3457-2.2129-20.0928 4.0498-14.6948 16.5195-15.7802 19.4771-15.7695 9.1685 0 18.5981 6.1055 23.4648 16.17.7361 1.5244 1.348 3.1056 1.83 4.7283-6.0868 2.1796-11.8455 5.1847-17.1148 8.931.2369-.7864 2.4552-7.3171 2.3191-10.831-.4424-10.9218-9.0531-12.7377-10.7329-12.5548zm100.8534 122.7025c-22.9003 28.326-64.4274 32.7245-92.7534 9.8242s-32.7244-64.4274-9.8242-92.7534c22.8842-28.3062 64.3737-32.7214 92.7026-9.8652 28.3155 22.5608 32.9807 63.8042 10.4198 92.1198-.1801.2261-.3617.4509-.5448.6746zm17.6415-24.7481c8.3814-34.5371-10.0819-69.9473-43.1975-82.8474 14.6882-27.6252 48.9901-38.1127 76.6152-23.4245s38.1127 48.99 23.4245 76.6152c-1.9681 4.021-19.9681 33.771-56.8422 29.6567z"/><path d="m174.9185 86.544c.16 5.53-1.9075 12.0571-2.8623 14.53l6.343 4.7344c1.7323-2.9908 2.6621-6.3786 2.6992-9.8346l26.4686 19.7564 5.8662-7.8593-34.9576-26.0923z"/><path d="m137.3091 104.5918c-3.4336-2.7732-8.4651-2.2378-11.2383 1.1958s-2.2378 8.4651 1.1958 11.2383c8.199 6.5782 13.9116 15.754 16.1958 26.0146.8335 3.6354 4.3709 6.9595 9.5576 6.031 4.3046-.9734 7.0052-5.252 6.0318-9.5566 0-.0002-.0001-.0003-.0001-.0005-3.0665-13.7742-10.7355-26.0922-21.7426-34.9226zm14.6103 39.6022c-2.1694.2227-3.2444-.8042-3.5796-2.2573-2.5288-11.3598-8.8535-21.5187-17.9312-28.8013-1.2854-1.0381-1.4859-2.9217-.4478-4.207s2.9217-1.4859 4.207-.4478c10.1287 8.1257 17.1857 19.4607 20.0073 32.1357.1775.7742-.0863 3.355-2.2557 3.5777z"/><path d="m103.8555 102.3687c-8.1777-4.4009-17.83-4.8423-27.1787-1.2451-19.4262 8.0303-30.5116 28.6289-26.5132 49.2656 2.1455 9.7842 7.8315 17.5962 16.01 21.998 5.0764 2.5503 14.9514 6.1128 27.1787 1.2452 19.4264-8.0301 30.512-28.6288 26.5132-49.2656-2.1455-9.7843-7.8313-17.5963-16.01-21.9981zm7.1348 48.9893c-4.1693 8.0004-11.0624 14.246-19.4341 17.6084-7.9658 3.0654-16.1382 2.7178-23.0132-.9824s-11.667-10.3286-13.4956-18.6655c-3.4691-18.2238 6.305-36.3855 23.4257-43.5285 10.9644-4.1025 19.2471-1.0386 23.0132.9824 6.874 3.6992 11.667 10.3286 13.4956 18.666 1.8048 8.8394.3889 18.0328-3.9919 25.9195z"/><path d="m95.5057 113.0959c-11.8182-5.2834-18.4884 1.3043-20.5158 5.61-2.0527 4.2884-1.3724 9.1745 1.8509 13.52-6.8166-.0472-11.8077 2.8047-14.371 8.16-1.6617 3.4755-3.8448 13.4266 9.5806 20.2744 13.1996 5.8397 20.2268-1.3802 22.4434-6.0578 2.4923-5.2065 1.4249-10.8568-2.9958-15.9957 7.1895-.1693 10.6686-4.3278 12.1007-7.3194 2.6857-5.6101 1.2985-13.6958-8.093-18.1915zm-8.5057 38.69c-1.1852 2.6232-5.3125 6.7766-12.1997 3.4895-7.4878-3.9629-5.7773-10.2336-4.6658-12.248 1.803-3.5274 5.4905-6.2774 11.8863-5.1571 5.7199 5.0887 7.2087 9.257 4.9792 13.9156zm9.4536-23.1485c-1.3919 2.7815-4.4536 5.3626-10.1136 4.6326-4.8237-4.1646-6.2131-7.8974-4.374-11.7385 1.0475-2.3577 4.7215-5.9065 10.6141-3.2206 6.2949 3.0641 4.7405 8.6244 3.873 10.3266z"/></g></g></g></svg>