<?xml version="1.0" encoding="UTF-8"?>
<svg id="Layer_2" data-name="Layer 2" xmlns="http://www.w3.org/2000/svg" viewBox="0 0 203.81 184.73">
  <defs>
    <style>
      .cls-1 {
        fill: #fff;
      }

      .cls-2 {
        fill: #bd0d12;
      }

      .cls-3 {
        fill: #c0403a;
      }

      .cls-4 {
        fill: #a01311;
      }

      .cls-5 {
        fill: #a41211;
      }

      .cls-6 {
        fill: #e34017;
      }

      .cls-7 {
        fill: #500000;
      }

      .cls-8 {
        fill: #e0040b;
      }

      .cls-9 {
        fill: #2a0000;
      }

      .cls-10 {
        fill: #7d0f07;
      }

      .cls-11 {
        fill: #390000;
      }
    </style>
  </defs>
  <g id="Capa_1" data-name="Capa 1">
    <g>
      <g>
        <path class="cls-4" d="m119.13,143.18l-74.57,13.75-8.41-45.62s18.16,3.45,38.33-.27c21.11-3.89,36.23-13.48,36.23-13.48l8.41,45.63Z"/>
        <path class="cls-10" d="m43.71,152.29l.86,4.64,74.57-13.75-8.41-45.63s-2.21,1.4-6.11,3.35c18.23,44.53-44.91,50.57-60.9,51.38Z"/>
        <rect class="cls-9" x="79.12" y="142.63" width="6.89" height="7.23" transform="translate(-25.17 17.42) rotate(-10.46)"/>
        <path class="cls-7" d="m95.93,1.8c-14.49-2.65-38.79-2.34-55.31.7-2.59.48-4.96,1.02-7.06,1.61-13.83,3.88-21.37,8.15-24.45,13.86-1.49,2.77-1.9,5.85-1.23,9.18-3.26,2.32-10.66,9.62-6.8,26.3,4.2,18.2,10.6,37.17,27.48,46.05,2.37,1.24,3.25,3.45,4.86,6.57.67,1.3,2.81,5.69,2.81,5.69l9.23.28c7.17.55,17.35.98,29.01-1.17,11.53-2.12,21.04-6.27,27.25-9.11l9.05-3.74s1.64-6.57,1.98-8.3c.56-2.86,4.65-32.23,5.95-48.6,1.38-17.24-5.13-36.09-22.77-39.32Z"/>
        <path class="cls-8" d="m95.47,4.21c-16.15-2.95-45.39-2.19-61.26,2.26-15.88,4.45-27.19,10.25-23.5,21.83,0,0-11.73,5.17-7.25,24.6,4.49,19.43,10.95,37.13,26.41,45.27,3.59,1.89,4.39,5.98,6.36,13.59l9.14,1.1c7.2.55,17.88.72,29.19-1.37,11.02-2.03,20.4-5.61,26.86-8.58l9.34-4.9.48-6.69s3.67-33.76,4.99-50.4c1.33-16.64-4.81-33.79-20.77-36.71Z"/>
        <path class="cls-2" d="m29.62,98.08c.06.04.12.07.19.1,3.6,1.89,4.39,5.98,6.36,13.59l9.14,1.1c7.2.55,17.88.72,29.19-1.36,11.02-2.03,20.4-5.61,26.86-8.58l9.34-4.9.48-6.69s3.67-33.76,5-50.4c1.02-12.81-2.39-25.91-11.28-32.6,10.58,83.06-51.91,90-75.28,89.74Z"/>
        <path class="cls-11" d="m37.03,116.08c-2.39.81-3.96,2.55-3.66,4.22.31,1.67,2.4,2.73,4.92,2.63l-1.26-6.85Z"/>
        <path class="cls-7" d="m121.31,142.78c.22,1.19-.57,2.33-1.75,2.55l-74.64,13.76c-1.19.22-2.33-.57-2.55-1.75h0c-.22-1.19.57-2.33,1.75-2.54l74.64-13.76c1.19-.22,2.33.57,2.55,1.75h0Z"/>
        <path class="cls-7" d="m104.8,135.4c.62,3.35-1.6,6.56-4.94,7.17l-54.51,10.05c-3.35.62-6.32-1.64-6.93-4.98l-5.13-27.82s1.14,3.76,6.53,2.77l54.51-10.05c3.35-.62,6.56,1.59,7.17,4.94l3.3,17.92Z"/>
        <path class="cls-8" d="m100.43,134.03c.48,2.6-1.24,5.11-3.85,5.58l-53.16,9.8c-2.61.48-4.92-1.28-5.4-3.88l-3.99-21.66s.89,2.93,5.08,2.16l53.15-9.8c2.61-.48,5.11,1.24,5.59,3.85l2.57,13.95Z"/>
        <g>
          <path class="cls-5" d="m34.07,123.97c-.02-.05-.03-.09-.03-.09l.02.09s.01,0,.02,0Z"/>
          <path class="cls-5" d="m93.61,116.18c.32.51.56,1.08.68,1.71l2.57,13.95c.48,2.6-1.24,5.11-3.85,5.58l-53.16,9.8c-.4.07-.78.09-1.16.06.98,1.58,2.77,2.49,4.73,2.12l53.16-9.8c2.6-.48,4.32-2.98,3.85-5.58l-2.57-13.95c-.4-2.15-2.17-3.69-4.24-3.9Z"/>
        </g>
        <path class="cls-6" d="m9.89,64.92s-4.68-12.27-4.39-19.94c.42-10.92,4.46-12.87,7.02-12.22,4.59,1.16,4.46,6.37.55,13.09-3.47,5.96-4.36,13.95-3.18,19.06Z"/>
        <g>
          <path class="cls-7" d="m7.35,30.72c2.49-2.2,7.4-.48,9.74.93,3.84,2.31,3.35,8.57,3.64,12.39.29,3.75,1.14,7.55,1.76,11.27.64,3.85,1.54,7.74,3.75,11.02.76,1.12,2.34-.26,1.59-1.37-2.97-4.4-3.31-10.26-4.1-15.36-.73-4.69-.76-9.63-1.85-14.24-1.38-5.83-10.84-10.69-15.9-6.23-1.01.89.35,2.49,1.37,1.59h0Z"/>
          <path class="cls-7" d="m22.55,50.47s-5.8.36-6.92,3.94c0,0,3.27-2.78,7.33-1.71l-.41-2.24Z"/>
          <path class="cls-7" d="m23.53,60.12s.99,2.97-.72,4.53c0,0,1.61-1.05,2.16-2.27l-1.44-2.27Z"/>
          <path class="cls-7" d="m21.12,42.68s-3.95-.92-5.12,2.37c0,0,2.82-2.56,5.41-.78l-.29-1.59Z"/>
        </g>
        <path class="cls-6" d="m79.47,121.44c-.95-1.96-19.8,4.48-28,5.64-8.2,1.16-15.84-.75-13.33,3.41,2.51,4.16.89,10.09,1.69,10.59,1.79,1.13,2.79-4.13,4.08-7.42,1.29-3.29,38.79-5.59,35.57-12.22Z"/>
        <g>
          <path class="cls-3" d="m43.63,157.1l-.69.12c-.19.04-.37-.09-.41-.28-.04-.19.09-.37.28-.41l.69-.13c.19-.03.37.09.41.28.04.19-.09.37-.28.41Z"/>
          <path class="cls-3" d="m118.19,143.35l-1.38.25c-.19.04-.37-.09-.41-.28-.03-.19.09-.37.28-.41l1.38-.25c.19-.04.37.09.41.28.03.19-.09.37-.28.41Zm-2.76.51l-1.38.25c-.19.04-.37-.09-.41-.28-.03-.19.09-.37.28-.41l1.38-.26c.19-.03.37.09.41.28.03.19-.09.37-.28.41Zm-2.76.51l-1.38.25c-.19.04-.37-.09-.41-.28-.04-.19.09-.37.28-.41l1.38-.25c.19-.03.37.09.41.28.04.19-.09.37-.28.41Zm-2.76.51l-1.38.26c-.19.03-.37-.09-.41-.28-.04-.19.09-.37.28-.41l1.38-.25c.19-.04.37.09.41.28.04.19-.09.37-.28.41Zm-2.76.51l-1.38.25c-.19.03-.37-.09-.41-.28-.03-.19.09-.37.28-.41l1.38-.25c.19-.04.37.09.41.28.04.19-.09.37-.28.41Zm-2.76.51l-1.38.26c-.19.04-.37-.09-.41-.28-.04-.19.09-.37.28-.41l1.38-.25c.19-.04.37.09.41.28.04.19-.09.37-.28.41Zm-2.76.51l-1.38.25c-.19.03-.37-.09-.41-.28-.04-.19.09-.37.28-.41l1.38-.25c.19-.04.37.09.41.28.04.19-.09.37-.28.41Zm-2.76.51l-1.38.25c-.19.04-.37-.09-.41-.28-.04-.19.09-.37.28-.41l1.38-.25c.19-.04.37.09.41.28.03.19-.09.37-.28.41Zm-2.76.51l-1.38.26c-.19.03-.37-.09-.41-.28-.04-.19.09-.37.28-.41l1.38-.25c.19-.04.37.09.41.28.03.19-.09.37-.28.41Zm-2.76.51l-1.38.25c-.19.04-.37-.09-.41-.28-.03-.19.09-.37.28-.41l1.38-.25c.19-.04.37.09.41.28.03.19-.09.37-.28.41Zm-2.76.51l-1.38.26c-.19.04-.37-.09-.41-.28-.04-.19.09-.37.28-.41l1.38-.25c.19-.03.37.09.41.28.04.19-.09.37-.28.41Zm-2.76.51l-1.38.25c-.19.04-.37-.09-.41-.28-.03-.19.09-.37.28-.41l1.38-.26c.19-.04.37.09.41.28.04.19-.09.37-.28.4Zm-2.76.51l-1.38.25c-.19.04-.37-.09-.41-.28-.03-.19.09-.37.28-.41l1.38-.25c.19-.04.37.09.41.28.04.19-.09.37-.28.41Zm-2.76.51l-1.38.25c-.19.04-.37-.09-.41-.28-.03-.19.09-.37.28-.41l1.38-.25c.19-.04.37.09.41.28.04.19-.09.37-.28.41Zm-2.76.51l-1.38.25c-.19.04-.37-.09-.41-.28-.04-.19.09-.37.28-.41l1.38-.25c.19-.04.37.09.41.28.04.19-.09.37-.28.41Zm-2.76.51l-1.38.26c-.19.04-.37-.09-.41-.28-.04-.19.09-.37.28-.41l1.38-.26c.19-.03.37.09.41.28.03.19-.09.37-.28.41Zm-2.76.51l-1.38.25c-.19.04-.37-.09-.41-.28-.03-.19.09-.37.28-.41l1.38-.25c.19-.04.37.09.41.28.04.19-.09.37-.28.41Zm-2.76.51l-1.38.25c-.19.04-.37-.09-.41-.28-.04-.19.09-.37.28-.41l1.38-.25c.19-.03.37.09.41.28.03.19-.09.38-.28.41Zm-2.76.51l-1.38.25c-.19.04-.37-.09-.41-.28-.04-.19.09-.37.28-.41l1.38-.25c.19-.03.37.09.41.28.04.19-.09.37-.28.41Zm-2.76.51l-1.38.25c-.19.03-.37-.09-.41-.28-.04-.19.09-.37.28-.41l1.38-.25c.19-.04.37.09.41.28.04.19-.09.37-.28.41Zm-2.76.51l-1.38.25c-.19.04-.37-.09-.41-.28-.04-.19.09-.37.28-.41l1.38-.25c.19-.04.37.09.41.28.04.19-.09.37-.28.41Zm-2.76.51l-1.38.26c-.19.03-.37-.09-.41-.28-.04-.19.09-.37.28-.41l1.38-.25c.19-.04.37.09.41.28.04.19-.09.37-.28.4Zm-2.76.51l-1.38.25c-.19.03-.37-.09-.41-.28-.04-.19.09-.37.28-.41l1.38-.25c.19-.04.37.09.41.28.03.19-.09.37-.28.41Zm-2.76.51l-1.38.25c-.19.03-.37-.09-.41-.28-.03-.19.09-.37.28-.41l1.38-.25c.19-.03.37.09.41.28.04.19-.09.37-.28.41Zm-2.76.51l-1.38.26c-.19.03-.37-.09-.41-.28-.04-.19.09-.37.28-.41l1.38-.25c.19-.04.37.09.41.28.03.19-.09.37-.28.41Zm-2.76.51l-1.38.25c-.19.04-.37-.09-.41-.28-.03-.19.09-.37.28-.41l1.38-.26c.19-.04.37.09.41.28.04.19-.09.37-.28.41Zm-2.76.51l-1.38.25c-.19.04-.37-.09-.41-.28-.04-.19.09-.37.28-.41l1.38-.25c.19-.04.37.09.41.28.03.19-.09.37-.28.41Z"/>
          <path class="cls-3" d="m120.26,142.97l-.69.13c-.19.04-.37-.09-.41-.28-.04-.19.09-.37.28-.41l.69-.13c.19-.04.37.09.41.28.03.19-.09.37-.28.41Z"/>
        </g>
        <path class="cls-9" d="m119.76,141.06c.19.26.34.56.4.9.22,1.19-.57,2.33-1.75,2.55l-74.64,13.76c-.34.06-.68.03-.99-.06.48.65,1.3,1.01,2.14.85l74.64-13.76c1.19-.22,1.97-1.36,1.75-2.54-.16-.85-.78-1.48-1.56-1.7Z"/>
        <path class="cls-7" d="m102.96,25.51c-.96-.59-2.27-.76-3.42-.52-.04-.92-.08-1.84-.15-2.74-.11-1.32-2.18-1.33-2.07,0,.79,9.82-.67,19.9-6.19,28.25-7.55,11.41-22.56,16.11-35.68,15.53-15.23-.68-28.59-12.5-32.86-26.94-.38-1.28-2.37-.73-1.99.55,4.61,15.56,18.64,27.4,34.86,28.46,13.55.89,28.3-4.43,36.63-15.39,5.51-7.24,7.52-16.56,7.5-25.59,4.22-1.44,4.51,5.46,4.41,8.09-.05,1.33,2.02,1.33,2.07,0,.13-3.26.04-7.75-3.11-9.69Z"/>
        <path class="cls-2" d="m86.16,111.25l-4.57-24.81c-.99-5.37-6.14-8.91-11.51-7.92-5.37.99-8.91,6.14-7.92,11.51l4.57,24.81,19.43-3.58Z"/>
        <path class="cls-7" d="m70.08,78.51c-5.37.99-8.91,6.14-7.92,11.51l4.57,24.81,1.66-.31-4.56-24.73c-.82-4.45,2.12-8.72,6.58-9.54,4.45-.82,8.73,2.12,9.55,6.57l4.56,24.72,1.66-.3-4.57-24.81c-.99-5.37-6.14-8.91-11.51-7.92Z"/>
        <path class="cls-7" d="m79.62,111.28l-4.45-24.12c-.34-1.87-2.14-3.11-4.01-2.76-1.87.35-3.11,2.14-2.76,4.01l4.45,24.12,6.77-1.25Z"/>
        <path class="cls-9" d="m77.12,111.74l-4.48-24.3c-.09-.49-.56-.82-1.06-.73-.49.09-.82.56-.73,1.06l4.48,24.3,1.79-.33Z"/>
        <path class="cls-7" d="m36.22,111.7l.66,3.58,7.89.95c7.44.57,18.48.75,30.17-1.41,11.39-2.1,21.09-5.8,27.76-8.86l8.72-4.57-.63-3.43s-15.13,9.59-36.23,13.48c-20.17,3.72-38.33.27-38.33.27Z"/>
        <g>
          <path class="cls-3" d="m37.88,113.82s-.05,0-.08,0l-.68-.08c-.14-.02-.24-.15-.23-.29.02-.14.14-.24.29-.22l.68.08c.14.02.24.15.23.29-.01.12-.1.21-.21.22Z"/>
          <path class="cls-3" d="m74.68,113.33l-.27.05c-.14.03-.27-.07-.3-.21-.03-.14.07-.28.21-.3h0l.27-.05c.36-.07.71-.13,1.06-.2.14,0,.28.06.3.21.03.14-.06.28-.2.3-.35.07-.71.14-1.07.2Zm-1.61.29h0c-.45.08-.9.15-1.35.22-.14.02-.27-.08-.3-.22-.02-.14.06-.28.22-.3.45-.07.89-.14,1.34-.21.14-.02.27.07.3.22.02.14-.07.27-.21.3Zm4-.75c-.14.02-.27-.07-.3-.2-.03-.14.06-.28.2-.31.44-.09.89-.19,1.32-.29.17-.03.28.06.31.2.03.14-.06.28-.2.31-.44.1-.88.19-1.33.29,0,0,0,0,0,0Zm-6.69,1.16s0,0-.01,0c-.45.06-.9.12-1.35.18-.14.02-.27-.08-.29-.22-.02-.14.08-.28.22-.29.45-.06.89-.12,1.34-.18.14-.02.27.08.29.22.02.14-.07.27-.21.29Zm9.34-1.75c-.13.03-.27-.06-.3-.19-.03-.14.05-.28.19-.31.44-.11.88-.21,1.32-.32.14-.04.28.05.31.19.04.14-.05.28-.19.31-.44.11-.88.21-1.32.32,0,0,0,0-.01,0Zm-12.04,2.09s-.01,0-.02,0c-.45.05-.9.1-1.35.14-.14.01-.27-.09-.28-.23-.01-.14.09-.27.23-.29.45-.04.89-.09,1.35-.14.14-.02.27.09.29.23.02.14-.08.26-.21.28Zm14.68-2.75c-.13.03-.26-.06-.3-.19-.04-.14.05-.28.18-.31.44-.12.88-.23,1.31-.35.13-.04.28.04.32.18.04.14-.04.28-.18.32-.43.12-.87.24-1.31.35,0,0-.01,0-.02,0Zm-17.38,3.01s-.02,0-.03,0c-.45.04-.91.08-1.36.11-.14.01-.27-.1-.28-.24-.01-.14.09-.27.24-.28.45-.04.9-.07,1.35-.11.14-.01.27.09.28.24.01.13-.08.25-.21.28Zm20-3.73c-.13.02-.26-.06-.29-.19-.04-.14.04-.28.18-.32.44-.13.87-.25,1.3-.38.14-.04.28.04.32.18.04.14-.04.28-.17.32-.43.13-.87.26-1.31.38,0,0-.02,0-.02,0Zm-22.71,3.93s-.02,0-.03,0c-.46.03-.91.05-1.36.08-.14,0-.26-.1-.27-.25,0-.14.1-.26.24-.27.45-.02.9-.05,1.36-.08.14,0,.26.1.27.25,0,.13-.08.25-.21.27Zm25.31-4.71c-.13.02-.25-.05-.29-.18-.04-.14.03-.28.17-.32.44-.14.86-.27,1.29-.41.14-.05.28.03.33.17.04.14-.03.28-.16.33-.43.14-.86.28-1.3.42,0,0-.02,0-.03,0Zm-28.03,4.86s-.02,0-.04,0c-.46.02-.91.03-1.36.05-.14,0-.26-.11-.27-.25,0-.14.11-.26.25-.27.45-.01.9-.03,1.36-.05.14,0,.26.1.27.25,0,.13-.09.24-.21.27Zm30.61-5.7c-.12.02-.25-.05-.29-.17-.04-.13.03-.28.16-.33.43-.15.86-.3,1.28-.44.14-.05.28.02.33.16.05.14-.02.28-.16.33-.42.15-.85.3-1.29.44-.01,0-.03,0-.04,0Zm-33.33,5.77s-.03,0-.04,0c-.46,0-.91.01-1.36.02-.14,0-.26-.11-.26-.26,0-.14.11-.26.26-.26.45,0,.9,0,1.36-.01.14,0,.26.11.26.25,0,.13-.09.24-.21.26Zm35.89-6.67c-.12.02-.25-.05-.29-.17-.05-.13.02-.28.16-.33.43-.16.85-.31,1.27-.47.13-.05.28.02.33.15.05.13-.02.28-.15.33-.42.16-.84.32-1.28.47-.01,0-.03,0-.04.01Zm-38.61,6.68s-.03,0-.05,0c-.46,0-.91,0-1.36-.02-.14,0-.26-.12-.25-.26,0-.14.12-.26.26-.26.45,0,.9.01,1.35.01.14,0,.26.12.26.26,0,.13-.09.23-.21.25Zm41.15-7.64c-.12.02-.24-.04-.29-.16-.05-.14.02-.29.15-.34.43-.16.85-.33,1.26-.5.13-.05.28.01.34.15.05.13-.01.29-.14.34-.42.17-.84.33-1.27.5-.01,0-.03,0-.05.01Zm-43.87,7.6s-.04,0-.05,0c-.46-.01-.92-.03-1.36-.04-.14,0-.25-.12-.25-.27,0-.14.13-.25.27-.25.44.02.9.03,1.36.04.14,0,.25.12.25.27,0,.12-.1.23-.21.25Zm46.39-8.61c-.12.02-.24-.04-.29-.16-.06-.13,0-.29.14-.34.43-.18.84-.35,1.25-.53.13-.06.29,0,.34.14.06.13,0,.28-.14.34-.41.18-.83.35-1.26.53-.02,0-.03.01-.05.01Zm-49.11,8.51s-.04,0-.06,0c-.46-.02-.92-.05-1.36-.07-.14,0-.25-.13-.24-.27,0-.14.13-.25.27-.25.44.03.89.05,1.35.07.14,0,.25.13.25.27,0,.12-.09.22-.21.24Zm51.61-9.58c-.11.02-.23-.04-.28-.15-.06-.13,0-.29.13-.34.42-.19.84-.37,1.24-.56.13-.06.28,0,.34.13.06.13,0,.29-.13.35-.4.18-.82.37-1.24.56-.02,0-.04.01-.06.02Zm-54.32,9.42s-.04,0-.07,0c-.34-.02-.68-.05-1.01-.08l-.36-.04c-.14-.02-.24-.15-.23-.29.02-.14.14-.25.29-.23l.34.04c.32.03.66.05,1,.07.14.01.25.13.24.28,0,.12-.1.22-.21.24Zm56.78-10.58c-.11.02-.22-.03-.28-.14-.07-.13-.02-.29.11-.35l1.2-.64c.12-.06.28-.01.35.11.07.13.02.28-.11.35l-1.2.63s-.05.02-.07.03Zm-59.48,10.3s-.05,0-.08,0l-1.35-.17c-.14-.02-.24-.15-.23-.29.02-.14.15-.25.29-.23l1.35.16c.14.02.24.15.23.29-.01.12-.1.21-.21.22Zm61.89-11.57c-.11.02-.22-.03-.27-.13-.07-.13-.02-.29.11-.35l1.2-.63c.13-.07.28-.02.35.11.07.13.02.28-.11.35l-1.2.63s-.05.02-.07.02Zm-64.59,11.24s-.05,0-.08,0l-1.35-.16c-.14-.02-.24-.15-.23-.29.02-.14.14-.25.29-.23l1.35.17c.14.02.24.15.23.29-.01.11-.1.2-.21.22Zm66.99-12.51c-.11.02-.22-.03-.27-.14-.07-.12-.02-.28.11-.35l1.2-.63c.13-.07.28-.02.35.11.07.13.02.29-.11.35l-1.2.63s-.05.02-.07.03Z"/>
          <path class="cls-3" d="m109.98,100.38c-.11.02-.22-.03-.27-.14-.07-.13-.02-.28.11-.35l.61-.32c.13-.06.28-.02.35.11.07.13.02.28-.11.35l-.61.32s-.05.02-.07.03Z"/>
        </g>
        <path class="cls-3" d="m84.74,108.04c-.17.03-.34-.08-.37-.26l-.24-1.27c-.03-.18.08-.34.26-.37.17-.03.34.08.37.26l.24,1.27c.03.18-.08.34-.26.37Zm-17.83,3.27c-.17.04-.34-.08-.37-.26l-.23-1.27c-.03-.18.08-.34.26-.38.17-.03.34.08.37.26l.23,1.27c.03.17-.08.34-.26.37Zm17.36-5.8c-.17.03-.34-.08-.37-.25l-.23-1.27c-.03-.17.08-.34.26-.38.17-.03.34.08.37.26l.23,1.27c.03.17-.08.34-.26.37Zm-17.83,3.27c-.18.03-.34-.08-.37-.26l-.23-1.27c-.03-.17.08-.34.26-.37.18-.03.34.08.37.26l.23,1.27c.03.17-.08.34-.26.37Zm17.36-5.8c-.18.03-.34-.08-.37-.26l-.24-1.27c-.03-.17.08-.34.26-.37.17-.03.34.09.37.26l.23,1.27c.03.17-.08.34-.26.37Zm-17.83,3.27c-.17.03-.34-.08-.37-.26l-.23-1.27c-.03-.17.08-.34.26-.38.18-.03.34.08.37.26l.23,1.27c.03.17-.08.34-.26.37Zm17.36-5.8c-.17.03-.34-.08-.37-.26l-.23-1.27c-.03-.17.08-.34.26-.37.17-.03.34.08.37.26l.23,1.27c.03.18-.08.34-.26.37Zm-17.83,3.27c-.17.03-.34-.08-.37-.26l-.23-1.27c-.03-.17.08-.34.26-.38.17-.03.34.09.37.26l.23,1.27c.03.17-.08.34-.26.37Zm17.36-5.8c-.18.03-.34-.08-.38-.26l-.23-1.27c-.03-.17.08-.34.26-.38.17-.03.34.08.37.26l.23,1.26c.03.18-.08.34-.26.37Zm-17.83,3.27c-.18.03-.34-.08-.37-.26l-.23-1.27c-.03-.17.08-.34.26-.37.17-.03.34.08.37.26l.23,1.27c.03.17-.08.34-.26.37Zm17.36-5.8c-.17.03-.34-.08-.37-.26l-.23-1.27c-.03-.17.08-.34.26-.37.18-.03.34.08.37.26l.24,1.27c.03.18-.08.34-.26.38Zm-17.83,3.27c-.18.03-.34-.08-.37-.26l-.23-1.27c-.03-.18.08-.34.26-.38.17-.03.34.08.37.26l.23,1.27c.03.18-.08.34-.26.37Zm17.36-5.8c-.17.03-.34-.08-.37-.26l-.23-1.27c-.03-.18.08-.34.26-.38.18-.03.34.08.37.26l.24,1.27c.03.17-.08.34-.26.37Zm-17.83,3.27c-.17.03-.34-.08-.37-.26l-.23-1.27c-.03-.18.08-.34.26-.38.17-.03.34.08.37.26l.23,1.27c.03.18-.08.34-.26.38Zm17.36-5.8c-.17.03-.34-.08-.37-.26l-.23-1.26c-.03-.17.08-.34.26-.37.18-.03.34.08.37.26l.23,1.27c.03.17-.08.34-.26.37Zm-17.83,3.27c-.17.03-.34-.08-.37-.26l-.23-1.27c-.03-.17.08-.34.26-.38.17-.03.34.08.37.26l.23,1.27c.03.17-.08.34-.26.37Zm17.36-5.81c-.18.03-.34-.08-.37-.26l-.11-.58c-.04-.22-.09-.44-.15-.66-.05-.17.06-.35.23-.39.18-.05.35.06.39.23.06.23.11.47.16.71l.11.58c.03.17-.08.34-.26.37Zm-17.83,3.27c-.17.03-.34-.08-.37-.26l-.1-.56c-.04-.25-.08-.49-.11-.73-.02-.17.11-.34.29-.35.18-.02.33.11.35.28.02.23.06.46.1.68l.1.56c.03.17-.08.34-.26.37Zm17.15-5.75c-.14.03-.29-.05-.35-.19-.16-.38-.35-.75-.57-1.11-.09-.15-.04-.35.11-.44.15-.09.35-.04.44.11.23.38.43.78.61,1.19.07.16,0,.35-.17.42-.02,0-.05.02-.07.02Zm-17.4,3.19s-.05,0-.07,0c-.18,0-.32-.16-.31-.33.02-.44.07-.89.14-1.33.03-.17.2-.29.37-.26.18.03.29.2.26.37-.07.41-.12.82-.14,1.23,0,.15-.12.28-.26.3Zm16.07-5.39c-.11.02-.23-.02-.31-.11-.26-.32-.55-.62-.85-.9-.13-.12-.14-.32-.02-.45.12-.13.32-.14.45-.02.33.3.64.63.92.97.11.14.09.34-.04.45-.04.04-.09.06-.15.07Zm-15.61,2.87c-.05,0-.11,0-.16-.01-.17-.06-.26-.24-.2-.41.14-.42.31-.83.51-1.23.08-.16.27-.22.43-.14.16.08.22.27.14.43-.19.37-.35.76-.48,1.15-.04.11-.13.19-.25.21Zm13.72-4.6c-.08.02-.17,0-.24-.05-.34-.23-.7-.45-1.07-.63-.16-.08-.22-.27-.15-.43.08-.16.27-.23.43-.15.4.2.78.42,1.15.67.15.1.18.3.08.45-.05.07-.12.12-.21.13Zm-12.56,2.31c-.08.02-.17,0-.24-.05-.15-.1-.18-.3-.08-.45.25-.37.54-.71.84-1.04.12-.13.32-.13.45-.02.13.12.14.33.02.45-.28.3-.54.63-.78.97-.05.07-.12.12-.2.13Zm10.26-3.44c-.05.01-.1,0-.16,0-.4-.13-.8-.23-1.2-.3-.17-.03-.29-.2-.26-.37.03-.17.2-.29.37-.26.44.08.87.18,1.29.32.17.06.26.24.21.4-.04.12-.13.2-.25.22Zm-8.51,1.56c-.11.02-.23-.02-.31-.11-.11-.14-.09-.34.05-.45.35-.28.72-.54,1.1-.76.15-.09.35-.04.44.11.09.15.04.35-.11.44-.35.21-.7.45-1.02.71-.04.04-.09.06-.15.07Zm5.98-2.01s-.05,0-.07,0c-.41-.01-.83,0-1.24.05-.18.02-.33-.11-.35-.28-.02-.18.1-.34.28-.35.44-.05.89-.07,1.33-.06.18,0,.32.15.31.33,0,.15-.12.28-.26.3Zm-3.77.69c-.14.03-.3-.05-.35-.19-.07-.16.01-.35.17-.42.41-.17.83-.31,1.26-.42.17-.04.35.06.39.23.04.17-.06.35-.23.39-.4.1-.8.24-1.18.39-.02,0-.04.01-.07.02Z"/>
        <path class="cls-7" d="m116.57,50.23s-3.16-2.36-9.23-3.15c0,0,7.01,2,8.47,8.02l.76-4.87Z"/>
        <path class="cls-7" d="m115.93,54.07s-3.5-2.84-7.02.24c0,0,6.37-1.47,6.55,3.5l.46-3.75Z"/>
        <path class="cls-7" d="m54.88,80.97s11.38-7.75,30.27-5.58c0,0-17.89-7.34-30.27,5.58Z"/>
        <path class="cls-6" d="m88.09,105.37s5.03-10.8-1.76-19.83c-6.79-9.03,1.27-10.13,3.44-6.41,7.63,13.06-1.68,26.25-1.68,26.25Z"/>
        <path class="cls-6" d="m63.55,109.89s-8.55-8.3-5.43-19.16c3.12-10.86-4.8-9.01-5.5-4.77-2.47,14.92,10.93,23.92,10.93,23.92Z"/>
        <path class="cls-6" d="m28.68,60.45c-.85,1.28,5.97,4.17,1.02,7.6-4.95,3.43-8.42-2.59-12.29-3.97-3.88-1.38-9.57,4.48-3.18,12.54,6.38,8.07,16.62,20.4,20.96,12.85,4.34-7.55-2.01-16.7,1.03-18.51,3.05-1.8-5.66-13.36-7.54-10.52Z"/>
        <path class="cls-1" d="m14.45,25.73s-.18-9.63,16.52-15.27c11.99-4.05,22.36-5.35,41.27-5.04,0,0-16.52.4-33.64,4.66-13.04,3.24-23.21,10.27-24.14,15.65Z"/>
        <path class="cls-6" d="m85.21,40.21s-9.85,14.36-23.45,12.15c-13.6-2.21-17.12-12.29-26.08-10.72-8.96,1.56.22,21.83,20.68,21.5,28.48-.47,28.85-22.92,28.85-22.92Z"/>
        <path class="cls-1" d="m86,51.44s-10.33,11.67-24.88,12.45c0,0,17.88,1.48,24.88-12.45Z"/>
      </g>
      <g>
        <path class="cls-11" d="m92.17,124.1c-2.51-.24-4.66.69-5.06,2.34-.41,1.65,1.07,3.47,3.4,4.43l1.66-6.77Z"/>
        <path class="cls-4" d="m155.88,182.54l-73.63-18.1,11.08-45.05s15.14,10.61,35.06,15.51c20.84,5.12,38.57,2.6,38.57,2.6l-11.08,45.05Z"/>
        <path class="cls-10" d="m83.38,159.85l-1.13,4.58,73.63,18.1,11.08-45.05s-2.59.37-6.95.54c-1.67,48.09-61.72,27.66-76.63,21.83Z"/>
        <path class="cls-7" d="m158.04,183.06c-.29,1.17-1.47,1.89-2.65,1.6l-73.7-18.12c-1.17-.29-1.89-1.47-1.6-2.64h0c.29-1.17,1.47-1.89,2.65-1.6l73.7,18.12c1.17.29,1.89,1.47,1.6,2.64h0Z"/>
        <path class="cls-7" d="m93.23,119.77l-.87,3.54,6.81,4.11c6.55,3.58,16.54,8.27,28.08,11.11,11.25,2.76,21.61,3.37,28.95,3.32l9.83-.58.83-3.39s-17.73,2.53-38.57-2.6c-19.92-4.9-35.06-15.51-35.06-15.51Z"/>
        <g>
          <path class="cls-3" d="m93.31,122.23s-.05-.02-.07-.03l-.6-.36c-.12-.07-.16-.23-.09-.36.07-.12.23-.17.36-.09l.6.36c.12.08.16.24.09.36-.06.1-.18.15-.29.12Z"/>
          <path class="cls-3" d="m127.61,137.09l-.27-.07c-.14-.03-.23-.18-.19-.32.04-.14.18-.22.32-.19h0l.27.07c.36.09.71.17,1.07.26.13.06.23.17.2.31-.03.14-.17.23-.31.2-.36-.09-.71-.17-1.07-.26Zm-1.61-.41s0,0,0,0c-.45-.12-.89-.24-1.34-.36-.14-.04-.22-.18-.18-.32.04-.14.17-.23.32-.18.44.12.88.24,1.33.36.14.04.22.18.19.32-.04.14-.18.22-.32.19Zm4.02.97c-.14-.03-.22-.17-.19-.31.03-.14.17-.23.31-.2.45.1.9.19,1.35.29.16.05.23.17.2.31s-.17.23-.31.2c-.45-.09-.9-.19-1.35-.29,0,0,0,0,0,0Zm-6.68-1.71s0,0,0,0c-.44-.13-.89-.26-1.33-.4-.14-.04-.22-.19-.17-.33.04-.14.19-.22.33-.17.44.14.88.27,1.32.4.14.04.22.19.18.32-.04.14-.18.22-.31.18Zm9.38,2.28c-.14-.03-.22-.17-.19-.3.03-.14.16-.23.31-.21.45.09.9.17,1.35.25.14.03.24.16.21.31-.03.14-.16.24-.3.21-.45-.08-.9-.17-1.36-.26,0,0,0,0-.01,0Zm-12.02-3.08s-.01,0-.02,0c-.44-.14-.88-.29-1.31-.43-.14-.05-.21-.2-.17-.33.05-.14.19-.21.33-.16.43.14.87.29,1.31.43.14.04.21.19.17.33-.04.13-.18.21-.31.18Zm14.73,3.58c-.13-.03-.22-.16-.19-.3.02-.14.16-.24.3-.22.46.08.91.15,1.36.22.14.02.24.16.22.3-.02.14-.16.24-.3.22-.45-.07-.91-.15-1.37-.22,0,0-.01,0-.02,0Zm-17.35-4.46s-.02,0-.02,0c-.44-.15-.87-.31-1.3-.46-.13-.05-.2-.2-.16-.34.05-.14.2-.21.34-.16.43.15.86.31,1.3.46.14.05.21.2.16.33-.04.13-.18.2-.31.17Zm20.08,4.89c-.13-.03-.22-.16-.2-.29.02-.15.15-.25.3-.22.46.07.91.13,1.36.19.14.02.24.15.23.29-.02.14-.15.24-.3.22-.45-.06-.91-.12-1.37-.19,0,0-.02,0-.02,0Zm-22.67-5.83s-.02,0-.03,0c-.44-.16-.87-.33-1.29-.49-.13-.05-.2-.21-.15-.34.05-.13.21-.21.34-.15.42.17.85.33,1.29.49.14.05.2.2.15.34-.05.13-.18.19-.31.16Zm25.41,6.2c-.13-.03-.21-.15-.2-.29.02-.15.15-.25.29-.23.46.06.92.11,1.37.16.15.01.25.15.23.29-.02.14-.14.25-.29.23-.45-.05-.91-.1-1.37-.16-.01,0-.02,0-.03,0Zm-27.98-7.2s-.02,0-.04-.01c-.43-.17-.86-.35-1.28-.52-.13-.05-.2-.21-.14-.34.06-.13.21-.2.34-.14.42.17.85.35,1.27.52.13.05.2.21.15.34-.05.12-.18.19-.31.16Zm30.72,7.5c-.13-.03-.21-.15-.2-.28.02-.14.14-.25.29-.23.46.04.92.09,1.37.13.15.01.25.14.24.28-.01.14-.14.25-.29.24-.45-.04-.91-.08-1.38-.13-.01,0-.02,0-.04,0Zm-33.27-8.56s-.03,0-.04-.01c-.43-.18-.85-.37-1.27-.55-.13-.06-.19-.21-.13-.34.06-.13.21-.19.35-.13.41.18.84.37,1.26.55.13.06.19.21.14.34-.05.12-.18.18-.3.15Zm36.02,8.8c-.12-.03-.21-.14-.2-.27.01-.15.14-.25.28-.24.46.04.92.07,1.37.1.14.01.25.13.25.28-.01.14-.14.26-.28.24-.45-.03-.91-.06-1.38-.1-.01,0-.03,0-.04,0Zm-38.55-9.92s-.03,0-.05-.02c-.42-.19-.84-.38-1.26-.58-.13-.06-.19-.22-.12-.35.06-.13.22-.19.35-.13.41.19.83.39,1.25.58.13.06.19.22.13.35-.05.12-.18.17-.3.15Zm41.3,10.1c-.12-.03-.2-.14-.2-.27,0-.14.13-.26.28-.25.47.03.92.05,1.38.07.15,0,.26.13.25.27,0,.14-.13.26-.27.25-.45-.02-.91-.04-1.38-.06-.02,0-.03,0-.05,0Zm-43.8-11.27s-.03,0-.05-.02c-.42-.2-.84-.41-1.24-.61-.13-.07-.18-.22-.12-.35.06-.13.22-.18.35-.12.41.2.82.4,1.24.6.13.06.19.22.12.35-.06.11-.18.17-.3.14Zm46.55,11.39c-.12-.03-.2-.14-.2-.27,0-.14.13-.26.27-.25.47.02.93.03,1.38.04.15,0,.26.12.26.26,0,.15-.12.26-.27.26-.45,0-.91-.02-1.38-.04-.02,0-.04,0-.06,0Zm-49.03-12.61s-.04-.01-.06-.02c-.42-.21-.83-.42-1.23-.63-.13-.07-.18-.23-.11-.36.07-.13.23-.18.35-.11.4.21.81.42,1.23.63.13.07.18.22.11.35-.06.11-.18.17-.3.14Zm51.79,12.66c-.12-.03-.2-.13-.2-.26,0-.15.12-.26.26-.26.47,0,.93,0,1.38,0,.14,0,.26.12.26.26s-.12.26-.26.26c-.45,0-.91,0-1.38,0-.02,0-.04,0-.06,0Zm-54.23-13.94s-.04-.01-.06-.02c-.31-.16-.61-.33-.91-.49l-.31-.19c-.12-.08-.16-.24-.09-.36.07-.13.24-.17.36-.09l.3.18c.28.15.59.32.89.48.13.07.18.23.11.36-.06.11-.18.16-.29.13Zm56.99,13.89c-.11-.03-.19-.12-.2-.24,0-.15.1-.27.25-.28l1.38-.08c.14,0,.27.1.28.25,0,.14-.1.27-.25.28l-1.38.08s-.05,0-.08,0Zm-59.38-15.28s-.05-.02-.07-.03l-1.18-.71c-.12-.08-.16-.24-.09-.36.07-.12.24-.16.36-.09l1.18.71c.12.07.16.23.09.36-.06.1-.18.15-.29.12Zm62.14,15.11c-.11-.03-.19-.12-.2-.24,0-.14.1-.27.25-.28l1.38-.08c.14,0,.27.1.28.24,0,.14-.1.27-.25.28l-1.38.08s-.05,0-.08,0Zm-64.5-16.54s-.05-.02-.07-.03l-1.18-.71c-.12-.08-.17-.24-.09-.36.07-.12.23-.16.36-.09l1.18.71c.12.08.16.24.09.36-.06.1-.18.15-.29.12Zm67.25,16.37c-.11-.03-.19-.12-.2-.24-.01-.14.1-.27.25-.28l1.38-.08c.14,0,.27.1.28.25,0,.14-.1.27-.25.28l-1.38.08s-.05,0-.08,0Z"/>
          <path class="cls-3" d="m165.68,139.87c-.11-.03-.19-.12-.2-.24,0-.14.1-.27.25-.28l.7-.04c.14,0,.27.1.28.25,0,.14-.1.27-.25.28l-.7.04s-.05,0-.08,0Z"/>
        </g>
        <path class="cls-7" d="m192.82,44.11c-12.12-8.37-34.4-18.07-50.71-22.08-2.55-.63-4.94-1.11-7.09-1.44-14.2-2.15-22.84-1.35-27.98,2.59-2.5,1.91-4.14,4.55-4.89,7.86-3.93.77-13.67,4.39-17.01,21.19-3.64,18.32-5.61,38.24,6.13,53.28,1.65,2.1,1.54,4.48,1.73,7.99.08,1.46.22,6.34.22,6.34l8.3,4.04c6.31,3.45,15.41,8.02,26.92,10.86,11.38,2.8,21.76,2.93,28.59,2.89l9.79.31s4.19-5.31,5.21-6.76c1.68-2.38,17.48-27.48,25.4-41.86,8.34-15.15,10.15-35.01-4.61-45.2Z"/>
        <path class="cls-8" d="m191.41,46.12c-13.51-9.33-40.48-20.65-56.78-23.12-16.3-2.46-29.01-1.82-30.4,10.25,0,0-12.82-.1-16.71,19.45-3.89,19.55-5.28,38.35,5.48,52.13,2.5,3.2,1.55,7.26.22,15l7.89,4.76c6.34,3.46,16,8,27.17,10.75,10.88,2.67,20.91,3.26,28.01,3.22l10.53-.63,3.19-5.9s17.21-29.28,25.26-43.9c8.05-14.62,9.5-32.79-3.85-42Z"/>
        <path class="cls-7" d="m146.01,169.56c-.81,3.3-4.15,5.32-7.45,4.51l-53.82-13.23c-3.3-.81-5.09-4.09-4.27-7.4l6.75-27.47s-.51,3.9,4.81,5.2l53.83,13.23c3.3.81,5.32,4.15,4.51,7.45l-4.35,17.7Z"/>
        <path class="cls-8" d="m142.59,166.52c-.63,2.57-3.23,4.14-5.8,3.51l-52.49-12.9c-2.57-.63-3.96-3.18-3.33-5.76l5.26-21.39s-.4,3.03,3.75,4.05l52.49,12.9c2.57.63,4.14,3.23,3.51,5.8l-3.39,13.78Z"/>
        <g>
          <path class="cls-5" d="m86.22,130.08c0-.06,0-.1,0-.1l-.02.09s.01,0,.02,0Z"/>
          <path class="cls-5" d="m143.71,147.44c.09.59.06,1.22-.09,1.84l-3.39,13.78c-.63,2.57-3.23,4.14-5.8,3.51l-52.49-12.9c-.39-.1-.75-.24-1.09-.42.24,1.84,1.5,3.4,3.44,3.88l52.49,12.9c2.57.63,5.17-.94,5.8-3.51l3.39-13.78c.52-2.12-.46-4.26-2.27-5.3Z"/>
        </g>
        <path class="cls-2" d="m92.87,104.66c.04.06.08.11.13.17,2.5,3.2,1.55,7.26.22,15.01l7.89,4.76c6.34,3.46,16,8,27.17,10.75,10.88,2.67,20.91,3.26,28.01,3.21l10.53-.62,3.19-5.9s17.21-29.28,25.26-43.9c6.19-11.25,8.47-24.6,3.11-34.36-24.48,80.07-84.31,60.73-105.5,50.89Z"/>
        <path class="cls-6" d="m113.01,36.68c-.35-3.99.48-10.21,12.64-9.86,12.16.35,53.18,11.4,61.69,26.45,0,0-10.53-8.24-26.64-9.49-16.1-1.25-46.3,8.74-47.69-7.1Z"/>
        <path class="cls-6" d="m88.44,66.31s.78-13.11,4.19-19.98c4.87-9.78,9.35-9.9,11.42-8.25,3.7,2.95,1.45,7.63-4.88,12.16-5.61,4-9.71,10.92-10.74,16.08Z"/>
        <path class="cls-6" d="m107.78,68.72c-.35-4.29-1.48-8.66,3.16-10.15,4.23-1.36,10.76,4.81,3.83,21.29-6.93,16.49-3.42,26.35,5.92,27.93,9.34,1.57,4.29,9.17-18.63-2.6-21.76-11.17-15.37-37.17-8.85-37.71,8.21-.68,5.69,10.84,11.84,9.45,3.18-.72,2.87-6.61,2.74-8.21Z"/>
        <path class="cls-1" d="m107,30.74s3.8-8.85,21.34-7.14c12.59,1.23,22.58,4.31,39.69,12.36,0,0-15.22-6.42-32.58-9.57-13.22-2.4-25.38-.17-28.44,4.35Z"/>
        <g>
          <path class="cls-7" d="m100.19,34.08c3.17-.98,6.95,2.61,8.5,4.85,2.55,3.69-.47,9.18-1.77,12.79-1.28,3.54-2.06,7.36-3.03,11-1,3.77-1.78,7.69-1.11,11.58.23,1.33,2.24.73,2.01-.6-.9-5.23,1.2-10.71,2.57-15.69,1.26-4.58,3.26-9.09,4.17-13.74,1.14-5.88-5.48-14.2-11.93-12.21-1.29.4-.7,2.41.6,2.01h0Z"/>
          <path class="cls-7" d="m110.46,46.11s4.09-.88,7.72,1.18c0,0-5.67-1.37-8.74,1.06l1.02-2.24Z"/>
          <path class="cls-7" d="m107.47,35.44s.8-3.46,3.48-4.3c0,0-2.48,2.81-2.02,5.57l-1.46-1.26Z"/>
          <path class="cls-7" d="m105.92,58.33s-5.44-2.06-7.93.75c0,0,4.12-1.19,7.39,1.46l.54-2.21Z"/>
          <path class="cls-7" d="m110.73,40.6s1.14-1.16,2.56-1.08c0,0-1.75,1.17-2.28,3.24l-.28-2.16Z"/>
          <path class="cls-7" d="m104.6,67.25s.46,2.88,2.55,3.66c0,0-1.5.14-2.81-1.17l.25-2.49Z"/>
          <path class="cls-7" d="m102.85,67.53s-.32,3.12-2.52,3.84c0,0,1.9-.3,2.9-1.18l-.38-2.66Z"/>
          <path class="cls-7" d="m107.49,55.5s4.44.97,7.08-1.2c0,0-2.84,4-7.85,2.64l.77-1.44Z"/>
          <path class="cls-7" d="m107.81,50.64s-3.22-2.46-5.64.05c0,0,3.62-1.18,5.25,1.52l.39-1.57Z"/>
        </g>
        <path class="cls-6" d="m128.66,146.43c-.06-2.18-19.89-4.05-27.85-6.37s-14.13-7.2-13.55-2.37c.58,4.83-3.33,9.57-2.81,10.36,1.17,1.76,4.24-2.62,6.77-5.09,2.53-2.47,37.67,10.84,37.44,3.48Z"/>
        <path class="cls-1" d="m91.99,44.07s3.88-8.95,9.48-8.54c0,0-5.15,2.16-9.48,8.54Z"/>
        <g>
          <path class="cls-3" d="m81.33,164.21l-.68-.17c-.19-.05-.3-.24-.26-.42s.24-.3.42-.26l.68.17c.19.05.3.23.26.42-.05.19-.24.3-.43.26Z"/>
          <path class="cls-3" d="m154.95,182.31l-1.36-.34c-.19-.05-.3-.24-.26-.42.05-.19.24-.3.42-.26l1.36.33c.19.05.3.24.26.42-.05.19-.23.3-.42.26Zm-2.73-.67l-1.36-.34c-.19-.05-.3-.24-.26-.42.05-.19.24-.3.42-.26l1.37.33c.19.05.3.24.26.42-.05.19-.24.3-.42.26Zm-2.73-.67l-1.36-.34c-.19-.04-.3-.23-.26-.42.04-.19.23-.3.42-.26l1.36.33c.19.05.3.23.26.42-.05.19-.24.3-.42.26Zm-2.73-.67l-1.36-.34c-.19-.05-.3-.23-.26-.42.05-.19.24-.3.42-.26l1.36.34c.19.04.3.23.26.42-.05.19-.24.3-.42.26Zm-2.72-.67l-1.36-.34c-.19-.05-.3-.24-.26-.42.05-.19.24-.3.42-.26l1.36.33c.19.05.3.24.26.42-.05.19-.23.3-.42.26Zm-2.73-.67l-1.36-.33c-.19-.05-.3-.24-.26-.42.05-.19.23-.3.42-.26l1.36.33c.19.05.3.24.26.42-.05.19-.24.3-.42.25Zm-2.73-.67l-1.36-.33c-.19-.05-.3-.24-.26-.42.05-.19.23-.3.42-.26l1.36.34c.19.04.3.24.26.42-.05.19-.24.3-.42.25Zm-2.73-.67l-1.37-.34c-.19-.05-.3-.23-.26-.42.05-.19.23-.3.42-.26l1.36.34c.19.05.3.23.26.42-.05.19-.24.3-.42.26Zm-2.73-.67l-1.36-.33c-.19-.04-.3-.24-.25-.42.05-.19.24-.3.42-.26l1.36.34c.19.04.3.23.26.42-.05.19-.24.3-.42.26Zm-2.73-.67l-1.36-.34c-.19-.05-.3-.24-.25-.42.04-.19.23-.3.42-.26l1.36.33c.19.05.3.24.26.43-.05.19-.24.3-.42.25Zm-2.73-.67l-1.36-.34c-.19-.05-.3-.24-.25-.42.04-.19.23-.3.42-.25l1.36.33c.19.05.3.24.26.42-.05.19-.24.3-.42.26Zm-2.73-.67l-1.36-.34c-.19-.05-.3-.24-.25-.42.05-.19.24-.3.42-.26l1.36.34c.19.04.3.23.26.42-.04.19-.24.3-.42.26Zm-2.73-.67l-1.36-.33c-.19-.05-.3-.24-.25-.42.05-.19.24-.3.42-.25l1.36.33c.19.05.3.24.26.42-.05.19-.24.3-.42.26Zm-2.73-.67l-1.36-.33c-.19-.05-.3-.24-.25-.42.05-.19.24-.3.42-.25l1.36.33c.19.05.3.24.26.42-.05.19-.24.3-.42.25Zm-2.73-.67l-1.36-.34c-.19-.05-.3-.24-.26-.42.05-.19.24-.3.42-.26l1.36.33c.19.05.3.24.26.42-.05.19-.24.3-.42.26Zm-2.73-.67l-1.36-.33c-.19-.05-.3-.24-.26-.42.05-.19.24-.3.42-.26l1.37.34c.19.04.3.23.25.42-.05.19-.24.3-.42.25Zm-2.73-.67l-1.36-.33c-.19-.05-.3-.24-.26-.42.05-.19.23-.3.42-.25l1.36.33c.19.04.3.23.26.42-.04.19-.24.3-.42.25Zm-2.73-.67l-1.36-.33c-.19-.05-.3-.24-.26-.42.05-.19.24-.3.42-.26l1.36.33c.19.05.3.24.26.43-.05.19-.24.3-.42.25Zm-2.73-.67l-1.36-.34c-.19-.04-.3-.24-.26-.42.05-.19.24-.31.42-.26l1.36.34c.19.04.3.24.26.42-.05.19-.24.3-.42.26Zm-2.73-.67l-1.36-.34c-.19-.04-.3-.23-.25-.42.05-.19.23-.3.42-.26l1.36.33c.19.05.3.24.26.42-.05.19-.23.3-.42.26Zm-2.73-.67l-1.36-.34c-.19-.05-.3-.23-.26-.42.05-.19.24-.3.42-.25l1.36.33c.19.05.3.24.26.42-.05.19-.24.3-.42.26Zm-2.73-.67l-1.36-.34c-.19-.05-.3-.23-.26-.42.05-.19.24-.3.42-.25l1.36.33c.19.05.3.23.26.42-.04.19-.23.31-.42.26Zm-2.73-.67l-1.36-.34c-.19-.05-.3-.24-.26-.42.05-.19.24-.3.42-.26l1.36.34c.19.05.3.24.26.42-.05.19-.24.3-.43.26Zm-2.73-.67l-1.36-.34c-.19-.04-.3-.23-.26-.42.05-.19.24-.3.43-.26l1.36.33c.19.05.3.24.26.42-.05.19-.24.3-.42.26Zm-2.73-.67l-1.36-.33c-.19-.04-.3-.23-.26-.42.05-.19.24-.3.43-.26l1.36.34c.19.04.3.23.26.42-.05.19-.24.3-.42.26Zm-2.73-.67l-1.36-.33c-.19-.05-.3-.24-.26-.42.05-.19.24-.3.42-.25l1.36.34c.19.04.3.23.26.42-.05.19-.24.3-.42.25Zm-2.73-.67l-1.36-.33c-.19-.05-.3-.24-.26-.42.05-.19.24-.3.42-.26l1.36.33c.19.05.3.24.25.42-.05.19-.23.3-.42.26Z"/>
          <path class="cls-3" d="m157,182.81l-.68-.17c-.19-.05-.3-.24-.26-.42.05-.19.24-.3.42-.26l.68.17c.19.05.3.24.26.42-.05.19-.24.3-.42.26Z"/>
        </g>
        <path class="cls-9" d="m157.32,180.86c.07.32.08.65,0,.99-.29,1.17-1.47,1.89-2.65,1.6l-73.7-18.12c-.34-.08-.63-.25-.88-.45.17.79.77,1.45,1.61,1.65l73.7,18.12c1.17.29,2.36-.43,2.65-1.6.2-.83-.11-1.67-.72-2.19Z"/>
      </g>
    </g>
  </g>
</svg>