<?xml version="1.0" encoding="UTF-8"?>
<svg id="Layer_2" data-name="Layer 2" xmlns="http://www.w3.org/2000/svg" viewBox="0 0 305 329.26">
  <defs>
    <style>
      .cls-1 {
        fill: #30b19f;
      }

      .cls-2 {
        fill: #289986;
      }

      .cls-3 {
        fill: #182638;
      }

      .cls-4 {
        fill: #2e3e52;
      }

      .cls-5 {
        fill: #ea4a3f;
      }

      .cls-6 {
        fill: #19283b;
      }

      .cls-7 {
        fill: #cccece;
      }

      .cls-8 {
        fill: #dde1e1;
      }

      .cls-9 {
        fill: #c63936;
      }

      .cls-10 {
        fill: #d3a32d;
      }

      .cls-11 {
        fill: #f8c437;
      }

      .cls-12 {
        fill: #131d2b;
      }

      .cls-13 {
        fill: #935aaf;
      }

      .cls-14 {
        fill: #223145;
      }

      .cls-15 {
        fill: #704689;
      }
    </style>
  </defs>
  <g id="OBJECTS">
    <g>
      <path class="cls-3" d="m150.56,130.97c-.2,0-.41-.01-.61-.04-2.76-.34-4.72-2.85-4.39-5.61,3.35-27.35-6.23-33.61-18.37-41.53-6.88-4.49-14.69-9.59-20.5-18.8-17.23-27.34,23.87-62.34,25.63-63.81,2.13-1.79,5.31-1.51,7.1.62,1.79,2.13,1.51,5.31-.62,7.1-10.1,8.5-34.02,34.18-23.59,50.73,4.64,7.35,10.87,11.42,17.48,15.74,13.26,8.66,26.98,17.61,22.86,51.19-.31,2.55-2.49,4.43-5,4.42Z"/>
      <g>
        <g>
          <path class="cls-3" d="m57.32,141.37s1.26-11.72,6.51-14.76c5.25-3.04,25.99-6.58,30.48-2.81,4.49,3.77,8.34,12.56,8.34,12.56l-45.32,5.01Z"/>
          <path class="cls-12" d="m93.11,137.42l9.54-1.05s-3.85-8.8-8.34-12.56c-1.32-1.11-4.06-1.58-7.39-1.62,3.2,4.77,5.08,10.43,6.19,15.24Z"/>
        </g>
        <path class="cls-4" d="m52.96,142.64s1.78-5.67,5.19-7.65c7.22-4.18,34.15-7.91,39.21-8.05,4.62-.13,7.03,5.18,7.03,5.18"/>
        <path class="cls-14" d="m52.96,142.64s1.78-5.67,5.19-7.65c7.22-4.18,34.15-7.91,39.21-8.05,4.62-.13,7.03,5.18,7.03,5.18"/>
      </g>
      <g>
        <g>
          <path class="cls-3" d="m251.13,141.55s-1.24-11.72-6.48-14.77c-5.24-3.05-25.97-6.62-30.47-2.87-4.5,3.76-8.36,12.55-8.36,12.55l45.31,5.09Z"/>
          <path class="cls-12" d="m215.35,137.53l-9.53-1.07s3.86-8.79,8.36-12.55c1.32-1.11,4.06-1.57,7.39-1.61-3.21,4.77-5.1,10.42-6.22,15.23Z"/>
        </g>
        <path class="cls-4" d="m255.49,142.83s-1.77-5.68-5.18-7.66c-7.21-4.19-34.14-7.97-39.19-8.12-4.62-.14-7.04,5.16-7.04,5.16"/>
        <path class="cls-14" d="m255.49,142.83s-1.77-5.68-5.18-7.66c-7.21-4.19-34.14-7.97-39.19-8.12-4.62-.14-7.04,5.16-7.04,5.16"/>
      </g>
      <path class="cls-4" d="m164.6,146.41c0,1.39-1.13,2.52-2.52,2.52l-21.41-.02c-1.39,0-2.52-1.13-2.52-2.52l2.54-24.24c0-1.39,1.13-2.52,2.52-2.52l16.37.02c1.39,0,2.52,1.13,2.52,2.52l2.5,24.24Z"/>
      <path class="cls-14" d="m151.53,124.89c-3.35.09-7.27-.22-11.19.63l-2.19,20.86c0,1.39,1.13,2.52,2.52,2.52l21.41.02c1.39,0,2.52-1.12,2.52-2.52l-2.21-21.45c-3.45-.05-7.76-.03-10.86-.07Z"/>
      <path class="cls-4" d="m300.98,258.61c-13.38-54.58-33.06-108.74-42.7-115.05-9.65-6.3-39.59-15.15-106.74-16.05-62.12,1.62-94.87,9.57-104.53,15.85-9.66,6.28-29.44,60.41-42.92,114.97-13.48,54.55,8.75,72.62,33.09,70.55,24.35-2.08,53.63-78.85,59.69-88.93,2.31-3.84,47.55-4.47,55.16-4.55,7.45.09,53.91.8,56.22,4.66,6.04,10.09,35.18,86.92,59.52,89.04,24.34,2.12,46.6-15.91,33.22-70.49Z"/>
      <g>
        <path class="cls-4" d="m211.46,229.56c-.01,11.82-9.6,21.4-21.43,21.39-11.82-.01-21.4-9.6-21.39-21.42.01-11.82,9.6-21.4,21.43-21.39,11.82,0,21.4,9.6,21.39,21.43Z"/>
        <path class="cls-14" d="m211.46,229.56c-.01,11.82-9.6,21.4-21.43,21.39-11.82-.01-21.4-9.6-21.39-21.42.01-11.82,9.6-21.4,21.43-21.39,11.82,0,21.4,9.6,21.39,21.43Z"/>
        <g>
          <path class="cls-3" d="m206.74,229.56c0,9.27-7.53,16.78-16.81,16.77-9.27,0-16.78-7.53-16.77-16.81,0-9.27,7.53-16.78,16.8-16.77,9.27,0,16.78,7.53,16.78,16.81Z"/>
          <path class="cls-12" d="m202.94,218.91c.82,1.98,1.28,4.16,1.28,6.44,0,9.28-7.53,16.78-16.81,16.77-5.23,0-9.9-2.41-12.98-6.16,2.52,6.08,8.51,10.36,15.49,10.36,9.27,0,16.8-7.5,16.81-16.77,0-4.04-1.42-7.74-3.79-10.64Z"/>
        </g>
      </g>
      <g>
        <path class="cls-4" d="m114.63,179.57c-.02,18.43-14.97,33.35-33.4,33.34-18.43-.02-33.36-14.97-33.34-33.4.02-18.43,14.97-33.36,33.4-33.34,18.43.02,33.36,14.97,33.34,33.4Z"/>
        <path class="cls-14" d="m114.63,179.57c-.02,18.43-14.97,33.35-33.4,33.34-18.43-.02-33.36-14.97-33.34-33.4.02-18.43,14.97-33.36,33.4-33.34,18.43.02,33.36,14.97,33.34,33.4Z"/>
        <path class="cls-8" d="m110.35,179.56c-.01,16.06-13.05,29.08-29.12,29.07-16.07-.01-29.08-13.05-29.06-29.12.02-16.07,13.05-29.08,29.12-29.07,16.07.01,29.08,13.05,29.06,29.12Z"/>
        <path class="cls-7" d="m106.29,164.71c1.4,3.41,2.18,7.15,2.18,11.07-.02,16.07-13.05,29.08-29.12,29.06-10.64,0-19.94-5.74-25-14.27,4.35,10.58,14.74,18.04,26.89,18.05,16.07.01,29.11-13,29.12-29.07,0-5.42-1.48-10.5-4.06-14.85Z"/>
      </g>
      <path class="cls-4" d="m72.56,173.06h-10.38c-1.69-.01-3.06,1.36-3.07,3.05v6.8c0,1.69,1.36,3.06,3.05,3.06h10.38s6.83-6.49,6.83-6.49l-6.82-6.43Z"/>
      <path class="cls-4" d="m90.06,173.08h10.38c1.69.01,3.06,1.38,3.06,3.07v6.81c0,1.69-1.38,3.06-3.07,3.06h-10.38s-6.82-6.52-6.82-6.52l6.83-6.42Z"/>
      <path class="cls-14" d="m72.56,183.05h-10.38c-1.69-.01-3.06-1.38-3.06-3.08v2.94c0,1.69,1.37,3.06,3.06,3.06h10.38s6.83-6.49,6.83-6.49l-1.55-1.46-5.28,5.02Z"/>
      <path class="cls-14" d="m100.43,183.08h-10.38s-5.27-5.04-5.27-5.04l-1.55,1.46,6.82,6.51h10.38c1.69.01,3.06-1.36,3.07-3.05v-2.94c0,1.69-1.37,3.06-3.06,3.06Z"/>
      <path class="cls-4" d="m87.78,170.79v-10.38c.01-1.69-1.36-3.06-3.05-3.06h-6.8c-1.69,0-3.06,1.36-3.06,3.05v10.38s6.49,6.83,6.49,6.83l6.43-6.82Z"/>
      <path class="cls-4" d="m87.76,188.29v10.38c-.01,1.69-1.38,3.06-3.08,3.06h-6.8c-1.69,0-3.06-1.38-3.06-3.07v-10.38s6.52-6.82,6.52-6.82l6.42,6.83Z"/>
      <path class="cls-14" d="m84.73,157.35h-2.52c1.69,0,3.06,1.37,3.06,3.06v10.37s-5.19,5.49-5.19,5.49l1.26,1.33,6.43-6.82v-10.38c.01-1.69-1.36-3.06-3.05-3.06Z"/>
      <path class="cls-14" d="m81.34,181.46l-1.27,1.33,5.17,5.5v10.38c-.01,1.69-1.38,3.06-3.08,3.06h2.52c1.69,0,3.06-1.37,3.07-3.06v-10.38s-6.41-6.83-6.41-6.83Z"/>
      <path class="cls-14" d="m41.65,149.88c-10.48,17.13-26.24,62.63-37.57,108.45-13.48,54.55,8.75,72.62,33.09,70.55,24.35-2.08,53.63-78.85,59.69-88.93-61.75-17.9-61.74-62.95-55.21-90.07Z"/>
      <path class="cls-14" d="m300.98,258.61c-11.9-48.53-28.77-96.7-39.15-111.22,7.46,30.61,3.22,74.67-53.53,92.78,6.18,10.51,35.2,86.81,59.45,88.93,24.34,2.12,46.6-15.91,33.22-70.49Z"/>
      <path class="cls-6" d="m80.6,274.27c7.87-16.03,13.87-30.35,16.25-34.32-22.09-6.4-36.28-16.28-45.09-27.57l-.36.25s6.06,45.33,29.19,61.65Z"/>
      <path class="cls-6" d="m208.3,240.17c2.32,3.95,7.87,17.18,15.17,32.28,19.39-16.26,25.75-53.09,26.64-58.87-8.75,10.89-22.12,20.3-41.81,26.59Z"/>
      <g>
        <g>
          <path class="cls-4" d="m159.33,165.29h-15.53c-2.78-.02-5.04,2.13-5.04,4.77v3.22c0,2.64,2.25,4.79,5.03,4.79l15.53.02c2.78,0,5.04-2.14,5.04-4.79v-3.22c0-2.64-2.25-4.79-5.03-4.8Z"/>
          <path class="cls-4" d="m159.31,184.6h-15.53c-2.78-.02-5.04,2.13-5.04,4.77v3.22c0,2.64,2.25,4.8,5.03,4.8l15.53.02c2.78,0,5.04-2.15,5.04-4.79v-3.22c0-2.64-2.25-4.79-5.03-4.8Z"/>
        </g>
        <g>
          <path class="cls-4" d="m159.33,165.29h-15.53c-2.78-.02-5.04,2.13-5.04,4.77v3.22c0,2.64,2.25,4.79,5.03,4.79l15.53.02c2.78,0,5.04-2.14,5.04-4.79v-3.22c0-2.64-2.25-4.79-5.03-4.8Z"/>
          <path class="cls-4" d="m159.31,184.6h-15.53c-2.78-.02-5.04,2.13-5.04,4.77v3.22c0,2.64,2.25,4.8,5.03,4.8l15.53.02c2.78,0,5.04-2.15,5.04-4.79v-3.22c0-2.64-2.25-4.79-5.03-4.8Z"/>
        </g>
        <path class="cls-8" d="m161.84,173.31c0,1.26-1.13,2.27-2.52,2.27h-15.53c-1.39-.01-2.52-1.03-2.52-2.29v-3.22c0-1.26,1.13-2.27,2.52-2.27h15.53c1.39.01,2.52,1.04,2.52,2.29v3.22Z"/>
        <path class="cls-8" d="m161.83,192.61c0,1.25-1.13,2.27-2.52,2.27h-15.53c-1.39-.02-2.52-1.03-2.52-2.29v-3.22c0-1.26,1.13-2.27,2.52-2.27h15.53c1.39.01,2.52,1.03,2.52,2.29v3.22Z"/>
        <path class="cls-7" d="m159.32,173.37h-15.53c-1.39-.01-2.52-1.03-2.52-2.29v2.2c0,1.26,1.12,2.28,2.51,2.28h15.53c1.39.01,2.52-1,2.52-2.26v-2.2c0,1.25-1.13,2.27-2.52,2.27Z"/>
        <path class="cls-7" d="m159.31,192.68l-15.53-.02c-1.39,0-2.52-1.02-2.52-2.28v2.21c0,1.25,1.12,2.27,2.51,2.27h15.53c1.39.01,2.52-1,2.52-2.26v-2.2c0,1.26-1.13,2.27-2.52,2.27Z"/>
      </g>
      <path class="cls-14" d="m115.21,59.62c-10.43-16.55,13.49-42.23,23.59-50.73,2.13-1.79,2.41-4.97.62-7.1-1.79-2.13-4.96-2.41-7.1-.62-1.18.99-20.2,17.18-27.24,36-.2,8.97,4.31,17.78,10.13,22.45.13-.09,0,0,0,0Z"/>
      <g>
        <g>
          <g>
            <g>
              <path class="cls-4" d="m239.08,159.51c0,8.23-6.68,14.89-14.91,14.89-8.23,0-14.89-6.69-14.88-14.91,0-8.23,6.68-14.89,14.91-14.89,8.23,0,14.89,6.68,14.88,14.91Z"/>
              <path class="cls-14" d="m239.08,159.51c0,8.23-6.68,14.89-14.91,14.89-8.23,0-14.89-6.69-14.88-14.91,0-8.23,6.68-14.89,14.91-14.89,8.23,0,14.89,6.68,14.88,14.91Z"/>
              <path class="cls-11" d="m235.37,159.5c0,6.17-5.02,11.18-11.19,11.17-6.18,0-11.18-5.02-11.17-11.19,0-6.17,5.02-11.18,11.19-11.17,6.17,0,11.18,5.02,11.17,11.19Z"/>
              <path class="cls-10" d="m233.02,152.66c.47,1.24.74,2.58.74,3.99,0,6.17-5.02,11.18-11.19,11.17-3.59,0-6.78-1.71-8.83-4.35,1.6,4.21,5.66,7.2,10.43,7.21,6.17,0,11.18-4.99,11.19-11.17,0-2.58-.88-4.95-2.35-6.85Z"/>
            </g>
            <g>
              <path class="cls-4" d="m239.05,200.71c0,8.23-6.68,14.89-14.91,14.89-8.23,0-14.89-6.69-14.88-14.91,0-8.23,6.68-14.89,14.91-14.88,8.23,0,14.89,6.68,14.88,14.91Z"/>
              <path class="cls-14" d="m239.05,200.71c0,8.23-6.68,14.89-14.91,14.89-8.23,0-14.89-6.69-14.88-14.91,0-8.23,6.68-14.89,14.91-14.88,8.23,0,14.89,6.68,14.88,14.91Z"/>
              <path class="cls-1" d="m235.33,200.71c0,6.17-5.02,11.18-11.19,11.17-6.18,0-11.18-5.02-11.17-11.19,0-6.17,5.02-11.18,11.19-11.17,6.17,0,11.18,5.02,11.17,11.19Z"/>
              <path class="cls-2" d="m232.99,193.87c.47,1.24.74,2.58.74,3.99,0,6.17-5.02,11.18-11.19,11.17-3.59,0-6.78-1.71-8.83-4.35,1.6,4.21,5.66,7.2,10.43,7.21,6.17,0,11.18-5,11.19-11.17,0-2.58-.88-4.95-2.34-6.85Z"/>
            </g>
          </g>
          <g>
            <g>
              <path class="cls-4" d="m216.91,180.09c0,8.23-6.69,14.89-14.91,14.88-8.23,0-14.89-6.69-14.88-14.91,0-8.23,6.68-14.89,14.91-14.88,8.23,0,14.89,6.68,14.88,14.91Z"/>
              <path class="cls-14" d="m216.91,180.09c0,8.23-6.69,14.89-14.91,14.88-8.23,0-14.89-6.69-14.88-14.91,0-8.23,6.68-14.89,14.91-14.88,8.23,0,14.89,6.68,14.88,14.91Z"/>
              <path class="cls-13" d="m213.2,180.09c0,6.17-5.02,11.18-11.19,11.17-6.17,0-11.18-5.02-11.17-11.19,0-6.17,5.02-11.17,11.19-11.17,6.17,0,11.18,5.02,11.17,11.19Z"/>
              <path class="cls-15" d="m210.85,173.24c.47,1.24.74,2.58.74,3.99,0,6.17-5.02,11.18-11.19,11.17-3.59,0-6.78-1.71-8.83-4.35,1.6,4.21,5.66,7.2,10.43,7.21,6.17,0,11.19-5,11.19-11.17,0-2.58-.88-4.95-2.35-6.85Z"/>
            </g>
            <g>
              <path class="cls-4" d="m261.22,180.13c0,8.23-6.69,14.89-14.91,14.88-8.23,0-14.89-6.68-14.88-14.91,0-8.23,6.68-14.89,14.91-14.88,8.23,0,14.89,6.68,14.89,14.91Z"/>
              <path class="cls-14" d="m261.22,180.13c0,8.23-6.69,14.89-14.91,14.88-8.23,0-14.89-6.68-14.88-14.91,0-8.23,6.68-14.89,14.91-14.88,8.23,0,14.89,6.68,14.89,14.91Z"/>
              <path class="cls-5" d="m257.5,180.13c0,6.17-5.02,11.18-11.19,11.17-6.17,0-11.18-5.02-11.17-11.19,0-6.18,5.02-11.18,11.19-11.17,6.18,0,11.18,5.02,11.17,11.19Z"/>
              <path class="cls-9" d="m255.16,173.28c.47,1.24.74,2.58.74,3.99,0,6.17-5.02,11.18-11.19,11.17-3.59,0-6.78-1.71-8.83-4.35,1.6,4.2,5.66,7.2,10.43,7.21,6.18,0,11.19-5,11.19-11.17,0-2.58-.88-4.95-2.35-6.85Z"/>
            </g>
          </g>
        </g>
        <path class="cls-3" d="m243.76,185.64c-.11-.02-.22-.06-.33-.11-.29-.17-.46-.47-.46-.8v-8.47s0-.09.02-.14c.04-.28.21-.52.45-.67.29-.17.64-.16.93,0l7.34,4.24c.29.17.46.47.46.8,0,.05,0,.09,0,.14-.04.28-.21.52-.45.67l-7.34,4.23c-.19.11-.4.14-.6.11Zm1.07-7.78v5.26s4.55-2.63,4.55-2.63l-4.55-2.63Z"/>
        <g>
          <path class="cls-3" d="m224.2,164.78c-.45-.07-.79-.45-.79-.92v-9.13c0-.51.42-.93.94-.93.51,0,.93.42.93.93v9.13c0,.51-.42.93-.94.93-.05,0-.09,0-.14-.01Z"/>
          <path class="cls-3" d="m219.64,160.21c-.45-.07-.79-.45-.79-.92,0-.51.42-.93.93-.93h9.13c.5,0,.93.42.93.94,0,.51-.42.93-.93.93h-9.13s-.09-.01-.14-.02Z"/>
        </g>
        <path class="cls-3" d="m201.35,185.09c-1.07-.16-2.07-.66-2.85-1.45-.97-.97-1.5-2.26-1.5-3.63,0-1.37.53-2.66,1.5-3.62.97-.97,2.26-1.5,3.63-1.5,2.82,0,5.12,2.3,5.12,5.13,0,1.37-.54,2.66-1.51,3.63-.97.97-2.26,1.5-3.63,1.5-.26,0-.52-.02-.78-.06Zm1.27-8.3c-.16-.02-.32-.04-.49-.04-.87,0-1.69.34-2.31.95-.62.62-.96,1.44-.96,2.31,0,.87.34,1.69.96,2.31.62.62,1.43.96,2.31.96.87,0,1.69-.34,2.31-.95.62-.62.96-1.44.96-2.31h0c0-1.64-1.21-3-2.78-3.23Z"/>
        <path class="cls-3" d="m219.6,204.2c-.2-.03-.38-.12-.52-.26-.17-.18-.27-.41-.27-.66v-5.67c0-.51.42-.93.93-.93h8.82c.52.01.93.43.93.94v5.67c0,.51-.42.93-.93.93h-8.82s-.09,0-.14-.02Zm1.07-5.66v3.81s6.95,0,6.95,0v-3.81s-6.95,0-6.95,0Z"/>
      </g>
      <g>
        <path class="cls-4" d="m136.74,229.49c-.01,11.82-9.6,21.4-21.43,21.39-11.82-.01-21.4-9.6-21.39-21.43.01-11.82,9.6-21.4,21.43-21.39,11.82.01,21.4,9.6,21.39,21.43Z"/>
        <path class="cls-14" d="m136.74,229.49c-.01,11.82-9.6,21.4-21.43,21.39-11.82-.01-21.4-9.6-21.39-21.43.01-11.82,9.6-21.4,21.43-21.39,11.82.01,21.4,9.6,21.39,21.43Z"/>
        <g>
          <path class="cls-3" d="m132.13,229.49c0,9.27-7.53,16.78-16.8,16.77-9.27,0-16.78-7.53-16.77-16.81,0-9.27,7.53-16.78,16.81-16.77,9.27,0,16.78,7.53,16.77,16.8Z"/>
          <path class="cls-12" d="m128.33,218.84c.82,1.99,1.28,4.16,1.28,6.44,0,9.27-7.53,16.78-16.8,16.77-5.23,0-9.91-2.41-12.98-6.16,2.52,6.08,8.51,10.36,15.5,10.36,9.27,0,16.8-7.5,16.8-16.77,0-4.04-1.42-7.74-3.79-10.64Z"/>
        </g>
      </g>
    </g>
  </g>
</svg>