<svg id="Layer_1" enable-background="new 0 0 51 51" height="512" viewBox="0 0 51 51" width="512" xmlns="http://www.w3.org/2000/svg"><g><path d="m1.49429 25.49669c0 .70732.03426 1.41463.09136 2.11053.20527 2.35014.75286 4.60898 1.58565 6.70816.83279 2.11053 1.96236 4.07282 3.32003 5.84111 3.75328 4.87142 9.35486 8.25969 15.74355 9.12674.11406.01142.22825.02284.34217.04561.95841.11413 1.92809.17116 2.92062.17116 5.27069 0 10.14211-1.69984 14.1008-4.57479 2.22473-1.61998 4.15268-3.60503 5.71563-5.8753 1.118-1.63147 2.05344-3.41118 2.73805-5.31637.93557-2.5669 1.44889-5.33914 1.44889-8.23685 0-3.37692-.70746-6.60553-1.96222-9.52608-.02284-.04561-.04568-.10264-.06852-.14832-2.46426-5.57867-6.99337-10.03941-12.60637-12.42373-2.87495-1.22071-6.04652-1.89384-9.36628-1.89384-1.30058 0-2.5669.10271-3.81052.29663-3.09164.49055-5.98943 1.57437-8.55632 3.1259-.11392.06845-.22811.1369-.34217.21676-2.44142 1.51734-4.57479 3.46814-6.32018 5.73847-.07994.09122-.14845.1825-.21683.28521-2.98898 3.99297-4.75734 8.9556-4.75734 14.329z" fill="#d4d6d6"/><path d="m49.50571 25.4922c0 2.89996-.51996 5.66998-1.44995 8.23999-.13.34998-.26001.69-.40002 1.02997-.64001 1.52002-1.41998 2.96002-2.33997 4.29004-3.69 2.28998-8.04004 3.63-12.71002 3.63-.97998 0-1.96002-.06-2.91998-.17999-.12-.01001-.23004-.03003-.34003-.04004-6.39001-.87-11.97998-4.26001-15.75-9.13-1.37-1.76996-2.47998-3.72998-3.32001-5.83997-.83002-2.10004-1.38-4.35999-1.58002-6.71002-.06-.69-.08997-1.39001-.08997-2.09998 0-5.02002 1.53998-9.67999 4.17999-13.54004.12-.07996.22998-.14996.34998-.20996 1.58002-.96002 3.28003-1.73999 5.08002-2.31 1.12-.36005 2.28003-.63 3.47003-.82001 1.25-.19 2.50995-.29999 3.81-.29999 3.32001 0 6.48999.67999 9.37 1.89996 5.60999 2.38 10.13995 6.84003 12.59998 12.42004.03003.04999.04999.09998.07001.14996 1.26 2.92001 1.96996 6.15005 1.96996 9.52004z" fill="#e0e2e2"/><g fill="#ecf0f1"><path d="m49.50571 25.4922c0 2.89996-.51996 5.66998-1.44995 8.23999-.13.34998-.26001.69-.40002 1.02997-2.29999.74005-4.76001 1.14001-7.29999 1.14001-.97998 0-1.96002-.06-2.91998-.16998-.12-.01001-.23004-.03998-.35004-.04999-6.38-.87-11.96997-4.25-15.73999-9.13001-1.37-1.76001-2.48999-3.72998-3.32001-5.84003-.83002-2.09998-1.38-4.34998-1.58002-6.70001-.06-.69995-.09998-1.39996-.09998-2.09998 0-3.28998.65997-6.42999 1.87-9.28998 1.12-.36005 2.28003-.63 3.47003-.82001 1.25-.19 2.50995-.29999 3.81-.29999 3.32001 0 6.48999.67999 9.37 1.89996 5.60999 2.38 10.13995 6.84003 12.59998 12.42004.03003.04999.04999.09998.07001.14996 1.26 2.92002 1.96996 6.15006 1.96996 9.52005z"/><path d="m12.75454 23.37467c1.26618 3.49098 2.84069 7.18737 4.68871 11.02058-.46765.559-.90117 1.14084-1.28902 1.75687-.92415-.86705-1.77978-1.8139-2.55548-2.81785-1.36909-1.76836-2.4871-3.73058-3.32003-5.84111-.60454-1.50592-1.04949-3.10313-1.3347-4.75737 1.20937.31948 2.48697.53624 3.81052.63888z"/><path d="m47.57296 16.14176-1.62004.42211-.04554-.17115-.03426-.15966 1.59721-.41076c.02284.03426.03426.07987.0571.11413l.01142.03419z"/></g><path d="m26.44747 16.93228c0 .23117.0112.46235.02986.68979.06709.7681.24606 1.50636.51824 2.19245.27218.68979.64136 1.33113 1.08509 1.90907 1.22669 1.59214 3.05747 2.69954 5.14551 2.98292.03728.00373.0746.00746.11183.01491.31324.0373.63017.05594.95456.05594 1.72263 0 3.31477-.55556 4.6086-1.49519.72712-.52946 1.35723-1.17824 1.86806-1.92024.3654-.53322.67113-1.11488.89488-1.73756.30577-.83895.47355-1.745.47355-2.69207 0-1.10369-.23122-2.1589-.64132-3.11343-.00747-.01491-.01493-.03355-.02239-.04847-.8054-1.82329-2.28566-3.28121-4.12017-4.06048-.93962-.39897-1.9762-.61897-3.0612-.61897-.42507 0-.83895.03357-1.2454.09695-1.01045.16033-1.95754.51455-2.79649 1.02165-.03723.02237-.07455.04474-.11183.07084-.79794.49592-1.49519 1.1335-2.06564 1.87552-.02613.02981-.04852.05965-.07087.09322-.97691 1.305-1.55487 2.92695-1.55487 4.68315z" fill="#fff" opacity=".5"/><path d="m26.44747 16.93228c0 4.28997 3.47052 7.84506 7.84509 7.84506 4.25681 0 7.84509-3.43209 7.84509-7.84506 0-3.18354-1.91112-6.00208-4.78388-7.22239-5.13071-2.1785-10.9063 1.58468-10.9063 7.22239z" fill="#fff" opacity=".5"/><path d="m6.41806 39.16591c1.72756 1.16964 4.10386 2.03126 7.4374 2.69904 1.8318 2.39318 4.74878 4.20486 8.30367 5.67469v.00011c-.00259.54866.03423 1.20431.0736 1.74099.11468.01627.23024.03082.34581.04451-.03937-.52897-.07874-1.18891-.07791-1.74271 0-.00065 0-.00126 0-.00191 3.40289-.43985 6.40851-1.55209 9.06174-3.26093l-.00209.02817c.49836.03645 1.00991.0545 1.53025.0545 2.22888 0 4.6281-.33134 6.92958-.96226l-.41972 1.48199c3.82434-2.78097 6.79532-6.6644 8.44732-11.18378 0-.00086 0-.00172 0-.00172l-1.17985.69883c-.49401-3.92669-1.07079-6.62616-1.7605-8.24201 1.07746-3.17155 1.37796-6.43282.80387-9.79504l.04296.16536 1.62329-.42196-.0861-.33134-1.62329.42196.04303.16562c-2.1077-2.81779-4.63176-4.98052-7.56243-6.50341l.03439-.01945c-1.40361-2.48254-3.00722-4.59874-4.77073-6.29776l1.24865-.18236c-2.87768-1.22055-6.04209-1.89504-9.36401-1.89504-1.29763 0-2.57214.10271-3.8141.30129l.88713.40674c-2.22721 1.26164-4.5656 2.996-6.64336 4.92917-3.11914.82182-5.91697 2.22484-8.32528 4.33252-.00071-.00045-.00117-.00077-.00188-.00122-.17717-.11469-.65308-.40914-1.13672-.58888-.0736.095-.14636.19002-.21654.28673.45192.14979.93728.44339 1.13668.57092.00021.00014.00038.00022.00059.00037-1.45728 2.9544-2.26437 6.06919-2.10175 9.42321-1.33553 2.19618-2.46406 5.00262-3.01031 7.48207-.25887-.28014-.48582-.62972-.6853-1.03916.40829 4.70342 2.17326 9.01825 4.902 12.55158-.07561-.3866-.10332-.72117-.07009-.98943zm6.66362-15.89911 7.06619-9.07227c4.18757.30447 8.17532.79591 11.85413 1.46084l4.34827 10.33173c-1.8868 3.00392-4.18991 6.14491-7.21661 9.84203l-11.37525-1.55981c-1.84178-3.82501-3.41341-7.52246-4.67673-11.00252zm24.87643-13.44329c-2.34706 1.44501-4.37483 3.2192-5.92034 5.49053-3.67689-.66355-7.66017-1.15444-11.84172-1.45928-.9975-2.53442-2.2833-4.7442-3.84645-6.64172 2.12005-1.94538 4.49651-3.67482 6.73672-4.89976 3.15396-.16202 6.49724.28747 9.98104 1.19131l-.01421.01537c1.81343 1.67559 3.46233 3.79617 4.90496 6.30355zm-6.19718 34.19335c-.42383-2.92293-1.20392-5.57796-2.41014-7.91251 3.04559-3.71665 5.36337-6.87387 7.263-9.89338 2.46615.70819 5.24632.70657 8.2312.24232.67063 1.63999 1.23381 4.36418 1.71916 8.3141-1.60201 2.90733-3.61892 5.67572-6.24098 8.24138l-.00257-.00884c-2.85499.82981-5.8863 1.18823-8.55967 1.01693zm-17.95759-2.51159c-3.35871-.6822-5.71448-1.56303-7.39774-2.76452-2.0411-3.31123-3.36957-6.53339-3.91323-9.65741l.0339.00673c.49551-2.49447 1.62905-5.38819 2.98649-7.65038 2.16427 1.08534 4.58395 1.72366 7.24528 1.93901 1.26515 3.48557 2.83833 7.18798 4.68137 11.01737-1.6959 2.05317-2.94521 4.39849-3.63607 7.1092z" fill="#5b5e71"/><path d="m42.656 40.47597c-.70746.86698-1.48315 1.71126-2.32737 2.53263l-.01142-.01142c-2.85211.83279-5.88665 1.18652-8.55632 1.01537-.06852-.46778-.14832-.92408-.22811-1.36903-.6161-.01142-1.24362-.06845-1.8483-.13689-.11392-.01142-.22811-.03419-.34217-.04561-5.07684-.68455-9.64021-2.96623-13.18807-6.3089-1.04963 1.60863-1.8483 3.38834-2.3502 5.35056-3.35401-.68448-5.71563-1.56295-7.40406-2.76082-2.03073-3.30848-3.36543-6.53701-3.91301-9.66298l.03412.01142c.50204-2.49845 1.63147-5.38475 2.989-7.65501 1.08375.54758 2.22459.98111 3.43395 1.30051-.11406-.63887-.19385-1.28916-.25095-1.9508-.0571-.69597-.09136-1.39186-.09136-2.09918 0-3.29705.66178-6.44572 1.87114-9.29783-1.01551.60461-1.97378 1.28909-2.87495 2.07627-.17129-.11406-.65036-.39927-1.12942-.58177-.07994.09122-.14845.1825-.21683.28521.44495.14825.93543.44488 1.12942.57042-1.33484 2.70379-2.12195 5.54448-2.12195 8.57909 0 .28521.01142.559.02284.84421-1.33484 2.19047-2.46426 4.9969-3.01184 7.48393-.26251-.28521-.4792-.62745-.68448-1.03814.41069 4.70027 2.17891 9.01269 4.90568 12.54928-.07994-.38792-.10278-.71874-.06852-.99253 1.72268 1.17503 4.09559 2.03067 7.43832 2.70379 1.82532 2.39574 4.74581 4.1983 8.29395 5.66996 0 .54765.03412 1.20936.0798 1.74553.11406.01142.22825.02284.34217.04561-.03426-.53616-.0798-1.19787-.0798-1.74545 3.41111-.44495 6.41153-1.55153 9.06979-3.26279l-.01142.02277c.5019.04568 1.01523.05703 1.53997.05703 2.22472 0 4.62047-.33082 6.925-.95827l-.42211 1.48308c2.22473-1.61998 4.15268-3.60503 5.71563-5.8753-.85564.53615-1.74539 1.01529-2.65812 1.42605zm4.88284-24.50536-.01142-.03419-.03426-.12555-.02284.01142-1.59721.41076.03426.15966.04554.17115 1.62004-.42211z" fill="#525566"/></g></svg>