<?xml version="1.0" encoding="UTF-8"?>
<svg id="Layer_2" data-name="Layer 2" xmlns="http://www.w3.org/2000/svg" viewBox="0 0 44.85 44.85">
  <defs>
    <style>
      .cls-1 {
        fill: #ffcc27;
      }

      .cls-2 {
        fill: #bf991d;
      }
    </style>
  </defs>
  <g id="OBJECTS">
    <g>
      <path class="cls-1" d="m44.85,22.42c0,2.32-.35,4.56-1.01,6.67-.19.62-.41,1.23-.66,1.83-.45,1.1-.98,2.16-1.59,3.17l-1.11,1.64c-.64.87-1.35,1.7-2.11,2.47-.5.51-1.03.99-1.57,1.45-1.01.84-2.11,1.6-3.26,2.26-.7.41-1.42.77-2.16,1.09-1.28.56-2.62,1-4.02,1.31-1.02.23-2.06.4-3.13.48-.59.05-1.2.08-1.82.08-2.16,0-4.23-.3-6.2-.87-.63-.17-1.24-.39-1.84-.62-1.17-.45-2.29-.99-3.36-1.63-.57-.33-1.13-.69-1.66-1.09-1-.71-1.94-1.51-2.82-2.39-.52-.53-1.03-1.09-1.5-1.67-.94-1.15-1.77-2.4-2.46-3.72-.47-.86-.86-1.76-1.2-2.68h0c-.72-1.96-1.17-4.04-1.32-6.21-.04-.5-.06-1.02-.06-1.54,0-1.33.12-2.63.35-3.9C1.99,9.12,9.51,1.73,18.96.27c1.13-.18,2.28-.27,3.46-.27.5,0,1,.02,1.49.06,2.38.15,4.66.67,6.78,1.51.86.34,1.71.74,2.52,1.17,1.77.97,3.38,2.17,4.81,3.57h0c.51.5,1.01,1.02,1.48,1.57,1.04,1.2,1.93,2.51,2.69,3.91.3.57.59,1.16.84,1.76.67,1.54,1.17,3.18,1.46,4.88.13.64.21,1.29.26,1.95.07.67.1,1.34.1,2.02Z"/>
      <g>
        <path class="cls-2" d="m23.9.06C12.03,5.19,4.03,13.21.06,23.96c-.04-.5-.06-1.02-.06-1.54,0-1.33.12-2.63.35-3.9C4.31,10.84,10.53,4.74,18.96.27c1.13-.18,2.28-.27,3.46-.27.5,0,1,.02,1.49.06Z"/>
        <path class="cls-2" d="m33.2,2.75C17.22,7.96,6.67,18.32,2.58,32.86c-.47-.86-.86-1.76-1.2-2.68h0C5.86,16.7,15.9,6.9,30.68,1.57c.86.34,1.71.74,2.52,1.17Z"/>
        <path class="cls-2" d="m39.5,7.89c-7.61,2.4-26.86,10.33-32.96,30.35l-1.5-1.67C11.51,17.22,29.75,9.09,38.01,6.32h0c.51.5,1.01,1.02,1.48,1.57Z"/>
        <path class="cls-2" d="m43.03,13.56c-7.02,2.19-25.04,9.49-32.02,28.16l-1.66-1.09c7.29-18.93,25.42-26.48,32.84-28.83l.84,1.76Z"/>
        <path class="cls-2" d="m44.75,20.4c-2.17.71-4.87,1.74-7.8,3.2-.56.28-1.15.58-1.73.9-.99.54-2,1.14-3.01,1.79-.54.34-1.08.7-1.62,1.08-.85.6-1.71,1.23-2.55,1.9-.52.43-1.05.86-1.57,1.32-.83.73-1.65,1.5-2.46,2.32-.49.49-.96,1-1.44,1.52-.73.83-1.45,1.71-2.14,2.62-.46.6-.89,1.21-1.32,1.85h0c-1.05,1.57-2.03,3.24-2.9,5.06l-1.84-.62c7.52-15.84,22.35-22.45,30.12-24.9l.26,1.95Z"/>
        <path class="cls-2" d="m27.36,44.29c-1.02.23-2.06.4-3.13.48-2.33-1.52-4.04-3.48-5.12-5.84h0c-.2-.42-.37-.83-.51-1.26l1.83-.63s0,.02,0,.03c1.12,3.17,3.44,5.59,6.92,7.23Z"/>
        <path class="cls-2" d="m33.53,41.89c-2.2-1.04-7.58-4.21-9.52-8.98-.07-.17-.13-.33-.18-.5l-1.83.63c.16.48.36.94.57,1.39,2.02,4.12,6.11,7.04,8.81,8.54l2.16-1.09Z"/>
        <path class="cls-2" d="m38.37,38.19c-2.11-.84-8.52-3.73-10.33-8.91h0s-1.83.62-1.83.62c.08.23.17.48.26.7,2.11,4.9,7.58,7.84,10.33,9.04l1.57-1.45Z"/>
        <path class="cls-2" d="m41.58,34.08c-1.95-.79-7.27-3.28-9.37-7.79-.15-.3-.27-.6-.38-.91l-1.83.63c.16.48.36.92.58,1.36,2.31,4.71,7.43,7.32,9.88,8.35l1.11-1.64Z"/>
        <path class="cls-2" d="m43.84,29.09c-.19.62-.41,1.23-.66,1.83-2.3-.83-5.92-2.55-7.95-6.41-.27-.52-.51-1.09-.73-1.69l1.83-.64c.17.51.39.99.62,1.43,1.72,3.26,4.81,4.74,6.88,5.49Z"/>
      </g>
    </g>
  </g>
</svg>