<?xml version="1.0" encoding="UTF-8"?>
<!DOCTYPE svg PUBLIC "-//W3C//DTD SVG 1.1//EN" "http://www.w3.org/Graphics/SVG/1.1/DTD/svg11.dtd">
<!-- Creator: CorelDRAW 2019 (64-Bit) -->
<svg xmlns="http://www.w3.org/2000/svg" xml:space="preserve" width="6in" height="5.717in" version="1.1" style="shape-rendering:geometricPrecision; text-rendering:geometricPrecision; image-rendering:optimizeQuality; fill-rule:evenodd; clip-rule:evenodd"
viewBox="0 0 6000 5717"
 xmlns:xlink="http://www.w3.org/1999/xlink">
 <defs>
  <style type="text/css">
   <![CDATA[
    .fil0 {fill:#aeaeae}
   ]]>
  </style>
 </defs>
 <g id="Layer_x0020_1">
  <metadata id="CorelCorpID_0Corel-Layer"/>
  <path class="fil0" d="M0 2740.24c0,415.69 399.32,339.85 738.28,339.85l0 2472.65c0,109.39 110.54,164.06 234.38,164.06l1359.37 0c62.3,0 125.52,-8.84 161.48,-37.74 30.74,-24.7 72.9,-75.17 72.9,-126.32l0 -1511.72 867.19 0 0 1511.72c0,109.39 110.54,164.06 234.37,164.06l1359.37 0c123.84,0 234.38,-54.67 234.38,-164.06l0 -2472.65 421.87 0c176.19,0 316.41,-143.81 316.41,-281.25 0,-225.38 -112.43,-266.78 -313.24,-460.2l-558.89 -507.51c-42.39,-32.74 -55.33,-48.43 -91.5,-84.28l-1693.6 -1540.77c-378.48,-384.15 -495.58,-155.14 -772.9,76.69l-557.33 509.07c-37.46,37.78 -51.19,50.51 -92.4,83.38l-1690.7 1543.68c-88.66,68.45 -229.43,198.58 -229.43,321.35z"/>
 </g>
</svg>
