<?xml version="1.0" encoding="UTF-8"?>
<svg id="Layer_2" data-name="Layer 2" xmlns="http://www.w3.org/2000/svg" viewBox="0 0 60.92 83.04">
  <defs>
    <style>
      .cls-1 {
        fill: #cea66d;
      }

      .cls-2 {
        fill: #585858;
      }

      .cls-3 {
        fill: #d1d1d1;
      }

      .cls-4 {
        fill: #bd0000;
      }

      .cls-5 {
        fill: #0a0a0a;
      }

      .cls-6 {
        fill: #303030;
      }

      .cls-7 {
        fill: #dedede;
      }

      .cls-8 {
        fill: #cee0ff;
      }

      .cls-9 {
        fill: #818181;
      }

      .cls-10 {
        fill: #8d3b26;
      }

      .cls-11 {
        fill: #330e01;
      }

      .cls-12 {
        fill: #a20000;
      }

      .cls-13 {
        fill: #ffbd95;
      }

      .cls-14 {
        fill: #383838;
      }

      .cls-15 {
        fill: #ababab;
      }

      .cls-16 {
        fill: #97380e;
      }

      .cls-17 {
        fill: #191919;
      }

      .cls-18 {
        fill: #c2c2c2;
      }

      .cls-19 {
        fill: #ffa47c;
      }

      .cls-20 {
        fill: #6f2200;
      }
    </style>
  </defs>
  <g id="Background">
    <g>
      <path class="cls-17" d="m26.93,26.53s-.06.87-.07,2.11c-.01,1.24,1.55,5.05,2.26,8.1.71,3.05,1.03,3.65,1,4.39s-.72,3.31-.84,5.46c-.12,1.97-.6,5.72.56,7.09.27.31.61.21,1.63.21,1.02,0,1.51-.48,1.64-.94.88-3.07.83-11.31.84-12.54,0-.79.14-6.26-.09-10.69-.07-1.43-.54-4.69-.6-5.28-.04-.41-6.32,2.09-6.32,2.09Z"/>
      <g>
        <path class="cls-11" d="m14.27,32.02s-3.72-3.73-6.84-.45c-1.49,1.56-1.49,4.53-1.49,4.53,0,0-1.74.57-2.75,2.55-.97,1.88-.77,3.97-.77,3.97C2.42,42.61-.03,44.91,0,47.36c.02,1.27,1.35,2.35,2.46,1.21,1.62-1.69,1.7-4.99,1.7-4.99,0,0,1.21-1.13,2.3-2.36,1.09-1.24,1.49-2.91,1.49-2.91,0,0,.45-3.26,2.38-3.42,1.86-.15,1.34,1.78,1.34,1.78l2.61-4.65Z"/>
        <path class="cls-20" d="m53.27,21.82s2.43-1.87,2.96-2.73c.52-.87,1.39-1.76,1.7-1.51.31.25-.09,4.05-1.28,5.33-1.19,1.28-3.37-1.08-3.37-1.08Z"/>
        <path class="cls-17" d="m25.81,73.94c-.19.76-.28,3.11-1.05,3.03-.88-.09-2.55-2.2-2.81-3.07-.2-.68.17-1.97.67-2.66.84,1.13,2.1,1.83,3.19,2.7Z"/>
        <path class="cls-20" d="m18.26,57.82c-.26-.88.79-1.23,2.02-2.46,1.23-1.23,2.81-5.15,2.81-5.15l7.99,2.43s-9.13,6.06-6.67,10.48c2.46,4.42,2.37,5.68,1.93,6.29-.44.61-.18,4.04-.44,4.3-.03.03-.06.11-.09.22-1.09-.87-2.35-1.57-3.19-2.7.15-.2.31-.36.47-.42.7-.26.26-1.58-.44-4.13-.7-2.55-4.13-7.99-4.39-8.87Z"/>
        <path class="cls-20" d="m39.12,79.02c-.35-.53-.44-2.2-.53-3.25-.09-1.05.09-2.34.35-3.31.26-.97,1.23-7.83,1.41-8.67.16-.79,1.49-9.55,1.15-10.8,2.1-1.03,4.46-1.34,6.74-1.79-.18.35-.31.72-.33,1.12-.09,1.58-3.86,12.21-4.22,13.35-.35,1.14-.88,2.02-1.05,3.25-.18,1.23-.88,6.09-.53,6.7.35.61.12,2.52.12,2.52,0,0,.33.8.67,1.72-1.28,0-2.56,0-3.85-.07.12-.32.18-.6.07-.76Z"/>
        <path class="cls-17" d="m42.9,79.85c.4,1.08.8,2.33.67,2.68-.21.57-3.95.95-4.98-.53-.36-.53.19-1.5.46-2.22,1.28.07,2.56.07,3.85.07Z"/>
        <path class="cls-6" d="m11.55,79.1c-.26.61-4.65.26-4.65-.44,0-.42.06-1.13.07-1.7,1.16-.21,2.43-.81,3.42-.89.39,1.05,1.36,2.55,1.16,3.03Z"/>
        <path class="cls-16" d="m6.89,76.12c-.18-.35.26-2.28,0-4.04-.26-1.76,0-9.84-.18-10.89-.18-1.05,3.78-10.45,3.34-11.59-.44-1.14-1.49-12.3,2.02-15.72,3.51-3.43,6.59-4.83,9.31-4.92,2.72-.09,14.05,2.11,15.72.44,1.67-1.67,11.68-9.84,14.4-9.75,2.72.09,4.65.7,5.18,1.76.53,1.05,1.49,3.69,1.84,4.57.35.88.35,3.86.53,5.88.18,2.02.84,4.48,1.45,5.45.61.97.92,5.36-1.98,5.8-.78.12-3.07-1.14-3.16-2.02-.09-.88-1.49-3.51-2.37-4.22-.88-.7-2.46-1.41-2.72-.88s-.97,2.99-.97,2.99c0,0,.97,7.47.7,9.05-.2,1.19-1.23,2.12-1.78,3.18-2.05,1.19-16.58,3.58-18.16,3.23-1.58-.35-7.67-.27-10.63-5.01-1.76-2.81-7.11,9.05-7.2,10.01-.09.97-1.58,4.65-2.02,5.8s-.79,7.29-.53,7.82c.26.53.61,1.41.53,2.28-.02.19.05.45.16.75-.99.08-2.26.68-3.42.89,0-.38,0-.71-.07-.85Z"/>
        <path class="cls-6" d="m50.22,80.42c-1.27.35-2.87-1.81-3.22-2.63-.25-.57.17-1.28.42-1.95,1.12.45,2.39.82,3.44.94-.28,1.25-.15,3.51-.64,3.64Z"/>
        <path class="cls-15" d="m39.14,27.6s-5.25,9.16-4.04,15.29c.18.94-16.71-1.66-16.72-2.55-.11-7.25,3.27-11.35,4.97-11.54,1.7-.19,15.79-1.2,15.79-1.2Z"/>
        <path class="cls-16" d="m42.14,46.49s-.48,2.77-.66,3.68c-.18.91,2.03,2.99,5.38,7.12,3.35,4.12,3.29,6.1,3.03,6.84-.26.74,1.17,6.86,1.13,8.27-.06,2.11.51,3.23.12,3.72-.12.15-.2.38-.26.66-1.06-.12-2.32-.49-3.44-.94.12-.32.21-.64.15-.92-.17-.86.13-1.39.3-1.88.17-.49-.25-1.48-.47-2.33-.23-.86.11-4.88-.3-5.77-.41-.89-1.89-2.36-2.02-2.93-.13-.57-8.61-6.12-9.03-6.72-.41-.6-1.04-8.31-1.04-8.31l7.12-.48Z"/>
        <path class="cls-5" d="m27.43,27.22c-1.49-.31-5.01.31-4.39,1.98.61,1.67,2.96,3.36,5.17,3.22,2.2-.14,5.72-4.97,6.95-5.94,1.23-.97,1.72-.98,2.53-.71.81.27,1.6,1.93,1.6,1.93l1-.8s-.03-1.18-.38-1.96c-.41-.9-.92-1.89-2.57-1.6-.94.16-4.72,3.84-5.78,3.88-1.05.05-4.13,0-4.13,0Z"/>
        <path class="cls-17" d="m23.49,30.03s.9,3.2-.52,4c-1.42.79-3.35,2.25-2.56,3.19.79.94,3.95.5,4.04,2.17.09,1.67-2.06,6.32-.68,7.47,1.38,1.14,3.96-.97,4.4-1.93.44-.97,1.2-6.15,2.52-6.76,1.32-.61,2.81-1.32,3.34-2.28.53-.97,2.98-5.28,3.48-6.09.54-.86,2.78-2.89,2.78-2.89,0,0-.91-3.32-2.95-2.39-1,.45-7.1,6.72-8.5,6.72s-5.35-1.18-5.35-1.18Z"/>
        <path class="cls-17" d="m54.96,39.85s1.12-1.33,1.51-1.52c.4-.19,4.04-1.03,4.04-1.03l-.35-.7s-3.6.88-4,1.05c-.4.18-1.57,1.46-1.57,1.46l.36.73Z"/>
        <path class="cls-17" d="m48.93,20.57s-1.05,6.39-.2,9.73c.85,3.34,2.05,5.54,2.05,5.54l-.5.14s-2.05-3.57-2.48-5.74c-.76-3.86.34-9.23.34-9.23l.79-.44Z"/>
        <path class="cls-17" d="m56.16,38.01s-2.39-2.6-4.73-5.23c-1.74-1.96-3.01-4.71-3.01-4.71v1.59s1.53,2.46,3.11,4.22c1.58,1.76,4.33,4.45,4.33,4.45l.29-.32Z"/>
        <path class="cls-16" d="m51.46,21.84s-1.98-2.34-2.31-3.3c-.33-.96-.98-2.01-1.34-1.84-.35.18-.77,3.98.12,5.48.89,1.5,3.53-.34,3.53-.34Z"/>
        <path class="cls-3" d="m48.19,42.51s.36,2.56-.18,5.23c-.4,1.99-1.88,4.18-1.88,4.18l-2.5.59s1.61-1.24,2.64-5.39c.35-1.43-.22-4.6-.22-4.6h2.14Z"/>
        <path class="cls-3" d="m48.19,42.51s-4.5-1.22-7.27-4.74-1.4-10.33-1.4-10.33l-.87.98s-2.05,6.82.96,10.19c3.01,3.37,6.63,5.24,6.63,5.24l1.95-1.34Z"/>
        <path class="cls-3" d="m46.19,43.49s1.81-1.78,2.32-2.58c.52-.82.82-1.76.82-1.76l.3,2.59-1.4,2.15-2.04-.4Z"/>
        <path class="cls-12" d="m48.51,43.29c0,.61-.5,1.11-1.11,1.11s-1.11-.5-1.11-1.11.5-1.11,1.11-1.11,1.11.5,1.11,1.11Z"/>
        <path class="cls-17" d="m57.55,23.39l-.45-1.06s-4.39-.4-5.25-.22c-.86.18-3.57,1.28-3.57,1.28l-.12,1.07s2.77-1.07,3.78-1.28c1.01-.21,5.61.21,5.61.21Z"/>
      </g>
      <g>
        <path class="cls-6" d="m34.46,18.76c.23.32,1.34.17,2.03-.31.7-.47,1.08-1.26.78-1.58s-.95-.57-1.88-.1-1.09,1.76-.93,1.98Z"/>
        <circle class="cls-14" cx="55.75" cy="38.25" r=".69"/>
        <path class="cls-19" d="m31.18,12.01c-1.02.76-.89,1.76-.29,2.63.59.87,4.65,4.43,5.01,4.41s1.35-1.27,1.26-1.79c-.08-.51-2.59-4.23-3.21-4.82-.63-.6-1.57-1.32-2.77-.42Z"/>
        <path class="cls-12" d="m32.65,10.74c.44-.05,1.41.97,1.85,1.61.62.91,2.84,4.55,2.84,4.55,0,0-1.02-.4-1.91.36-1.03.88-.96,1.56-.96,1.56,0,0-3.75-3.98-3.85-4.93-.03-.29.82-3.02,2.04-3.14Z"/>
        <path class="cls-13" d="m27.9,5.26s-.31,3.73-.53,3.9c-.7.54-3.17.92-3.67,1.88-.6,1.17,2.24,6.62,2.57,8.4.33,1.78-.6,4.48-.94,6.2-.33,1.72,4.33,2.27,4.53,2.28.2,0,2.31-1.68,2.67-2.23.35-.55.59-3.13.64-4.26.04-1.13.46-5.08.52-5.34.41-1.72.02-3.1-.04-3.47-.05-.37,0-.98-.18-1.22-.35-.48-2.36-1.17-2.38-1.41-.02-.23-.17-3.49-.17-3.49l-3.02-1.24Z"/>
        <path class="cls-4" d="m27.37,9.16s2.35,1.41,3.19,1.27c.17-.03.53-.45.53-.45,0,0,2.16.77,2.42,1.24.26.48.31,1.66.39,2.04.08.38.06,2.11-.14,3.61-.12.88-.14,2.04-.34,3.53-.16,1.28-.15,4.47-.15,4.47,0,0-1.22,0-3.11-.16-2.19-.19-4.72-.59-4.82-.67-.41-.36.64-3.76.58-4.14-.06-.38-2.5-6.99-2.51-7.85-.01-.85.45-1.4,1.11-1.7.66-.3,2.85-1.18,2.85-1.18Z"/>
        <path class="cls-12" d="m25,10.21s-.92,1.85-.28,2.82c.65.96,3.33,5.18,4.15,5.46,2.91,1.01-.79,4.17-1.16,4.65-.37.48.41,1.18.41,1.18l-2.62-.28c-.89.14.42-4.18.12-5.1-.3-.92-1.71-5.57-1.7-6.25,0-.69,1.08-2.47,1.08-2.47Z"/>
        <polygon class="cls-19" points="30.99 7.91 27.71 6.59 27.37 9.16 28.44 9.75 30.99 7.91"/>
        <path class="cls-13" d="m25.84,11.15c-.97-.87-1.95-.35-2.73.62-.77.97-3.65,6.77-3.56,7.16.1.39,1.64,1.46,2.14,1.18.51-.28,3.73-4.81,4.22-5.72s1.05-2.22-.08-3.23Z"/>
        <g>
          <path class="cls-13" d="m32.45,2.16c-.69-.9-2.98-2.02-4.45-.64s-1.23,3.04-.76,4.13c.37.85.78,1.35,1.66,1.96.18.12,1.91.75,2.28.69.26-.04.76-1.78.83-1.76.07.02.29-.05.32-.19.05-.21.05-1.52.13-1.65.08-.13.78-1.51-.01-2.54Z"/>
          <path class="cls-10" d="m32.8,3.03s-1.22-1-3.18.23c-.42.27.01,1.8-.1,1.9-.12.12-1.15-1.27-1.14-1.1.2,1.72-.49,2.52-.64,2.5-.46-.05-1.44-2.6-.42-4.33,1.02-1.74,3.05-1.57,3.5-1.38.46.18,1.88.55,1.97,2.18Z"/>
          <path class="cls-13" d="m29.11,4.58c.07.55.02,1.26-.28,1.29s-.59-.38-.66-.93c-.07-.55.12-1.02.41-1.05.3-.03.45.14.52.69Z"/>
        </g>
        <g>
          <polygon class="cls-5" points="24.01 51.87 21.89 51.94 21.87 51.53 24 51.46 24.01 51.87"/>
          <path class="cls-5" d="m21.87,48.65c.2-.31-.45,1.74-.44,1.55-.02.43.26,1.33.53,1.33.8-.03,1.76-.03,2.59.06.83.09,1.02.55,3.13.47.62-.02,1.92-.32,1.9-.58-.12-1.23-2.12-.42-2.78-1.01-1.68-1.5-2.78-1.83-2.78-1.83,0,0-2.1-.07-2.16.01Z"/>
        </g>
        <path class="cls-7" d="m25.61,24.09s-1,1.7-1.23,3.21c-.19,1.22,1.01,3.36,1.22,4.71.28,1.82.36,4.29.13,5-.23.7-.9,1.46-1.89,3.89-.75,1.83-.79,3.23-1.86,7.61-.1.43.54.66,1.52.93.99.27,1.43-.04,1.58-.43,1.46-3.99,4.14-8.47,4.78-9.51,1.02-1.67,1.79-6.42,2.04-9.01.12-1.22-.08-2.59.2-3.58.29-1,1.06-1.63,1.06-1.63l-7.56-1.18Z"/>
        <path class="cls-18" d="m24.83,42.25c-.94,2.54-1.82,5.82-1.82,5.82l-.91-.08c.94-3.97,1.02-5.33,1.73-7.09.99-2.43,1.67-3.19,1.89-3.89.23-.7.15-3.18-.13-5-.21-1.35-1.41-3.49-1.22-4.71.14-.91.56-1.89.87-2.52l2.68.84s-1.55,2.1-1.46,2.98c.09.88.85,7.92.85,8.67s-1.55,2.44-2.49,4.98Z"/>
        <path class="cls-2" d="m33.37,24.17s-4.81.16-5.92,0c-1.1-.16-2.25-.54-2.25-.54,0,0-.23,1.39-.17,1.53s2.43.52,4.24.53c1.81.01,4.2-.09,4.21-.39.01-.3.1-1.14-.11-1.13Z"/>
        <path class="cls-13" d="m20.93,18.12c-1.3-.54-2.19,2.25-2.55,3.63s-1.02,5.52-1.02,5.52l1.47.48s1.96-3.28,3.16-7.04c.12-.39.26-2.04-1.06-2.59Z"/>
        <rect class="cls-8" x="31.28" y="12.97" width="1.99" height=".57" transform="translate(65.91 22.52) rotate(173.06)"/>
        <path class="cls-19" d="m35.63,16.88c-1.18.66-.94,2.03-.83,2.92.11.9,1.1,3.91,1.1,3.91l1.39-.22s.12-3.22.01-5.74c-.01-.26-.32-1.63-1.67-.86Z"/>
        <path class="cls-5" d="m25.08,49.23l3.42-7.4s-1.73-.02-2.67-.27-1.83-1.06-1.83-1.06c0,0-.58,1.06-.9,2.03-.31.97-1.31,6.54-1.31,6.54l1.93.78,1.35-.63Z"/>
        <path class="cls-17" d="m23.23,51.81l4.41-8.27.79.18-.8,6.98c-.27-.02-.51-.05-.7-.15l.13-1.27-1.65-.23-1.14,2.4c-.13.27.05.59.35.62l1.63.14c.15.01.29-.05.4-.15.23.01.5.02.82.01l-.03.29c-.04.4-.38.7-.78.68l-2.78-.14c-.54-.03-.88-.6-.63-1.09Z"/>
        <path class="cls-14" d="m55.65,37.78s-9.07-1.08-14.87-5.87c-4.9-4.05-4.31-7.16-4.31-7.16,0,0-.97.48-1,.8-.18,1.89,2.17,4.67,3.77,6.25,6.08,5.96,16.81,6.87,16.81,6.87l-.4-.88Z"/>
        <polygon class="cls-14" points="37.01 25.08 42.26 25.14 41.51 25.68 36.71 25.94 37.01 25.08"/>
        <path class="cls-12" d="m26.5,11.18c.33.37.14,2.19-.36,2.99-.7,1.13-2.81,5.11-2.81,5.11,0,0-1.01-.02-2.02-.63-1.17-.7-1.59-1.57-1.59-1.57,0,0,2.97-5.57,3.88-6.16.27-.18,1.62-1.16,2.9.27Z"/>
        <path class="cls-8" d="m22.57,14.26c.25.16.77-.21,1.16-.82.39-.61.51-1.24.25-1.4-.25-.16-.77.21-1.16.82s-.51,1.24-.25,1.4Z"/>
        <rect class="cls-1" x="5.09" y="42.1" width="34.27" height=".75" transform="translate(54.82 7.33) rotate(70.47)"/>
        <rect class="cls-9" x="26.89" y="56.16" width="2.9" height="5.99" rx=".98" ry=".98" transform="translate(76.55 14.68) rotate(72.91)"/>
        <g>
          <path class="cls-9" d="m15.87,29.68h0c.12.09.29.06.38-.07l.67-.96c.09-.12.06-.3-.07-.38h0c-.12-.09-.29-.06-.38.07l-.67.96c-.09.12-.06.3.07.38Z"/>
          <path class="cls-9" d="m16.26,30.02h0c.12.09.29.06.38-.07l.67-.96c.09-.12.06-.3-.07-.38h0c-.12-.09-.29-.06-.38.07l-.67.96c-.09.12-.06.3.07.38Z"/>
          <path class="cls-9" d="m16.66,30.32h0c.12.09.29.06.38-.07l.67-.96c.09-.12.06-.3-.07-.38h0c-.12-.09-.29-.06-.38.07l-.67.96c-.09.12-.06.3.07.38Z"/>
          <path class="cls-9" d="m17.08,30.57h0c.12.09.29.06.38-.07l.67-.96c.09-.12.06-.3-.07-.38h0c-.12-.09-.29-.06-.38.07l-.67.96c-.09.12-.06.3.07.38Z"/>
          <path class="cls-9" d="m19.23,27.05s-.45,1.83-.63,2.17c-.18.33-1.24,1.36-1.24,1.36,0,0-.15-.65-.45-.8-.3-.15-1.12-.48-1.12-.48,0,0,.44-1.21.81-1.68.37-.47.9-1.27.9-1.27l1.73.69Z"/>
        </g>
        <g>
          <path class="cls-9" d="m38.33,26.18h0c-.12.05-.26,0-.31-.13l-.37-.94c-.05-.12.01-.26.14-.31h0c.12-.05.26,0,.31.13l.37.94c.05.12-.01.26-.14.31Z"/>
          <path class="cls-9" d="m37.92,26.39h0c-.12.05-.26,0-.31-.13l-.37-.94c-.05-.12.01-.26.14-.31h0c.12-.05.26,0,.31.13l.37.94c.05.12-.01.26-.14.31Z"/>
          <path class="cls-9" d="m37.52,26.58h0c-.12.05-.26,0-.31-.13l-.37-.94c-.05-.12.01-.26.14-.31h0c.12-.05.26,0,.31.13l.37.94c.05.12-.01.26-.14.31Z"/>
          <path class="cls-9" d="m37.12,26.72h0c-.12.05-.26,0-.31-.13l-.37-.94c-.05-.12.01-.26.14-.31h0c.12-.05.26,0,.31.13l.37.94c.05.12-.01.26-.14.31Z"/>
          <path class="cls-9" d="m35.86,23.64s.16,1.34.24,1.65c.08.32.76,1.38.76,1.38,0,0,.26-.53.55-.6.29-.08,1.05-.21,1.05-.21,0,0-.12-1.11-.34-1.57-.22-.46-.83-1.2-.83-1.2l-1.44.54Z"/>
        </g>
        <path class="cls-14" d="m27.59,4.5c.06,0,.25,1.3.62,1.96s1.06,1.32,2,1.68c.15.06.42.08.42.08,0,0-.27-.26-.34-.29-1.02-.56-1.56-1.25-1.58-1.34-.02-.09.58-.98.9-1.7.12-.28.27-1,.27-1h-.37s-.05.48-.17.76c-.35.85-.9,1.51-.9,1.51,0,0-.18-.4-.31-.79-.15-.45-.21-1.1-.21-1.1l-.33.23Z"/>
        <path class="cls-17" d="m33.88,3.68c.05-.22-.66-.49-.65-.67.02-.85-.32-2.53-2.58-2.94-3.18-.56-4.83,2.39-4.19,4.28.13.4.36.87.41.93.16.16.42-.39,1.34-.72.74-.27,1.5-.48,2.16-.49,1.38-.03,3.46-.1,3.52-.37Z"/>
      </g>
    </g>
  </g>
</svg>