<svg clip-rule="evenodd" fill-rule="evenodd" height="1.707in" image-rendering="optimizeQuality" shape-rendering="geometricPrecision" text-rendering="geometricPrecision" viewBox="0 0 1707 1707" width="1.707in" xmlns="http://www.w3.org/2000/svg"><g id="Layer_x0020_1"><g id="_512117368"><path d="m1336 1695c61 0 119-6 164-14 88-16 180-49 203-175 13-72-12-114-34-136-36-35-94-47-159-34-116 25-235 27-295 27-10 0-19 0-28 0-115-1-136-1-210-115l-697-1080c-7-11-21-14-31-7-8 5-76 46-105 70-6-3-14-2-20 2-11 7-14 21-7 32l717 1095c11 16 21 32 31 47 53 85 104 165 199 229 67 44 173 59 272 59z" fill="#ff871b"/><path d="m596 657-25-38-161 93 25 38z" fill="#ff3131"/><path d="m111 281c13 0 25-3 36-9l125-72c35-20 47-64 27-99l-46-78c-3-5-8-9-13-11-6-1-12 0-18 3l-211 121c-5 4-9 8-10 14-2 6-1 12 2 18l45 77c13 23 37 36 63 36z" fill="#ff3131"/><path d="m291 184 280 435-161 93-283-432c7-2 14-5 20-8l125-72c7-4 14-10 19-16z" fill="#dedede"/><path d="m371 1695c-61 0-120-6-164-14-88-16-181-49-203-175-13-72 11-114 34-136 36-35 93-47 158-34 117 25 235 27 296 27h28c115-1 136-1 210-115l697-1080c6-11 20-14 31-7 8 5 76 46 105 70 6-3 14-2 20 2 10 7 13 21 7 32l-717 1095c-11 16-21 32-31 47-53 85-104 165-200 229-66 44-172 59-271 59z" fill="#ffa721"/><g><path d="m371 1695c-61 0-120-6-164-14-88-16-181-49-203-175-13-72 11-114 34-136 36-35 93-47 158-34 117 25 235 27 296 27h28c115-1 136-1 210-115l697-1080c6-11 20-14 31-7 8 5 76 46 105 70 6-3 14-2 20 2 10 7 13 21 7 32l-717 1095c-11 16-21 32-31 47-53 85-104 165-200 229-66 44-172 59-271 59z" fill="#ffa721"/><path d="m1111 657 25-38 161 93-25 38z" fill="#ff3131"/><path d="m1596 281c-13 0-26-3-37-9l-125-72c-34-20-46-64-26-99l45-78c3-5 8-9 14-11 6-1 12 0 17 3l211 121c6 4 9 8 11 14 1 6 1 12-2 18l-45 77c-13 23-37 36-63 36z" fill="#ff3131"/><path d="m1416 184-280 435 161 93 283-432c-8-2-14-5-21-8l-125-72c-7-4-13-10-18-16z" fill="#dedede"/></g><g><path d="m873 545c-165 0-295-67-295-152 0-1 0-2 0-3v-182c0-12 10-23 23-23h545c13 0 23 11 23 23v185 1c-1 85-131 151-296 151z" fill="#333"/><path d="m873 342c-143 0-295-47-295-134s152-134 295-134c144 0 296 47 296 134s-152 134-296 134z" fill="#58535a"/></g></g></g></svg>