<?xml version="1.0" encoding="UTF-8"?>
<svg id="Layer_2" data-name="Layer 2" xmlns="http://www.w3.org/2000/svg" viewBox="0 0 3733.33 2665.25">
  <defs>
    <style>
      .cls-1 {
        fill: #191a1e;
      }

      .cls-2 {
        fill: #fff;
      }

      .cls-3 {
        fill: #2c2a2f;
      }

      .cls-4 {
        fill: #89323b;
      }

      .cls-5 {
        fill: #881324;
      }

      .cls-6 {
        fill: #67232a;
      }

      .cls-7 {
        fill: #fcd2a7;
      }

      .cls-8 {
        fill: #393c3f;
      }

      .cls-9 {
        fill: #4e5257;
      }

      .cls-10 {
        fill: #fdc49a;
      }

      .cls-11 {
        fill: #151717;
      }

      .cls-12 {
        fill: #002a6b;
      }

      .cls-13 {
        fill: #ffaa83;
      }

      .cls-14 {
        fill: #ff9974;
      }

      .cls-15 {
        fill: #d1cfd0;
      }

      .cls-16 {
        fill: #00235d;
      }

      .cls-17 {
        fill: #971728;
      }
    </style>
  </defs>
  <g id="wrestling">
    <g>
      <path class="cls-1" d="m532.35,972.87c22.97-50.42,96.15-83.11,146.67-95.95,69.63-17.7,139.21,0,185.11,57.13,51.78,64.46,75.33,107.18,86.15,130.15,5.96,12.65,5.18,27.49-2.24,39.34l-.12.19c-14.13,16.84-34.39,27.35-56.63,16.23-23.58-15.72-35.37-47.16-58.95-58.94-27.51-7.86-55.02,0-62.87,23.58-15.72,27.51,23.58,58.95,7.86,86.45-7.86,19.65-35.37,27.51-51.09,11.79-31.44-35.37-43.23-82.52-78.59-102.17-71.46-33.85-74.53,90.67-112.56,142.76l-.18-.29c-14.77,8.86-38.77-26.76-38.77-26.76-32.04-81.08,3.15-150.94,36.21-223.5Z"/>
      <path class="cls-14" d="m647.66,1080.66c35.37,19.65,47.16,66.8,78.59,102.17,15.72,15.72,43.23,7.86,51.09-11.79,15.72-27.51-23.58-58.94-7.86-86.45,7.86-23.58,35.37-31.44,62.87-23.58,23.58,11.79,35.37,43.23,58.95,58.94,22.23,11.12,42.5.6,56.63-16.23-66.05,105.39-169.89,202.33-162.73,338.47,0,.63-.33,1.37-.89,2.16l-24.91-31.11c-15.51,2.62-10.48-13.83-10.48-13.83l4.68-17.73s-6.02,7.28-25.46,9.1c-19.44,1.82-26.09-16.1-26.09-16.1l-26.6,12.12c-26.6,12.12-33.6-23.19-33.6-23.19,0,0-8.24-39.03-14.3-53.69-6.06-14.66-21.22-20.36-35.89-17.15-14.67,3.21-23.26-16.05-23.26-16.05l-33.3-53.3c38.03-52.09,41.1-176.61,112.56-142.76Z"/>
      <path class="cls-15" d="m3251.34,1965.3c.7.2-2.24-21.69,31.11-14.11,17.26,3.93,47.77,11.93,102.37,14.14,30.81,43.98,67.18,96.87,33.25,140.97-10.49,14.69-27.72,26.02-45.67,37.57-12.85-2.95-29.55-5.47-49.55-9.25-66.95-12.65-32.32-9.2-108.5-12.65-10.09-.46-20.91-.67-32.09-.69,49.94-36.28,80.68-95.41,69.08-155.99Z"/>
      <path class="cls-6" d="m3665.64,2133.81c15.72-31.44,15.72-70.73-7.86-98.24-21.77-18.66-48.47-34.78-76.19-46.57,31.87.98,81.97,7.46,121.07,35.38,30.15,21.53,33.7,57.34,28.93,93.98-.05.37-.1.74-.15,1.12-4,28.18-12.9,51.13-40.31,59.19-16.74,4.92-40.96,9.6-75.16,11.54-11.07.63-21.75,3.99-31.32,9.55-10.42,6.06-29.63,14.95-64.41,25.71-26.07,8.06-40.91,3.9-49.34-4.17,27.7.18,57.63-11.99,88.65-28.54,35.37-23.58,86.45-19.65,106.1-58.94Z"/>
      <path class="cls-4" d="m3386.61,2147.98c-3.97-1.54-8.78-2.86-14.21-4.11,17.96-11.55,35.18-22.89,45.67-37.57,33.93-44.11-2.44-96.99-33.25-140.97,2.4.1,4.79.2,7.28.28,67.28,2.16,112.34,11.1,136.6,17.47,14.44,3.79,29.26,5.72,44.2,5.76,2.69,0,5.63.07,8.68.16,27.72,11.79,54.42,27.91,76.19,46.57,23.58,27.51,23.58,66.8,7.86,98.24-19.65,39.3-70.73,35.37-106.1,58.94-31.02,16.55-60.95,28.72-88.65,28.54-13.23-12.65-10.68-34.92-10.68-34.92l-.7-.13c-25.27-22.29-49.51-29.19-72.9-38.26Z"/>
      <path class="cls-13" d="m2561.4,1827.29c23.72-15.47,43.07-33.94,59.2-54.51,2.21,26.47,4.24,56.99,6.23,92.79,0,0-11.54,22.99,88.88,0,97.54-22.34,511.93,93.08,535.63,99.72,11.6,60.58-19.13,119.71-69.08,155.99-73.22-.19-161.83,7.59-161.83,7.59,0,0-130.43-5.75-168.52-24.15-38.09-18.4-212.38-6.9-212.38-6.9,0,0-87.72,18.4-162.75-1.15-75.03-19.55-137.36-151.77-137.36-151.77l-60.14-115.19c84.68,43.72,195.25,52.27,282.12-2.43Z"/>
      <path class="cls-17" d="m2089.84,1277.14c-3.49-27.95,5.41-62.1-17.42-85.91,47.11-51.59,89.65-108.97,135.31-161.66,7.86-7.86,39.3,11.79,58.95,23.58,60.82,32.2,115.14,77.42,183.7,94.16-.14,1.38-.15,1.93-.15,1.93,0,0,132.74,63.24,86.57,267.9,0,0,1.15,86.24,34.63,151.78,27.08,53.02,39.81,91.78,49.18,203.86-16.12,20.57-35.48,39.04-59.2,54.51-86.87,54.7-197.44,46.14-282.12,2.43l-51.49-98.63c13.47-12.72,70.33-105.79,82.12-145.08,23.58-113.96,74.66-255.43-23.58-349.74,27.51,62.87,51.09,129.68,35.37,196.48-26.28,93.84-48.99,194.84-105.77,275.62,0,0-29.37,49.9-59.12,104.76-8.39-47.97-25.92-100.02-62.55-128.77,3.29-33.82-9.34-73.74-20.13-100.7-43.23-102.17,27.51-200.41,15.72-306.51Z"/>
      <g>
        <path class="cls-5" d="m2286.32,1236.27c98.24,94.31,47.16,235.78,23.58,349.74-11.79,39.3-68.65,132.36-82.12,145.08l-11.86-22.72c56.78-80.78,79.49-181.78,105.77-275.62,15.72-66.8-7.86-133.61-35.37-196.48Z"/>
        <path class="cls-5" d="m2213.74,1708.22l.65-.93c49.65-70.64,73.19-156.92,95.95-240.36,3.18-11.64,6.34-23.22,9.53-34.62,16.19-68.83-9.71-136.9-35.26-195.31l-3.76-8.58,6.76,6.49c85.99,82.55,58.64,200.7,34.51,304.94-3.74,16.17-7.28,31.45-10.44,46.69-11.65,38.84-68.86,132.91-82.62,145.91l-1.8,1.69-13.53-25.92Zm109.75-274.97c-3.21,11.47-6.37,23.04-9.54,34.67-22.75,83.38-46.27,169.59-95.85,240.59l10.14,19.42c16.09-18.02,68.78-105.47,79.84-142.3,3.13-15.12,6.67-30.42,10.42-46.62,23.22-100.33,49.46-213.66-26.51-294.38,24.4,56.87,47.14,122.18,31.5,188.62Z"/>
      </g>
      <path class="cls-2" d="m1999.41,1261.23c26.01-21.15,50.07-44.86,73.01-69.99,22.83,23.8,13.93,57.96,17.42,85.91,11.79,106.1-58.94,204.34-15.72,306.51,10.79,26.96,23.42,66.88,20.13,100.7-10.35-8.12-22.22-14.39-35.85-18.18-34.86-11.09-70.37-25.38-105.73-36.16-12.65-101.75,30.53-196.93,50.72-297.86,5.91-23.65,7.37-49.52-3.98-70.93Z"/>
      <path class="cls-17" d="m1953.67,1294.12c15.97-10.02,31.17-21.05,45.74-32.9,11.35,21.41,9.9,47.28,3.98,70.93-20.19,100.94-63.37,196.12-50.72,297.86-31.83-9.7-63.55-16.52-94.6-15.67-7.78-85.08,30.03-165.32,78.52-242.9,12.61-22.07,17.62-49.2,17.08-77.33Z"/>
      <path class="cls-2" d="m1888.21,1327.05c23.31-9,45.02-20.11,65.45-32.93.54,28.13-4.47,55.26-17.08,77.33-48.49,77.58-86.29,157.82-78.52,242.9-16.85.46-33.49,3.21-49.85,8.99,1.28-91.01,27.92-175.38,73.35-259.75,4.87-12.18,5.22-24.36,6.64-36.54Z"/>
      <path class="cls-17" d="m1763.68,1528.64c31.44-66.8,31.44-168.98,98.24-192.55,9-2.7,17.74-5.73,26.29-9.03-1.43,12.18-1.77,24.36-6.64,36.54-45.43,84.37-72.07,168.74-73.35,259.75-3.07,1.08-6.13,2.24-9.17,3.54-22.29,8.1-40.38,26.67-52.16,49.75,1.56-50.37-1.76-101.61,16.79-147.99Z"/>
      <path class="cls-3" d="m2125.21,2047.36c-2.76-9.21-6.42-17.98-10.71-26.43,18.06-4.51,35.28-10.19,50.08-21.76.56.69,1.11,1.4,1.69,2.08,36.94,43.69,43.89,40.28,58.99,70.05-29.24,20.97-56.51,44.23-91.37,51.97.2-25.3-1.5-50.79-8.68-75.92Z"/>
      <path class="cls-8" d="m2322.94,2259.16c2.21,9.79,3.26,19.37,2.62,28.39-4.62,65.54-48.48,64.39-48.48,64.39l-93.4,31.01c-4.8-9.76-9.24-19.71-13.48-29.76,59.71-21.64,129.74-33.21,152.74-94.04Z"/>
      <path class="cls-9" d="m2133.89,2123.28c34.87-7.75,62.13-31,91.37-51.97,6.24,12.3,13.86,30.21,22.96,56.43,0,0,60.89,70.1,74.71,131.43-22.99,60.83-93.02,72.4-152.74,94.04-9.15-21.69-17.27-43.91-25.35-66.13-21.86-49.2-11.43-106-10.97-163.79Z"/>
      <path class="cls-10" d="m2120.03,1877.37c-1.14,1.84,8.93,77.86,44.55,121.8-14.8,11.57-32.02,17.25-50.08,21.76-14.01-27.59-35.04-51.68-56.1-75.74,25.93-18.52,34.42-50.99,61.63-67.82Z"/>
      <path class="cls-9" d="m1586.84,2169.18c-19.86-21.52-24.35-46.52-21.18-72.37,4.99-2.26,10.85-4.24,17.7-5.87,0,0,98.11,6.9,122.35,0,24.24-6.9,51.94-45.99,51.94-45.99,0,0-.95-1.71-2.41-5.17,35.08,31.94,75.73,56.92,106.67,94.04,37.49,46.14,34.75,104.96,15.11,157.86-44.76-15.99-92.58-13.63-136.93-32.11-11.79-3.93-121.82-55.02-153.26-90.38Z"/>
      <path class="cls-8" d="m1549.9,2165.67s-32.19-47.16,15.77-68.87c-3.18,25.85,1.31,50.85,21.18,72.37,31.44,35.37,141.47,86.45,153.26,90.38,44.35,18.48,92.17,16.11,136.93,32.11-2.66,7.18-5.63,14.25-8.86,21.16.1-1.53.22-3.03.3-4.57,0,0-107.35,0-218.15-68.99-110.81-68.99-100.42-73.59-100.42-73.59Z"/>
      <path class="cls-13" d="m1891.13,2218.02c-.23-29.84-8.67-58.93-29.21-84.22-30.93-37.12-71.59-62.1-106.67-94.04-5.59-13.27-18.8-52.74-16.06-124.75,2.37-62.25-.13-121.8-1.94-153.11,2.1-15.04,3.92-30.36,6.78-44.64,1.68-13.4,2.44-26.99,2.86-40.64,11.78-23.08,29.87-41.64,52.16-49.75,82.52-35.37,172.91,11.79,259.36,39.3,61.84,17.18,87.64,85.42,98.4,146.95-12.32,22.72-25.13,45.4-36.77,64.24-27.21,16.83-35.7,49.3-61.63,67.82,27.51,31.44,55.02,62.87,66.8,102.17,16.86,59,3.59,120.01,6.15,175.85-80.08,15.45-160.15-7.89-240.23-5.18Z"/>
      <path class="cls-15" d="m1868.76,2311.51c13.64-29.59,22.61-61.95,22.37-93.49,80.08-2.7,160.15,20.63,240.23,5.18,1.02,22.26,4.54,43.7,13.5,63.86,7.17,19.71,14.35,39.41,22.26,58.75-97.79,1.2-219.93,28.55-298.36-34.31Z"/>
      <path class="cls-4" d="m1999.46,2609.3c-43.23-7.86-82.52-19.65-121.82-7.86-125.75,39.3-267.22,70.73-373.32-7.86-19.26-14.44-28.68-37.41-36.31-63.01,3.25-4.63,7.72-8.72,13.79-11.91,53.6-28.18,123.83-36.44,182.67-47.69,51.07-9.76,102.78-22.01,148.81-46.92,39.78-21.52,51.77-62.52,54.9-111.23.2-.43.38-.88.58-1.31,78.44,62.85,200.58,35.5,298.36,34.31,5.14,12.57,10.59,24.99,16.57,37.14l-3.56,1.18s29.15,81.11,22.15,143.52c-45.62,63.14-121,102.99-202.82,81.64Z"/>
      <path class="cls-6" d="m1504.32,2593.58c106.1,78.59,247.57,47.16,373.32,7.86,39.3-11.79,78.59,0,121.82,7.86,81.82,21.34,157.2-18.5,202.82-81.64-1.92,17.1-6.53,32.81-15.23,45.05-36.36,51.17-80.8,74.74-170.83,66.69-90.03-8.05-125.09-5.12-202,9.2-70.98,13.22-130.39,17.89-193.91,16.38-55.57-1.32-95.97-29.15-120.34-42.61-23.22-12.82-38.5-36.65-39.34-63.09-.32-10.11,1.5-20.32,7.39-28.71,7.63,25.6,17.05,48.56,36.31,63.01Z"/>
      <path class="cls-14" d="m1578.99,1571.87c85.23,19.37,90.3,134.17,158.2,190.13-9.35,14.63-134.43,124.4-263.46,196.71l-129.28,72.44s-11.54,40.24-88.88,39.09c-85.99,9.77-163.91-1.15-163.91-1.15,0,0-56.56-1.15-31.17-36.79l-64.64,5.75s-23.09,1.15-11.54-12.65c0,0-28.86-9.2-3.46-21.85,0,0,6.35-20.12,56.56-20.7,0,0,17.31-21.85,96.96-13.8,79.64,8.05,155.83-26.45,155.83-26.45,0,0,166.56-157.29,247.36-296.68,5.02-8.66,5.12-19.29.36-28.09-11.1-20.52-23.21-44.89-44.58-48.92-4.78-.9-9.6-1.58-14.44-2.15,34.15-5.82,74.12,1.38,100.09,5.09Z"/>
      <path class="cls-10" d="m1677.23,687.69c62.1-16.94,126.22-17.65,186.55-32.73,16.07,6.59,32.16,12.61,48.32,18.15-30.3,52.88-76.47,97.19-118.06,140.78-48.24-33.5-99.22-70.85-133.46-121.77,5.8-1.87,11.87-2.84,16.65-4.43Z"/>
      <path class="cls-2" d="m1846.2,196.48c106.1,90.38,172.91,231.85,133.61,373.32-9.12,30.39-25.34,63.05-54,79.96-.11-1.04.76-17.79-2.3-16.27-26.07-143.27-171.25-267.99-315.49-302.8,25.35-93.71,31.46-183.74-48.68-228.52-9.92-6.06-19.84-9.19-29.74-10.07,115.02-9.2,231.49,26.67,316.6,104.38Z"/>
      <g>
        <path class="cls-16" d="m2317.76,868.46c66.8-78.59,141.47-165.05,110.03-271.15,74.98,167.81-93.33,306.42-189.58,439.41-13.49-7.02-25.93-11.7-30.48-7.15-.24.28-.48.56-.72.84,5.42-11.91,75.38-122.66,110.75-161.96Z"/>
        <path class="cls-16" d="m2205.31,1029.64c5.17-11.36,75.61-123.03,111.04-162.41l1.88-2.21c64.97-76.43,138.62-163.05,107.76-267.17l3.49-1.29c60.35,135.07-34.13,249.5-125.51,360.15-23.1,27.97-44.91,54.39-64.26,81.12l-.94,1.31-1.43-.75c-19.46-10.13-26.14-9.66-28.21-7.59l-9.16,10.57,5.33-11.72Zm115.77-162.21l-1.93,2.28c-32.13,35.7-93.18,131.11-107.62,156.26,5.47-.62,13.89,2.12,26.12,8.36,19.18-26.38,40.7-52.45,63.46-80.01,85.24-103.22,173.21-209.75,134.01-332.65,14.15,94.98-53.65,174.73-114.04,245.76Z"/>
      </g>
      <path class="cls-12" d="m1788.83.59c189.56,7.98,323.93,49.02,403.54,82.22,56.32,23.49,107.8,57.29,150.97,100.3,14.02,13.97,106.56,118.01,136.69,143.05,13.2,10.97,25.61,22.83,37.15,35.52,34.65,38.09,99.85,117.2,116.57,189.67,23.09,100.03,13.85,186.27-27.7,238.01-41.55,51.74-68.1,52.89-111.96,194.32-37.33,120.36-42.89,155.76-43.71,163.64-68.56-16.74-122.87-61.96-183.7-94.16-8.28-4.97-18.64-11.31-28.46-16.43,96.25-132.99,264.56-271.61,189.58-439.41,31.44,106.1-43.23,192.55-110.03,271.15-35.37,39.3-105.33,150.04-110.75,161.96-75.47,87.22-142.49,187.13-235.92,252.21-11.59-11.67-24.36-21.31-37.85-29.56,36.94-140.27,14.69-284.05,3.34-427.83-7.47-56.06-4.34-115.68-10.77-175.47,28.66-16.92,44.88-49.58,54-79.96,39.3-141.47-27.51-282.94-133.61-373.32-85.11-77.71-201.58-113.59-316.6-104.38-59.03-5.28-117.29,71.78-170.18,116.41,28.37-48.83,148.19-219.77,429.41-207.93Z"/>
      <path class="cls-12" d="m1551.48,510.86c14.15-53.47,39.63-117.64,56.54-180.16,144.25,34.81,289.43,159.53,315.49,302.8-76.42,37.89-163.16,31.53-246.28,54.2-4.78,1.59-10.85,2.56-16.65,4.43-.95-1.41-152.68,42.23-228.17,19.14,1.33-.01,2-.02,2-.02,0,0-.67,0-2,.02-.58-.18-1.15-.37-1.72-.56,60.16-54.36,101.68-123.36,120.8-199.85Z"/>
      <path d="m1426.31,712.84c.28.35.56.71.84,1.07-.48.43-.94.87-1.43,1.3,0-1.05.22-1.8.58-2.36Z"/>
      <path class="cls-7" d="m1339.28,239.71c5.35-2.67,15.44-23.11,20.14-31.2,61.76-52.12,130.84-148.56,199.92-106.34,133.61,74.66,27.51,275.08-7.86,408.69-19.12,76.49-60.63,145.49-120.8,199.85-3.1-1.01-6.07-2.12-8.88-3.36,1.52,1.77,4.87,6.99,5.36,6.56,67.81,86.44,113.75,283.98,114.34,283.84,21.77,49.9,35.1,72.41,64,100.6-11.83,18.86-23.34,37.68-34.37,56.98-30.87,51.45-37.79,111.88-67.8,163.01-51.55-103.54-89.53-213.84-159.61-304.81.63.02-55.55-113.42-65.06-134.48-1.58-3.5-3.43-7.39-5.42-11.47-12.22-25.02-27.89-48.17-45.83-69.47-21.8-25.88-55.3-78.95-68.8-170.87l-.14-.09c-19.36-149.32,69.13-286.55,180.81-387.43Z"/>
      <path class="cls-10" d="m1040.62,499.07c19.65,7.86,39.3,19.65,62.87,7.86,11.79-7.86,3.93-23.58,3.93-31.44-11.79-31.44-70.73-78.59-19.65-94.31,43.47-10.87,86.93,18.29,130.4,1.39-45.47,74.17-71.03,157.3-59.72,244.58l-39.1-25.2s-61.18,14.95-71.56-26.45c-10.39-41.39-41.55-47.14-41.55-47.14,0,0-.07.12-.19.33-.79-22.91,4.65-43.21,34.57-29.61Z"/>
      <path class="cls-11" d="m971.61,254.69c82.76-132.82,269.64-123.09,379.49-34.45-2.95,8.64-6.48,16.79-11.83,19.46-46.41,41.92-88.77,90.13-121.1,142.85-43.47,16.91-86.93-12.25-130.4-1.39-51.09,15.72,7.86,62.87,19.65,94.31,0,7.86,7.86,23.58-3.93,31.44-23.58,11.79-43.23,0-62.87-7.86-29.93-13.6-35.36,6.7-34.57,29.61-1.96,3.31-18.89,30.92-28.66,15.77-10.39-16.1-88.88-156.38-5.77-289.75Z"/>
      <path class="cls-2" d="m1776.86,835.06c9.78-11.12,18.05-20.56,17.18-21.17,48.34-50.67,102.87-102.3,131.45-167.24,6.89,60.83,3.49,121.55,11.09,178.58,11.35,143.78,33.6,287.56-3.34,427.83-21.27-13.01-44.33-22.54-67.39-30.93-31.59-10.11-61.92-23.54-90.68-39.76.18-2.59.3-5.09.3-7.4,0-113.3-18.13-226.61,1.39-339.91Z"/>
      <path class="cls-12" d="m1629.86,1059.91c12.63-19.84,25.47-40.07,38.34-61.26.75-.03,1.12-.04,1.12-.04,0,0-.37.01-1.12.04,1.7-2.8,3.4-5.54,5.11-8.38,23.58-39.3,47.16-82.52,78.59-125.75,5.66-7.54,15.95-19.22,24.97-29.47-19.52,113.3-1.39,226.61-1.39,339.91,0,2.3-.11,4.81-.3,7.4-55.31-31.2-104.71-72.9-145.32-122.45Z"/>
      <path class="cls-10" d="m1605.5,1098.34c1.7,1.66,2.55,2.49,2.55,2.49,0,0-.85-.83-2.55-2.49,7.99-12.74,16.13-25.5,24.36-38.43,61.72,75.32,143.65,132.66,236,162.21,37.69,13.7,75.36,30.4,105.24,60.5-32.67,22.75-68.54,41.28-109.17,53.47-66.8,23.58-66.8,125.75-98.24,192.55-23.58,58.94-11.79,125.75-19.65,188.62-2.86,14.28-4.68,29.6-6.78,44.64-.06.02-.07.03-.13.05-64.62-53.32-72.37-159.91-146.6-186.64-71.61-66.01-125.65-156.35-86.21-254.94-.34-.68-.66-1.36-1-2.04,30.01-51.12,36.93-111.55,67.8-163.01,11.03-19.3,22.55-38.13,34.37-56.98Z"/>
      <path class="cls-17" d="m1541.5,997.74c43.43-10.23,83.61,2.39,126.69.92-21.25,34.99-42.43,67.38-62.69,99.68-28.9-28.19-46.16-58.56-64-100.6Z"/>
      <path class="cls-17" d="m1370.71,1112.1c-70.73-51.09-165.05-78.59-259.36-62.87-95.72,14.72-167.29,81.19-230.88,150.91,18.01-25.08,36.49-49.8,53.38-74.81,21.62-32.02,52.85-56.35,89.21-69.41,63.01-22.62,167.19-46.53,320.64-42.39,70.54,91.56,108.55,202.72,160.61,306.85-39.44,98.6,14.59,188.93,86.21,254.94-3.7-1.33-7.5-2.53-11.54-3.45-25.97-3.71-65.94-10.91-100.09-5.09-41.97-4.91-85.99,1.35-126.6-4.7-46.05-6.86-92.46-10.64-139.02-10.4-41.28.21-77.66-15.21-116.6-24.08,109.24,1.63,217.5-26.94,281.9-128.63,58.95-94.31,78.59-223.99-7.86-286.87Z"/>
      <g>
        <path class="cls-13" d="m262.88,2296.33l12.48-3.3c-4.41,1.54-8.57,2.59-12.48,3.3Z"/>
        <path class="cls-13" d="m23.11,2335.84s-9.23-23,9.23-24.15c18.47-1.15,48.48,0,48.48,0,0,0-1.15-19.55,18.47-21.85,16.86-1.98,46.64,1.99,62.8,3.15,2.84.2,5.69.32,8.54.35l12.09.09c-10.55-11.88,4.33-24.24,18.97-21.36,20.34,4,35.36,22.24,57.29,24.85,1.27-.17,2.56-.35,3.9-.59l-2.82.75c.06,0,.11.02.17.02,17.7,1.46,30.21-9.06,43.71-19.71,33.13-26.13,55.01-63.34,72.07-101.37,0,0,123.51-229.96,175.45-309.3,43.7-66.74,65.4-109.32,90.28-142.8,29.49-39.67,53.07-94.69,59.36-117.7,8.71-31.85,9.25-91.16,83.52-161.48l-.31-.39c.56-.8.89-1.53.89-2.16-4.96-94.19,43.24-169.61,95.28-242.05,63.59-69.73,135.16-136.19,230.88-150.91,94.31-15.72,188.62,11.79,259.36,62.87,86.45,62.87,66.8,192.55,7.86,286.87-64.4,101.69-172.66,130.25-281.9,128.63-2.59-.59-5.19-1.15-7.8-1.68-29.29-5.89-67.87-17.07-97.64-8.73-28.02,7.85-73.31,111.65-93.55,161.3-6.19,15.19-64.2,100.85-65.74,139.95-1.81,46.07-41.39,96.4-58.27,115.86-3.6,4.15-28.46,28.04-34.07,52.01-8.08,34.49-84.26,133.38-160.44,194.32-76.18,60.94-176.6,181.67-176.6,181.67,0,0-18.55,36.61-103.88,42.54-74.45,5.17-88,.58-88,.58l-139.09-15.52s-28.86-4.6-21.93-26.45c0,0-38.61,4.57-45.59-4.02-15.66-19.26,19.05-23.57,19.05-23.57Z"/>
      </g>
    </g>
  </g>
</svg>