<svg id="Layer_1" enable-background="new 0 0 512 512" height="512" viewBox="0 0 512 512" width="512" xmlns="http://www.w3.org/2000/svg"><g id="XMLID_1_"><g id="XMLID_4701_"><path id="XMLID_2161_" d="m256.7 5h-26.7v30l-106.5 45.9-12.5 25.8v28.9l22 23.4h29.8l15.3-18.3 57-5.2 21 22.9-80.4 65.4c-25 20.4-39.6 50.9-39.6 83.2l20 30h245c-16.5-53.4-21-109.7-13.4-165l2-14.5c7-50.5-15.3-100.6-57.5-129.3-22.3-15.1-48.6-23.2-75.5-23.2z" fill="#ffc96f"/><g fill="#ffdca4"><path id="XMLID_2162_" d="m205.7 91 12.1-32h36.4l17.8 32z"/><path id="XMLID_456_" d="m256 35.2-103.3 49.7 7.4 20.1 18.9 11.7-.9 24-15.3 18.3h-29.8l-22-23.4v-28.6l12.5-26.1 106.5-45.9z"/><path id="XMLID_561_" d="m296.1 144.9-82.8 76.5c-11.9 11-21.3 24.3-27.7 38.9s-9.8 30.5-9.8 46.7l20 30h-39.8l-20-30c0-32.3 14.5-62.8 39.6-83.2l80.4-65.4z"/></g><path id="XMLID_2165_" d="m136 337h240v30h-240z" fill="#f0917b"/><g id="XMLID_2163_"><path id="XMLID_2803_" d="m126.3 110.4h10v41.5h-10z" fill="#ffb234" transform="matrix(.212 .977 -.977 .212 231.583 -24.999)"/></g><path id="XMLID_474_" d="m209 75 7.6-20h23.1l11.3 20z" fill="#ffb234"/><path id="XMLID_2166_" d="m401 337h-45l-4.3-10.6c-11.9-29.5-17.9-60.9-17.9-92.4 0-17.4 1.8-34.9 5.5-52.1 2-9.3 3-18.7 3-28 0-38.3-16.6-75.3-46.3-100.9v-42.1c12.8 3.9 25 9.7 36 17.3 42 28.7 64.5 78.8 57.5 129.3l-2 14.5c-2.4 17.4-3.6 34.8-3.6 52.3.1 38.1 5.8 76.1 17.1 112.7z" fill="#f0917b"/><path id="XMLID_2784_" d="m295.8 10.8-39.8 24.2h-26v-30h26.7c13.4 0 26.5 2 39.1 5.8z" fill="#f0917b"/><path id="XMLID_2804_" d="m296.1 182.9s-80 47.2-80 124.1l34.9 30h45l-34.9-30c0-76.9 35-124.1 35-124.1z" fill="#ffb234"/><g id="XMLID_2158_"><path id="XMLID_2802_" d="m127.2 86h10v17.7h-10z" fill="#ffb234" transform="matrix(.927 .376 -.376 .927 45.421 -42.763)"/></g><path id="XMLID_495_" d="m356 367h-200l-35.7 39.7c-6 6.6-9.3 15.2-9.3 24.2 0 20 16.2 36.1 36.1 36.1h217.7c20 0 36.1-16.2 36.1-36.1 0-8.9-3.3-17.5-9.3-24.2z" fill="#ffc96f"/><g id="XMLID_493_"><path id="XMLID_494_" d="m248 430.9c0-8.9.6-17.5 1.6-24.2l6.2-39.7h-50.1l-18 39.7c-3 6.6-4.7 15.2-4.7 24.2 0 20 8.1 36.1 18.2 36.1h53c-3.4 0-6.2-16.2-6.2-36.1z" fill="#ffdca4"/></g><path id="XMLID_492_" d="m376 467h-240l-25 20v20h290v-20z" fill="#f0917b"/><path id="XMLID_491_" d="m256 467h-62.1l-12.9 20v20h65v-20z" fill="#f5b7aa"/><g id="XMLID_473_"><path id="XMLID_508_" d="m343 292h48v10h-48z" fill="#e86b4d"/></g><g id="XMLID_472_"><path id="XMLID_507_" d="m335 252h50v10h-50z" fill="#e86b4d"/></g><g id="XMLID_471_"><path id="XMLID_506_" d="m334 212h50v10h-50z" fill="#e86b4d"/></g><g id="XMLID_470_"><path id="XMLID_478_" d="m340 172h47v10h-47z" fill="#e86b4d"/></g><g id="XMLID_458_"><path id="XMLID_477_" d="m361 108.9h10v50.4h-10z" fill="#e86b4d" transform="matrix(.118 .993 -.993 .118 455.921 -245.224)"/></g><g id="XMLID_457_"><path id="XMLID_476_" d="m351.1 69.3h10v50.8h-10z" fill="#e86b4d" transform="matrix(.269 .963 -.963 .269 351.471 -273.712)"/></g><g id="XMLID_449_"><path id="XMLID_475_" d="m324.8 31.9h10v46h-10z" fill="#e86b4d" transform="matrix(.583 .812 -.812 .583 182.087 -245.065)"/></g></g></g></svg>