<?xml version="1.0" encoding="UTF-8"?>
<svg xmlns="http://www.w3.org/2000/svg" viewBox="0 0 584.16 475.37">
  <defs>
    <style>
      .cls-1 {
        fill: #e7f381;
      }

      .cls-2 {
        fill: #b1c4e7;
      }

      .cls-3, .cls-4 {
        fill: #cfcfcf;
      }

      .cls-3, .cls-5, .cls-6, .cls-7, .cls-8 {
        mix-blend-mode: multiply;
      }

      .cls-9 {
        fill: #826b53;
      }

      .cls-10 {
        isolation: isolate;
      }

      .cls-11 {
        fill: #1a2027;
      }

      .cls-12 {
        fill: #ebeaf4;
      }

      .cls-5, .cls-13 {
        fill: #858585;
      }

      .cls-14 {
        fill: #969696;
      }

      .cls-15 {
        fill: #695c53;
      }

      .cls-16, .cls-17 {
        mix-blend-mode: screen;
      }

      .cls-16, .cls-18 {
        fill: #454545;
      }

      .cls-19 {
        fill: #ffd1a3;
      }

      .cls-6 {
        fill: #a1a1a1;
      }

      .cls-20 {
        fill: #2b61a8;
      }

      .cls-21 {
        fill: #ce0727;
      }

      .cls-7 {
        fill: #e6e6e6;
      }

      .cls-22 {
        fill: #2e3ac1;
      }

      .cls-23 {
        fill: #322f30;
      }

      .cls-24 {
        fill: #d7e8f7;
      }
    </style>
  </defs>
  <g class="cls-10">
    <g id="Layer_2" data-name="Layer 2">
      <g id="Layer_2-2" data-name="Layer 2">
        <g>
          <path class="cls-20" d="m324.58,469.37c-1.31.11-2.63.21-3.94.3,2.93-1.59,6.33-3.17,9.8-3.45-.62,1.49-2.63,2.89-5.87,3.15Z"/>
          <g>
            <path class="cls-19" d="m134.05,113.04c-5.06,22.16-7.39,54-5.39,67.66,2,13.67,3.41,13.92,13.5,15.83,10.09,1.91,25.5,0,25.5,0l-11.83-53.83-21.77-29.66Z"/>
            <path class="cls-19" d="m235.37,51.26c.9,5.22,2.73,9.08,1.55,10.15-1.35,1.23-3.18,1.89-2.69,4.31.48,2.42,2.23,9.19,1.01,9.7-1.22.51-8.56,1.32-8.56,1.32l-30.52,5.31s-21.24-1.02-16.93-6.37c4.31-5.35,4.81-7.85,6.49-11.04,1.68-3.18,36.9-26.14,36.9-26.14l12.74,12.76Z"/>
            <path class="cls-7" d="m235.37,51.26c.9,5.22,2.73,9.08,1.55,10.15-1.35,1.23-3.18,1.89-2.69,4.31.48,2.42,2.23,9.19,1.01,9.7-1.22.51-8.56,1.32-8.56,1.32l-30.52,5.31s-21.24-1.02-16.93-6.37c4.31-5.35,4.81-7.85,6.49-11.04,1.68-3.18,36.9-26.14,36.9-26.14l12.74,12.76Z"/>
            <path class="cls-3" d="m134.05,113.04c-5.06,22.16-7.39,54-5.39,67.66,2,13.67,3.41,13.92,13.5,15.83,10.09,1.91,25.5,0,25.5,0l-11.83-53.83-21.77-29.66Z"/>
            <g class="cls-8">
              <path class="cls-4" d="m131.99,152.87c3.14,4.62,10.49-.59,9.09-14.5l12.81,1.69,1.94,2.64,11.83,53.83s-15.41,1.91-25.5,0c-10.09-1.91-11.5-2.17-13.5-15.83-1.28-8.76-.78-24.99,1.08-41.35-.11,6.1.77,11.32,2.26,13.51Z"/>
              <path class="cls-4" d="m131.53,126.19c.74-4.6,1.59-9.04,2.52-13.15l1.54,2.1c-.29,1.32-.7,2.53-1.26,3.6-1.18,2.27-2.11,4.81-2.81,7.45Z"/>
            </g>
            <path class="cls-3" d="m142.16,196.54c-8.66-1.64-10.92-2.07-12.66-10.78,5.98,11.13,13.61,10.87,15.3,6.12,2.22-6.25-1.22-24.5,0-47.5,0,0,5.63,1.48,12.37,4.44l10.49,47.73s-15.41,1.91-25.5,0Z"/>
            <path class="cls-19" d="m196.58,77.62c-19.5-4.25-31-1.5-43.25,5.25s-19.75,16-19.25,31.5,4.75,19,9.25,42,13,55.25,10.5,59.75-5.55,12.75-19.77,36.5c-14.23,23.75-25.23,48.5-31.73,57.5s-11.6,7.65-29,22.42c-13.84,11.75-25.39,38.33-38.25,57.58-8.72,13.05-10.75,21.5-10.75,21.5l15.25,3.25s3.59-18.74,20.5-29.25c32.25-20.05,37.75-38.25,44.25-46.25s11.75-5,21-14.5,48.25-45.25,61.75-63.25l7.25-.75s25.25,22.5,50,41,23.25,17,22.25,24-2.62,34.86,1.75,49.25c5.6,18.42,14.56,37.87,12,51.5-2.79,14.87-1.5,22.5-1.5,22.5l25.5-7s-7.5-15.5-8-36,3-38.75-1-62.75-4.5-32.25-9-40.5-15.25-34.5-36.25-62-26.5-29.5-24.25-48.5,9.5-47.75,13-54,6.5-8.5,13.25-20.75,7.5-11,20.25-8.5,40.33,8.08,49.83,8.92,16.33.83,29-17.33c12.67-18.17,16.33-25.11,16.33-25.11l-12.67-4.89s-8.33,7.33-19.17,14.33c-10.83,7-12.5,9.5-12.5,9.5,0,0-10.33-4.17-21.67-7.33-11.33-3.17-13.17-1.67-23.67-5.83-10.5-4.17-19.67-6.83-30.67-5.83s-10.67-1.5-22.17-2.33c-11.5-.83-28.42,4.42-28.42,4.42Z"/>
            <path class="cls-2" d="m33.7,391.91c2.16-3.8,6.73-10,9.59-15.1,3.66,2.93,6.66,5.01,14.21,10.55-14.94,11.37-17.91,27.51-17.91,27.51l-15.25-3.25s1.77-6.34,9.37-19.71Z"/>
            <path class="cls-16" d="m73.33,332.54c17.4-14.77,22.5-13.42,29-22.42.73-1.01,1.52-2.23,2.36-3.61-8.11,13.86-15.86,19.36-24.61,26.03-8.75,6.67-15.37,11.59-19.81,20.96-3.64,7.67-11.4,15.37-17.29,23.84,9.87-16.9,19.39-35.49,30.35-44.8Z"/>
            <path class="cls-3" d="m50.1,381.96c6.11-6.57,8.89-15.09,9.22-24.12.33-9.03,12-18.64,12-18.64,0,0-5,9-5,13s3.67,7,14.33,5c10.67-2,20.33-12.96,19.15-18.33-1.19-5.37-2.48.33-10.81,7.33-8.33,7,1-3.33,6.67-10,5.67-6.67,12.33-8,15.79-15,3.04-6.14,5.52-13.06-6.76-14.7,1.03-1.7,2.14-3.65,3.34-5.83l33.38-19.47,2.77,25.38c-8.41,8.11-15.54,14.89-18.85,18.29-9.25,9.5-14.5,6.5-21,14.5s-12,26.2-44.25,46.25c-16.91,10.51-20.5,29.25-20.5,29.25l-6.47-1.38c3.49-7.71,12.19-26.35,17-31.53Z"/>
            <path class="cls-2" d="m296.28,402.1c0,1.33.02,2.67.05,4.02.32,13.08,3.49,24.12,5.74,30.4l-23.34,2.19c.23-3.27.7-7.3,1.6-12.08,1.26-6.71-.28-14.85-2.83-23.57,6.02-.36,12.44-.69,18.78-.95Z"/>
            <path class="cls-3" d="m267.67,306.13c10.99,12.4,4.17,21.07,5.58,34.73,1.41,13.67,5.18,31.25-.67,22.33-2.42-3.7-3.63,2.17-.94,12.17,2.69,10,13.5,5.02,12.01,8.57-1.65,3.93-3.17,20.93-1.42,33.6,1.28,9.27,10.64,21.52,13.94,26.82l-3.17.87-3.97,1.09c-2.91-.07-6.44-.08-10.25-.07.02-3.44.27-9.97,1.55-19.63,2.56-13.63-6.4-33.08-12-51.5-4.37-14.39-2.75-42.25-1.75-49.25.04-.29.08-.56.12-.82.09-.57.17-1.09.23-1.56,0-.03,0-.06.01-.09.02-.2.04-.38.06-.57,0-.03,0-.06,0-.08.01-.21.02-.41.01-.6,0,0,0-.02,0-.03,0-.18-.02-.36-.04-.54,0-.03,0-.06-.01-.09-.06-.37-.16-.74-.33-1.12-.01-.03-.03-.06-.04-.09-.08-.18-.18-.37-.3-.56,0,0,0-.01-.01-.02-.12-.2-.27-.41-.43-.63-.02-.03-.04-.06-.06-.08-.15-.19-.32-.39-.5-.6-.02-.03-.05-.06-.07-.08-.21-.24-.45-.48-.71-.74-.01-.01-.02-.02-.03-.03-.25-.24-.52-.5-.81-.76-.05-.04-.09-.09-.14-.13-.63-.57-1.37-1.2-2.23-1.9-.06-.05-.12-.1-.18-.14-.43-.35-.89-.72-1.38-1.11,4.61-4.24,7.94-7.35,7.94-7.35Z"/>
            <path class="cls-6" d="m254.57,309.54c10.53-5.69,22.07-11.14,27.97-14.28,1.05,2.16,1.95,4.02,2.72,5.55-8.38,2.63-8.02,4.71-12,8.25-2.33,2.07-6.21,5.35-9.32,7.95-1.88-1.75-4.83-4.06-9.36-7.47Z"/>
            <path class="cls-6" d="m112.63,292.02c13.3,3.09,28.25,6.92,36.49,9.77-5.99,5.82-11.6,11.19-16.06,15.49-15.64-.66-16.64-8.28-22.86-11.91-1.06-.62-2.34-1.26-3.73-1.91,1.84-3.24,3.9-7.12,6.16-11.44Z"/>
            <path class="cls-7" d="m183.66,189.54c1-14.33,1.67-53.67,3-63.34,1.33-9.68,0,16.68,0,29.02s1,37.99,11.67,42.17c0,0,14.33,28.82,12.67,32.98-1.67,4.16-45.67-22.83-49.33-25.51-3.67-2.68,21-.99,22-15.32Z"/>
            <path class="cls-11" d="m29.49,397.27c7.96.89,20.9,6.45,18,9.26-6,5.83-6.42,23.67-9.58,24.5-3.17.83-8,2.58-10.08,4.58-2.08,2-4.33,2.58-5.67,6.75-1.33,4.17-4.17,6.33-11.58,2.67-7.42-3.67-11.17-9.42-10.5-12.25.67-2.83,3.25-3.25,13.08-11.17,9.83-7.92,16.33-24.35,16.33-24.35Z"/>
            <path class="cls-11" d="m311.83,446.32c-10.75-8.65-6.73-25.81-11.67-23.45-9.08,4.34-21.63-3.09-22.21,4.67-.59,7.76-4.23,19.61-3.12,24.33,1,4.25,5.6,6.25,10.43,7.25,4.82,1,11.43,2.75,16.5,7.25,5.07,4.5,14.04,3.7,22.82,3,6.25-.5,8-5.25,3.75-6.75s-16.5-16.3-16.5-16.3Z"/>
            <path class="cls-16" d="m325.83,99.25c-4.5,1.12-21-10.93-38.5-12.66-17.5-1.72-18.02-1.61-31-6.22-3.62-1.29-8.41-2.92-13.44-4.6,1.22,0,2.62-.08,4.27-.23,11-1,20.17,1.67,30.67,5.83,10.5,4.17,12.33,2.67,23.67,5.83,11.33,3.17,21.67,7.33,21.67,7.33,0,0,1.67-2.5,12.5-9.5-12.5,9.5-5.33,13.09-9.83,14.21Z"/>
            <path class="cls-3" d="m254.83,99.25c.22-1.97.64-2.95,1.35-3.26-2.3-.48-6.4-1.73-11.65-4.93-8.31-5.06-5.94-6.19,2.81-3.74,8.75,2.45,16.75,2.3,27.25-.73,10.5-3.03-5.5,3.53-16.33,9.7,3.24,1.44,9.15,6.27,19.58,7.91,17,2.67,17.5-2.67,37,0,19.5,2.67,22.33,5.92,30.92-4.95,4.79-6.07,6.13-17.82,10.37-28.05l11.38,4.39s-3.67,6.95-16.33,25.11c-12.67,18.17-19.5,18.17-29,17.33s-37.08-6.42-49.83-8.92-13.5-3.75-20.25,8.5-9.75,14.5-13.25,20.75c13.5-31,15-30.24,16-39.12Z"/>
            <path class="cls-21" d="m339.12,82.73c9.64,11.07,15.47,13.01,15.47,13.01,0,0,11.91-13.46,17.66-15.12,5.75-1.67,21.5-5.67,23.08-18.92,1.58-13.25-11.33-24.58-20.33-25.83s-16.25,1.42-18.33,5.67c-2.08,4.25-6.04,2.34-8.5,7.83-5.67,12.67,3.92,15.17,2.08,21.33-1.83,6.17-11.12,12.03-11.12,12.03Z"/>
            <path class="cls-3" d="m134.08,114.37c-.4-12.34,4.29-20.72,12.4-27.03-12.42,25.71-5.33,50.03,0,51.03,3.94.74-.25,8.01-2.39,21.81-.26-1.29-.52-2.57-.76-3.81-4.5-23-8.75-26.5-9.25-42Z"/>
            <path class="cls-16" d="m196.58,77.62s15.65-4.85,27.07-4.48c-17.69,2.07-26.09,9.4-27.74,11.57-1.65,2.17-6.58,32.16-6.58,20.08s-6.29-25.58-13.67-26.75c-6.89-1.09-14.63,1.08-18.31,2.77,10.85-5.19,21.87-6.97,39.23-3.18Z"/>
            <g class="cls-8">
              <path class="cls-4" d="m221.58,188.37c3.07-5.15,5.42-9.78,7.3-14.42-1.3,6.44-2.39,12.85-3.05,18.42-1.72,14.5,1.09,19.11,11.84,32.7-3.44,1.54-6.25,2.66-7.84,3.3-7.93,3.19-39.33-28.56-39.33-28.56,0,0,22.58,2.81,31.08-11.44Z"/>
              <polygon class="cls-4" points="235.74 146.45 235.74 146.45 235.73 146.46 235.74 146.45"/>
            </g>
            <path class="cls-3" d="m146.67,230.36c4.02-7.64,5.68-11.59,7.15-14.24,2.25-4.05-4.39-30.51-9.03-52.53,7.03,32.67,7.62,35.45,20.7,41.61,13.08,6.16,12.33,7.04-4.67,16.6-3.79,2.13-8.79,5.23-14.15,8.55Z"/>
            <path class="cls-21" d="m106.97,302.59h0c6.59-11.75,15.82-31.17,27.08-49.97,14.23-23.75,17.27-32,19.77-36.5.63-1.14-.81-12.37-1.34-16.45,13.75-3.41,49.34-3.15,73.13-5.28-1.61,17.16,4.23,19.99,24.46,46.48,17.62,23.07,28.02,45.25,33.57,56.67-4.65,8.33-3.94,3.52-11.32,11.99-7.38,8.47-18,6-26.33,12.33l-8.33,6.33s-28.67-28-37.33-38.67-9.67-13.67-9.67-13.67c0,0-8.33,16.33-16.67,28.33-8.33,12-13,24-13,24,0,0-.73-5.02-15.33-7-14.61-1.98-17.31-11.38-28-15l-10.69-3.62h0Z"/>
            <g class="cls-8">
              <path class="cls-13" d="m217.32,307.87c-4.96-5.07-9.87-10.22-13.52-14.3,10.85,3.84,28,9.2,39.08,12.8,19.24,6.25-2.68,5.33-25.56,1.5Z"/>
              <path class="cls-13" d="m117.34,306.09c3.24-4.7,6.81-8.27,7.99-11.22,3-7.5,0,0,2.62,7,1.57,4.19,3.19,11.26,4.73,14.3-5.01-3.5-8.55-7.79-15.01-9.97-.11-.04-.21-.07-.32-.11Z"/>
              <path class="cls-13" d="m173.65,294.87c8.36-23.99,16.68-27.67,19.68-39.67s-2.6-3,19.67,11c18.83,11.84,43.33,9.67,55.33,14.17s-26.5.5-44.68-7.5c-18.18-8-26.82,5-19.82,6s20,7.5,31.91,10c11.91,2.5-11.91,4.5-35.41.67-8.67-10.67-9.67-13.67-9.67-13.67,0,0-8.33,16.33-16.67,28.33-8.33,12-13,24-13,24,0,0-.56-3.84-10.48-6.13,6.96-3.65,18.18-13.01,23.13-27.2Z"/>
              <path class="cls-13" d="m186.33,250.87c21-23,0,0-7.5,17.5s-26.5,45-33.17,52.83c-4.73-.64-8.21-2.07-11.12-3.82.36-.38.72-1.19,1.06-2.55,2.27-9.03,10.23-13.47-2.03-23.97-12.26-10.5,5.26.5,15.02.5s16.74-17.5,37.74-40.5Z"/>
            </g>
            <g class="cls-17">
              <path class="cls-14" d="m248.83,249.61c-13.54-8.86,2.5,1.76,5.75,2.2,3.25.44,1.71-2.44-8.75-10.61-10.46-8.17-12-11.83-21.25-24.58-8.01-11.04,2.17,3.61,17.55,14.06,2.36,2.97,5,6.32,7.95,10.19,3.72,4.87,7.11,9.7,10.21,14.4-3.58-1.36-7.58-3.12-11.46-5.66Z"/>
              <path class="cls-14" d="m232.72,323.34c4.23.61,8.32.18,11.6-2.14,12.25-8.67,19.25-9.33,16.75-11.83s4-1,11.25-5.41c7.25-4.41-8.25-8.09-20.25-12.21-11.49-3.94,18.71,4.81,30.15,8.2-3.17,4.98-3.37,2.1-9.9,9.59-7.38,8.47-18,6-26.33,12.33l-8.33,6.33s-1.93-1.89-4.94-4.86Z"/>
              <path class="cls-14" d="m230.33,263.62c8.17,4.3,27.04,5.45,36.49,2.04,2.36,3.95,4.5,7.74,6.44,11.31-3.84-2.46-8.41-4.35-13.67-5.1-24.5-3.5-42.25-12-45.49-18-3.24-6,6.74,4.75,16.24,9.75Z"/>
            </g>
            <g class="cls-8">
              <path class="cls-13" d="m131.66,278.7c-2.53-1.5-5.61-4.65-8.19-7.33.38-.71.77-1.42,1.16-2.14,4.54,8.81,13.2,13.14,7.04,9.48Z"/>
              <path class="cls-13" d="m147.01,229.71c.45-.05,1.56-.57,3.5-1.72,13.14-7.78,29.81-26.09,17.14-10.1-5.35,6.76-14.78,12.03-22.67,15.64.74-1.37,1.41-2.63,2.02-3.81Z"/>
              <path class="cls-13" d="m137.39,246.98c10.6,2.59,28.24.2,19.93,5.12-8.88,5.26-14.93,2.37-23.27.51,1.19-1.99,2.29-3.85,3.33-5.63Z"/>
              <path class="cls-13" d="m147.88,228.04c1.22-2.37,2.19-4.34,2.99-5.99,17.52-12.38,32.61-26.21,22.77-17.19-7.9,7.24-21.76,18.88-25.77,23.19Z"/>
              <path class="cls-13" d="m111.03,303.96q-4.06-1.37-4.07-1.38h0s0,0,0,0c2.59-4.62,5.6-10.44,8.97-16.93-1.5,8.27-7.79,9.22-4.91,18.31h0Z"/>
              <path class="cls-13" d="m141.08,261.29c-6.73-1.29-7.05-.93-11.11-1.69.46-.8.92-1.6,1.39-2.41,8.03,4,15.82,5.26,9.73,4.09Z"/>
              <path class="cls-13" d="m131.33,293.57c-2.5-5.2-6.83-9.53-11.17-15.53-.05-.07-.09-.13-.14-.2.51-.97,1.03-1.96,1.56-2.95,2.03,2.62,4.3,4.47,6.36,9.81,3.21,8.33,5.88,14.07,3.38,8.87Z"/>
              <path class="cls-13" d="m154.99,233.87c-3.89,3.4-9.03,5.09-13.58,6.12.69-1.23,1.34-2.39,1.95-3.5,12.28-4.07,20.51-10.4,11.63-2.62Z"/>
            </g>
            <path class="cls-12" d="m153.92,212.87c-.24-3.95-1.06-10.34-1.43-13.2,13.75-3.41,49.34-3.15,73.13-5.28-.54,5.73-.24,9.86,1.15,13.81-33.73,1.93-57.25,3.52-72.84,4.67Z"/>
            <path class="cls-4" d="m204.41,206.2c-4.39-.46,14.91-3.49,21.1-10.46-.37,5.03-.02,8.82,1.25,12.45-8.86.51-17.01.99-24.5,1.45,3.04-.54,8.24-1.55,13.57-4.03,9.5-4.42-6.67,1.08-11.42.58Z"/>
            <path class="cls-3" d="m163.83,211.53c2.39.22,6.32.08,9.94-.06-7.69.52-14.28.98-19.85,1.4-.24-3.95-1.06-10.34-1.43-13.2.8-.2,1.68-.38,2.62-.56,8.54,1.29,22.91,3.14,12.13,2.85-12.83-.34-13.25-1.76-11.67,2.32s1.07,6.58,8.25,7.25Z"/>
            <path class="cls-7" d="m289.99,332.54c6.7,21.72-3.15,30-4.74,34.33-1.59,4.33-7.25-12.67-7.76-17.17s1.01,8.04,6.15,9.5,4.14-2.34,4.93-9.15c.82-7.09,1.42-17.52,1.42-17.52Z"/>
            <path class="cls-3" d="m296.94,414.67s0-.01,0-.02c-2.95-14.98-.65-11.14-5.95-7.78s0,0,1.31-7.33c1.31-7.33,4.93-34.98,3.02-56.17,4,24,.5,42.25,1,62.75.07,2.97.3,5.83.62,8.55Z"/>
            <path class="cls-20" d="m288.68,449.12c5.01,6.56,13.58,10.06,29.8,20.68-6.64.35-12.84.02-16.73-3.43-5.07-4.5-11.68-6.25-16.5-7.25-4.82-1-9.43-3-10.43-7.25-.24-1.02-.17-2.09.06-3.21,3.35-3.91,10.34-4.07,13.79.46Z"/>
            <path class="cls-20" d="m.01,433.29c1.8-.92,4.18.32,7.98,1.08,5.83,1.17,9-3.17,14-9.83s17.17-3.83,17.41,4.56h0c-.44,1.08-.92,1.79-1.49,1.94-3.17.83-8,2.58-10.08,4.58s-4.33,2.58-5.67,6.75c-1.33,4.17-4.17,6.33-11.58,2.67-7-3.46-10.73-8.78-10.57-11.74Z"/>
            <g class="cls-8">
              <path class="cls-4" d="m7.99,434.37c.3.06.6.1.89.13,2.02,2.34,3.89,3.18,8.82,2,5.69-1.37,6.92-.59,13.9-3.22-1.52.7-2.89,1.5-3.77,2.34-2.08,2-4.33,2.58-5.67,6.75-1.33,4.17-4.17,6.33-11.58,2.67-7-3.46-10.73-8.78-10.57-11.74,1.8-.92,4.18.32,7.98,1.08Z"/>
              <path class="cls-4" d="m38.81,430.25c-.28.42-.57.7-.9.79-.92.24-1.99.56-3.08.95,1.19-.5,2.5-1.07,3.98-1.73Z"/>
            </g>
            <path class="cls-3" d="m275.74,454.03c1.84-1.47,5.9-.45,14.04-.16,1.46.05,2.82.16,4.13.33,5.27,4.04,12.96,8,24.57,15.61-6.64.35-12.84.02-16.73-3.43-5.07-4.5-11.68-6.25-16.5-7.25-3.92-.81-7.69-2.29-9.51-5.09Z"/>
            <path class="cls-3" d="m363.48,79.87c5.65-10-9.65-17-12.05-17.72s11.65,1.22,15.86,6.47c4,4.98,14.18,4.1,27.82-12.77.36,1.89.46,3.85.22,5.85-1.58,13.25-17.33,17.25-23.08,18.92-5.75,1.67-17.66,15.12-17.66,15.12,0,0-5.82-1.95-15.47-13.01,0,0,.12-.08.31-.21,1.68,1.05,3.62,2.21,5.89,3.5,10,5.66,12.5,3.84,18.15-6.16Z"/>
            <path class="cls-16" d="m356.66,41.54c2.08-4.25,9.33-6.92,18.33-5.67,6.54.91,15.13,7.14,18.75,15.55-11.55-12.07-23.77-12.16-30.26-11.05-6.82,1.17-.98,3.49-8.15,6.25-7.17,2.75-5.75,4.25-7,11.75-.27,1.6-.47,2.89-.64,3.94-1.41-2.95-2.31-6.72.47-12.94,2.46-5.49,6.42-3.58,8.5-7.83Z"/>
            <path class="cls-23" d="m192.66,65.65c4.89-.71,9.01,14.41,9.91-2.56.28-5.29,5.98-13.41,9.97-13.27s4.28,3.32,6.49,9.44c2.21,6.12,8.63-.09,10.03-5.35,1.4-5.26,5.62-.09,7.42-.37s.44-12.32-11.6-22.1c-12.04-9.77-23.57-7.9-32.81-.32-9.25,7.58-12.05,24.42-11.68,33.47s-.73,9.85.73,8.29,6.65-6.53,11.54-7.23Z"/>
            <path class="cls-23" d="m236.33,52.49c3.88-1,6-10.12,4.12-8.12s-4.62,7.37-3.31,1c1.31-6.37-2.57-12-2.82-8.75s.2,7.02-1.46,1.88c-1.66-5.13-1.29-3.63-4.41-7.63s-10.47-3.84-10.86-4.01c-.39-.17-20.02.76-18.27,1.63s37,24,37,24Z"/>
          </g>
          <g>
            <path class="cls-9" d="m424.2,183.2c-8.04-8.67-21.09-32-26.59-46.17-5.5-14.17-9.5-20.89-9.5-20.89l13.17-6.44s3.67,13,16.17,28.17c12.5,15.17,17.23,21.28,19.41,29,2.18,7.72-12.66,16.33-12.66,16.33Z"/>
            <path class="cls-3" d="m424.2,183.2c-8.04-8.67-21.09-32-26.59-46.17-5.5-14.17-9.5-20.89-9.5-20.89l7.94-3.89c13.36,26.97,20.04,51.12,30.14,60.11,2.18,1.94,3.93,3.29,3.97,6.58-3.06,2.56-5.97,4.25-5.97,4.25Z"/>
            <path class="cls-9" d="m432.49,104.2c-8,23.33-8.58,33.5-8.29,41.5.29,8,0,37.5,0,37.5,0,0,6.62,5.67,16.46-5.83,9.83-11.5,16.33-40.83,16.33-40.83l-24.5-32.33Z"/>
            <g class="cls-17">
              <path class="cls-18" d="m424.22,146.17c0-.16,0-.32-.02-.47-.29-8,.29-18.17,8.29-41.5l4.17,5.5c-5.33,12.5-11.01,15.33-8.5,36.75.51,4.34.42,6.43-.04,7.03,0,0-.03.06-.1.1-.17.13-.38.1-.62-.07-.56-.25-1.54-.98-3.25-2.9-2.6-2.93-10.14-14.16-16.88-27.57,2.44,4.35,5.76,9.45,10.19,14.82,2.58,3.13,4.81,5.85,6.77,8.3Z"/>
              <path class="cls-18" d="m401.28,109.7s.07.26.23.73c-.09-.23-.19-.47-.28-.7l.06-.03Z"/>
            </g>
            <path class="cls-3" d="m440.36,123.76s2.94-.29,7.37.55l9.27,12.23s-6.5,29.33-16.33,40.83c-9.83,11.5-16.46,5.83-16.46,5.83,0,0,.06-5.57.09-12.52,3.57-7.25,7.18-14.48,8.3-18.51,2.6-9.36,6.73-13.64,7.77-28.42Z"/>
            <path class="cls-3" d="m401.28,109.7s3.67,13,16.17,28.17c2.58,3.12,4.8,5.85,6.77,8.3,0-.16,0-.32-.01-.46-.29-8,.29-18.17,8.29-41.5l24.5,32.33s-6.5,29.33-16.33,40.83c-9.83,11.5-16.46,5.83-16.46,5.83-8.04-8.67-21.09-32-26.59-46.17-5.5-14.17-9.5-20.89-9.5-20.89l13.17-6.44Z"/>
            <path class="cls-6" d="m406.12,120.94c1.24,2.34,2.75,4.96,4.59,7.77-3.65,6.51-7.43,10.99-10.69,14.04-.9-2.02-1.71-3.94-2.4-5.71-1.73-4.45-3.31-8.16-4.66-11.17,4.46-1.77,9.01-3.45,13.16-4.92Z"/>
            <path class="cls-22" d="m411.33,126.99c-10.67,9.17-14.87,8.07-15.87,6.24-1-1.83-4.8-14.03-10.3-16.2s-20.26-17.53-21.58-30.5c-1.33-12.97,10.96-16.83,21.92-19.5s15.67,11.5,18.33,16c2.67,4.5,2.17,5.76,1.67,16.21s5.83,27.75,5.83,27.75Z"/>
            <path class="cls-3" d="m385.83,113.04c.66.89,1.27,3.05,1.8,5.69-.78-.76-1.6-1.35-2.47-1.69-5.5-2.17-20.26-17.53-21.58-30.5-.34-3.3.21-6.01,1.39-8.26.54-.1.86-.16.86-.16,1,18.52,17.71,31.81,20,34.92Z"/>
            <g class="cls-8">
              <path class="cls-4" d="m405.39,119.54c.4-8-6.4-5.33-13.21-5.82-6.81-.49,3.14-3.51,6.81-7.09,3.15-3.08,2.11-15.23-1.63-34.79,3.11,3.85,5.07,8.85,6.46,11.2,2.67,4.5,2.17,5.76,1.67,16.21s5.83,27.75,5.83,27.75c-10.67,9.17-14.87,8.07-15.87,6.24,8.13-5.64,9.53-5.7,9.93-13.7Z"/>
            </g>
            <path class="cls-16" d="m397.45,93.99c-1.38,9.87-6.15,13.87-9.82,14s-15.18-9.05-9.43-7.4,8.31,2.53,11.66,1.78,7.59-8.37,7.59-8.37Z"/>
            <path class="cls-3" d="m411.33,126.99c-10.67,9.17-14.87,8.07-15.87,6.24-1-1.83-4.8-14.03-10.3-16.2s-20.26-17.53-21.58-30.5c-1.33-12.97,10.96-16.83,21.92-19.5s15.67,11.5,18.33,16c2.67,4.5,2.17,5.76,1.67,16.21s5.83,27.75,5.83,27.75Z"/>
            <path class="cls-9" d="m442.83,31.37c8,14.5,10.17,22.67,25.33,25.17,15.17,2.5,39.5,6.5,44.83,18s11.5,31.5,8.83,52.33c-2.67,20.83-7.5,52-3.5,63s14.67,24.67,17,41.33c2.33,16.67,8.67,44.67,12.33,66,3.67,21.33,1.42,31.42,9.92,43.67s13.75,9.18,14.77,47.33c.78,29.09,4.48,36.5,4.48,48s7.17,24.83,7.33,32.67c.17,7.83-19,6.67-22.83,5.67-3.83-1-1.17-9.83,0-19.5,1.17-9.67-1.33-23-2.67-29.17-1.33-6.17,2.5-.83-.5-9-3-8.17-8.67-30.5-14.83-41.83-6.17-11.33-3.33-3.67-7.17-15.83-3.83-12.17-.82-13.7-7.99-22.03s-35.01-77.26-35.01-77.26c0,0-29.5,41.96-39.17,52.62s-10.5,12.5-11.17,22.17c-.67,9.67,1,20.17-2.67,37.33-3.67,17.17-8.17,18-12.67,27.83-4.5,9.83-9.33,18.67-13,40.67s-3,29.5-14.67,28.67c-11.67-.83-14.83-12.5-29.5-17.33-14.67-4.83-21.5-12.67-18-15.17s11.5,2.67,21,2.5c9.5-.17,21.5-1.42,24.67-10.04,3.17-8.62,8.17-37.79,13.83-64.12,5.67-26.33,4.5-23.67,4.67-38.17s10.33-45.17,17.5-61c7.17-15.83,19.33-38.5,22.67-50.83,3.33-12.33,2-24.33-2.33-41.33-4.33-17-24.17-85.33-24.17-85.33,0,0,6.67-12.17,3.5-21.83-3.17-9.67-4.83-17.5-4.83-17.5l8.5-20.67,5.5,3Z"/>
            <path class="cls-6" d="m457.73,308.11c-15.78-.42-20.66-7.44-32.92-12.85-.5-.22-1-.44-1.5-.66,2.24-7.21,4.79-14.38,7.24-20.56,10.82,4.7,27.2,11.9,39.85,17.47-4.63,6.26-9.15,12.24-12.67,16.59Z"/>
            <path class="cls-11" d="m397.99,429.16c1.66-4.52,3.82-14.68,6.32-27.11,5.95,2.58,12.47,5.25,18.76,7.53-3.06,7.16-6.05,15.93-8.52,30.58-7.11-1.79-14.4-3.64-21.07-5.36,2.03-1.4,3.62-3.22,4.51-5.64Z"/>
            <path class="cls-11" d="m554.87,406.61c5.85-1.58,12.17-3.32,18.12-5.01,1,14.02,2.7,21.26,3.45,28.1-5.4,1.12-11.12,2.25-16.43,3.23-.47-2.79-.97-5.24-1.36-7.06-1.33-6.17,2.5-.83-.5-9-.88-2.4-2-6.04-3.29-10.26Z"/>
            <g class="cls-17">
              <path class="cls-18" d="m416.49,326.87c.11-9.77,4.76-26.87,9.98-41.83l6.86.61-3.15,5.1c-9.41,20.88-12.05,37.28-13.87,49.92.33-3.99.12-7.02.19-13.8Z"/>
              <path class="cls-18" d="m414.22,353.6c.12-.58.23-1.14.33-1.68-.11.56-.21,1.12-.33,1.66,0,0,0,0,0,.01Z"/>
            </g>
            <path class="cls-3" d="m370.28,451.82c14.67,4.83,17.83,16.5,29.5,17.33,11.67.83,11-6.67,14.67-28.67s8.5-30.83,13-40.67c4.5-9.83,9-10.67,12.67-27.83,1.31-6.15,1.93-11.43,2.23-16.14,0,0,0,0,0,0,0-.07,0-.14.01-.22.06-.97.11-1.92.14-2.84,0-.01,0-.02,0-.03.03-.94.06-1.86.08-2.75h0c.1-5.76-.12-10.66.21-15.35.03-.44.06-.85.09-1.26.02-.25.04-.5.06-.74.68-7.97,2.06-10.28,11.01-20.16,2.43-2.69,6.13-7.36,10.29-12.85-26.72,19.7-28.89,19.95-35.46,21.51-7,1.67-10.63-9.52-8.82-3.93.94,2.9-.9,13.14-2.03,21.12-.37-3.04-.89-6.02-1.51-8.87-.02,11.62.64,10.92-4.65,35.51-5.67,26.33-10.67,55.5-13.83,64.12s-15.17,9.88-24.67,10.04c-9.5.17-17.5-5-21-2.5s3.33,10.33,18,15.17Zm46.88-92.5c.89-3.57,1.3-7.33,1.35-11.14.28-.24.61-.61.99-1.14,3.21-4.46,11.53-7.42,20.44-11.14-4.76,20.75-8.16,21.94-12.91,36.43-5,15.25-4.75,24.59-4.75,24.59,0,0,3.32-25.93,14.59-36.29-1.68,24.41-16.5,42.75-24.32,59.73-8.27,17.97-1.01-38.53,4.61-61.03Z"/>
            <path class="cls-16" d="m433.33,386.38c13.17-30.77,4.51-41.98,8.25-58.17,3.74-16.2,4.75-10.08,22.71-32.94,0,0,.56,1.19,1.23,2.8-4.66,6.18-8.85,11.53-11.52,14.48-9.67,10.67-10.5,12.5-11.17,22.17-.67,9.67,1,20.17-2.67,37.33-2.83,13.25-6.16,16.77-9.6,22.22.76-2.68,1.67-5.32,2.77-7.87Z"/>
            <path class="cls-6" d="m513.33,287.99c2.57,0,28.29-4.35,31.73-4.93.94,4.9,1.83,9.67,2.6,14.14.18,1.06.35,2.08.5,3.08-11.67,9.76-17.78-.19-29.33,8.96-1.28,1.01-2.44,1.94-3.54,2.82-2.07-4.58-4.2-9.44-6.29-14.27,1.69-5.5,3.33-9.79,4.33-9.79Z"/>
            <g class="cls-17">
              <path class="cls-18" d="m544.08,286.74l1.9,1.15c.6,3.2,1.17,6.32,1.68,9.31l-3.58-10.46Z"/>
              <path class="cls-18" d="m576.49,430.1c-.03-.21-.06-.43-.07-.65,0,0,0-.01,0-.02.03.22.05.44.07.67Z"/>
              <path class="cls-18" d="m572.35,388.2c.09,3.17.21,6.07.35,8.76-.68-6.13-1.41-13.07-2.13-20.84-2.7-29.07-7.75-23.42-16.02-38.47-8.27-15.06-6.73-24.11-6.9-40.44,3.67,21.33,1.42,31.42,9.92,43.67s13.75,9.18,14.77,47.33Z"/>
            </g>
            <path class="cls-16" d="m532.26,343.16c4.06-5.95,3.73-8.71,5.4,0,1.67,8.71,6,19.68,12.33,35.86,6.33,16.18,18,70.51,13.33,52.51s-9.74-35.54-14.99-50.54-12.38-27.62-12.88-33.5c-.25-2.98-1.41-3.1-2.48-2.49-.19-.61-.42-1.22-.71-1.85h0Z"/>
            <g class="cls-8">
              <path class="cls-4" d="m554.56,337.64c.13-.9.26-1.37.26-1.37,0,0-.02.58-.26,1.37Z"/>
              <path class="cls-4" d="m514.66,299.54c5.84,23.77,13.33,31,17,33,3.67,2,6,0,6,0,0,0,1,8.77,9,9.38,5.57.43,7.33-2.47,7.9-4.27-.45,3.04-.93,11.19,3.44,24.56,5.67,17.33,6.33,24.27,11.33,52.47,3.82,21.55,3.75,48.8,3.5,60.46-4.83.34-9.76-.15-11.5-.6-3.83-1-1.17-9.83,0-19.5s-1.33-23-2.67-29.17c-1.33-6.17,2.5-.83-.5-9-3-8.17-8.67-30.5-14.83-41.83s-3.33-3.67-7.17-15.83c-3.83-12.17-.82-13.7-7.99-22.03-3.5-4.06-11.91-22.55-19.61-40.41.07-3.75.1-6.01.1-6.01l6,8.79Z"/>
            </g>
            <path class="cls-3" d="m449.34,99.38c4.09,21.87,22.15,24.82,26.82,22.82,4.67-2,5,.52,5,.52,0,0-7.78,5.38-20,0-12.22-5.38-11.82-23.34-11.82-23.34Z"/>
            <path class="cls-16" d="m500.27,64.37l-.33.6c-9.64-2.15-34.06-1.68-44.71-11.66-5.79-5.43-10.48-14.98-13.57-22.57l1.16.63c8,14.5,10.17,22.67,25.33,25.17,9.42,1.55,22.37,3.69,32.11,7.83Z"/>
            <path class="cls-3" d="m440.6,70.7c-.89,2.06-3.22,1.52-6.19-.51-.12-1.24-.36-2.47-.75-3.66-3.17-9.67-4.83-17.5-4.83-17.5l8.5-20.67,5.5,3c1.33,2.4,2.49,4.63,3.58,6.69-5.17,11.73-2.62,25.27-5.81,32.64Z"/>
            <path class="cls-15" d="m394.17,23.58c-1.51-1.76-3.91,2.39-3.02-1.89.88-4.28,4.54-9.96,9.58-13.61,5.04-3.65,18.27-12.91,32.76-4.93,14.49,7.98,11.97,22.59,12.1,28.26s2.27,8.99,2.27,8.99l-18.4-5.98-35.28-10.84Z"/>
            <path class="cls-9" d="m394.17,23.58c-.63,8.95-1.5,15.63,1.83,17.64,3.33,2.02,4.21,10.21,6.61,14.11,2.39,3.91,3.78,3.4,5.67,4.54,1.89,1.13,4.41,2.9,4.79,5.8.38,2.9,2.02,5.54,10.59,4.66,8.57-.88,13.61-5.67,16.51-12.35,2.9-6.68,0-18.1,0-18.1,0,0,6.43-5.91,4.16-11.23-2.27-5.32-8.44-5.07-9.83-.79l-1.39,4.28s-4.66-7.69-7.56-8.57c-2.9-.88-7.18-.13-7.31-4.66-.13-4.54,5.21-11.09-2.18-7.69-7.39,3.4-21.89,12.35-21.89,12.35Z"/>
            <g class="cls-17">
              <path class="cls-18" d="m413.07,65.67s-.02-.07-.02-.1c.54.67,1.08,1.42,1.61,2.3.42.68.87,1.32,1.35,1.91-2.09-.88-2.73-2.45-2.94-4.11Z"/>
              <path class="cls-18" d="m395.24,22.93c-.81,14.63,4.03,17.47,5.35,20.61,1.4,3.33-2.06.86.91,9.49-1.66-4.2-2.74-10.13-5.5-11.8-3.33-2.02-2.46-8.7-1.83-17.64,0,0,.39-.24,1.07-.66Z"/>
            </g>
            <path class="cls-3" d="m458.41,204.25c.54-8.94-1.01-18.48-4.09-30.55-1.55-6.07-5.07-18.68-8.96-32.39,8.52,29.46,17.03,42.87,24.5,47.89,7.71,5.19,10.79,11.14,11.29,12.07.27.5-11.73,1.85-22.74,2.98Z"/>
            <path class="cls-16" d="m522.09,198.14c-21.02-1.23-43.34-2.97-44.52-3.75-2.25-1.48,19.78-10.02,31.25-20.44,11.46-10.41,11.99-39.38,12-74.57,1.57,8.49,2.23,17.89,1,27.49-2.67,20.83-7.5,52-3.5,63,.95,2.6,2.27,5.36,3.77,8.27Z"/>
            <path class="cls-3" d="m481.16,177.45c-7.83-1.91-18.83-24.25-18.83-24.25l33-45.56,20.17-20.3c2.5,31.19-8.83,51.88-17.17,67.87-8.33,15.99-9.34,24.15-17.17,22.24Z"/>
            <path class="cls-9" d="m492.7,66.37c-8.74,5.53-11.5,17.25-10.62,23.5s-4.12,4.62-9,19.25-2.75,22.37-2.75,22.37l4.62,35.37s27.53-24.59,32.56-47.25c5.86-26.4,13.19-26,10.81-39.75s-16-19.59-25.62-13.5Z"/>
            <path class="cls-16" d="m487.45,142.37c-5.24,3.11,1.88-4.5,7.28-16.18,5.4-11.68,3.6-22.07.6-26.75s1.5-1.32,6.5-.19c5,1.13,9.5-2.88,12.17-7.55,2.67-4.67,2.06-18.42-7.44-26.74h0c5.65,2.07,10.45,7.26,11.77,14.9,2.33,13.48-4.66,13.38-10.46,38.22-9.21,12.84-16.08,21.7-20.42,24.28Z"/>
            <path class="cls-3" d="m515.49,96.11c-2.23,4.8-5.26,11.27-7.98,23.51-5.03,22.67-32.56,47.25-32.56,47.25l-.99-7.58c4.92-.16,7.09-2.43,9.37-6.09,4.12-6.6,18.33-25.33,21.7-37.79,2.93-10.83,4.02-12.32,10.47-19.31Z"/>
            <path class="cls-22" d="m424.14,293.37v-1.39c3.15-9.8,6.77-19.32,9.85-26.11,7.17-15.83,19.33-38.5,22.67-50.83.91-3.38,1.47-6.74,1.71-10.18,5.24,9.01,36.95,28.85,36.95,28.85v27.33s-5.62,8.83-7.67,14.17c-2.04,5.33-14.83,37.04-14.83,37.04,0,0-9.33-1.87-19.83-8.04-10.5-6.17-16.5-5.5-28.85-10.83h0Z"/>
            <path class="cls-22" d="m424.14,293.37v-1.39c3.15-9.8,6.77-19.32,9.85-26.11,7.17-15.83,19.33-38.5,22.67-50.83.91-3.38,1.47-6.74,1.71-10.18,5.24,9.01,36.95,28.85,36.95,28.85v27.33s-5.62,8.83-7.67,14.17c-2.04,5.33-14.83,37.04-14.83,37.04,0,0-9.33-1.87-19.83-8.04-10.5-6.17-16.5-5.5-28.85-10.83h0Z"/>
            <path class="cls-3" d="m424.14,293.37v-1.39c3.15-9.8,6.77-19.32,9.85-26.11,7.17-15.83,19.33-38.5,22.67-50.83.91-3.38,1.47-6.74,1.71-10.18,5.24,9.01,36.95,28.85,36.95,28.85v27.33s-5.62,8.83-7.67,14.17c-2.04,5.33-14.83,37.04-14.83,37.04,0,0-9.33-1.87-19.83-8.04-10.5-6.17-16.5-5.5-28.85-10.83h0Z"/>
            <path class="cls-22" d="m455.23,219.52c.35-1,.52-3.37.72-4.77,1.94-13.75.66-19.84-.12-30.15,4.38.39,12.6.84,22.27,1.25,23.75,1,38.71-8.48,38.71-8.48.02,5.21.46,9.58,1.52,12.5,4,11,16.5,24,18.83,40.67,2.33,16.67,13.5,43,17.17,64.33.18,1.06.34,2.06.49,3.03-3.94.75-15.52,3.79-20.24,3.85-10.5,2.62-7.88-1-15.25,4.62s-12.75,5.87-12.75,5.87l-16.88-42.37-34.47-50.35Z"/>
            <path class="cls-3" d="m482.08,89.87c-.88-6.25,1.88-17.97,10.62-23.5,3.8-2.4,8.22-2.94,12.33-1.88h0c-9.29-1.85-16.91,13.41-17.58,20.25-.67,6.84,5,9.58,0,12.37-5,2.79-11.37,8.52-9.87,26.75.85,10.31,8.6,27.5,3.51,22.58-3.29-3.18-5.23-6.1-10.1-9.94l-.66-5.02s-2.12-7.75,2.75-22.37,9.88-13,9-19.25Z"/>
            <path class="cls-16" d="m473.08,109.12c1.55-4.65,3.11-7.66,4.5-9.8-4.5,9.8-7.22,34.66-3.61,39.05,2.23,2.71-.68,1.39-3.21-3.63l-.42-3.25s-2.12-7.75,2.75-22.37Z"/>
            <path class="cls-9" d="m477.49,164c-6.58,8.29-12.79,4.37-19.79-6.38s-33.5-54.5-33.5-54.5l12.62-7.37s11.12,15.12,23,24.75,16.5,16.25,20,21.62-.85,20-2.34,21.88Z"/>
            <path class="cls-3" d="m436.83,95.74s11.12,15.12,23,24.75,16.5,16.25,20,21.62c.72,1.11,1.11,2.62,1.26,4.33-5.54-10.42-35.12-27.88-40.51-38.81-1.76-3.57-4.13-7.12-6.52-10.28l2.78-1.62Z"/>
            <path class="cls-16" d="m457.7,157.62c-7-10.75-33.5-54.5-33.5-54.5l3.32-1.94c12.2,19.25,30.85,42.29,34.8,52.02,3.29,8.1,6.2,12.73,12.16,13.77-5.5,3.95-10.85-.25-16.78-9.35Z"/>
            <path class="cls-6" d="m443.13,103.64c1.09,1.29,2.29,2.68,3.58,4.11-5.82,6.93-8.66,12.2-9.94,16.05-1.41-2.31-2.78-4.55-4.05-6.65l10.41-13.51Z"/>
            <path class="cls-22" d="m446.62,107.64c-5,4-12.57,11.89-12.57,11.89,0,0-8.23-13.89-12.1-14.79-15.38-3.57-10.76-6.87-22.12-12.37-9.74-4.71-9.38-19-3.38-28s14.72-14.24,26.1-7.88c10.4,5.82,11.26,10.08,14.15,18.25,3.87,10.96-1.25,11.37.75,16.87s9.17,16.02,9.17,16.02Z"/>
            <path class="cls-1" d="m561.33,474.54c-6.42-2.17-1.17-9.83,0-19.5s-2.33-23-3.67-29.17c-.59-2.72-.17-3.2.22-3.59,3.15-.99,7.88-2.41,11.32-2.91,6.12-.87,3.75,5.37,3.72,7.37-.02,1.65,1.68-3.7,3.56-5.87.94,6.23.34,9.96.34,15.33,0,11.5,7.17,24.83,7.33,32.67.17,7.83-19.08,6.93-22.83,5.67Z"/>
            <path class="cls-1" d="m347.99,442.37c.3-.6.78-1.51,1.28-2.43-.16-1.71.34-3.1,1.35-3.82,3.5-2.5,13.2,3.25,22.7,3.08,9.5-.17,21.5-1.42,24.67-10.04.85-2.31.83-6.65,1.92-11.46.31.35,1.62,1.24,1.93,1.58,5.18,5.58,1.15.92.32,8.42-.83,7.5,0,0,2.33-3.83,2.06-3.38,3.43-1.41,15.75,1.33-1.21,4.49-4.69,9-5.75,15.33-2.81,16.89-3.08,25.81-8.33,28.68h0c-2.34,4.2-7.34,5.18-17.21-1.27-5.18-3.39-6.1-5.99-6.9-8.37-.64-.36-1.33-.71-2.05-1.07-5.5.04,1.07,4.11-14.01-3.13-10.85-5.21-18.83-11.33-18-13Z"/>
            <path class="cls-16" d="m561.14,456.31c.03-.21.06-.42.09-.63,1.03-1.35,6.48-3.53,10.59-5.07,6-2.25,2.5-2.87,1.1-8.37-1.18-4.63,1.5-8.29,3.95-18.05.35,4.39-.05,7.66-.05,12.01,0,11.5,7.17,24.83,7.33,32.67.08,3.7-4.18,5.45-9.09,6.14,6.26-4.01,8.3-5.99,5.38-12.14-3.51-7.39-11-5.62-17.25-6-1.21-.07-1.85-.27-2.06-.55Z"/>
            <path class="cls-3" d="m561,421.33c-2.38,1.45-3.18,4.86-.82,12.52,3.28,10.64,3.29,24.41.97,31.64-2.32,7.24,2.93,7.75,8.31,7.25s9-1.1,6.5.14c-2.5,1.24-12.5,1.24-14.31.61-.39-.13-.98.05-1.65.4-4.24-2.79.27-9.98,1.34-18.86,1.17-9.67-2.33-23-3.67-29.17-.59-2.72-.17-3.2.22-3.59.93-.29,1.99-.62,3.12-.95Z"/>
            <path class="cls-16" d="m382.05,459.58c-.64-.36-1.33-.71-2.05-1.07,5.74-.61,5.12,6.38,16.16,7.72,11.04,1.34,15.5-27.02,17.33-33.18,1.08-3.63,2.57-6.54,4.52-8.35.7.17,1.44.34,2.23.51-1.21,4.49-4.69,9-5.75,15.33-2.81,16.89-3.08,25.81-8.33,28.68h0c-2.34,4.2-7.34,5.18-17.21-1.27-5.18-3.39-6.1-5.99-6.9-8.37Z"/>
            <g class="cls-8">
              <path class="cls-4" d="m350.62,436.12c3.5-2.5,13.2,3.25,22.7,3.08,9.5-.17,21.5-1.42,24.67-10.04.85-2.31.83-6.65,1.92-11.46.12.14.41.37.72.61-2.77,10.77.65,12-3.43,16.3-4.5,4.75-4.25,12.52-1.62,14.01s6.12,1.86,2.62,1.49-14.23-8.87-14.11-7.12c.11,1.75,1.24,1.37.11,1.75s-6.12-3.87-11.5-4.37-12.62-3-16-3.12-6.61-1.16-7.43,2.69c-.16-1.71.34-3.1,1.35-3.82Z"/>
              <path class="cls-4" d="m347.99,442.37c.3-.6.78-1.51,1.28-2.43-.37,1.75.38,4.03,1.3,6-1.93-1.64-2.9-2.93-2.58-3.57Z"/>
            </g>
            <path class="cls-5" d="m457.87,306.82c7.64,1.28,13.43,1.58,12.53-.68-2.43-6.11,12.43-27.77,4.08-29.17-8.34-1.4-15.66,2.4-24.16-3.6s0,0,4.91.68c4.91.68,30.09-4.68,22.18-9.52-7.91-4.84-25.59-2.16-36.82-5.98-1.26-.43-2.11-.81-2.64-1.14.25-.53.51-1.06.77-1.6,3.93-.97,15.21-.86,23.6-.72,13,.22,13.5-2.22-2.59-21.57-16.09-19.35,15.09,13.35,25.88,25.03,10.28,11.14,31.13,28.59,37.61,45.16-.94.5-2.13,1.31-3.9,2.66-7.38,5.62-12.75,5.87-12.75,5.87l-16.67-41.86c-.89,1.7-1.7,3.39-2.25,4.82-2.04,5.33-14.83,37.04-14.83,37.04,0,0-6.61-1.34-14.96-5.43Z"/>
            <path class="cls-3" d="m481.16,197.39c14.48.55,28.25-6.64,36.24-11.29.19,1.18.44,2.24.74,3.18-8.69,5.89-21.09,7.79-13.11,7.7,3.91-.04,10.06-1.45,15.25-2.71.42.82.86,1.64,1.34,2.48-12.75,4.64-30.15,5.35-16.14,5.79,6.36.2,14.62,1.7,21.54,3.27.28.46.55.92.83,1.39-6.71-1.1-12.72-1.79-16.9-2.33-3.56-.46,8.48,4.01,21.48,10.78,1.36,2.84,2.56,5.81,3.45,8.91-6.71-4.39-13.86-8.82-20.02-11.68-20.52-9.5-26.85-6.76-38.43-6.88-4.38-.05-12.88-3.25-20.47-6.57,0-.12,0-.25-.01-.37,18.07,6.55,24.23-1.67,24.23-1.67Z"/>
            <g class="cls-17">
              <path class="cls-18" d="m536.5,299.64c5.86-2.92,7.57-2.27,11.83-6.07,4.25-3.8-1.76-9.45-8.26-17.95s0,0,4.14,1.35,1.86-5.35-2.81-12.44c-4.67-7.09-1.08-7.91-5.54-12.72-4.46-4.81,4.46,1.31,5.88-2.2,0,0,0,0,0,0,4.28,14.39,10.11,30.95,12.57,45.27.18,1.06.34,2.06.49,3.03-3.94.75-15.52,3.79-20.24,3.85-.3.08-.6.15-.88.21,1.06-1.1,2.02-1.92,2.81-2.32Z"/>
              <path class="cls-18" d="m526.58,233.62c-8.25-10,0,0,12.26,5.36,0,0,0,0,.01,0,.6,2.49,1.31,5.1,2.09,7.8-2.31-2.61-8.36-5.9-14.36-13.17Z"/>
            </g>
            <path class="cls-16" d="m480.59,246.79c14.24-3.67,35.71-22.52,19.35-8.72-16.36,13.8-16.36,11.93-8.61,13.74s21.24-1.24,14.5.29c-6.75,1.52-9.27.12-5.88,9.2,3.39,9.07,26.14,28.71,17.39,21.77-8.75-6.94-21.9-21.28-29.88-26.19-7.98-4.91-6.86-10.08-6.86-10.08Z"/>
            <g class="cls-17">
              <path class="cls-18" d="m459.74,209.65c5.09,3.22,17.88,12.47,9.48,8.72-8.39-3.75-8.91-7-11.65-.75-.97,2.22-2.39,3.86-3.69,5.49.49-1.24.96-2.45,1.36-3.59.35-1,.52-3.36.72-4.77.65-4.64.94-8.4,1-11.75,14.8,8.48,35.34,9.88,21.87,9.88-14,0-24.18-6.44-19.09-3.22Z"/>
              <path class="cls-18" d="m432.48,291.75c7.81,3.15,3.77.06,12.41,8.57-6.31-2.38-11.91-3.13-20.75-6.95h0v-1.39c3.15-9.8,6.77-19.32,9.85-26.11.32-.72.67-1.46,1.01-2.2.39,1.01.93,2.13,1.66,3.45,4.42,8,12.92,10.82,5.42,8.66s-7.2-6.87-9.6-.89-8.35,13.49,0,16.86Z"/>
              <path class="cls-18" d="m441.73,249.6c3.03-6.25,6.14-12.67,8.79-18.59,0,1.19.15,2.52.56,4.08,2.5,9.53,9,12.78,2.5,9.53s-4.2-3.29-11.85,4.98c0,0,0,0,0,0Z"/>
            </g>
            <path class="cls-24" d="m516.81,177.37c.02,5.21.46,9.58,1.52,12.5.3.81.64,1.64,1.02,2.47-28.87,10.06-50.17,9.72-62.39,7.92-.08-5.31-.69-9.81-1.13-15.66,4.38.39,12.6.84,22.27,1.25,23.75,1,38.71-8.48,38.71-8.48Z"/>
            <path class="cls-3" d="m515.49,190.9c7.67-4.22-10.47,6.08-15.56,4.85-4.35-1.05,7.58-5.15,13.28-16.5,2.34-1.1,3.58-1.88,3.58-1.88.02,5.21.46,9.58,1.52,12.5.3.81.64,1.64,1.02,2.47-7.34,2.56-14.19,4.44-20.52,5.8,4.88-2.33,12.54-4.97,16.67-7.24Z"/>
            <path class="cls-3" d="m469.33,191.87c-4.75-1.5-9.25-10.62-7-2.56,2.18,7.82-7.77,7.94,4.95,11.87-3.94-.14-7.39-.48-10.31-.91-.08-5.31-.69-9.81-1.13-15.66,2.24.2,5.47.41,9.39.63,4.39,6.71,8.71,8.1,4.11,6.64Z"/>
            <path class="cls-3" d="m421.95,104.74c-15.38-3.57-10.76-6.87-22.12-12.37-9.74-4.71-9.38-19-3.38-28,1.51-2.27,3.2-4.3,5.06-5.97-2.18,6.8-6.1,14.83-.14,23.65,5.96,8.82,7.26-.7,7.78,4.56.51,5.26,2.13,10.85,10.26,12.71,8.12,1.86,17.38-5.13,14.65-1.96-2.72,3.17-5.96,9.66-.72,14.89,1.75,1.74,3.96,2.12,6.14,1.85-3,2.91-5.42,5.43-5.42,5.43,0,0-8.23-13.89-12.1-14.79Z"/>
            <g class="cls-17">
              <path class="cls-18" d="m408.26,54.4c4.17-1.33,8.94-.9,14.3,2.09,10.4,5.82,11.26,10.08,14.15,18.25,3.87,10.96-1.25,11.37.75,16.87.43,1.2,1.11,2.63,1.91,4.14-.63-.57-1.24-1-1.74-1.26-2.92-1.5-2.79.37-2.17-4.12s1.28-14.93-2.62-22.25c-3.9-7.31-18.26-15.93-24.57-13.72Z"/>
              <path class="cls-18" d="m446.62,107.64c-.7.56-1.46,1.21-2.24,1.89.27-2.11.11-4.06-.33-5.82,1.46,2.3,2.57,3.93,2.57,3.93Z"/>
            </g>
            <path class="cls-16" d="m445.62,23.65c-.04.15-.07.3-.11.45-1.96-7.88-5.49-14.25-13.68-19.35-9.62-6-26.8.03-32.5,5.55-1.69,1.63-3.68,3.53-5.63,5.4.43-.69.9-1.38,1.41-2.05.01-.02.03-.04.05-.06.23-.3.46-.6.71-.89.06-.08.13-.15.19-.23.2-.23.4-.47.61-.7.09-.1.18-.2.27-.29.19-.21.39-.41.58-.61.1-.11.21-.21.31-.31.2-.19.4-.38.6-.57.11-.1.22-.2.33-.3.22-.19.44-.38.66-.56.1-.08.2-.17.31-.26.32-.26.65-.52.99-.76,0,0,0,0,0,0,1.58-1.14,3.95-2.83,6.91-4.37,6.52-3.39,15.88-6.05,25.85-.56.48.27.95.55,1.42.84,8.6,5.41,10.43,13.35,10.73,19.66Z"/>
          </g>
        </g>
      </g>
    </g>
  </g>
</svg>