<?xml version="1.0" encoding="UTF-8"?>
<svg xmlns="http://www.w3.org/2000/svg" viewBox="0 0 737.64 497.02">
  <defs>
    <style>
      .cls-1 {
        fill: #c4281f;
      }

      .cls-2 {
        fill: #3f444d;
      }

      .cls-3 {
        fill: #fff;
      }

      .cls-4 {
        fill: #9c2019;
      }

      .cls-5 {
        fill: #babcbf;
      }

      .cls-5, .cls-6, .cls-7, .cls-8 {
        mix-blend-mode: overlay;
      }

      .cls-9 {
        fill: #0b0d0f;
      }

      .cls-10 {
        isolation: isolate;
      }

      .cls-11 {
        fill: #90a8ab;
      }

      .cls-11, .cls-12, .cls-13, .cls-14, .cls-15 {
        mix-blend-mode: multiply;
      }

      .cls-16 {
        fill: #626975;
      }

      .cls-17 {
        fill: #606875;
      }

      .cls-12 {
        fill: #98a1ba;
      }

      .cls-6 {
        fill: #cdd0d4;
      }

      .cls-18 {
        fill: #262a33;
      }

      .cls-19 {
        fill: #1c3c96;
      }

      .cls-13 {
        fill: #c79b9b;
      }

      .cls-20 {
        fill: #5b5f66;
      }

      .cls-14 {
        fill: #ccb4b4;
      }

      .cls-21 {
        fill: #272f33;
      }

      .cls-22 {
        fill: #6b6b6a;
      }

      .cls-15 {
        fill: #cc9f9f;
      }

      .cls-23 {
        fill: #ffaf19;
      }

      .cls-24 {
        fill: #ffb114;
      }

      .cls-7 {
        fill: #ced0d4;
      }

      .cls-8 {
        fill: #e2e4e8;
      }

      .cls-25 {
        fill: #666;
      }

      .cls-26 {
        fill: #4f5661;
      }
    </style>
  </defs>
  <g class="cls-10">
    <g id="Layer_2" data-name="Layer 2">
      <g id="Layer_1-2" data-name="Layer 1">
        <g>
          <g>
            <g>
              <g>
                <path class="cls-18" d="m99.59,496.54c60.35,5.62,113.82-38.75,119.43-99.11,5.62-60.35-38.76-113.81-99.11-119.43C59.56,272.39,6.09,316.76.48,377.11c-5.62,60.35,38.76,113.82,99.11,119.43Zm4.54-48.89c-33.36-3.1-57.87-32.64-54.77-66,3.1-33.33,32.65-57.87,66-54.77,33.33,3.1,57.87,32.66,54.77,66-3.1,33.36-32.66,57.87-66,54.77Z"/>
                <path class="cls-9" d="m102.28,467.59c44.36,4.13,83.66-28.49,87.79-72.85,4.12-44.36-28.49-83.66-72.85-87.79-44.36-4.12-83.66,28.49-87.79,72.85-4.12,44.36,28.49,83.66,72.85,87.79Zm-52.92-85.94c3.1-33.33,32.65-57.87,66-54.77,33.33,3.1,57.87,32.66,54.77,66-3.1,33.36-32.66,57.87-66,54.77-33.36-3.1-57.87-32.64-54.77-66Z"/>
                <path class="cls-3" d="m41.7,380.94c-.79,8.51,0,16.78,2.15,24.54h.02c1.81,6.55,4.58,12.74,8.15,18.38,9.09,14.32,23.42,25.15,40.56,29.57,3.51.91,7.13,1.55,10.84,1.9,3.09.29,6.14.36,9.14.23,17.74-.69,33.99-8.27,45.88-20.33,4.7-4.76,8.72-10.23,11.87-16.24,4.02-7.67,6.63-16.22,7.49-25.39.79-8.49,0-16.77-2.17-24.53-1.81-6.55-4.58-12.74-8.15-18.37-9.09-14.32-23.42-25.17-40.56-29.59-3.49-.9-7.13-1.55-10.85-1.9-3.09-.29-6.15-.36-9.16-.23-17.76.71-34.01,8.3-45.88,20.37-4.7,4.76-8.7,10.21-11.85,16.22-4.02,7.65-6.63,16.22-7.48,25.37Zm63.24-54.14c-1.97,8.75-3.49,18.82-3.89,30-.26,7.34,0,14.21.59,20.51.12,1.42.26,2.79.43,4.14-.9-.55-1.79-1.13-2.68-1.74-4.32-2.88-8.78-6.23-13.26-10.19-9.17-8.05-15.92-16.35-20.81-23.49,10.12-10.91,24.16-18.02,39.63-19.23Zm54.75,26.09c-8.56,2.65-18.03,6.37-27.9,11.6-6.49,3.46-12.3,7.11-17.48,10.79-1.16.8-2.28,1.62-3.36,2.45.02-1.04.08-2.12.16-3.21.33-5.17,1.02-10.73,2.18-16.58,2.41-12,6.22-22.01,9.98-29.8,15.19,3.46,28.01,12.52,36.41,24.75Zm4.84,60.47c-6.59-6.1-14.54-12.45-24.03-18.38-6.23-3.9-12.31-7.12-18.06-9.76-1.28-.58-2.56-1.17-3.81-1.69.94-.49,1.89-.98,2.86-1.45,4.64-2.3,9.78-4.49,15.44-6.4,11.58-3.91,22.16-5.62,30.79-6.26,2.27,7.38,3.18,15.32,2.42,23.47-.68,7.32-2.64,14.22-5.62,20.48Zm-49.97,34.37c1.97-8.75,3.49-18.82,3.89-29.98.28-7.36,0-14.23-.58-20.53-.12-1.4-.26-2.77-.43-4.12.9.55,1.79,1.11,2.68,1.74,4.32,2.86,8.8,6.23,13.29,10.17,9.17,8.07,15.92,16.39,20.78,23.53-10.14,10.89-24.16,17.98-39.63,19.19Zm-54.73-26.07c8.56-2.66,18.01-6.37,27.88-11.6,6.49-3.46,12.32-7.13,17.48-10.77,1.18-.82,2.3-1.64,3.38-2.47-.04,1.04-.1,2.12-.18,3.21-.33,5.17-1,10.72-2.18,16.58-2.39,11.96-6.22,21.97-9.96,29.78-15.19-3.46-28-12.5-36.41-24.73Zm-8.03-16.53c-2.27-7.38-3.18-15.32-2.42-23.49.68-7.3,2.63-14.18,5.62-20.46,6.59,6.1,14.54,12.45,24.01,18.38,6.25,3.91,12.33,7.1,18.08,9.74,1.28.6,2.54,1.16,3.79,1.71-.94.49-1.87.97-2.84,1.46-4.66,2.29-9.81,4.48-15.46,6.39-11.56,3.91-22.14,5.6-30.77,6.26Z"/>
                <circle class="cls-2" cx="109.75" cy="387.27" r="33.01" transform="translate(-291.77 358.89) rotate(-70.13)"/>
              </g>
              <path class="cls-19" d="m27.14,310.04c.53.43,1.28.58,2.02.16,5.63-3.21,12.08-5.67,19.23-6.5,16.06-1.85,37.6,4.29,48.41,19.97,12.39,17.96,4.25,39.04,6.74,52.24.67,3.58,2.12,6.59,5,8.79,2.54,1.95,5.78,3.11,9.33,3.58l1.31-7.96,17.69-107.47c-2.38-.4-10.75-.77-15.02-1.03-.76-.05-1.39-.1-1.84-.14-36.27-3.37-70.13,10.85-93.11,35.66-.83.91-.53,2.08.24,2.69Z"/>
              <path class="cls-12" d="m27.14,310.04c.53.43,1.28.58,2.02.16,5.63-3.21,12.08-5.67,19.23-6.5,16.06-1.85,37.6,4.29,48.41,19.97,12.39,17.96,4.25,39.04,6.74,52.24,4.92,1.53,10.38,3.09,15.64,4.42l17.69-107.47c-2.38-.4-10.75-.77-15.02-1.03l-14.7,37.11s-45.26-29.18-80.01,1.1Z"/>
            </g>
            <g>
              <g>
                <path class="cls-22" d="m107.07,347.01h14.67c2.53,0,4.58,2.05,4.58,4.58v49.43h-23.83v-49.43c0-2.53,2.05-4.58,4.58-4.58Z" transform="translate(115.95 765.12) rotate(-163.22)"/>
                <rect class="cls-2" x="121" y="235.08" width="25.23" height="150.44" transform="translate(171.95 645.97) rotate(-163.22)"/>
                <rect class="cls-4" x="135.75" y="197.93" width="28.03" height="117.65" transform="translate(219.02 545.81) rotate(-163.22)"/>
              </g>
              <g>
                <circle class="cls-20" cx="109.75" cy="387.27" r="18.29" transform="translate(-149.51 79.36) rotate(-24.28)"/>
                <circle class="cls-18" cx="109.75" cy="387.27" r="13.99" transform="translate(-34.1 11.33) rotate(-5.12)"/>
                <polygon class="cls-2" points="107.19 376.39 117.9 379.62 120.46 390.5 112.31 398.16 101.6 394.93 99.05 384.04 107.19 376.39"/>
              </g>
            </g>
          </g>
          <g>
            <g>
              <g>
                <path class="cls-18" d="m502.03,387.28c0,60.61,49.13,109.74,109.74,109.74s109.74-49.13,109.74-109.74-49.13-109.74-109.74-109.74-109.74,49.13-109.74,109.74Zm49.1,0c0-33.48,27.15-60.65,60.65-60.65s60.66,27.17,60.66,60.65-27.18,60.65-60.66,60.65-60.65-27.15-60.65-60.65Z"/>
                <path class="cls-9" d="m531.09,387.28c0,44.56,36.12,80.68,80.68,80.68s80.68-36.12,80.68-80.68-36.12-80.68-80.68-80.68-80.68,36.12-80.68,80.68Zm20.03,0c0-33.48,27.15-60.65,60.65-60.65s60.66,27.17,60.66,60.65-27.18,60.65-60.66,60.65-60.65-27.15-60.65-60.65Z"/>
                <path class="cls-3" d="m543.43,387.28c0,8.55,1.56,16.71,4.41,24.24h.02c2.41,6.35,5.74,12.26,9.82,17.54,10.38,13.42,25.65,22.87,43.13,25.68,3.58.58,7.24.89,10.97.89,3.1,0,6.14-.21,9.13-.62,17.6-2.33,33.08-11.38,43.8-24.49,4.24-5.18,7.74-10.99,10.32-17.27,3.29-8.01,5.1-16.77,5.1-25.97,0-8.53-1.56-16.69-4.43-24.22-2.41-6.35-5.74-12.26-9.82-17.54-10.38-13.42-25.65-22.89-43.13-25.7-3.56-.58-7.24-.89-10.97-.89-3.1,0-6.16.21-9.15.62-17.62,2.35-33.1,11.42-43.8,24.53-4.24,5.18-7.72,10.97-10.3,17.25-3.29,7.99-5.1,16.77-5.1,25.95Zm57.95-59.76c-1.16,8.9-1.73,19.06-1.1,30.23.42,7.33,1.31,14.15,2.48,20.37.25,1.41.52,2.75.81,4.08-.94-.46-1.89-.96-2.83-1.48-4.56-2.46-9.32-5.39-14.15-8.91-9.88-7.16-17.37-14.81-22.89-21.47,9.07-11.8,22.39-20.18,37.68-22.82Zm56.93,20.91c-8.28,3.43-17.37,8.01-26.7,14.13-6.14,4.04-11.59,8.22-16.4,12.36-1.08.9-2.12,1.83-3.12,2.75-.08-1.04-.12-2.12-.13-3.22-.15-5.18.02-10.78.64-16.71,1.29-12.17,4.16-22.49,7.18-30.59,15.44,2.04,29.05,9.88,38.54,21.27Zm10.42,59.76c-7.12-5.47-15.63-11.05-25.63-16.08-6.57-3.31-12.92-5.95-18.89-8.05-1.33-.46-2.66-.92-3.95-1.33.89-.58,1.79-1.15,2.71-1.71,4.41-2.72,9.32-5.37,14.79-7.8,11.17-4.97,21.54-7.64,30.07-9.09,2.95,7.14,4.58,14.96,4.58,23.14,0,7.35-1.31,14.4-3.7,20.91Zm-46.57,38.85c1.16-8.9,1.73-19.06,1.1-30.21-.4-7.36-1.31-14.17-2.48-20.39-.25-1.39-.52-2.73-.81-4.06.94.46,1.89.94,2.83,1.48,4.56,2.45,9.34,5.39,14.17,8.9,9.88,7.18,17.37,14.84,22.87,21.51-9.09,11.78-22.39,20.14-37.68,22.78Zm-56.91-20.89c8.28-3.45,17.35-8.01,26.68-14.13,6.14-4.04,11.61-8.24,16.4-12.34,1.1-.92,2.14-1.85,3.14-2.77.06,1.04.1,2.12.12,3.22.15,5.18,0,10.76-.64,16.71-1.27,12.13-4.16,22.45-7.16,30.57-15.44-2.04-29.03-9.86-38.55-21.26Zm-9.53-15.71c-2.95-7.14-4.58-14.96-4.58-23.16,0-7.34,1.31-14.36,3.7-20.89,7.12,5.47,15.63,11.05,25.61,16.08,6.58,3.31,12.94,5.93,18.91,8.03,1.33.48,2.64.92,3.93,1.35-.89.58-1.77,1.14-2.7,1.71-4.43,2.72-9.36,5.37-14.81,7.8-11.15,4.97-21.52,7.62-30.05,9.09Z"/>
                <circle class="cls-20" cx="611.78" cy="387.28" r="33.01"/>
              </g>
              <path class="cls-19" d="m499.04,385.35c0,.33,0,.66.01.99,0,1.4.05,2.79.12,4.18.55-.87,1.09-1.75,1.66-2.64,1.56-2.46,3.23-4.97,5-7.55,8.6-12.52,19.69-26.38,33.83-40.1,7.42-7.21,15.67-14.38,24.83-21.3,3.75-2.83,7.49-5.51,11.23-8.01,25.42-17.17,49.89-27.24,69.07-33.24-10.48-3.21-21.58-4.95-33.12-4.95-10.31,0-20.31,1.39-29.8,3.99-47.74,13.05-82.84,56.75-82.84,108.64Z"/>
              <path class="cls-12" d="m499.04,385.35c0,.33,0,.66.01.99.65.56,1.24,1.07,1.79,1.54,1.91,1.62,3.15,2.64,3.15,2.64,0,0,.63-4.13,1.85-10.2,2.64-13.21,7.99-35.55,15.32-44.21,4.65-5.5,11.85-1.72,18.51,4.11,7.42-7.21,15.67-14.38,24.83-21.3,3.75-2.83,7.49-5.51,11.23-8.01-2.87-9.29,2.43-25.02,6.15-34.2-47.74,13.05-82.84,56.75-82.84,108.64Z"/>
            </g>
            <g>
              <path class="cls-18" d="m346.94,397.86c87.68,5.44,175.38,10.89,263.07,16.33,9.97.62,19.52-4.11,25.07-12.42.08-.12.16-.24.24-.36,8.28-12.4,5.41-29.12-6.54-38.04-64.94-48.51-129.88-97.01-194.82-145.52-4.54,9.4-9.09,18.77-13.61,28.17,49.54,36.27,99.08,72.54,148.61,108.82,12.9,9.45,5.21,29.88-10.72,28.49-65.33-5.7-130.66-11.41-196-17.09-5.1,10.55-10.18,21.08-15.29,31.63Z"/>
              <g>
                <circle class="cls-20" cx="611.78" cy="387.28" r="18.29" transform="translate(-109.96 329.36) rotate(-27.75)"/>
                <path class="cls-18" d="m598.07,384.5c-1.54,7.57,3.36,14.95,10.93,16.49,7.57,1.54,14.95-3.36,16.49-10.93s-3.36-14.95-10.93-16.49c-7.57-1.54-14.95,3.36-16.49,10.93Z"/>
                <polygon class="cls-2" points="608.22 376.68 619.18 378.9 622.73 389.5 615.33 397.88 604.37 395.66 600.82 385.06 608.22 376.68"/>
              </g>
              <g>
                <g>
                  <rect class="cls-2" x="556.26" y="245.58" width="14.5" height="79.25" transform="translate(1059.06 676.75) rotate(-168.53)"/>
                  <rect class="cls-20" x="559.56" y="236.11" width="18.28" height="46.95" transform="translate(1074.44 627.07) rotate(-168.53)"/>
                  <rect class="cls-20" x="548.44" y="302.92" width="18.28" height="22.98" transform="translate(1041.52 733.41) rotate(-168.53)"/>
                </g>
                <g>
                  <path class="cls-20" d="m545.67,318.59c-1.19,5.86,2.6,11.58,8.46,12.77s11.58-2.6,12.77-8.46c1.19-5.86-2.6-11.58-8.46-12.77-5.86-1.19-11.58,2.6-12.77,8.46Z"/>
                  <path class="cls-18" d="m548.17,319.09c-.91,4.48,1.99,8.86,6.47,9.77s8.86-1.99,9.77-6.47c.91-4.48-1.99-8.86-6.47-9.77s-8.86,1.99-9.77,6.47Z"/>
                  <polygon class="cls-2" points="554.18 314.46 560.67 315.78 562.78 322.06 558.39 327.02 551.9 325.71 549.8 319.43 554.18 314.46"/>
                </g>
              </g>
            </g>
          </g>
          <path class="cls-19" d="m249.96,216.86c50.95,79.59,152.82,238.76,152.82,238.76h51.75c15.31,0,26.99-13.67,24.6-28.79-3.47-21.99-8.17-51.28-11.16-67.89-.6-3.31-.48-6.67.31-9.89.62-2.54,1.65-4.99,3.09-7.23,6.82-10.64,13.63-21.29,20.44-31.94,3.49-5.43,8.26-9.92,13.92-13.05,34.65-19.18,69.29-38.37,103.95-57.56,7.41-4.11,14.81-8.2,22.22-12.31-3.81-12.24-3.06-9.84-6.87-22.09-75.28,7.37-150.55,14.74-225.84,22.09-49.74-3.37-99.48-6.74-149.23-10.11Z"/>
          <g>
            <g>
              <path class="cls-26" d="m596.4,410.74c-10.48,1.34-20.96,2.69-31.44,4.03,1.9-8.29,3.8-16.58,5.7-24.87,20.99-28.97,41.98-57.95,62.97-86.92l26.78,19.39-64.01,88.37Z"/>
              <g>
                <path class="cls-17" d="m652.57,305.01l-17.16-12.43c-2.48,3.6-4.95,7.19-7.43,10.79-.1,2.62-.22,5.23-.32,7.85,1.77,2.66,5.36,7.41,11.4,11.85,6.35,4.67,12.27,6.69,15.39,7.55,2.46-.92,4.9-1.84,7.36-2.75,2.64-3.47,5.29-6.95,7.93-10.42l-17.16-12.43Z"/>
                <path class="cls-17" d="m669.78,317.48c-.15.21-.49.27-.99.2-2.66-.39-9.92-4.51-17.92-10.3-8-5.79-14.18-11.41-15.38-13.82-.23-.46-.27-.8-.12-1.01.94-1.3,9.41,3.22,18.92,10.11,9.51,6.89,16.44,13.52,15.5,14.82Z"/>
                <path class="cls-18" d="m668.78,317.68c-2.66-.39-9.92-4.51-17.92-10.3-8-5.79-14.18-11.41-15.38-13.82,4.79,1.81,11.26,5.44,17.94,10.28,6.68,4.84,12.15,9.85,15.36,13.84Z"/>
                <path class="cls-18" d="m658.38,310.57c-.06.08-.18.1-.37.07-1-.15-3.72-1.69-6.72-3.86-3-2.17-5.32-4.28-5.77-5.18-.08-.17-.1-.3-.05-.38.35-.49,3.53,1.21,7.09,3.79,3.57,2.58,6.17,5.07,5.81,5.56Z"/>
              </g>
            </g>
            <g>
              <rect class="cls-26" x="421.42" y="405.78" width="132.16" height="14.85" transform="translate(34.3 -37.35) rotate(4.55)"/>
              <path class="cls-17" d="m462.28,403.9h49.82c2.44,0,4.42,1.98,4.42,4.42v9.73c0,2.44-1.98,4.42-4.42,4.42h-49.82c-2.44,0-4.42-1.98-4.42-4.42v-9.73c0-2.44,1.98-4.42,4.42-4.42Z" transform="translate(34.29 -37.33) rotate(4.55)"/>
              <rect class="cls-26" x="462.69" y="402.78" width="49" height="20.79" rx="2.1" ry="2.1" transform="translate(34.29 -37.33) rotate(4.55)"/>
              <path class="cls-17" d="m596.57,410.58c-9.41,5.95-18.82,11.91-28.23,17.86-6.91-.51-13.82-1.02-20.73-1.52-.51-1.99-1.02-4.89-.82-8.38.23-4.1,1.35-7.34,2.24-9.38,3.72,0,7.45.01,11.17.02,3.49-6.43,6.98-12.85,10.47-19.28.83,2.64,3.03,8.4,8.62,13.35,6.92,6.13,14.65,7.11,17.29,7.33Z"/>
            </g>
          </g>
          <path class="cls-12" d="m432.64,267.9s24.91,66.79,26.86,70.41c.73,1.36,4.02,5.79,8.78,10.74.62-2.54,1.65-4.99,3.09-7.23,6.82-10.64,13.63-21.29,20.44-31.94,3.49-5.43,8.26-9.92,13.92-13.05,34.65-19.18,69.29-38.37,103.95-57.56l-15.49-29.44-81.94,75.37-79.6-17.3Z"/>
          <path class="cls-19" d="m184.56,213.51c5.59,10.89,15.22,25.53,31.66,36,22.4,14.28,47.15,14.25,125.98,3.1,25.79-3.65,57.47-8.5,93.73-14.9-.32-12.49-3.01-63.06-40.97-95.58-38.34-32.83-100.5-36.82-156.11-7.77-11.65,6.09-23.01,13.63-33.8,22.66-6.72,18.57-13.47,37.11-20.19,55.68-.1.26-.19.53-.29.79Z"/>
          <g>
            <path class="cls-18" d="m718.53,157.19c1.55-2.82,1.89-5.68,1.93-7.7-28.11.58-90,3.14-94.34,17.33-.2.66-.7,2.27,0,3.85,2.66,6.02,18.39,1.91,53.91-1.93,21.49-2.32,33.66-2.75,38.51-11.55Z"/>
            <path class="cls-1" d="m537.79,279.08l84.1-45.39s11.37-4.22,10.61-9.2c-.16-1.07-.2-2.05-.11-2.94.6-6.93,7.81-9.28,13.36-11.65,9.94-4.24,19.87-8.48,29.81-12.71,11.6-4.95,23.2-9.9,34.79-14.85,2.2-.94,4.18-2.31,5.83-4.02.22-.21.42-.43.65-.66,3.53-3.65,7.06-7.28,10.59-10.93,3.08-3.18,6.15-6.35,9.24-9.53,2.32-2.38.21-6.35-3.06-5.77-33.62,5.87-67.23,11.73-100.85,17.61-5.22.91-9.77,4.07-12.44,8.66-2.43,4.19-4.86,8.37-7.29,12.57-3.66,6.29-17.55,18-17.55,18l-57.67,70.8Z"/>
            <path class="cls-13" d="m632.39,221.55c.6-6.93,7.81-9.28,13.36-11.65,9.94-4.24,19.87-8.48,29.81-12.71l-39.17-2.64s-4.6,15.68-3.99,27Z"/>
            <path class="cls-24" d="m675.28,173.73s.05.04.08.06c3.52,2.52,7.74,3.87,12.08,3.87h29.38c3.53-3.65,7.06-7.29,10.6-10.93-17.17,1.54-34.33,3.09-51.5,4.63-1.21.11-1.63,1.66-.64,2.37Z"/>
            <polygon class="cls-7" points="622.1 195.68 621.29 224.86 570.65 256.03 622.1 195.68"/>
          </g>
          <path class="cls-18" d="m429.73,201.48c11.03,3.22,27.64,7.35,48.13,9.63,62.07,6.88,112.37-8.58,113.59-3.71.65,2.6-13.32,8.25-17.33,9.76-58.71,22.24-117.99,44.69-138.62,20.9-4.1-4.73-9.62-14.67-5.78-36.58Z"/>
          <path class="cls-12" d="m184.85,212.71l18.53,13.99s231.12,37.97,208.72,8.57c-22.4-29.4-98.76-35.92-151.43-68.13-22.02-13.47-25.38-24.5-21.82-32.78-11.65,6.09-23.01,13.63-33.8,22.66-6.72,18.57-13.47,37.11-20.19,55.68Z"/>
          <polygon class="cls-3" points="548 238.82 410.53 314.56 421.21 341.33 548 238.82"/>
          <g>
            <rect class="cls-2" x="163.59" y="134.63" width="19.04" height="96.65" transform="translate(286.03 408.09) rotate(-163.22)"/>
            <rect class="cls-2" x="175.45" y="129.27" width="21.96" height="19.04" transform="translate(324.85 325.49) rotate(-163.22)"/>
          </g>
          <g>
            <path class="cls-2" d="m107.15,182.99c91.82,90.41,183.67,180.82,275.48,271.23.47.46.94.93,1.42,1.39,10.36-.39,20.72-.79,31.09-1.17,4.37-.18,8.76-.33,13.15-.5,3.7-.16,6.82-3.5,7.51-8.09,1.06-7.15,2.14-14.29,3.2-21.43,3.04-20.47,13.26-38.12,27.82-48.09l8.37-5.74c10.23-7,13.29-23.66,6.53-35.58-17.89-31.63-35.78-63.29-53.64-94.92-5.65-9.93-14.11-16.77-23.66-19.04l-234.27-55.82c-5.75-1.37-11.51-2.52-17.31-3.47-5.91-.96-11.84-1.67-17.79-2.17-.05,0-.13-.02-.21-.02-4.77-.41-9.57-.81-14.34-1.2-1.06-.1-2.12-.17-3.18-.27-.44.96-.89,1.94-1.33,2.92-.9,2.04-1.79,4.08-2.62,6.11-1.74,4.09-3.34,8.12-4.83,12.09-.48,1.26-.94,2.51-1.39,3.76Z"/>
            <g>
              <path class="cls-16" d="m479.29,344.19c-17.89-31.63-35.78-63.29-53.64-94.92-5.65-9.93-14.11-16.77-23.66-19.04l-234.27-55.82c-5.75-1.37-11.51-2.52-17.31-3.47-5.91-.96-11.84-1.67-17.79-2.17-.05,0-.13-.02-.21-.02-4.77-.41-9.57-.81-14.34-1.2-1.06-.1-2.12-.17-3.18-.27-.44.96-.89,1.94-1.33,2.92-.9,2.04-1.79,4.08-2.62,6.11-1.06,2.5-2.06,4.97-3.02,7.42-.25-.25-.51-.5-.76-.75.45-1.24.91-2.5,1.39-3.76,1.48-3.97,3.09-8,4.83-12.09.83-2.02,1.72-4.07,2.62-6.11.44-.98.88-1.96,1.33-2.92,1.06.1,2.12.17,3.18.27,4.77.38,9.57.79,14.34,1.2.08,0,.16.02.21.02,5.95.5,11.88,1.21,17.79,2.17,5.8.94,11.55,2.1,17.31,3.47l234.27,55.82c9.55,2.27,18.02,9.11,23.66,19.04,17.86,31.63,35.75,63.29,53.64,94.92,4.58,8.07,4.64,18.31,1.03,26.25.56-5.8-.51-11.89-3.46-17.08Z"/>
              <path class="cls-18" d="m436.56,433.6c.7-4.7,1.79-9.24,3.21-13.58-.3,1.46-.57,2.92-.79,4.41-1.06,7.15-2.14,14.29-3.2,21.43-.26,1.74-.88,3.31-1.74,4.59.84-5.62,1.68-11.23,2.51-16.85Z"/>
            </g>
            <path class="cls-18" d="m107.15,182.99c91.82,90.41,183.67,180.82,275.48,271.23.32-.01.64-.02.96-.04,3.57-.15,6.58-3.28,7.25-7.58,1.02-6.69,2.06-13.38,3.09-20.08,2.93-19.17,12.8-35.71,26.84-45.05l8.09-5.38c9.86-6.56,12.82-22.16,6.3-33.33-17.26-29.63-34.52-59.28-51.76-88.92-5.44-9.31-13.62-15.7-22.83-17.83l-226.05-52.29c-5.56-1.28-11.11-2.36-16.7-3.25-3.08-.49-6.17-.91-9.26-1.26-.48,1.26-.94,2.51-1.39,3.76Z"/>
          </g>
          <g>
            <path class="cls-20" d="m361.37,432.61l63.94-21.44c4.76-1.6,6.19-7.92,2.69-11.94l-9.27-10.65c-7.34-8.43-11.14-19.56-10.51-30.72h0c.72-12.66-11.08-22.53-22.41-18.73l-50.14,16.81,25.7,76.67Z"/>
            <path class="cls-2" d="m360.07,428.72l47.22-15.83c3.52-1.18,4.4-6.33,1.68-9.73l-7.22-9c-5.72-7.12-8.88-16.37-8.71-25.52h0c.19-10.38-8.91-18.81-17.28-16.01l-37.02,12.41,21.34,63.68Z"/>
          </g>
          <path class="cls-1" d="m102.79,229.93c.36.17.76.35,1.15.55,13.84,6.54,39.71,20.88,63.42,45.81h.01c9.12,9.6,17.91,20.75,25.58,33.63,8.27,13.88,15.23,29.76,19.88,47.86,1.33,5.17,2.41,10.27,3.25,15.26,4.35,25.52,2.89,48.35.14,65.64-1.05,6.65,2.18,12.86,7.34,15.56h.01c.96.51,1.98.88,3.08,1.12.83.17,1.7.27,2.58.27h185.87c.05-.38.05-.77.02-1.18,0,0-.02-1.02-.19-2-.3-1.75-34.2-35.18-44.78-46.54-.83-.91-1.53-1.67-2.05-2.27-6.85-7.91-8.91-16.77-8.71-26.33.45-22.87,13.74-49.77,4.95-77.24-.82-2.58-1.86-5.21-3.15-7.88-1.8-3.72-4.09-7.5-7.03-11.33-2.43-3.18-5.3-6.38-8.67-9.55-15.88-14.95-42.98-29.6-88.89-40.95,0,0-13.62-3.85-32.1-9.89-24.56-8.03-57.71-19.92-78.89-31.82-.56-.3-1.89-1.08-2.77-2.58-1.58-2.64-.98-6.2,1.29-10.79,1.85-3.77,4.84-8.25,8.68-13.5,2.69-3.7,5.83-7.79,9.28-12.29,21.66-28.21,24.78-31.77,25.03-38.5.17-4.61-1-10.61-6.1-17.83-2.79-3.91-6.72-8.16-12.21-12.76l-.06-.21c-3.29,3.61-6.77,7.62-10.42,12.07-5.77,7.06-11.87,15.17-17.97,24.39-7.9,11.95-15.85,25.75-23.07,41.48-.43.95-.88,1.93-1.33,2.93-.91,2.03-1.79,4.08-2.62,6.1-2.29,5.38-4.35,10.68-6.21,15.84-4.38,12.17-7.67,23.64-10.17,34.06-1.27,5.27,1.22,10.74,5.82,12.88Z"/>
          <path class="cls-13" d="m136.87,207.28s-8.61,32.98-32.68,16.61l32.68-16.61Z"/>
          <path class="cls-13" d="m223.59,454.23c1.7.89,3.62,1.39,5.66,1.39h185.87c.05-.38.05-.77.02-1.18,0,0-.02-1.02-.19-2-.3-1.75-34.2-35.18-44.78-46.54l-28.15-4.63s4.54,25.44,29.13,35.48c24.47,9.99-145.8,17.4-147.56,17.48Z"/>
          <path class="cls-2" d="m113.36,167.15c2.31-2.91,4.7-5.81,7.12-8.76,8.14-9.84,16.89-19.89,26.22-30.07,11.59-12.63,23.08-24.34,34.33-35.16-2.79-3.91-6.72-8.16-12.21-12.77l-.06-.21c-3.29,3.62-6.78,7.62-10.42,12.07-5.78,7.07-11.88,15.17-17.98,24.39-7.89,11.94-15.85,25.74-23.07,41.47-.44.96-.89,1.95-1.33,2.93-.9,2.04-1.79,4.08-2.62,6.1Z"/>
          <path class="cls-3" d="m192.96,309.92c4.08,6.82,7.81,14.14,11.14,21.96,3.15,7.45,5.92,15.36,8.17,23.75.2.71.38,1.43.57,2.15,1.33,5.17,2.41,10.27,3.25,15.26l129.42-101.73c-4.56-4.29-10.05-8.56-16.65-12.73-13.16-8.35-30.74-16.3-54.16-23.3-5.68-1.71-11.7-3.35-18.09-4.92,0,0-13.62-3.85-32.1-9.89l-31.56,89.45Z"/>
          <path class="cls-19" d="m204.1,331.87c3.15,7.45,5.92,15.36,8.17,23.75l116.59-97.05c-13.16-8.35-30.74-16.3-54.16-23.3-18.85,25.99-53.91,74.2-70.61,96.59Z"/>
          <g>
            <path class="cls-24" d="m139.17,200.99c2.24,2.92-6.1,15.79-18.42,21.06-5.97,2.55-15.34,4.36-17.55.88-1.82-2.88,1.76-8.51,4.39-11.41,3.9-4.3,9.38-5.85,20.18-8.77,7.04-1.91,10.58-2.84,11.41-1.75Z"/>
            <path class="cls-14" d="m139.17,200.99c-.06-.08-.13-.14-.22-.2.32,3.93-9.28,14.3-21.4,17.56-4.53,1.22-10.76,1.8-14.51.61-.46,1.51-.51,2.91.15,3.96,2.21,3.49,11.58,1.67,17.55-.88,12.32-5.26,20.66-18.14,18.42-21.06Z"/>
            <path class="cls-5" d="m129.21,206.69c.4,1.21-3.43,3.57-8.55,5.27-5.13,1.7-9.61,2.11-10.01.9s3.43-3.57,8.55-5.27c5.13-1.7,9.61-2.11,10.01-.9Z"/>
          </g>
          <polygon class="cls-3" points="204.82 220.47 186.43 299.73 178.1 288.56 204.82 220.47"/>
          <path class="cls-3" d="m273.91,345.99l87.3-53.81c-1.8-3.72-4.09-7.5-7.03-11.33l-80.27,65.14Z"/>
          <path class="cls-7" d="m148.68,203.12c18.22,15.05,196.83,49.02,205.56,111.56,5.21,37.26-12.49,59.33-12.49,59.33l17.66,3.29c.45-22.87,13.74-49.77,4.95-77.24-.82-2.58-1.86-5.21-3.15-7.88-1.8-3.72-4.09-7.5-7.03-11.33-2.43-3.18-5.3-6.38-8.67-9.55-15.88-14.95-42.98-29.6-88.89-40.95,0,0-13.62-3.85-32.1-9.89-24.56-8.03-57.71-19.92-78.89-31.82-.56-.3-1.89-1.08-2.77-2.58-1.58-2.64-.98-6.2,1.29-10.79,0,0-13.7,12.79,4.53,27.84Z"/>
          <g>
            <circle class="cls-18" cx="366.19" cy="391.12" r="29.84" transform="translate(-80.07 94.6) rotate(-13.28)"/>
            <circle class="cls-2" cx="366.19" cy="391.12" r="22.38" transform="translate(-80.07 94.6) rotate(-13.28)"/>
          </g>
          <path class="cls-13" d="m167.38,276.3c9.12,9.59,17.91,20.74,25.58,33.62,8.27,13.88,15.23,29.76,19.88,47.86,1.33,5.17,2.41,10.27,3.25,15.26,4.35,25.52,2.89,48.35.14,65.64-1.05,6.65,2.18,12.86,7.34,15.56h.01c.96.51,1.98.88,3.08,1.12,6.92-13.09,16.57-38.68,18.07-81.34,2.36-67.08-76.14-97.25-77.35-97.71Z"/>
          <path class="cls-7" d="m157.18,133.11l1.2,11.07c-17.95,15.54-34.31,31-45.53,46.23,7.29-20.05,23.93-38.91,44.33-57.3Z"/>
          <path class="cls-7" d="m105.72,277.52l-4.87,13.29s-29.35-10.68-50.38,0c10.35-7.44,30.5-15.45,55.25-13.29Z"/>
          <path class="cls-7" d="m587.35,282.28l-2.18,12.01s20.87-16.28,46.11-16.75c0,0-33.36-2.95-43.93,4.74Z"/>
          <path class="cls-7" d="m263.72,138.79s38.59-18.03,75.72,6.49c37.13,24.51,37.62,52.18,37.62,52.18l-113.34-58.67Z"/>
          <path class="cls-8" d="m685.15,327.52s61.89,71.74-15.29,141.39c36.18-42.37,41-89.54,15.29-141.39Z"/>
          <path class="cls-8" d="m30.5,326.13s-61.89,71.74,15.29,141.39c-36.18-42.37-41-89.54-15.29-141.39Z"/>
          <path class="cls-7" d="m629.36,327.75c1.3.94,1.6,2.75.66,4.05l-32.05,44.61c-.94,1.3-2.75,1.6-4.05.66-1.3-.94-1.6-2.75-.66-4.05l32.05-44.61c.94-1.3,2.75-1.6,4.05-.66Z"/>
          <g>
            <path class="cls-1" d="m454.88,223.21c-1.79-5.42-4.81-10.27-8.73-14.7-1.05-1.19-2.16-2.35-3.34-3.48-17.85-17.14-49.36-27.99-73.58-42.57-6.57-3.95-12.61-8.17-17.69-12.86-10.92-10.08-17.43-22.37-15.37-38.81v-.13c.03-.1.04-.21.05-.32.68-5.05,16.03-18.91,16.03-18.91,0,0,12.32-18.28,34.85-21.09,1.82-.23,3.71-.36,5.67-.37,2.32,0,5,.16,7.95.49,39.49,4.54,130.59,40.6,147.95,117.26,13.67,60.4-93.79,35.49-93.79,35.49Z"/>
            <path class="cls-3" d="m446.15,208.51c-1.05-1.19-2.16-2.35-3.34-3.48-17.85-17.14-49.36-27.99-73.58-42.57,7.73-3.48,32.13-12.36,54.9,1.83,27.52,17.14,31.27,22.39,54.44,19.01,15.32-2.23-12.1,13.97-32.42,25.2Z"/>
            <path class="cls-15" d="m442.81,205.03c-22.69-21.79-67.46-33.42-91.27-55.43l51.06-15.06s-20.36,20.04-12.92,30.14c7.44,10.1,54.13,22.65,55.56,22.16,10.12-3.47,47.4-20.57,79.98-13.51,9.59,2.08-64.21,22.48-82.42,31.7Z"/>
            <path class="cls-1" d="m402.73,131.67c-9.69,6.02-21.1,14.43-33.06,23.22-25.26,18.56-52.91,38.79-71.75,41.64-2.78.43-5.36.47-7.72.08l-.63-10.05-1.09-17.04-.8-12.52,28.61-26.38c.1-.1.16-.16.16-.16l39.25-36.19,47.03,37.4Z"/>
            <path class="cls-15" d="m400.73,70.47c-1.33,3.62-5.07,8.24-13.61,13.77-21.29,13.8-47.72,25.19-50.95,26.56-.21.09-.33.14-.33.14l.34-.27,50.93-40.32c1.82-.23,3.71-.36,5.67-.37,2.32,0,5,.16,7.95.49Z"/>
            <path class="cls-1" d="m530.05,173.74c-34.1-2.88-100.03,27.38-120.51,44.68l21.48,34.49c26.3,8.93,104.07-22.08,114.13-39.72l-15.11-39.45Z"/>
            <path class="cls-1" d="m297.98,196.75c-10.37,2.22-41-8.29-63.58-17.62-.05-.02-.1-.04-.14-.06,0,0-.01,0-.03-.01-.17-.08-.35-.15-.52-.22-.1-.05-.2-.09-.31-.13-.47-.19-.93-.38-1.38-.58-13.68-5.75-23.87-10.85-23.73-11.94.02-.12.03-.28.06-.48.4-3.66,1.77-20.31,1.77-20.31l62.66,9.37s.08.02.13.03l14.77,2.21,2.55,9.81,2.18,8.43,2.98,11.5,2.54,9.8.06.21Z"/>
            <path class="cls-1" d="m510.22,325.83c-2.06,2.6-13.68,13.6-13.68,13.6,0,0-5.61-4.1-14.03-10.29-5.93-4.36-13.24-9.74-20.97-15.45-18.25-13.47-38.84-28.79-49.02-36.72-19.88-15.5-24.7-44.49-.05-60.96,11.29-.97,46.55,39.38,71.48,71.45,6.75,8.69,12.75,16.76,17.31,23.25,6.03,8.58,9.55,14.38,8.97,15.11Z"/>
            <path class="cls-15" d="m501.26,310.72c-4.52,5.03-16.36,17.06-17.42,18.27-.17.19-.63.24-1.32.15-5.93-4.36-13.24-9.74-20.97-15.45-2.26-9.56,14.75-7.19,23.25-9.7,4.93-1.46,2.26-9.78-.85-16.52,6.75,8.69,12.75,16.76,17.31,23.25Z"/>
            <path class="cls-1" d="m178.1,137.32c-9.33,5.51-5.43,25.23,1.03,23.88,1.77-.37-1.6-3.54-.37-4.98,2.59-3.02,9.78-3.93,10.32-1.33.87,4.24,7.23,17.05,19.21,11.3,2.34-6.2,2.84-13.18,1.83-20.79-4.5-2.43-24.39-12.59-32.02-8.08Z"/>
            <path class="cls-25" d="m191.16,156.76c.46-3.54-2.04-6.77-5.58-7.23s-6.77,2.04-7.23,5.58c-.46,3.54,2.04,6.77,5.58,7.23,3.54.46,6.77-2.04,7.23-5.58Z"/>
            <g>
              <path class="cls-1" d="m392.82,67.55c-4.35,4.89-11.29,10.92-19.48,17.23,0,0,0,0,0,.01-16.79,12.92-38.88,26.96-54.99,34.49-6.5,3.03-14.09,1.44-18.83-3.59-.76-.81-1.43-1.69-2.03-2.67-12.82-20.81-17.89-39.51-17.67-55.39,0-1.15.05-2.26.13-3.38h0c1.27-20.37,11.4-35.77,24.8-44.64l.12-.08c18.75-12.72,42.52-12.36,60.53-1.01h0c1.4.89,2.77,1.83,4.09,2.85,4.61,3.52,8.73,7.82,12.17,12.88,1.88,2.77,3.77,6.81,5.53,11.27,1.03,2.6,2.01,5.34,2.93,8.04.94,2.76,1.8,5.49,2.56,7.99.87,2.87,1.6,5.44,2.16,7.47.83,3,.08,6.2-2,8.52Z"/>
              <path class="cls-3" d="m387.17,35.52c-6.05,20.96-29.33,35.85-37.76,39.56,34.54-26.75,16.29-65.6,15.97-66.55,6.26,3.93,11.84,9.21,16.26,15.73,1.88,2.77,3.77,6.81,5.53,11.27Z"/>
              <path class="cls-3" d="m392.66,51.56c-9.05,10.44-21.13,16.48-21.6,16.71,10.47-8.18,16.08-17.57,19.05-24.71.94,2.76,1.8,5.49,2.56,7.99Z"/>
              <path class="cls-3" d="m335.37,36.15l-13.59,62.56c39.82-31.35,13.59-62.56,13.59-62.56Z"/>
              <g>
                <path class="cls-21" d="m336.5,37.65c.24.42.45.86.62,1.33.38,1.07.75,2.19,1.09,3.35h0c.78,2.72,1.43,5.67,1.81,8.8.11.9.2,1.81.26,2.75.13,1.86.16,3.78.07,5.74,0,.38-.03.76-.06,1.14-.17,2.74-.59,5.57-1.28,8.49-.19.79-.4,1.59-.63,2.4-.31,1.07-.66,2.15-1.05,3.24-.79,2.18-1.75,4.39-2.89,6.63-.86,1.68-1.83,3.37-2.91,5.08-6.11,9.59-15.91,19.54-31.04,29.24l-.05.03c-.31-.06-.63-.13-.94-.19-.75-.8-1.43-1.7-2.03-2.67-12.82-20.81-17.88-39.51-17.67-55.39,0-1.14.05-2.26.13-3.38t0-.01c10.12-4.67,20-10.13,29.61-16.37,1.75-1.13,3.56-2.09,5.39-2.84.12-.05.25-.11.38-.16.68-.28,1.36-.52,2.05-.75.37-.12.75-.24,1.12-.34,1.96-.56,3.89-.89,5.73-1.01.61-.04,1.2-.06,1.79-.04.2,0,.4,0,.59.01.39.01.76.04,1.14.09t0,0c.36.04.73.08,1.09.16,0,0,0,0,0,0,1.8.3,3.41.88,4.75,1.71.67.43,1.27.91,1.8,1.46.43.45.81.96,1.12,1.5Z"/>
                <path class="cls-11" d="m336.5,37.65c.25.42.47.87.63,1.34.38,1.07.74,2.18,1.08,3.34h0c.79,2.71,1.43,5.66,1.81,8.8.11.9.2,1.81.26,2.75.13,1.85.16,3.78.07,5.74,0,.38-.03.76-.06,1.14-.17,2.74-.59,5.57-1.28,8.49-.19.79-.4,1.59-.63,2.4-.31,1.07-.66,2.15-1.05,3.24-.79,2.18-1.74,4.4-2.89,6.63-.86,1.68-1.83,3.37-2.91,5.08-6.11,9.61-15.93,19.57-31.08,29.28.02-.01.03-.03.05-.04,39.31-32.43,33.91-82.41,14.9-72.44-15.71,8.25-27.61,12.27-35.59,14.22,0-1.14.05-2.26.13-3.38,10.13-4.67,20-10.13,29.62-16.38,1.75-1.13,3.56-2.08,5.38-2.84.12-.05.25-.11.38-.16.68-.28,1.36-.52,2.05-.75.37-.12.75-.24,1.12-.34,1.96-.56,3.89-.89,5.73-1.01.61-.04,1.21-.05,1.79-.04.2,0,.4,0,.59.01.39.02.77.05,1.14.09t0,0c.37.05.74.1,1.09.16,0,0,0,0,0,0,1.8.31,3.41.88,4.75,1.71.67.43,1.27.91,1.8,1.46.43.45.81.96,1.12,1.5Z"/>
              </g>
              <path class="cls-6" d="m296.12,29.35c19.88-12.18,39.45-22.16,57.49-21.8,0,0-33.62-17.32-57.49,21.8Z"/>
              <path class="cls-6" d="m392.82,67.55c-4.35,4.89-11.29,10.92-19.48,17.23,16.04-25.63-3.87-73.4-3.87-73.4,4.61,3.52,8.73,7.82,12.17,12.88,1.88,2.77,3.77,6.81,5.53,11.27,1.03,2.6,2.01,5.34,2.93,8.04.94,2.76,1.8,5.49,2.56,7.99.87,2.87,1.6,5.44,2.16,7.47.83,3,.08,6.2-2,8.52Z"/>
            </g>
            <g>
              <path class="cls-1" d="m442.4,371.42c4.45,4.09,17.22,6.42,25.07.34,10.11-7.82,13.23-13.22,18.38-17.9,5.13-4.68,12.89-7.22,15.39-8.24,4.09-1.6,16.63-10.49,17.08-16.85.31-4.65-11.69-17.58-18.16-24.19-1.59-1.62-4.3-1.43-5.54.47-3.97,6.09-14.08,4.39-20.35,6.04-3.27.86-5.5,2.61-5.27,6.86.18,3.35,1.93,5.81,2.02,8.22v.03c0,.58-.02,1.1-.05,1.63-.14,1.99-.57,3.77-1.25,5.52-.19.54-.43,1.12-.7,1.66-.85,1.89-1.92,3.75-3.02,5.66-.31.48-.62,1.01-.93,1.5-.22.4-2.55,2.48-5.69,5.39-7.98,7.41-21.08,20.13-17,23.86Z"/>
              <path class="cls-11" d="m441.75,368.6c5.33,3.36,16.49,4.79,23.62-.74,10.11-7.82,13.23-13.22,18.38-17.9,5.13-4.68,12.89-7.22,15.39-8.24,4.09-1.6,16.63-10.49,17.08-16.85.04-.58-.12-1.28-.42-2.09,1.62,2.47,2.62,4.59,2.53,5.98-.45,6.35-12.99,15.25-17.08,16.85-2.5,1.02-10.26,3.56-15.39,8.24-5.15,4.67-8.27,10.07-18.38,17.9-7.85,6.08-20.62,3.75-25.07-.34-.74-.67-.91-1.64-.65-2.82Z"/>
              <path class="cls-23" d="m459.4,347.55c4.27,1.28,7.97.09,11.01-2.55,8.9-7.73,13.91-27.06,8.51-33.94-3.01-3.83-11.14-.48-10.88,6.14.13,3.35,2.74,7.22,2.99,8.97-.83,9.62-3.67,14.22-11.63,21.38Z"/>
              <path class="cls-3" d="m470.99,327.84c.07.06.2.07.32.09,1.92.28,4.3-.76,7.12-2.96l.04-.02s.06-.05.09-.09c.25-.29.33-.71.1-1-.02-.04-.06-.07-.11-.09-.26-.23-.68-.22-.98.03-3.01,2.39-4.81,2.73-5.77,2.6-.33-.05-.56-.12-.75-.2,0,.58-.02,1.1-.05,1.63Z"/>
              <path class="cls-3" d="m469.03,335.01c.38.25.87.48,1.52.56,1.83.25,4.05-.64,6.67-2.63.15-.11.31-.22.46-.35h.03c.32-.29.44-.76.19-1.09-.06-.07-.13-.13-.21-.17-.25-.13-.6-.09-.88.11-3,2.35-4.81,2.73-5.77,2.6-.72-.09-1.12-.43-1.3-.69-.19.54-.43,1.12-.7,1.66Z"/>
              <path class="cls-3" d="m465.09,342.17c.36.38.99.82,1.99.96,1.65.25,3.71-.51,6.1-2.18.33-.24.68-.5,1.03-.77v-.03c.37-.29.43-.77.19-1.08-.25-.32-.74-.35-1.1-.07-2.97,2.4-4.76,2.73-5.77,2.6-1.04-.09-1.4-.79-1.4-.79-.04-.04-.08-.1-.11-.13-.31.48-.62,1.01-.93,1.5Z"/>
            </g>
            <path class="cls-3" d="m297.92,196.54l.06.21c-10.37,2.23-40.99-8.29-63.58-17.63,2.37-2.43,44.81,6.41,55.16,7.44,2.02.2,3.98.27,5.82.18,3.71-.19,6.98-1.02,9.55-2.65,10.4-6.65,61.22-39.96,64.53-30.26.11.32.18.68.21,1.07-25.25,18.55-52.91,38.79-71.75,41.64Z"/>
            <path class="cls-3" d="m530.09,189.69c-21.75,46.56-64.9,43.53-101.98,54.55,11.54,13.01,42.47,38.76,61.33,56.92-10.63-20.85-34.83-35.35-43.66-53.39,36.82-12.88,84.25-17.87,84.3-58.08Z"/>
            <path class="cls-15" d="m289.21,162.36c1.81,6.98.25,13.04.25,13.04-2.15-14.13-5-16.55-16.55-20.61l14.77,2.21,28.61-26.38c-2.3,2.26-29.21,23.52-27.08,31.74Z"/>
            <path class="cls-15" d="m232.02,178.13c-13.68-5.75-23.87-10.85-23.73-11.94.02-.12.03-.28.06-.48,1.29-1.45,4.01-4.68,5.51-7.93,0,0,4.24,14.06,18.16,20.34Z"/>
            <path class="cls-6" d="m419.43,81.67c-7.91,1.55-28.87,16.94-12.78,28.97,16.09,12.03,68.32,14.44,82.63,27.7,17.38,16.11,31.93,14.68,27.31,4.72-10.32-22.22-75.2-65.69-97.16-61.4Z"/>
            <path class="cls-6" d="m354.06,113.63s-52.93,45.88-51.88,51.63c1.79,9.76,64.23-39.9,63.89-43.57-.34-3.67-6.51-12.16-12.01-8.06Z"/>
            <path class="cls-6" d="m411.77,258.42s37.7,39.33,42.12,38.29c7.51-1.77-33.49-48.34-36.33-47.93-2.84.41-9.19,5.53-5.79,9.64Z"/>
            <path class="cls-6" d="m284.72,59.21s-1.68,10.78,7.87,25.7c9.55,14.92,32.27-37.62,32.27-37.62,0,0-20.51,14.04-40.14,11.93Z"/>
          </g>
        </g>
      </g>
    </g>
  </g>
</svg>