<?xml version="1.0" encoding="UTF-8"?>
<!DOCTYPE svg PUBLIC "-//W3C//DTD SVG 1.1//EN" "http://www.w3.org/Graphics/SVG/1.1/DTD/svg11.dtd">
<!-- Creator: CorelDRAW 2019 (64-Bit) -->
<svg xmlns="http://www.w3.org/2000/svg" xml:space="preserve" width="6in" height="6in" version="1.1" style="shape-rendering:geometricPrecision; text-rendering:geometricPrecision; image-rendering:optimizeQuality; fill-rule:evenodd; clip-rule:evenodd"
viewBox="0 0 6000 6000"
 xmlns:xlink="http://www.w3.org/1999/xlink">
 <defs>
  <style type="text/css">
   <![CDATA[
    .fil0 {fill:#aeaeae}
   ]]>
  </style>
 </defs>
 <g id="Layer_x0020_1">
  <metadata id="CorelCorpID_0Corel-Layer"/>
  <path class="fil0" d="M2314.09 4018.48c0,-154.33 83.26,-323.6 162.5,-405.64 483.45,-500.52 1274.17,45.35 1001.67,655.26 -130.48,292.07 -481.26,448.41 -804,304.76 -35.08,-15.61 -67.99,-34.24 -97.2,-55.22 -19.26,-13.84 -19.48,-14.6 -38.41,-30.87 -7.67,-6.59 -13.95,-11.83 -22.13,-19.44 -121.3,-112.94 -202.42,-273.39 -202.42,-448.85zm-956.12 -1066.98c0,-98.66 16.4,-194 180.13,-194l2771.37 0c244.74,0 244.74,332.56 0,332.56l-2771.37 0c-91.16,0 -180.13,-48.57 -180.13,-138.57zm1621.24 -526.56c-219.76,0 -329.24,-14.6 -495.7,-183.29 -42.99,-43.57 -91.4,-115.38 -115.78,-175.21 -99.88,-245.06 -50.17,-479.61 127.83,-665.56 443.19,-462.99 1227.89,31.88 994.67,634.39 -24.87,64.24 -65.85,142.72 -112.4,192.45 -86.04,91.91 -227.98,197.22 -398.63,197.22zm-2383.37 -1496.54c0,-267.96 345.17,-452.57 565.15,-232.58 306.07,306.07 -159.1,771.24 -465.17,465.17 -44.95,-44.94 -99.98,-149.28 -99.98,-232.58zm-595.84 -387.99l0 2230.95c0,238 160.29,375.07 294.45,509.24l2411.09 2411.09c194.01,194 274.36,308.31 578.52,308.31 209.61,0 332.48,-131.56 439.96,-239.03 275.64,-275.64 2110.53,-2083.55 2193.26,-2213.21 73,-114.42 82.72,-195.2 82.72,-332.98 0,-231.15 -180.61,-381.54 -301.39,-502.31 -307.81,-307.81 -2500.52,-2519.13 -2618.08,-2605.94 -70.3,-51.91 -193.17,-106.53 -309.17,-106.53l-2230.95 0c-282.28,0 -540.41,258.14 -540.41,540.41z"/>
 </g>
</svg>
