<?xml version="1.0" encoding="UTF-8" standalone="no"?>
<!-- Created with Inkscape (http://www.inkscape.org/) -->

<svg
   version="1.1"
   id="svg3480"
   xml:space="preserve"
   width="682.66669"
   height="682.66669"
   viewBox="0 0 682.66669 682.66669"
   xmlns="http://www.w3.org/2000/svg"
   xmlns:svg="http://www.w3.org/2000/svg"><defs
     id="defs3484"><clipPath
       clipPathUnits="userSpaceOnUse"
       id="clipPath3494"><path
         d="M 0,512 H 512 V 0 H 0 Z"
         id="path3492" /></clipPath></defs><g
     id="g3486"
     transform="matrix(1.3333333,0,0,-1.3333333,0,682.66667)"><g
       id="g3488"><g
         id="g3490"
         clip-path="url(#clipPath3494)"><g
           id="g3496"
           transform="translate(344.7373,112)"><path
             d="m 0,0 -88.737,-97 -85.365,97 85.365,97 z"
             style="fill:none;stroke:#000000;stroke-width:30;stroke-linecap:round;stroke-linejoin:round;stroke-miterlimit:10;stroke-dasharray:none;stroke-opacity:1"
             id="path3498" /></g><g
           id="g3500"
           transform="translate(256,457.625)"><path
             d="m 0,0 c 0,0 10.8,39.375 45,39.375 26.64,0 45,-22.574 45,-49.318 0,-36.987 -36.624,-61.478 -90,-108.182 -53.376,46.704 -90,71.195 -90,108.182 0,26.744 18.36,49.318 45,49.318 C -10.8,39.375 0,0 0,0 Z"
             style="fill:none;stroke:#000000;stroke-width:30;stroke-linecap:round;stroke-linejoin:round;stroke-miterlimit:10;stroke-dasharray:none;stroke-opacity:1"
             id="path3502" /></g><g
           id="g3504"
           transform="translate(105,268)"><path
             d="M 0,0 C 0,-24.853 20.147,-45 45,-45 69.853,-45 90,-24.853 90,0 90,24.853 69.853,45 45,45 44.025,45 43.116,44.775 42.156,44.714 43.896,49.506 45,54.607 45,60 45,84.853 24.853,105 0,105 -24.853,105 -45,84.853 -45,60 -45,54.607 -43.896,49.506 -42.156,44.714 -43.116,44.775 -44.025,45 -45,45 -69.853,45 -90,24.853 -90,0 c 0,-24.853 20.147,-45 45,-45 24.853,0 45,20.147 45,45"
             style="fill:none;stroke:#000000;stroke-width:30;stroke-linecap:round;stroke-linejoin:round;stroke-miterlimit:10;stroke-dasharray:none;stroke-opacity:1"
             id="path3506" /></g><g
           id="g3508"
           transform="translate(75,163)"><path
             d="M 0,0 H 60"
             style="fill:none;stroke:#000000;stroke-width:30;stroke-linecap:round;stroke-linejoin:round;stroke-miterlimit:10;stroke-dasharray:none;stroke-opacity:1"
             id="path3510" /></g><g
           id="g3512"
           transform="translate(105,268)"><path
             d="M 0,0 V -105"
             style="fill:none;stroke:#000000;stroke-width:30;stroke-linecap:round;stroke-linejoin:round;stroke-miterlimit:10;stroke-dasharray:none;stroke-opacity:1"
             id="path3514" /></g><g
           id="g3516"
           transform="translate(452,219.25)"><path
             d="M 0,0 C 26.64,0 45,22.574 45,49.318 45,86.305 8.376,110.796 -45,157.5 -98.376,110.796 -135,86.305 -135,49.318 -135,22.574 -116.64,0 -90,0 -55.8,0 -45,39.375 -45,39.375 -45,39.375 -34.2,0 0,0 Z"
             style="fill:none;stroke:#000000;stroke-width:30;stroke-linecap:round;stroke-linejoin:round;stroke-miterlimit:10;stroke-dasharray:none;stroke-opacity:1"
             id="path3518" /></g><g
           id="g3520"
           transform="translate(377,163)"><path
             d="M 0,0 H 60"
             style="fill:none;stroke:#000000;stroke-width:30;stroke-linecap:round;stroke-linejoin:round;stroke-miterlimit:10;stroke-dasharray:none;stroke-opacity:1"
             id="path3522" /></g><g
           id="g3524"
           transform="translate(407,260.625)"><path
             d="M 0,0 V -95.625"
             style="fill:none;stroke:#000000;stroke-width:30;stroke-linecap:round;stroke-linejoin:round;stroke-miterlimit:10;stroke-dasharray:none;stroke-opacity:1"
             id="path3526" /></g></g></g></g></svg>
