<?xml version="1.0" encoding="UTF-8"?>
<svg id="Layer_2" data-name="Layer 2" xmlns="http://www.w3.org/2000/svg" viewBox="0 0 163.09 179.99">
  <defs>
    <style>
      .cls-1 {
        fill: #86c8e3;
      }

      .cls-2 {
        fill: #fff;
      }

      .cls-3 {
        fill: #0c0c0c;
      }

      .cls-4 {
        fill: #998675;
      }

      .cls-5 {
        fill: #67786d;
      }

      .cls-6 {
        fill: #002a40;
      }

      .cls-7 {
        fill: #bde8eb;
      }

      .cls-8 {
        fill: #4d4d4d;
      }

      .cls-9 {
        fill: #c7b299;
      }

      .cls-10 {
        fill: #e8c5a9;
      }

      .cls-11 {
        fill: #095270;
      }

      .cls-12 {
        fill: #736357;
      }

      .cls-13 {
        fill: #fefcd3;
      }

      .cls-14 {
        fill: #424242;
      }

      .cls-15 {
        fill: #fee6a6;
      }

      .cls-16 {
        fill: #262222;
      }

      .cls-17 {
        fill: #d9f7ff;
      }

      .cls-18 {
        fill: #483c35;
      }

      .cls-19 {
        fill: #927e6c;
      }

      .cls-20 {
        fill: #a9ddf3;
      }

      .cls-21 {
        fill: #6a594c;
      }

      .cls-22 {
        fill: #3a322c;
      }

      .cls-23 {
        fill: #191515;
      }

      .cls-24 {
        fill: #deae89;
      }
    </style>
  </defs>
  <g id="Layer_2-2" data-name="Layer 2">
    <g>
      <g>
        <polygon class="cls-1" points="94.25 47.72 86.44 56.1 85.93 55.15 83.88 59.77 88.27 96.34 96.12 48.65 96.14 48.65 94.25 47.72"/>
        <path class="cls-20" d="m79.95,59.77l-1.68-4.66c0-.31.19-.76.46-1.25l-1.31,2.24-7.96-8.38-2.19.93,7.64,47.6,5.05-36.48Z"/>
        <path class="cls-7" d="m83.87,48.66c-.69.05-1.09.08-1.35.08l3.92,7.36,8.52-9.13-2.87-4.11c-2.12,2.54-5.43,5.59-8.21,5.8Z"/>
        <path class="cls-17" d="m78.73,53.86c.09-.17.2-.34.3-.51l2.73-4.65c-.22-.02-.55-.04-1.25-.04-1.3,0-5.8-2.57-8.53-5.31l-3.23,3.63,8.66,9.12,1.31-2.24Z"/>
        <path class="cls-15" d="m118.01,78.9l-1.29-2.14c-1.56.24-2.83,1.25-2.83,2.07h-.15l.81,1.35c.26.64,1.69,1.83,2.42,1.82,2.36,6.21,3.54,9.96,4.03,16.92h1.57c-.82-6.98-1.4-10.25-4.33-17.5.3-.43-.03-2.04-.23-2.53Z"/>
        <path class="cls-15" d="m48.31,80.18l.97-1.61c-.25-.83-1.58-1.72-3.13-1.84l-1.31,2.16c-.2.49-.76,2.65-.45,3.08-2.92,7.24-3.75,10.42-3.89,16.94h1.34c.32-6.74.88-9.48,3.65-16.38,1.29-.09,2.55-1.72,2.82-2.36Z"/>
        <path class="cls-15" d="m101.99,79.06l-.88-2.07c-1.64-.05-3.12.79-3.27,1.63l.58,1.36c.19.66,1.46,2.16,2.19,2.22,2,7.02,2.5,10.28,2.64,16.73h1.37c-.13-6.71-.57-10.04-2.66-17.36.35-.4.19-1.99.04-2.5Z"/>
        <path class="cls-15" d="m62.68,81.86c.73-.06,1.56-1.22,1.76-1.88l.75-1.78c-.51-.74-1.96-1.36-3.46-1.19l-.87,2.05c-.15.51-.24,1.89.1,2.28-2.09,7.32-2.67,11.01-2.32,17.58h1.35c-.24-6.16.1-9.87,2.69-17.07Z"/>
        <path class="cls-2" d="m99.08,72.16c-.25-.87-1.26-1.37-2.25-1.11-.99.25-1.58,1.16-1.33,2.03l1.85,4.36c.69-.82,1.97-1.38,3.35-1.45l-1.62-3.83Z"/>
        <path class="cls-2" d="m69.41,8.49c-.02-.16-.07-.14,0,0h0Z"/>
        <path class="cls-2" d="m67.36,73.08c.25-.87-.34-1.78-1.33-2.03-.99-.25-1.99.25-2.25,1.11l-1.62,3.83c1.36-.02,2.66.46,3.46,1.21l1.74-4.11Z"/>
        <path class="cls-2" d="m116.18,75.86l-2.12-3.5c-.35-.84-1.4-1.23-2.35-.87-.95.35-1.45,1.32-1.11,2.16l2.56,4.23c.5-.93,1.65-1.71,3.02-2.02Z"/>
        <path class="cls-2" d="m49.88,77.58l2.38-3.93c.34-.84-.15-1.81-1.11-2.16-.96-.36-2,.04-2.35.87l-2.07,3.42c1.34.22,2.54.92,3.15,1.79Z"/>
        <polygon class="cls-18" points="82.11 121.53 104.34 121.53 105.23 121.53 112.3 121.53 111.57 129.02 114.33 129.02 141.73 129.02 163.09 104.1 82.11 104.1 82.11 121.53"/>
        <polygon class="cls-12" points="58.59 121.53 82.11 121.53 82.11 104.1 0 104.1 21.37 129.02 48.76 129.02 51.58 129.02 50.86 121.53 57.71 121.53 58.59 121.53"/>
        <polygon class="cls-4" points="50.86 121.53 56.55 179.99 62.81 179.99 57.71 121.53 50.86 121.53"/>
        <polygon class="cls-13" points="57.71 121.53 62.81 179.99 63.84 179.99 58.59 121.53 57.71 121.53"/>
        <polygon class="cls-21" points="100.13 179.99 106.61 179.99 112.3 121.53 105.23 121.53 100.13 179.99"/>
        <polygon class="cls-15" points="104.34 121.53 98.96 179.99 100.13 179.99 105.23 121.53 104.34 121.53"/>
        <path class="cls-14" d="m81.64,51.24c.27-.01-.28,0,0,0h0Z"/>
        <path class="cls-5" d="m82.11,13.9c-.09-.03-.17-.06-.26-.09.08.03.14.06.21.09.02,0,.03.01.04.02v-.02Z"/>
        <path class="cls-10" d="m69.41,8.49c.08.55.15,1.12.21,1.69,0,.09.02.18.03.27.68,6.43.39,14.17-1.56,19.7-.45-1.26-1.79-5.34-2.16-6.6,0-.14.13-.36.09-.49-.16-.05-.02-.01-.16-.05-2.17-.52-2.17,1.76-1.57,4.77.53,2.64,2.46,5.46,3.8,5.46.66,2.28.79,4.96,1.72,7.17.39.93,1.19,1.94,2.17,2.93,2.72,2.74,6.96,5.18,8.53,5.31,1.04.08,1.37.06,1.6.08.14.01-.11,0,0,0V15.44c-5.61-.38-10.76-2.96-12.7-6.95Z"/>
        <path class="cls-24" d="m97.91,23.12c-.23,0-.4-.18-.67-.07-.37,2.83-1.16,6.03-1.81,7.46-1.78-5.04-3.39-15.99-1.33-19.34-2.66,2.98-7.03,4.58-11.99,2.73v.02c.7.71,1.41,1.57,1.41,1.57-.47,0-.94-.02-1.41-.05v33.3c.1,0,.23.01.41,0,.27,0,.66-.03,1.35-.08,2.78-.21,6.09-3.26,8.21-5.8.69-.82,1.25-1.59,1.62-2.2.76-1.21,1.02-4.18,1.73-7.34,1.25-.33,3.38-2.94,3.88-5.42.61-3.01-.06-4.78-1.4-4.78Z"/>
        <path class="cls-16" d="m82.11,13.94v.68c.12,0,.23,0,.35,0,0,0-.01-.44-.35-.69Z"/>
        <path class="cls-16" d="m82.11,13.84c-.09-.01-.17-.01-.26-.03.09.03.17.06.26.09v-.06Z"/>
        <path class="cls-23" d="m96.65,9.91c-.1-2.67-1.79-4.51-2.42-5.44-.01-.02-3.24-4.58-12.11-4.47v13.9c4.96,1.85,9.34.25,11.99-2.73-2.06,3.36-.45,14.31,1.33,19.34.65-1.43,1.45-4.63,1.81-7.46.73-5,1.55-10.61-.6-13.14Z"/>
        <path class="cls-22" d="m82.11,13.92v.02c.34.25,0,0,0,0-.02-.01-.03-.03-.04-.04-.07-.03-.04-.07.04-.06V0c-.52,0-1.04.02-1.6.06-4.44.32-8.7,1.2-11.59,4.66-.1.14-.16.26-.21.38,0-.03-.02-.06-.02-.1,0,0-.01.01-.02.02-.45.59-.86,1.28-1.23,2.04-1.74,3.59-3.57,9.87-1.42,15.98.04.13-.09.35-.09.49.36,1.26,1.71,5.34,2.16,6.6,1.95-5.53,2.24-13.27,1.56-19.7,0-.09-.02-.18-.03-.27-.06-.57-.13-1.14-.21-1.69-.07-.14-.02-.16,0,0,1.94,3.99,7.09,6.58,12.7,6.95.47.03.94.05,1.41.05,0,0-.43-.66-1.41-1.57Z"/>
        <path class="cls-16" d="m82.07,13.9s.03.03.04.04v-.02s-.03-.01-.04-.02Z"/>
        <path class="cls-14" d="m49.28,78.57l.6-.99c-.62-.87-1.81-1.57-3.15-1.79l-.57.95c1.55.11,2.88,1.01,3.13,1.84Z"/>
        <path class="cls-14" d="m65.19,78.2l.43-1.01c-.79-.74-2.09-1.22-3.46-1.21l-.43,1.02c1.5-.17,2.95.45,3.46,1.19Z"/>
        <path class="cls-14" d="m116.72,76.76l-.55-.9c-1.36.31-2.52,1.09-3.02,2.02l.58.95h.15c0-.82,1.27-1.84,2.83-2.07Z"/>
        <path class="cls-14" d="m101.12,76.99l-.42-1c-1.38.07-2.66.64-3.35,1.45l.5,1.17c.15-.84,1.64-1.67,3.27-1.63Z"/>
        <path class="cls-14" d="m79.03,53.35c-.11.17-.21.34-.3.51l.3-.51Z"/>
        <polygon class="cls-9" points="59.99 98.93 58.65 98.93 41.84 98.93 40.51 98.93 29.89 98.93 .04 98.93 0 98.93 0 104.1 82.11 104.1 82.11 99.7 82.11 98.93 59.99 98.93"/>
        <polygon class="cls-19" points="163.06 98.93 134.39 98.93 122.57 98.93 121 98.93 104.62 98.93 103.24 98.93 82.11 98.93 82.11 99.7 82.11 104.1 163.09 104.1 163.09 98.93 163.06 98.93"/>
      </g>
      <g>
        <polygon class="cls-4" points="58.59 121.53 63.84 179.99 81.98 179.99 81.98 121.53 58.59 121.53"/>
        <polygon class="cls-12" points="82.11 121.53 81.98 121.53 81.98 179.99 82.11 179.99 98.96 179.99 104.34 121.53 82.11 121.53"/>
      </g>
      <g>
        <path class="cls-15" d="m86.6,139.83c-1.22.43-2.51.69-3.86.76v6.11c2.01-.04,3.94-.25,5.76-.63-.08-2.22-.74-4.37-1.9-6.23Z"/>
        <path class="cls-13" d="m76.96,154.94c-.45.14-.9.31-1.36.51,1.2.84,2.54,1.43,3.96,1.74-.96-.6-1.85-1.36-2.6-2.26Z"/>
        <path class="cls-15" d="m88.12,139.17c1.39,1.85,2.22,4.04,2.41,6.38.86-.26,1.67-.55,2.42-.88-.37-2.43-1.55-4.69-3.34-6.39-.45.32-.95.62-1.48.9Z"/>
        <path class="cls-15" d="m88.47,147.55c-1.8.4-3.73.63-5.73.67v4.4c1.35.06,2.64.28,3.86.64,1.07-1.71,1.71-3.68,1.87-5.71Z"/>
        <path class="cls-15" d="m87.04,137.92c.45-.17.9-.38,1.37-.63-1.61-1.15-3.47-1.84-5.45-2.01,1.51.58,2.91,1.49,4.07,2.65Z"/>
        <path class="cls-13" d="m70.99,144.55c.93.43,1.96.8,3.07,1.12.17-2.3.91-4.46,2.15-6.29-.68-.31-1.31-.68-1.9-1.1-1.76,1.67-2.94,3.89-3.32,6.28Z"/>
        <path class="cls-13" d="m77.27,138.04c1.11-1.21,2.46-2.15,3.91-2.72v-.07c-2.05.14-4,.84-5.67,2.03.56.29,1.15.54,1.76.76Z"/>
        <path class="cls-15" d="m82.74,135.95v2.85c.96-.05,1.89-.19,2.8-.42-.81-.96-1.75-1.77-2.8-2.43Z"/>
        <path class="cls-13" d="m76.05,153.72c-1.25-1.93-1.94-4.21-2.02-6.61-1.17-.36-2.24-.79-3.18-1.29,0,.17-.02.34-.02.52,0,3.1,1.31,6.07,3.6,8.18.51-.3,1.05-.57,1.62-.8Z"/>
        <path class="cls-13" d="m81.19,136.11c-.92.64-1.75,1.43-2.47,2.35.79.18,1.62.29,2.47.33v-2.69Z"/>
        <path class="cls-15" d="m93.09,146.34c0-.12,0-.25-.01-.37-.77.39-1.61.73-2.51,1.02-.09,2.51-.91,4.88-2.38,6.86.46.21.9.43,1.31.67,2.29-2.11,3.6-5.08,3.6-8.18Z"/>
        <path class="cls-13" d="m81.19,157.22v-3c-.93.04-1.84.15-2.71.33.77,1.06,1.68,1.95,2.71,2.67Z"/>
        <path class="cls-13" d="m81.19,152.62v-4.4c-1.81-.05-3.55-.25-5.19-.6.13,1.98.68,3.9,1.6,5.57,1.13-.32,2.34-.51,3.58-.56Z"/>
        <path class="cls-15" d="m85.64,154.6c-.94-.21-1.91-.33-2.9-.38v2.93c1.09-.69,2.07-1.55,2.9-2.55Z"/>
        <path class="cls-15" d="m87.2,155.01c-.84.88-1.81,1.62-2.86,2.19,1.43-.31,2.78-.9,3.99-1.75-.39-.17-.76-.31-1.13-.44Z"/>
        <path class="cls-13" d="m75.98,146.12c1.65.33,3.4.52,5.21.57v-6.1c-1.2-.06-2.37-.28-3.47-.63-1.05,1.84-1.65,3.96-1.73,6.16Z"/>
      </g>
      <g>
        <path class="cls-8" d="m81.56,48.72s-1.88,3.59-2.53,4.63c0,0-.57,1-.9,1.53l1.82,4.9-5.04,36.4.41,2.75h6.79v-50.19c-.08,0,.14-.04-.55-.02Z"/>
        <path class="cls-11" d="m74.9,96.26l-7.64-47.6s-8.33,2.72-14.1,4.48c-14.21,4.33-14.39,5.67-15.05,9.93l-8.24,35.87h10.62c.13-6.53.97-9.71,3.89-16.94-.3-.43.25-2.59.45-3.08l1.31-2.16.57-.95,2.07-3.42c.35-.84,1.4-1.23,2.35-.87.96.35,1.45,1.32,1.11,2.16l-2.38,3.93-.6.99-.97,1.61c-.26.64-1.52,2.27-2.82,2.36-2.77,6.9-3.32,9.64-3.65,16.38h16.8c-.34-6.57.23-10.27,2.32-17.58-.35-.4-.25-1.77-.1-2.28l.87-2.05.43-1.02,1.62-3.83c.26-.87,1.26-1.37,2.25-1.11.99.25,1.58,1.16,1.33,2.03l-1.74,4.11-.43,1.01-.75,1.78c-.19.66-1.03,1.82-1.76,1.88-2.59,7.2-2.93,10.91-2.69,17.07h15.33l-.41-2.75v.08Z"/>
        <path class="cls-6" d="m122.57,98.93h11.82l-8.69-33.87c0-3.36-1.12-6.41-15.61-11.58-6.26-2.24-13.12-4.79-13.95-4.82l1.21,1.72-1.21-1.72s-.01,0-.02,0l-6.33,38.46.02-.13-.02.13-1.52,9.22-.02-.12-.46,2.7h15.44c-.13-6.45-.64-9.71-2.64-16.73-.73-.06-2-1.55-2.19-2.22l-.58-1.36-.5-1.17-1.85-4.36c-.25-.87.34-1.78,1.33-2.03.99-.25,1.99.25,2.25,1.11l1.62,3.83.42,1,.88,2.07c.15.51.3,2.1-.04,2.5,2.09,7.32,2.54,10.66,2.66,17.36h16.39c-.49-6.97-1.67-10.71-4.03-16.92-.73.02-2.16-1.18-2.42-1.82l-.81-1.35-.58-.95-2.56-4.23c-.34-.84.15-1.81,1.11-2.16.96-.36,2.01.04,2.35.87l2.12,3.5.55.9,1.29,2.14c.2.49.53,2.1.23,2.53,2.92,7.25,3.5,10.52,4.33,17.5Z"/>
        <path class="cls-3" d="m83.88,59.77l2.05-4.63c-.52-1.05-2.2-4.23-3.41-6.4h-.41s0,50.18,0,50.18h5.69l.46-2.7-4.38-36.45Z"/>
      </g>
    </g>
  </g>
</svg>