<svg id="Layer_1" xmlns="http://www.w3.org/2000/svg" xmlns:xlink="http://www.w3.org/1999/xlink" viewBox="0 0 32.6 39.1" style="enable-background:new 0 0 32.6 39.1"><style>.st0{fill:#515151}</style><path class="st0" d="M16.1 18.8c2.6.0 4.8-.9 6.7-2.8 1.8-1.8 2.8-4.1 2.8-6.7.0-2.6-.9-4.8-2.8-6.7C20.9.9 18.6.0 16.1.0c-2.6.0-4.8.9-6.7 2.8S6.6 6.8 6.6 9.4c0 2.6.9 4.8 2.8 6.7C11.2 17.9 13.5 18.8 16.1 18.8zM11 4.4c1.4-1.4 3.1-2.1 5-2.1 2 0 3.6.7 5 2.1 1.4 1.4 2.1 3.1 2.1 5 0 2-.7 3.6-2.1 5-1.4 1.4-3.1 2.1-5 2.1-2 0-3.6-.7-5-2.1-1.4-1.4-2.1-3.1-2.1-5C8.9 7.4 9.6 5.8 11 4.4z"/><path class="st0" d="M32.5 30.1c-.1-.8-.2-1.6-.3-2.5-.2-.9-.4-1.7-.6-2.5-.3-.8-.6-1.6-1-2.3-.4-.8-1-1.5-1.5-2-.6-.6-1.4-1-2.2-1.4C26 19.1 25 18.9 24 18.9c-.4.0-.8.2-1.5.6-.5.3-1 .6-1.6 1-.5.3-1.2.6-2.1.9-.8.3-1.7.4-2.5.4-.8.0-1.7-.1-2.5-.4-.9-.3-1.5-.6-2.1-.9-.6-.4-1.1-.7-1.6-1C9.4 19 9 18.9 8.6 18.9c-1 0-2 .2-2.8.5-.9.3-1.6.8-2.2 1.4C3 21.3 2.5 22 2 22.8c-.4.7-.8 1.5-1 2.3-.2.8-.4 1.6-.6 2.5-.2.9-.3 1.7-.3 2.5C0 30.8.0 31.6.0 32.4c0 2 .6 3.7 1.9 4.9 1.3 1.2 2.9 1.8 5 1.8h18.8c2 0 3.7-.6 5-1.8 1.3-1.2 1.9-2.9 1.9-4.9C32.6 31.6 32.6 30.8 32.5 30.1zM29.1 35.6c-.8.8-1.9 1.2-3.4 1.2H6.9c-1.4.0-2.6-.4-3.4-1.2-.8-.8-1.2-1.8-1.2-3.3.0-.7.0-1.5.1-2.1.0-.7.1-1.4.3-2.2.1-.8.3-1.5.5-2.2.2-.6.5-1.3.8-1.9.3-.6.7-1.1 1.1-1.5.4-.4.9-.7 1.5-.9.5-.2 1.1-.3 1.8-.3.1.0.2.1.5.3.5.3 1 .7 1.6 1 .7.4 1.5.8 2.6 1.2 1.1.3 2.1.5 3.2.5s2.2-.2 3.2-.5c1-.3 1.9-.7 2.6-1.2.6-.4 1.1-.7 1.6-1 .2-.2.4-.2.5-.3.7.0 1.3.1 1.8.3.6.2 1.1.5 1.5.9.4.4.8.9 1.1 1.5.3.6.6 1.2.8 1.9.2.7.4 1.4.5 2.2.1.8.2 1.5.3 2.2v0c0 .7.1 1.4.1 2.1C30.3 33.8 29.9 34.8 29.1 35.6z"/></svg>