<?xml version="1.0" encoding="UTF-8" standalone="no"?>
<!-- Created with Inkscape (http://www.inkscape.org/) -->
<svg xmlns="http://www.w3.org/2000/svg" xmlns:svg="http://www.w3.org/2000/svg" version="1.1" id="svg1179" width="682.66669" height="682.66669" viewBox="0 0 682.66669 682.66669">
  <defs id="defs1183">
    <clipPath clipPathUnits="userSpaceOnUse" id="clipPath1193">
      <path d="M 0,512 H 512 V 0 H 0 Z" id="path1191"/>
    </clipPath>
  </defs>
  <mask id="custom"><rect id="bg" x="0" y="0" width="100%" height="100%" fill="white"/><g transform="matrix(1.3333333,0,0,-1.3333333,0,682.66667)"/></mask><g mask="url(#custom)"><g id="g1185" transform="matrix(1.3333333,0,0,-1.3333333,0,682.66667)">
    <g id="g1187">
      <g id="g1189" clip-path="url(#clipPath1193)">
        <g id="g1195" transform="translate(140,376)">
          <path d="M 0,0 C 0,64.065 51.935,116 116,116 180.065,116 232,64.065 232,0 232,-64.065 180.065,-116 116,-116 51.935,-116 0,-64.065 0,0 Z" style="fill:none;stroke:#000000;stroke-width:40;stroke-linecap:round;stroke-linejoin:round;stroke-miterlimit:10;stroke-dasharray:none;stroke-opacity:1" id="path1197"/>
        </g>
        <g id="g1199" transform="translate(217,20)">
          <path d="m 0,0 h -156.307 c -25.9,0 -45.094,23.845 -39.815,49.201 22.701,109.041 119.344,190.966 235.122,190.966 42.324,0 82.09,-10.948 116.623,-30.167" style="fill:none;stroke:#000000;stroke-width:40;stroke-linecap:round;stroke-linejoin:round;stroke-miterlimit:10;stroke-dasharray:none;stroke-opacity:1" id="path1201"/>
        </g>
        <g id="g1203" transform="translate(446,198)">
          <path d="M 0,0 37.142,-36.729 C 48.93,-48.387 48.956,-67.316 37.201,-79.006 L 0,-116" style="fill:none;stroke:#000000;stroke-width:40;stroke-linecap:round;stroke-linejoin:round;stroke-miterlimit:10;stroke-dasharray:none;stroke-opacity:1" id="path1205"/>
        </g>
        <g id="g1207" transform="translate(478,140.9766)">
          <path d="M 0,0 H -134.512 C -167.918,0 -195,-27.081 -195,-60.488 c 0,-33.408 26.593,-60.489 60,-60.489" style="fill:none;stroke:#000000;stroke-width:40;stroke-linecap:round;stroke-linejoin:round;stroke-miterlimit:10;stroke-dasharray:none;stroke-opacity:1" id="path1209"/>
        </g>
      </g>
    </g>
  </g></g>
</svg>
