<svg id="Layer_1" enable-background="new 0 0 38 38" height="512" viewBox="0 0 38 38" width="512" xmlns="http://www.w3.org/2000/svg"><g id="_x31_10"><g><g><g><g><g><path d="m31.082386 34.9679604c-7.5766563.3257256-14.99049-2.0216675-20.5067081-7.5378857-5.4748597-5.4748611-7.8812432-12.938961-7.5450869-20.5139141.0651066-2.0596018 1.8414655-3.8176346 3.8821244-3.8821488 7.7480044-.3438611 15.1240082 2.1128902 20.5350189 7.5239029 5.5185013 5.5185032 7.8795586 12.9871902 7.5167732 20.5278988-.100738 1.9978352-1.7716707 3.8157063-3.8821215 3.8821469z" fill="#bf7d5a"/></g></g></g><g><g><path d="m30.1958961 24.5186882c-1.1486301 0-1.4175072-1.1262035-1.5175781-1.2226563-.2915382-.5483475-.8885403-.9326172-1.7451172-.9326172-1.0234642 0-1.9394531-.8331413-1.9394531-1.9589844.0087891-.5039063-.3369141-.9746094-.8798828-1.2001953-.6913052-.2846546-.9641457-1.0855007-.9892578-1.5751953-.0361328-.4697266-.4013672-.8457031-.8867188-.9121094-.4765625-.0742188-.8623047-.2548828-1.1455078-.5390625-.3242188-.319335-.2207031-.7509756-.1201172-1.1689444.2120323-.8868904.0653477-1.2165918-.8544922-1.1347656-.421875.0419922-.8984375.0830078-1.3027344-.3779297-.5720348-.656497.3475304-1.5945215-.2294922-2.0302734-.5102901-.3919611-.7105885.0541801-1.4296875.2646484-.4804688.1396484-.9257813-.0097656-1.2773447-.4306641-.3984375-.4560547-.5546875-1.0791016-.4169922-1.6660156.0859375-.3691406.0185547-.7451172-.1904297-1.0585938-.3291016-.4628906-.4326172-1.0263677-.2832031-1.5439458.2138672-.7431641.8964844-1.2421875 1.6992197-1.2421875.408165 0 .8453941.4151721 1.2919922.3847656.416666-.0302243.8042011-.4648438 1.25-.4648438.5449219 0 1.0742188.2509766 1.4521484.6904297.4721756.5589733.1754494.9967399.4912109 1.3125.2759552.2832942.621418.0449219 1.0332031.0449219.546875 0 1.0898438.257813 1.4521484.6894536.6471157.7491903-.4894409 1.823.1533203 2.3779297.3287315.2942152.6812534-.2001476 1.2363281-.2695313.5302734-.0761719 1.0195313.1181641 1.4091797.5712891.2705078.3154297.3837891.6894531.3476563 1.1445313-.048521.4852076-.6427956 1.1415777-.3759766 1.4882813.3651943.4624739.9636002-.3164063 1.3935547-.3164063.4560547 0 1.03125.0615234 1.4326172.5419922.6767807.7876196-.4890823 2.1479654-.1376953 2.5820303.1342716.1687984.5673046.0285473.8154297.0009766 1.2195969-.1341743 1.9429703 1.0286598 1.8144531 2.0439453-.0566406.4501953-.2773438.8310547-.6230469 1.0732422-.4240818.3020439-.2016945.7752552.1660156 1.1494141 1.3552935 1.4001141.422497 3.6845704-1.0937498 3.6845704zm-1.4326171-1.2744141c.087513.1000175.3515701 1.1748047 1.4326172 1.1748047 1.4168358 0 2.3221397-2.1733456 1.0214844-3.5146484-.4239674-.4322777-.6250114-.9659004-.1513672-1.3017578.3222656-.2255859.5283203-.5820313.5810547-1.0029297.116272-.9266491-.5232487-2.0635948-1.7041016-1.9326172-.2833557.0325165-.7230473.1869144-.9042969-.0380859-.4071789-.5019703.7783546-1.8363771.1396484-2.5800772-.2929688-.3505859-.7109375-.5068359-1.3564453-.5068359-.3872681 0-1.0444546.8248014-1.4726563.2783203-.3259106-.4239988.3055363-1.0566473.3554688-1.5585938.0341797-.4326172-.0683594-.7724609-.3242188-1.0712891-.3662109-.4248047-.8271484-.6103516-1.3193359-.5361328-.5401535.0678329-.9230938.5976887-1.3164063.2451172-.703064-.6099548.4359169-1.6938286-.1630859-2.3886719-.34375-.4091797-.8583984-.6542974-1.3759766-.6542974-.4004784 0-.7835827.2566304-1.1044922-.0742188-.3563652-.3583894-.033329-.7689395-.4960938-1.3183594-.359375-.4160156-.8603516-.6552734-1.3759766-.6552734-.3946247 0-.8176403.4331021-1.2421875.4648438-.4356632.0435662-.9439697-.3847656-1.2998047-.3847656-.7568369 0-1.4013681.4707031-1.6035166 1.1699219-.140625.4882813-.0419922 1.0205083.2705078 1.4599614.2246094.3378906.2978516.7412109.2050781 1.1386719-.1308594.5546875.0166016 1.1445313.3955078 1.5771484.3300791.3964844.7246103.5302734 1.1738291.4003906.693327-.2035732.9486427-.6832495 1.5175781-.2490234.6469879.490428-.2877235 1.4367085.2451172 2.0439453.3681641.421875.8017578.3857422 1.2167969.3447266.9625549-.0804443 1.1994591.2689409.9609375 1.2578125-.0976563.4091797-.1904297.7949219.09375 1.0751944.2685547.2685547.6347656.4404297 1.0898438.5097656.53125.0732422.9316406.4863281.9716797 1.0048828.0243683.4784184.288578 1.2270527.9277344 1.4902344.5820313.2412109.9511719.7490234.9414063 1.2929688 0 1.044138.8501778 1.8583984 1.8291016 1.8583984.9034939 0 1.5310154.4021072 1.8408204.9804687z" fill="#111d33"/></g></g><g><g><g><path d="m34.9645081 31.0858135c.0999413-2.0773296-.0055199-4.2348442-.3638344-6.3696079-7.7135811 4.7411251-18.6977997 3.3599567-25.1131363-3.0553837-4.7378097-4.7378101-6.4629882-11.0232515-5.5928903-17.0588927-.359494.3828783-.833766 1.3560271-.8640559 2.3142309-.3415451 7.6963801 2.1164968 15.0853233 7.5450869 20.5139141 5.4603157 5.4603176 12.8577557 7.8667164 20.5067081 7.5378857 1.981468-.0623775 3.7732275-1.7226024 3.8821219-3.8821464z" fill="#aa6256"/></g></g></g><g><g><g><path d="m34.9645081 31.0858135c.0221863-.4618969.0306435-.9734268.0305595-1.505415-8.7757397 3.048317-19.4088974.8582439-26.0252743-5.7581329-1.812274-1.8122749-3.2608848-3.8124676-4.3639598-5.9306602 1.1175766 3.204092 2.9667954 6.5354195 5.9698443 9.5384693 5.4603157 5.4603176 12.8577557 7.8667164 20.5067081 7.5378857 2.1117402-.0664826 3.7817308-1.8912201 3.8821222-3.8821469z" fill="#8a4852"/></g></g></g><g><path d="m26.3375854 34.8053474c-1.0323792-.1130753-2.1285477-.2899399-3.2599354-.5444946 2.1665325-4.9345455 6.206356-9.0212612 11.1938-11.1938686.1343994.5585728.2334938 1.1101551.3324165 1.6475811.0848503.5516682.1626244 1.0819283.2192497 1.6051979-3.6841067 1.8173828-6.6682509 4.8015461-8.4855308 8.4855842z" fill="#f3f1fc"/></g><g><path d="m4.4802389 17.544342c-.6364324-1.8809891-1.0253875-3.7265005-1.2374742-5.4236298.2191646-.4171829.4525721-.8202963.7070413-1.2163315.1486418-.2473917.3041894-.4878788.4667284-.7212009 1.9659219-2.8850651 4.610486-5.2751756 7.7077961-6.944087 1.6899586.2050905 3.535552.593955 5.4236145 1.2233059-5.4307795 1.4991274-9.8502407 5.3530502-12.0989447 10.416132-.0777736.1627131-.1484694.3181744-.212173.494957-.2969383.6929739-.5515799 1.4284189-.7565884 2.1708543z" fill="#f3f1fc"/></g><g><g><g><path d="m4.4802389 17.544342c-.6364324-1.8809891-1.0253875-3.7265005-1.2374742-5.4236298.2191646-.4171829.4525721-.8202963.7070413-1.2163315.2403996 1.5274248.6718237 3.0337 1.2870214 4.4691067-.2969384.6929742-.55158 1.4284192-.7565885 2.1708546z" fill="#dedffb"/></g><g><path d="m26.3375854 34.8053474c-1.0323792-.1130753-2.1285477-.2899399-3.2599354-.5444946 1.1999264-2.7238445 2.884119-5.0689201 4.9994411-7.078392 2.3053303-.4242668 4.5327148-1.2374039 6.5267754-2.4678955.0848503.5516682.1626244 1.0819283.2192497 1.6051979-3.8416022 1.902771-6.767969 4.9816742-8.4855308 8.4855842z" fill="#dedffb"/></g></g></g><g><g><g><path d="m26.3375854 34.8053474c-1.0323792-.1130753-2.1285477-.2899399-3.2599354-.5444946.5233536-1.1880188 1.1527081-2.3264885 1.873991-3.4013424 1.3434753.0990925 2.6941128.0920963 4.0234299-.0211582-1.0393695 1.1950989-1.9303588 2.5244217-2.6374855 3.9669952z" fill="#d0cef2"/></g></g></g><g><g><path d="m29.816946 23.0928402c.4747829 1.4489403 1.7522964-.0807152 1.0765381-1.2545166-3.1315575-5.4783535-8.1274567-11.1891661-13.5327148-14.7829599-1.1608887-.7276611-1.9875488.5913086-.8266602 1.3189697 5.4511318 3.6439285 10.5209141 9.5357961 13.2828369 14.7185068z" fill="#aa6256"/></g><g><g><g><g><path d="m30.6247425 19.0413513c-.321455.275671-.850563.2077904-1.154438-.1480179-.3155041-.369421-.2890034-.8900433.0324535-1.1657124.3338299-.2862835.839016-.2216187 1.1545181.1478024.303875.3558083.3012982.8796444-.0325336 1.1659279z" fill="#111d33"/></g><g><path d="m27.5352993 21.3280926c-.3214569.275671-.850563.2077923-1.1544399-.148016-.3155022-.369421-.2890015-.8900433.0324535-1.1657143.3338318-.2862835.8390179-.2216167 1.15452.1478043.303875.3558063.3012982.8796444-.0325336 1.165926z" fill="#111d33"/></g><g><path d="m25.6065693 18.4136562c-.3214569.275671-.850565.2077904-1.1544399-.148016-.3155022-.3694229-.2890015-.8900452.0324535-1.1657143.3338318-.2862835.839016-.2216187 1.15452.1478024.303875.3558083.3012982.8796444-.0325336 1.1659279z" fill="#111d33"/></g><g><path d="m28.5869217 15.9206448c-.3214569.275671-.850563.2077904-1.1544399-.1480169-.3155022-.369422-.2890015-.8900433.0324535-1.1657143.3338318-.2862835.839016-.2216177 1.15452.1478043.303875.3558072.3012982.8796434-.0325336 1.1659269z" fill="#111d33"/></g><g><path d="m25.7553902 13.0384541c-.321455.275671-.850563.2077913-1.154438-.148016-.3155041-.369422-.2890034-.8900442.0324535-1.1657143.3338318-.2862835.839016-.2216177 1.1545181.1478033.303875.3558073.3012982.8796435-.0325336 1.165927z" fill="#111d33"/></g><g><path d="m23.1150589 15.7575884c-.3214569.2756701-.850565.2077904-1.1544399-.1480169-.3155022-.369421-.2890015-.8900433.0324535-1.1657133.3338318-.2862835.839016-.2216187 1.15452.1478033.303875.3558073.3012963.8796434-.0325336 1.1659269z" fill="#111d33"/></g><g><path d="m20.8141384 13.0513735c-.321455.275671-.850563.2077904-1.154438-.1480169-.3155041-.369421-.2890034-.8900433.0324535-1.1657133.3338299-.2862835.839016-.2216177 1.1545181.1478033.303875.3558073.3012982.8796434-.0325336 1.1659269z" fill="#111d33"/></g><g><path d="m22.9269505 10.3232994c-.3214569.2756701-.850563.2077904-1.1544399-.1480169-.3155022-.369421-.2890015-.8900433.0324535-1.1657143.3338318-.2862825.8390179-.2216177 1.15452.1478043.303875.3558073.3012981.8796434-.0325336 1.1659269z" fill="#111d33"/></g><g><path d="m19.912178 8.2504492c-.321455.275671-.850563.2077913-1.154438-.148016-.3155041-.369422-.2890034-.8900437.0324535-1.1657143.3338299-.2862835.839016-.2216182 1.1545181.1478033.3038751.3558074.3012982.879644-.0325336 1.165927z" fill="#111d33"/></g><g><path d="m17.8421326 10.8304653c-.3214569.275671-.850563.2077904-1.1544399-.1480169-.3155022-.369421-.2890015-.8900433.0324535-1.1657143.3338318-.2862825.839016-.2216177 1.15452.1478043.303875.3558073.3012982.8796434-.0325336 1.1659269z" fill="#111d33"/></g><g><path d="m28.0555611 20.1764183.2601948-.1095409c.5560436-.2358723.7904968-.695385.9304771-.8543262.2700233.4049759.154438.1494484.8571129 1.318819-.1001205.0910931-.4107895.488142-1.0441723.8197212l-.1823616.0956936c-.8494892-1.3863087-.5333996-.8171711-.8212509-1.2703667z" fill="#8a4852"/></g><g><path d="m25.9684696 17.2823963c.1738873-.0980835.5907955-.1953869 1.0131912-.7139778l.1871357-.2307549.9211998 1.2000217-.1295204.1457596c-.491766.5520554-.9624557.7336006-1.0750828.8039894-.0767784-.1032542-.9937019-1.3082923-.9169235-1.205038z" fill="#8a4852"/></g><g><path d="m23.6300735 14.5332575.2118645-.1524305c.2581577-.1867924.4618835-.4248857.6198959-.726861l.152462-.2876196c.2886066.3128548.7896748.8776474 1.0508423 1.1720304l-.0920906.1442795c-.2157249.3374224-.4753838.6248531-.7712631.8537226l-.1695499.1309328c-1.0927048-1.2855597-.6378212-.716094-1.0021611-1.1340542z" fill="#8a4852"/></g><g><path d="m21.1387386 11.651825c.2592411-.1753712.4586411-.4250393.5913353-.7412052l.128067-.3042011c.3534775.3272676.1368198.0971394 1.1464252 1.0742092l-.0845222.1560068c-.2010498.3706026-.4470406.6781712-.7311077.9149065l-.1634998.1388197c-1.1536446-1.1331234-.6496391-.6156178-1.0999317-1.0398769z" fill="#8a4852"/></g><g><path d="m18.3946571 9.3586512c.2339153-.2066174.4068336-.4802761.5143604-.8138733l.1018219-.315999c.5094566.4083681-.0598602-.1175871 1.2166176.9561234-.0536308.100523-.237442.6755047-.7277832 1.1444826l-.1513615.1439171c-1.0512199-.8606091-.9042339-.7153254-1.1698246-.9226274z" fill="#8a4852"/></g><g><g><g><path d="m22.8587551 9.7805872c-.0169621.919775-.5463276 2.7649384-2.4495964 3.0897169-.2200031.0381279-.4954605-.0899134-.5860004-.4025908-.0692425-.2758856.0826969-.5235329.3314571-.5692806 1.6886578-.2747593 1.7426815-2.2152338 1.7431602-2.2324228.0075932-.2746649.2178631-.4717627.4900017-.4368877.2550698.0326347.4786797.2767095.4709778.551465z" fill="#f8f9fe"/></g><g><path d="m30.5347195 18.5616112c-.2575016.9751472-1.3056984 2.7623959-3.4768982 2.5961781-.6445541-.043993-.6642551-1.0289536-.0242386-.9682331 1.9754677.1498127 2.5439281-1.8798847 2.5720367-1.9710026.0752602-.2488995.3263569-.3804417.5881538-.2864628.2620106.0937938.4078274.371025.3409463.6295204z" fill="#f8f9fe"/></g><g><path d="m28.4811974 15.4633808c-.2147064.9720078-1.1963024 2.8194885-3.3616734 2.7488422-.6229496-.0425186-.7103176-1.001709-.0665035-.9822216 1.9861317.0735531 2.4700127-1.9841824 2.4894772-2.0678864.0586109-.2681799.3097076-.3997221.5720901-.3230247.2619037.0938874.4252205.3561116.3666096.6242905z" fill="#f8f9fe"/></g><g><path d="m25.6695213 12.4781504c-.1132641 1.0022573-.884819 2.9714279-3.0306854 3.1186466-.6070557.0580006-.7994442-.9117508-.1519337-.9759722 1.9406967-.138958 2.2046185-2.2594337 2.2239761-2.3430471.0246716-.2726336.2597561-.4406767.5312595-.3885794.2629682.0594168.452057.3163185.4273835.5889521z" fill="#f8f9fe"/></g><g><path d="m19.8316154 7.6477871c-.0166416.9026175-.5269146 2.6811743-2.3705235 3.0050249-.2552719.0285435-.5081253-.1160002-.5943794-.4121838-.0608654-.2662926.091074-.5139389.3486366-.567132 1.5943203-.260973 1.6528416-2.0544009 1.6551781-2.1401954-.0010986-.2673111.2261925-.4622283.4895821-.4198494.263712.0252224.4702988.2671157.4715061.5343357z" fill="#f8f9fe"/></g></g></g></g></g></g></g></g><g opacity=".5"><path d="m15.7985668 29.6133766c.2727013-.5900478 1.2344799.1912899 2.5541687.8012695 1.3196354.6099529 2.4978561.8177528 2.225153 1.4078026-.2727013.5900459-1.565815.5782356-2.8854504-.0317173-1.3196888-.6099796-2.1665725-1.5873069-1.8938713-2.1773548z" fill="#fff"/></g><g opacity=".5"><ellipse cx="22.06" cy="32.196" fill="#fff" rx=".663" ry=".663" transform="matrix(.981 -.192 .192 .981 -5.77 4.833)"/></g></g><g><path d="m16.3802757 19.4348755c.7543316.2905579 1.4632912.6013412 1.5034142.6920853-.0911465.0402966-.7825699-.16959-1.6280479-.4198513-.1639595-.0631542-.3287754.1181965-.2585173.2771015.7225504 1.6342239 1.3066835 3.1398411 1.2658453 3.293541-.1413116-.0731678-.9402905-1.5109596-1.7665873-3.0721512-.0702581-.1589069-.3053322-.1364613-.3688965.0274525-.3409901.8291454-.6310186 1.527113-.6993771 1.5573368-.07551-.0479374.1261463-.761322.4243212-1.6256981.0435343-.2092152-.1279144-.3505459-.2871408-.2801476-1.7073011.7548332-3.2526808 1.3837547-3.3028479 1.2702885.0382833-.0982456 1.4703884-.9213772 3.0365162-1.7494392.1821518-.080534.1828079-.3251171.0188484-.3882713-.852828-.3284969-1.5288944-.6264954-1.5590315-.6946564.0910063-.0402355.805356.1595154 1.6506948.4098377.1641588.0632324.3287745-.1181965.2585163-.2771015-.7225504-1.6342239-1.3393764-3.1525478-1.2884922-3.2835274.1137924-.0503101.9329395 1.432724 1.7565413 3.0494308.1030903.1715527.3380251.149168.4015894-.0147438.340991-.8291473.6311588-1.5271759.6993771-1.5573368.040123.0907421-.1715794.7814083-.4241819 1.6256351-.0307932.1764202.1277761.3506069.2871408.2801476 1.6162949-.7145977 3.1615372-1.3434563 3.3027096-1.2702274-.0508842.1309795-1.4930363.9313908-3.0363789 1.7493801-.1821498.080532-.182806.3251151.0139847.4009151z" fill="#fff"/></g></g></svg>