<svg height="512" viewBox="0 0 64 64" width="512" xmlns="http://www.w3.org/2000/svg"><g id="ad"><g><path d="m54 58.15c0 1.02-.83 1.85-1.85 1.85h-1.82c-2.16 0-4.26-.7-5.99-2-.85-.63-1.34-1.62-1.34-2.67 0-.22.02-.44.06-.65l1.18-5.86c-.56.12-1.14.18-1.72.18-1 0-2-.18-2.95-.53l-1.57-.59-12-.01-1.57.6c-.95.35-1.95.53-2.95.53-.58 0-1.16-.06-1.72-.18l1.18 5.86c.04.21.06.43.06.65 0 1.05-.49 2.04-1.34 2.67-1.73 1.3-3.83 2-5.99 2h-1.82c-1.02 0-1.85-.83-1.85-1.85 0-.71.4-1.35 1.02-1.66l2.98-1.49-2.44-3.66c-1.02-1.53-1.56-3.32-1.56-5.15 0-1.87.56-3.66 1.56-5.15.99-1.5 2.42-2.7 4.15-3.42l4.6-1.92h23.38l4.6 1.92c3.46 1.44 5.71 4.82 5.71 8.57 0 1.83-.54 3.62-1.56 5.15l-2.44 3.66 2.98 1.49c.62.31 1.02.95 1.02 1.66z" fill="#f4ad78"/><path d="m32 44.5c-5.69 0-10.69-3.359-13.051-8.232l-3.239 1.352c-1.73.72-3.16 1.92-4.15 3.42-1 1.49-1.56 3.28-1.56 5.15 0 1.83.54 3.62 1.56 5.15l2.44 3.66-2.98 1.49c-.62.31-1.02.95-1.02 1.66 0 1.02.83 1.85 1.85 1.85h1.82c2.16 0 4.26-.7 5.99-2 .85-.63 1.34-1.62 1.34-2.67 0-.22-.02-.44-.06-.65l-1.18-5.86c.56.12 1.14.18 1.72.18 1 0 2-.18 2.95-.53l1.57-.6 12 .01 1.57.59c.95.35 1.95.53 2.95.53.58 0 1.16-.06 1.72-.18l-1.18 5.86c-.04.21-.06.43-.06.65 0 1.05.49 2.04 1.34 2.67 1.73 1.3 3.83 2 5.99 2h1.82c1.02 0 1.85-.83 1.85-1.85 0-.71-.4-1.35-1.02-1.66l-2.98-1.49 2.44-3.66c1.02-1.53 1.56-3.32 1.56-5.15 0-3.75-2.25-7.13-5.71-8.57l-3.227-1.347c-.778 1.621-1.848 3.1-3.194 4.347-2.686 2.501-6.191 3.88-9.869 3.88z" fill="#fec99c"/><path d="m62 30.5c0 .69-.28 1.32-.73 1.77s-1.08.73-1.77.73-1.32-.28-1.77-.73-.73-1.08-.73-1.77v-1.5l-.5-.13c-2.25-.56-4.21-1.94-5.5-3.87-.98 1.62-2.2 3.06-3.62 4.27-.75.64-1.56 1.22-2.42 1.73-.26 3.36-1.78 6.36-4.11 8.52-2.32 2.16-5.43 3.48-8.85 3.48-6.84 0-12.45-5.29-12.96-12-2.47-1.46-4.55-3.52-6.04-6-1.29 1.93-3.25 3.31-5.5 3.87l-.5.13v1.5c0 1.38-1.12 2.5-2.5 2.5-.69 0-1.32-.28-1.77-.73s-.73-1.08-.73-1.77c0-1.61.6-3.16 1.67-4.36l3.81-4.23c2.24-2.49 5.43-3.91 8.78-3.91 1.16 0 2.3.17 3.4.5l5.04 1.51h14.6l5.04-1.51c1.1-.33 2.24-.5 3.4-.5 1.68 0 3.31.36 4.81 1.02 1.49.67 2.85 1.64 3.97 2.89l3.81 4.23c1.07 1.2 1.67 2.75 1.67 4.36z" fill="#fec99c"/><path d="m37.605 35c-1.966 0-3.792-.977-4.883-2.613-.322-.484-1.123-.484-1.445 0-1.091 1.637-2.917 2.613-4.883 2.613-3.031 0-5.729-2.036-6.563-4.951l-.793-2.774 1.924-.549.793 2.774c.589 2.061 2.497 3.5 4.64 3.5 1.296 0 2.499-.644 3.219-1.723.534-.8 1.426-1.277 2.387-1.277s1.853.478 2.387 1.277c.72 1.079 1.923 1.723 3.219 1.723 2.143 0 4.051-1.439 4.64-3.5l.793-2.774 1.924.549-.793 2.774c-.834 2.915-3.532 4.951-6.563 4.951z" fill="#f4ad78"/><path d="m44.444 49.799-.408-1.957c1.412-.296 2.698-.99 3.717-2.009l.54-.54 1.414 1.414-.54.54c-1.295 1.295-2.928 2.177-4.723 2.552z" fill="#f4ad78"/><path d="m28.733 10.067-.36-1.259c-.688-2.409 1.121-4.808 3.626-4.808 2.506 0 4.315 2.398 3.626 4.808l-.36 1.259" fill="#383838"/><path d="m34.398 10c3.094 0 5.602 2.508 5.602 5.602 0 .265-.019.53-.056.792l-.311 2.179c-.396 2.773-2.127 5.175-4.632 6.427l-.106.211c-.548 1.096-1.669 1.789-2.894 1.789-1.226 0-2.346-.693-2.894-1.789l-.106-.211c-2.505-1.253-4.236-3.654-4.632-6.427l-.311-2.179c-.037-.262-.056-.527-.056-.792 0-3.094 2.508-5.602 5.602-5.602h4.796z" fill="#fedab6"/><path d="m19.566 49.802c-.547-.108-1.112-.282-1.68-.518-1.155-.48-2.183-1.166-3.054-2.037l-.54-.54 1.414-1.414.54.54c.686.686 1.495 1.225 2.406 1.604.445.185.883.32 1.3.402l-.387 1.963z" fill="#f4ad78"/><path d="m31 38h2v2h-2z" fill="#f4ad78"/><path d="m38 41.53v11.47h-12v-11.47c1.79.94 3.83 1.47 6 1.47s4.21-.53 6-1.47z" fill="#e73844"/><path d="m34.398 10h-4.796c-3.094 0-5.602 2.508-5.602 5.602 0 .265.019.53.056.792l.311 2.179c.057.399.149.788.26 1.169l1.401-2.801c.595-1.19 1.811-1.941 3.142-1.941.545 0 1.083.127 1.571.371l1.257.629 1.257-.629c.488-.244 1.026-.371 1.571-.371 1.33 0 2.547.751 3.142 1.941l1.402 2.803c.111-.382.203-.771.261-1.171l.311-2.179c.037-.262.056-.527.056-.792 0-3.094-2.508-5.602-5.602-5.602z" fill="#4c4c4c"/></g></g></svg>