<svg id="Flat_1" height="512" viewBox="0 0 64 64" width="512" xmlns="http://www.w3.org/2000/svg" data-name="Flat 1"><path d="m24.8618 32.1685a31.2709 31.2709 0 0 0 1.6631 11.0982 6.0832 6.0832 0 0 1 -1.0887 5.8319l5.5156 4.6281v-.0005a6.0832 6.0832 0 0 1 5.5538-2.0849 31.2794 31.2794 0 0 0 11.2176-.29l-8.7232-10.3513z" fill="#e6d0a0"/><path d="m24.8618 32.1685a30.8888 30.8888 0 0 0 1.525 10.6494 4.2191 4.2191 0 0 1 1.18-1.0845 37.2818 37.2818 0 0 0 5.6792-4.3279z" fill="#ddc085"/><path d="m25.173 39.023h7.2v23.4h-7.2z" fill="#edddbb" transform="matrix(.766 .643 -.643 .766 39.336 -6.628)"/><path d="m25.6 56v-7.0961l-7.1055 8.4679.7482.6282h4.3573a2 2 0 0 0 2-2z" fill="#e6d0a0"/><path d="m50.0929 50.5178a21.3542 21.3542 0 0 0 6.9311-5.46c7.0291-8.3773 6.5538-20.3478-1.0616-26.7378s-19.4869-4.78-26.516 3.5971a21.3645 21.3645 0 0 0 -4.1745 7.7734 12.0423 12.0423 0 0 0 -.41 2.478l22.8617 19.1833a12.043 12.043 0 0 0 2.3693-.834z" fill="#eb5060"/><path d="m36.542 33.7725a14.1312 14.1312 0 0 0 1.4873-2.5264 23.2233 23.2233 0 0 0 1.9707-9.4461 23.5363 23.5363 0 0 0 -.8916-6.4412 21.09 21.09 0 0 0 -9.662 6.5584 21.3635 21.3635 0 0 0 -4.1744 7.7728 12.0375 12.0375 0 0 0 -.41 2.4781l7.3454 6.1635a27.5474 27.5474 0 0 0 4.3346-4.5591z" fill="#dd3246"/><path d="m5.0775 32.6a31.2688 31.2688 0 0 0 8.4078 7.4327 6.0834 6.0834 0 0 1 2.9147 5.1673h7.2v-.0007a6.0833 6.0833 0 0 1 2.9143-5.167 31.2789 31.2789 0 0 0 8.4071-7.4323l-14.9214-2.6z" fill="#edddbb"/><path d="m7.7988 32.4381a12.04 12.04 0 0 0 1.2787 2.1619 38.571 38.571 0 0 0 4.4193 5.4408 6.0824 6.0824 0 0 1 2.9032 5.1592h7.2v-.0007a6.0837 6.0837 0 0 1 2.9143-5.1671 31.28 31.28 0 0 0 8.4071-7.4322l-14.9214-2.6-12.3209 2.1467c.0409.0965.0775.1957.1197.2914z" fill="#e6d0a0"/><path d="m16.4 32.6h7.2v23.4h-7.2z" fill="#edddbb"/><circle cx="47.724" cy="52.352" fill="#f6f6fc" r="5"/><path d="m44.724 54.3521a4.9445 4.9445 0 0 0 .6255 2.3745 4.9449 4.9449 0 0 0 2.3741.6252 5 5 0 0 0 5-5 4.9431 4.9431 0 0 0 -.6255-2.3746 4.9445 4.9445 0 0 0 -2.3741-.6251 5 5 0 0 0 -5 5z" fill="#ebebf7"/><path d="m36.2 30.4381a21.3541 21.3541 0 0 0 1.8-8.6381c0-10.9352-8.0589-19.8-18-19.8s-18 8.8648-18 19.8a21.3647 21.3647 0 0 0 1.7988 8.6381 12.0342 12.0342 0 0 0 1.2787 2.1619h29.8439a12.0392 12.0392 0 0 0 1.2786-2.1619z" fill="#f07183"/><path d="m29.3112 4.8784a16.4906 16.4906 0 0 0 -5.3112-.8784c-9.9412 0-18 8.8647-18 19.8a21.3651 21.3651 0 0 0 1.7988 8.6381c.0237.0536.0594.1083.0843.1619h27.0383a12.0392 12.0392 0 0 0 1.2786-2.1619 21.3545 21.3545 0 0 0 1.8-8.6381 20.2414 20.2414 0 0 0 -8.6888-16.9216z" fill="#eb5060"/></svg>