<svg id="Layer_1" enable-background="new 0 0 48 48" height="512" viewBox="0 0 48 48" width="512" xmlns="http://www.w3.org/2000/svg"><path d="m24 43c10.493 0 19-8.507 19-19s-8.507-19-19-19-19 8.507-19 19 8.507 19 19 19z" fill="#d6e826"/><path d="m24 37c-9.47 0-17.299-6.936-18.741-16-.155.98-.259 1.977-.259 3 0 10.493 8.507 19 19 19s19-8.507 19-19c0-1.023-.104-2.02-.259-3-1.442 9.064-9.271 16-18.741 16z" fill="#c8d924"/><g fill="#eceff1"><path d="m39.411 35.084c-4.346-1.806-7.411-6.093-7.411-11.084s3.065-9.278 7.411-11.084c-.402-.559-.835-1.091-1.295-1.602-4.784 2.229-8.116 7.07-8.116 12.686s3.332 10.457 8.116 12.686c.459-.511.892-1.044 1.295-1.602z"/><path d="m9.884 11.314c-.459.511-.892 1.044-1.295 1.602 4.346 1.806 7.411 6.093 7.411 11.084s-3.065 9.278-7.411 11.084c.402.559.835 1.091 1.295 1.602 4.784-2.229 8.116-7.07 8.116-12.686s-3.332-10.457-8.116-12.686z"/></g><g fill="#e1e4e6"><path d="m39.411 35.084c-1.316-.547-2.513-1.325-3.544-2.278-.526.423-1.073.818-1.643 1.184 1.13 1.103 2.443 2.021 3.892 2.696.459-.511.892-1.044 1.295-1.602z"/><path d="m12.134 32.806c-1.032.953-2.228 1.731-3.544 2.278.402.559.835 1.091 1.295 1.602 1.449-.675 2.762-1.593 3.892-2.696-.57-.366-1.118-.761-1.643-1.184z"/></g></svg>