<?xml version="1.0" encoding="UTF-8"?>
<svg xmlns="http://www.w3.org/2000/svg" viewBox="0 0 54.21 54.28">
  <defs>
    <style>
      .cls-1 {
        fill: #aa0b22;
      }

      .cls-2 {
        fill: #bf5b34;
      }

      .cls-3 {
        fill: #827d79;
      }

      .cls-4, .cls-5, .cls-6, .cls-7 {
        mix-blend-mode: multiply;
      }

      .cls-4, .cls-5, .cls-8 {
        fill: #2b2923;
      }

      .cls-4, .cls-9, .cls-7 {
        opacity: .4;
      }

      .cls-5 {
        opacity: .3;
      }

      .cls-10 {
        fill: #3a3730;
      }

      .cls-11 {
        fill: #d31c2e;
      }

      .cls-12 {
        fill: #007ca0;
      }

      .cls-13 {
        fill: #35322b;
      }

      .cls-13, .cls-6, .cls-14 {
        opacity: .2;
      }

      .cls-13, .cls-9, .cls-14 {
        mix-blend-mode: screen;
      }

      .cls-15 {
        fill: #c1233a;
      }

      .cls-16 {
        fill: #26241f;
      }

      .cls-17 {
        isolation: isolate;
      }

      .cls-18 {
        fill: #006b91;
      }

      .cls-19 {
        fill: #efe5d8;
      }

      .cls-20 {
        fill: #8091bf;
      }

      .cls-21, .cls-9, .cls-14 {
        fill: #322f28;
      }

      .cls-22 {
        fill: #099ebf;
      }

      .cls-23 {
        fill: #f7c75c;
      }

      .cls-24 {
        fill: #562824;
      }

      .cls-25 {
        fill: #a52131;
      }

      .cls-26 {
        fill: #f7eee2;
      }

      .cls-27 {
        fill: #b7572c;
      }

      .cls-28 {
        fill: #ffb476;
      }

      .cls-29 {
        fill: #b04c25;
      }

      .cls-30 {
        fill: #606f96;
      }

      .cls-31 {
        fill: #db8351;
      }

      .cls-32 {
        fill: #423e36;
      }

      .cls-33 {
        fill: #49453e;
      }

      .cls-34, .cls-7 {
        fill: #706b64;
      }

      .cls-35 {
        fill: #2a2e3d;
      }

      .cls-36 {
        fill: #a13d1f;
      }

      .cls-37 {
        fill: #23211d;
      }

      .cls-38 {
        fill: #822d0f;
      }

      .cls-39 {
        fill: #ff925c;
      }

      .cls-40 {
        fill: #ed9558;
      }

      .cls-41 {
        fill: #933914;
      }

      .cls-42 {
        fill: #d1652f;
      }

      .cls-43 {
        fill: #cc7442;
      }

      .cls-44 {
        fill: #bf0c16;
      }
    </style>
  </defs>
  <g class="cls-17">
    <g id="Layer_2" data-name="Layer 2">
      <g id="_1" data-name="1">
        <g>
          <g id="chair">
            <g>
              <path class="cls-30" d="m13.43,30.97s.93,8.8,4.35,8.8h4.8v-8.8h-9.15Zm8.34,7.93h-3.9c-2.78,0-3.54-7.15-3.54-7.15h7.44v7.15Z"/>
              <path class="cls-20" d="m12.99,30.97s.93,8.8,4.35,8.8h4.8v-8.8h-9.15Zm8.34,7.93h-3.9c-2.78,0-3.54-7.15-3.54-7.15h7.44v7.15Z"/>
              <path class="cls-30" d="m13.23,32.58h.78c-.08-.5-.12-.83-.12-.83h7.44v.83h.81v-1.61h-9.15s.07.66.24,1.61Z"/>
              <path class="cls-8" d="m23.76,29.88c-.27-.3-10.95-.2-10.95-.2l.2,1.57h10.93s.09-1.07-.19-1.37Z"/>
            </g>
            <path class="cls-8" d="m13.16,23.66l-.02-.09v-.56c-.14-3.04-.16-5.9-.17-7.09l-.02-.73c-.04-1.68-1.41-3.02-3.08-3.02H3.08C1.35,12.16-.04,13.59,0,15.32c-.01,5.12.08,24.45,5.23,24.45h10.71l-.52-3.02c-1.69-4.29-2.19-11.76-2.26-13.08Z"/>
            <path class="cls-8" d="m15.25,23.66l-.02-.09-.02-.56c-.18-3.04-.25-5.9-.28-7.09l-.03-.73c-.07-1.68-1.46-3.02-3.14-3.02h-6.8c-1.73,0-3.1,1.42-3.03,3.15,0,0,.06,4.06.32,8.25.09,1.47,1.28,16.2,5.33,16.2h10.71l-.57-3.02c-1.77-4.29-2.4-11.76-2.49-13.08Z"/>
            <g>
              <rect class="cls-32" x="14.38" y="52.74" width=".1" height="1.14"/>
              <rect class="cls-32" x="13.48" y="52.74" width=".1" height="1.14"/>
              <rect class="cls-8" x="13.54" y="52.57" width=".41" height="1.49"/>
              <rect class="cls-8" x="14.02" y="52.57" width=".41" height="1.49"/>
              <rect class="cls-8" x="13.82" y="52.74" width=".41" height="1.14"/>
              <rect class="cls-13" x="13.59" y="52.65" width=".31" height=".64"/>
              <rect class="cls-13" x="14.06" y="52.65" width=".34" height=".64"/>
            </g>
            <g>
              <circle class="cls-8" cx="9.04" cy="53.32" r=".73"/>
              <path class="cls-32" d="m9.43,53.32c0,.22-.18.39-.39.39s-.39-.18-.39-.39.18-.39.39-.39.39.18.39.39Z"/>
            </g>
            <g>
              <path class="cls-8" d="m19.66,53.32c0,.4-.33.73-.73.73s-.73-.33-.73-.73.33-.73.73-.73.73.33.73.73Z"/>
              <path class="cls-32" d="m19.33,53.32c0,.22-.18.39-.39.39s-.39-.18-.39-.39.18-.39.39-.39.39.18.39.39Z"/>
            </g>
            <rect class="cls-20" x="7.42" y="44.63" width="13.14" height="1.01" transform="translate(59.12 31.15) rotate(90)"/>
            <rect class="cls-30" x="7.1" y="44.95" width="13.14" height=".37" transform="translate(58.8 31.48) rotate(90)"/>
            <polygon class="cls-30" points="14.54 42.59 15.34 38.81 12.63 38.81 13.43 42.59 14.54 42.59"/>
            <polygon class="cls-20" points="8.3 52.65 19.66 52.65 19.66 52.34 15.1 51.58 12.87 51.58 8.3 52.34 8.3 52.65"/>
            <polygon class="cls-20" points="12.6 51.71 15.37 51.71 14.85 48.48 13.11 48.48 12.6 51.71"/>
            <path class="cls-8" d="m11.78,41.86c.11,0,.2-.01.27-.04.56-.2.44-1.95.43-2.14,0-.04-.04-.08-.08-.08,0,0,0,0,0,0-.05,0-.08.04-.08.09.05.7.01,1.85-.32,1.97-.4.14-1.92-.32-2.47-.51-.04-.01-.09,0-.11.05-.01.04,0,.09.05.11.18.06,1.6.55,2.31.55Z"/>
            <path class="cls-8" d="m9.04,40.57c.37.1.91.49.84.77-.08.29-.74.36-1.11.26-.37-.1-.6-.41-.53-.69.08-.29.43-.44.8-.34Z"/>
            <polygon class="cls-30" points="13.11 48.48 14.85 48.48 13.76 48.97 13.42 52.65 8.3 52.65 8.3 52.34 12.6 51.62 13.11 48.48"/>
            <path class="cls-8" d="m7.18,36.43h13.67c.91,0,1.64.74,1.64,1.64v1.69H5.48v-1.64c0-.94.76-1.7,1.7-1.7Z"/>
            <path class="cls-21" d="m7.18,36.43c-.83,0-1.48.6-1.63,1.38h16.89c-.13-.78-.77-1.38-1.59-1.38H7.18Z"/>
            <path class="cls-21" d="m16.47,32.39c-.81-3.78-1.15-7.79-1.21-8.73l-.02-.09-.02-.56c-.18-3.04-.25-5.9-.28-7.09l-.03-.73c-.07-1.68-1.46-3.02-3.14-3.02h-6.8c-1.73,0-3.1,1.42-3.03,3.15,0,0,.06,4.06.32,8.25.04.66.3,3.94.93,7.38,1.99,1.98,4.62,3.2,7.52,3.2,2.1,0,4.06-.65,5.75-1.76Z"/>
            <rect class="cls-14" x="2.66" y="13.17" width="11.51" height="5.21" rx="1.81" ry="1.81"/>
          </g>
          <g>
            <path class="cls-11" d="m20.68,14.98c1.49,1.04,4.34,9.14,4.34,9.14-1.37.39-2.73,1.92-2.08,3.68,0,0-2.04-.04-3.44-4.55-.45-1.44.12-3.96.31-5.6.2-1.64.86-2.67.86-2.67Z"/>
            <path class="cls-1" d="m26.27,25.02c-.3-1.86-2.38-2.07-3.58-1.03-1.53,1.33-1.31,3.61.07,4.23,1.64.74,2.63-.48,2.63-.48l.89-2.71Z"/>
            <path class="cls-21" d="m21.12,7.77c-.09,1.08-.82,1.89-1.62,1.82-.8-.07-1.38-1-1.28-2.08.09-1.08.82-1.89,1.62-1.82.8.07,1.38,1,1.28,2.08Z"/>
            <g>
              <path class="cls-40" d="m23.77,27.94c2.98.06,6.15-3.37,8.48-3.2l-.33-1.1c-1.4-.35-5.53.6-6.74.75-1.88.36-1.99,3.53-1.41,3.54Z"/>
              <g>
                <path class="cls-40" d="m31.39,23.58c1.13.02,2.83.56,3.06.83.15.18-.15.66-.15.66.06.06.33.3.51.63.18.33.26.74.2.78-.21.13-.36-.26-.6-.62-.16-.24-.4-.44-.58-.54-.56-.31-.78-.41-.89-.34-.13.09.07.37.18.52.11.15.5.6.31.74-.12.09-.62-.34-.84-.58-.22-.24-1.17-.67-1.25-1.22-.02-.12-.25-.86.06-.86Z"/>
                <path class="cls-40" d="m34.29,24.72c.65.45.75.59.94.8.19.21.55.82.47.89-.2.16-.48-.34-.79-.61-.21-.19-.75-.61-.75-.61l.14-.46Z"/>
                <path class="cls-40" d="m34.39,24.37c.64.47.74.6.93.82.19.21.62.84.52.89-.23.1-.54-.34-.85-.62-.21-.19-.74-.62-.74-.62l.14-.46Z"/>
              </g>
            </g>
            <g>
              <path class="cls-8" d="m28.71,52.45s.47.68,1.49,1.09c1.03.41,1.67.32,1.61.59s-3.98.14-3.96-.18c.02-.32.22-.78.22-1.5,0-.73.64,0,.64,0Z"/>
              <path class="cls-8" d="m21.79,52.08s.01.82,1.18,1.32,1.24.38,1.21.71c-.03.33-3.1.16-3.13-.22-.02-.38.14-.93.04-1.81-.1-.88.69,0,.69,0Z"/>
              <polygon class="cls-35" points="19.78 29.84 8.03 29.95 19.35 32.69 19.78 29.84"/>
              <path class="cls-12" d="m20.58,30.15c-3.84-1.2-5.99.01-5.6,5.21l14.9-.19s.32-2.15-1.52-3.14c-.95-.51-5.06-1.45-7.78-1.88Z"/>
              <path class="cls-18" d="m19.35,32.69s1.57.57,3.92.93,3.07.39,3.25.79-.31,5.95-.23,7.69c.07,1.5,1.7,8.2,2.09,10.36h-.75s-2.63-7.28-2.68-10.93c-.04-2.99.2-5.06.2-5.06h-4.38c-.96-.24-1.43-3.79-1.43-3.79Z"/>
              <path class="cls-18" d="m24.32,35.41c-.03.37-.05.72-.08,1.06h-3.46c-.31-.08-.57-.51-.78-1.05,0,0,0-.01,0-.02h0s-.03-.07-.04-.11l-4.97.06c-.19-2.54.23-4.12,1.15-4.94,4.12,0,6.57.78,7.38,1.47,1.18,1,.81,3.52.81,3.52Z"/>
              <path class="cls-22" d="m8.33,30.03s.45,3.77,1.78,5.37h13.32s.37-2.51-.81-3.51c-1.4-1.19-9.98-1.76-14.29-1.86Z"/>
              <path class="cls-12" d="m17.66,30.6s-1.01-.12-1.48-.21c-1.24-.23-3.26-.21-7.29,2.83l.91,1.52s5.28-3.97,7.87-4.15Z"/>
              <path class="cls-12" d="m18.45,41.04c-.11-2.7.26-4.56.26-4.56h-7.58c-1.67-1.25-1.84-2.13-2.25-3.25l3.2-1.56s.47,1.61,1.15,1.98c.68.36,7.15.37,7.46.66.3.29-.79,4.83-.92,6.9-.13,2.07,1.59,11.26,1.59,11.26h0s-.8,0-.8,0c0,0-2.08-8.66-2.12-11.43Z"/>
              <path class="cls-12" d="m29.89,35.18c-.89,9.63-.63,17.29-.63,17.29h-1.65s-2.29-8.16-2.21-10.93.04-7.5.04-7.5l4.45,1.14Z"/>
              <path class="cls-22" d="m23.43,35.41c-.92,12.34-.85,12.36-.99,17.06h-1.87s-2.08-8.66-2.12-11.43c-.04-2.77.96-7,.96-7l4.03,1.37Z"/>
              <path class="cls-12" d="m18.45,41.04s0,0,0,0c-.03-2.48.75-6.44.92-6.9.13,0,.25.02.36.03l1.02.36c0,.74-.86,4.87-.97,6.7-.13,2.07,1.59,11.26,1.59,11.26h0s-.8,0-.8,0c0,0-.13-.59-.32-1.52-.57-2.79-1.78-7.83-1.8-9.91Z"/>
              <path class="cls-18" d="m25.44,34.04c.43.03,1.15.09,1.41.31.27.4-.66,6.02-.58,7.76.07,1.5,1.7,8.2,2.09,10.36h-.75c-.6-2.26-2.42-6.96-2.64-10.55-.11-1.77.21-6.49.47-7.88Z"/>
              <path class="cls-18" d="m20.58,30.15s-1.25-.05-1.57.62l-3.36-.4s3.47-.88,4.93-.22Z"/>
            </g>
            <path class="cls-40" d="m12.7,1.88c1.69-.32,2.46.67,2.85,2.03-.86,1.32-.77,3.34-.77,3.34l-.38-.06h0c-.08-.36-.36-.66-.75-.73-.5-.08-.97.25-1.04.75-.08.5.26.97.76,1.05.33.05.63-.08.83-.31,0,.09,0,.16,0,.25.04.75.09,1.24.19,1.63-2-.26-3.88-5.48-1.68-7.94Z"/>
            <path class="cls-38" d="m12.7,1.88c1.69-.32,2.46.67,2.85,2.03-.86,1.32-.77,3.34-.77,3.34l-.38-.06h0c-.08-.36-.36-.66-.75-.73-.5-.08-.97.25-1.04.75-.08.5.26.97.76,1.05.33.05.63-.08.83-.31,0,.09,0,.16,0,.25.04.75.09,1.24.19,1.63-2-.26-3.88-5.48-1.68-7.94Z"/>
            <path class="cls-38" d="m19.99,6.7s.2.04.88-2.36c1.17-1.13,1.03-2.29.85-2.82-.72-2.14-3.66-.77-5.27-1.27-3.09-.95-4.45,1-4.08,2,.63.74,3.25,1.5,3.25,1.5,2.16,1.19,4.37,2.95,4.37,2.95Z"/>
            <path class="cls-11" d="m8.98,33.8c-1.59-1.66-1.48-15.77.3-19.95,0,0,2.17-1.08,6.58-.55,3.25.39,4.81,1.68,4.81,1.68.73,1.63-.15,5.8-.8,10.15-.65,4.37,1.12,5.03,1.12,5.03,0,0-2.41-.33-5.97.7-3.42.99-6.04,2.94-6.04,2.94Z"/>
            <path class="cls-44" d="m11.24,13.33c.15-.02.6-.08.76-.1,1-.1,2.28-.12,3.87.06,1.32.16,2.34.46,3.12.77-2.49,4.67-9.12,3.34-7.74-.74Z"/>
            <path class="cls-44" d="m9.28,13.85s.66-.31,1.96-.52c.07,1.49.6,8.19,4.08,9.61,2.6,1.06,4.36-.31,5.06-1.03-.16,1.04-.34,2.12-.5,3.22-.65,4.37,1.12,5.03,1.12,5.03,0,0-2.41-.33-5.97.7-3.42.99-5.62,3.98-5.62,3.98-2.28-2.19-1.9-16.8-.12-20.98Z"/>
            <path class="cls-40" d="m13.52,6.58s.6,4.46-.47,6.71c1.31.63,3.88,1.55,4.44.33,0,0-.15-.74.17-2.69l-4.14-4.36Z"/>
            <path class="cls-40" d="m18.5,13.88s-.8,1.93-3.09,1.75c-2.29-.18-3.42-2.41-3.42-2.41,0,0,3.42-.53,6.51.66Z"/>
            <path class="cls-42" d="m13.58,7.16l.65.17,3.43,3.61c-.16.98-.2,1.65-.21,2.07-.39.57-1.39,1.69-3.32,2.26-1.42-.67-2.14-2.05-2.14-2.05,0,0,.43-.07,1.12-.1.75-1.78.58-4.73.47-5.97Z"/>
            <path class="cls-28" d="m14.19,8.2c.12,2.26.26,2.22,2.11,3.81.4.34,1.67.43,2.01.25.35-.18.38-.51.88-1.25.56-.83.87-1.71.93-2.2.08-.65.04-1.1.09-1.57.09-.9.31-1.69.34-2.71.03-1.01-1.14-1.74-2.66-1.82-3.5-.17-3.57,1.29-3.7,5.49Z"/>
            <path class="cls-40" d="m16.71,11.99c-2.57-1.89-1.87-7.9-.73-8.69-2.22.26-1.95,2.36-1.81,5.37.11,1.64.32,2.11,2.22,3.5.41.3,1.63.29,1.95.09.05-.03.09-.07.13-.11-.47.12-1.42.09-1.76-.16Z"/>
            <path class="cls-40" d="m18.46,6.13s-.34.27-.45.57c-.59,1.45.73,1.66.63,2.02-.15.52-1.17.27-1.17.27.09.36,1.23.35,1.37-.18.16-.62-1.17-.66-.71-2.04.08-.24.34-.64.34-.64Z"/>
            <path class="cls-38" d="m14.78,3.79l.84-.04s.68-1.1,2.84-.9c1.98.19,2.11,1.56,2.11,1.56,0,0,.62-3.37-3.31-3.21-.73.03-2.58,1.56-2.48,2.6Z"/>
            <g>
              <path class="cls-40" d="m14.41,7.51c-.08.5-.54.83-1.04.75-.5-.08-.84-.56-.76-1.05.08-.5.54-.83,1.04-.75.5.08.84.56.76,1.05Z"/>
              <path class="cls-42" d="m13.65,7.83c-.23-.05-.38-.28-.33-.51.05-.23.27-.37.49-.33-.06-.04-.12-.07-.19-.09-.27-.06-.54.11-.6.39-.06.27.12.55.39.61.13.03.26,0,.36-.06-.04,0-.08,0-.12,0Z"/>
            </g>
            <path class="cls-38" d="m15.27,5.13c.08-.17.54.15,1.21.29.66.14,1.18.01,1.16.29-.02.33-.63.45-1.29.3-.86-.19-1.17-.69-1.07-.89Z"/>
            <path class="cls-38" d="m20.54,5.66c-.05-.18-.34-.04-.84.02-.5.06-.93-.04-.93.24,0,.33.42.44.92.37.65-.08.91-.43.86-.63Z"/>
            <path class="cls-38" d="m15.63,3.75h0s-.43-.13-.97-.32l-1.31,1.55.74,1.68.18.7.46.04s.06-2.6.89-3.66Z"/>
            <g>
              <g>
                <path class="cls-24" d="m17.08,7.04c.64-.77-1.37-.85-1.57-.23l.09.09s1.41.25,1.48.15Z"/>
                <path class="cls-26" d="m17.07,7.06c.05-.17-.12-.35-.5-.41-.33-.06-.96.07-.97.24,0,.15,1.04,1.01,1.47.17Z"/>
                <path class="cls-24" d="m16.49,6.58s.07,0,.1.01c.05.01.1.03.15.04.13.07.22.2.22.37,0,.15-.08.28-.2.37-.11.05-.22.07-.33.06-.14-.02-.28-.08-.41-.15-.03-.06-.04-.12-.04-.19.01-.26.24-.49.5-.51Z"/>
              </g>
              <g>
                <path class="cls-24" d="m20.03,7.24c.56-.68-1.17-.82-1.39-.19l.09.09s1.23.19,1.3.09Z"/>
                <path class="cls-26" d="m20.01,7.26c.05-.16-.24-.36-.47-.39-.42-.08-.82.08-.82.24,0,.14.89.94,1.29.15Z"/>
                <path class="cls-24" d="m19.39,6.85s.1,0,.15,0c.1.01.2.06.29.12.05.07.08.14.08.24,0,.14-.09.27-.2.36-.09.04-.19.05-.29.04-.13-.02-.26-.09-.37-.16-.02-.05-.03-.1-.03-.16,0-.21.17-.38.37-.44Z"/>
              </g>
            </g>
            <path class="cls-21" d="m18.18.34s-4.02-.11-4.59,5.19l-.91-.35s.15-4.4,3.65-4.96l1.85.12Z"/>
            <g>
              <path class="cls-8" d="m11.26,7.83c.28,1.24,1.26,2.07,2.18,1.86s1.44-1.38,1.16-2.62c-.28-1.24-1.26-2.07-2.18-1.86-.92.21-1.44,1.38-1.16,2.62Z"/>
              <path class="cls-21" d="m11.19,7.77c.24,1.05,1.07,1.77,1.86,1.59.79-.18,1.23-1.18.99-2.23-.24-1.05-1.07-1.77-1.86-1.59-.79.18-1.23,1.18-.99,2.23Z"/>
              <path class="cls-9" d="m12.44,7.2c.34.58.85.91,1.16.73.3-.18.28-.79-.06-1.37-.34-.58-.85-.91-1.16-.73-.3.18-.28.79.06,1.37Z"/>
              <path class="cls-9" d="m13.15,8.5c-.05.19,0,.36.13.39.12.03.26-.09.31-.28.05-.19,0-.36-.13-.39-.12-.03-.26.09-.31.28Z"/>
            </g>
            <path class="cls-41" d="m20.75.84c-1.31-.92-4.62.09-4.48,1.19.06.5,1.57-.24,3.24.45,1.29.53,1.19,1.28,1.51,1.01.33-.27.9-1.82-.27-2.64Z"/>
            <path class="cls-41" d="m15.96,2.18c-.53-.41-1.87,1.05-1.33,1.47.54.43,1.77-1.13,1.33-1.47Z"/>
            <path class="cls-44" d="m10.74,13.57c-1.11-.12-2.07.51-2.9,1.55-1.28,1.61-5.17,9.15-3.46,11.36-.05-1.72,2.03-2.83,3.73-2.25,0,0,3.78-10.54,2.63-10.66Z"/>
            <g>
              <path class="cls-24" d="m18.95,9.97l-2.62-.05s.43,1.17,1.31,1.19c.88.02,1.31-1.14,1.31-1.14Z"/>
              <path class="cls-19" d="m18.59,10.07l-2.07-.04s.56.33,1.91.31l.16-.27Z"/>
              <path class="cls-25" d="m16.65,10.5c.22.3.55.6.99.61.18,0,.35-.05.49-.12-.46-.68-1.17-.57-1.48-.48Z"/>
              <path class="cls-24" d="m16.34,9.87s.06.08.05.09c0,.01-.07,0-.1-.02-.03-.02-.03-.05-.02-.07.01-.02.04-.03.07,0Z"/>
              <path class="cls-24" d="m18.99,10.01s-.1.02-.1,0c0-.01.03-.07.07-.08.03-.02.06,0,.07.02.01.02,0,.05-.03.06Z"/>
            </g>
            <g>
              <path class="cls-8" d="m16.88,11.8c-.51,0-1.66-.05-2.2-.48-.81-.65-1.12-1.79-1.14-1.84l.1-.03s.32,1.16,1.1,1.78c.65.52,2.36.45,2.37.45v.1s-.1,0-.24,0Z"/>
              <path class="cls-8" d="m17.98,11.73c0,.17-.2.32-.47.33-.27.01-.49-.11-.5-.28,0-.17.2-.32.47-.33.27-.01.49.11.5.28Z"/>
            </g>
            <path class="cls-1" d="m8.58,24.65c-.41-1.98-2.75-1.91-3.83-.74-1.38,1.49-.87,3.9.55,4.41,1.55.56,2.66-.65,2.66-.65l.62-3.02Z"/>
            <g>
              <rect class="cls-8" x="25.19" y="26.05" width="12.87" height=".8"/>
              <rect class="cls-33" x="19.61" y="26.05" width="5.57" height=".8"/>
              <g>
                <rect class="cls-8" x="36.99" y="25.91" width=".69" height=".27"/>
                <rect class="cls-8" x="35.87" y="25.91" width=".69" height=".27"/>
                <rect class="cls-8" x="35.02" y="25.91" width=".69" height=".27"/>
                <rect class="cls-8" x="34.17" y="25.91" width=".69" height=".27"/>
                <rect class="cls-8" x="33.32" y="25.91" width=".69" height=".27"/>
                <rect class="cls-8" x="32.12" y="25.91" width=".69" height=".27"/>
                <rect class="cls-8" x="31.27" y="25.91" width=".69" height=".27"/>
                <rect class="cls-8" x="30.42" y="25.91" width=".69" height=".27"/>
                <rect class="cls-8" x="29.57" y="25.91" width=".69" height=".27"/>
                <rect class="cls-8" x="28.38" y="25.91" width=".69" height=".27"/>
                <rect class="cls-8" x="27.53" y="25.91" width=".69" height=".27"/>
                <rect class="cls-8" x="26.68" y="25.91" width=".69" height=".27"/>
                <rect class="cls-8" x="25.82" y="25.91" width=".69" height=".27"/>
              </g>
              <g>
                <rect class="cls-33" x="24.3" y="25.91" width=".69" height=".27"/>
                <rect class="cls-33" x="23.23" y="25.91" width=".69" height=".27"/>
                <rect class="cls-33" x="21.67" y="25.91" width="1.4" height=".27"/>
                <rect class="cls-33" x="20.13" y="25.91" width="1.4" height=".27"/>
              </g>
            </g>
            <g>
              <g>
                <path class="cls-8" d="m14.09,26.85h4.1c.27-.11-.86-1.38-2.3-1.34-1.43.03-1.8,1.34-1.8,1.34Z"/>
                <path class="cls-21" d="m15.89,25.51c-.73.02-1.18.36-1.45.7.19-.19.49-.35.94-.34.56.01.83.54,1.09.98h1.72c.27-.11-.86-1.38-2.3-1.34Z"/>
                <path class="cls-8" d="m16.83,25.94s-.03,0-.04.01c0,.02,0,.04,0,.05,0,0,.42.31.79.85h.07c-.39-.58-.83-.91-.84-.91Z"/>
                <path class="cls-8" d="m16.98,25.95c.1.08.15.19.12.24-.03.06-.14.04-.24-.03s-.15-.19-.12-.24.14-.04.24.03Z"/>
              </g>
              <path class="cls-28" d="m6.21,27.67c1.81.25,4.58-.37,8.12-1.04l-.19-.93c-3.51-.42-5.48-1.42-6.59-1.6-2.54.32-1.91,3.49-1.34,3.57Z"/>
              <path class="cls-28" d="m14.14,25.69c.54-.1,1.7-.66,2.09-.56.39.1.74.25,1.06.46.32.21.59.43.54.5-.1.15-.4-.07-.69-.24-.25-.14-.51-.24-.54-.21-.04.02.28.17.53.38.23.19.49.46.44.5-.13.13-.4-.06-.65-.27-.2-.17-.62-.42-.67-.37-.03.03.3.3.43.41.28.24.38.44.34.46-.16.1-.43-.17-.58-.3-.15-.13-.53-.34-.6-.32-.07.02.09.09.3.29.15.15.3.36.23.39-.13.06-.24-.04-.43-.23-.15-.15-.41-.21-.41-.21,0,0-.64.4-1.19.24-.33-.09-.6-.86-.19-.93Z"/>
              <path class="cls-40" d="m7.55,24.1c-2.54.32-1.91,3.49-1.34,3.57,1.81.25,4.58-.37,8.12-1.04.55.16,1.19-.24,1.19-.24,0,0,.27.06.41.21.16.16.27.23.37.22-.12-.09-.23-.23-.33-.32-.17-.15-.5-.29-.5-.29-.73.46-1.37.23-1.37.23,0,0-6.21,1.53-7.28.13-1.07-1.4.73-2.48.73-2.48Z"/>
            </g>
          </g>
          <g>
            <path class="cls-30" d="m1.32,30.97s.93,8.8,4.35,8.8h4.8v-8.8H1.32Zm8.34,7.93h-3.9c-2.78,0-3.54-7.15-3.54-7.15h7.44v7.15Z"/>
            <path class="cls-20" d="m.88,30.97s.93,8.8,4.35,8.8h4.8v-8.8H.88Zm8.34,7.93h-3.9c-2.78,0-3.54-7.15-3.54-7.15h7.44v7.15Z"/>
            <path class="cls-30" d="m1.12,32.58h.78c-.08-.5-.12-.83-.12-.83h7.44v.83h.81v-1.61H.88s.07.66.24,1.61Z"/>
            <path class="cls-8" d="m11.65,29.88c-.27-.3-10.95-.2-10.95-.2l.2,1.57h10.93s.09-1.07-.19-1.37Z"/>
          </g>
          <g>
            <g id="table">
              <rect class="cls-36" x="39.94" y="27.72" width=".95" height="26.56"/>
              <g>
                <rect class="cls-21" x="33.55" y="34.75" width="10.63" height="16.85"/>
                <g>
                  <path class="cls-16" d="m40.06,50.37c0-.07.06-.12.12-.12s.12.06.12.12-.06.12-.12.12-.12-.06-.12-.12Z"/>
                  <circle class="cls-16" cx="39.6" cy="50.37" r=".12"/>
                  <circle class="cls-16" cx="39.01" cy="50.37" r=".12"/>
                  <circle class="cls-16" cx="38.43" cy="50.37" r=".12"/>
                  <path class="cls-16" d="m37.72,50.37c0-.07.06-.12.12-.12s.12.06.12.12-.06.12-.12.12-.12-.06-.12-.12Z"/>
                  <circle class="cls-16" cx="37.26" cy="50.37" r=".12"/>
                  <g>
                    <circle class="cls-16" cx="40.49" cy="49.92" r=".12"/>
                    <circle class="cls-16" cx="39.9" cy="49.92" r=".12"/>
                    <path class="cls-16" d="m39.19,49.92c0-.07.06-.12.12-.12s.12.06.12.12-.06.12-.12.12-.12-.06-.12-.12Z"/>
                    <circle class="cls-16" cx="38.73" cy="49.92" r=".12"/>
                    <circle class="cls-16" cx="38.15" cy="49.92" r=".12"/>
                    <path class="cls-16" d="m37.44,49.92c0-.07.06-.12.12-.12s.12.06.12.12-.06.12-.12.12-.12-.06-.12-.12Z"/>
                    <circle class="cls-16" cx="36.98" cy="49.92" r=".12"/>
                  </g>
                  <circle class="cls-16" cx="41.95" cy="50.37" r=".12"/>
                  <circle class="cls-16" cx="41.36" cy="50.37" r=".12"/>
                  <path class="cls-16" d="m40.65,50.37c0-.07.06-.12.12-.12s.12.06.12.12-.06.12-.12.12-.12-.06-.12-.12Z"/>
                  <path class="cls-16" d="m40.06,49.44c0-.07.06-.12.12-.12s.12.06.12.12-.06.12-.12.12-.12-.06-.12-.12Z"/>
                  <path class="cls-16" d="m39.47,49.44c0-.07.06-.12.12-.12s.12.06.12.12-.06.12-.12.12-.12-.06-.12-.12Z"/>
                  <path class="cls-16" d="m38.89,49.44c0-.07.06-.12.12-.12s.12.06.12.12-.06.12-.12.12-.12-.06-.12-.12Z"/>
                  <path class="cls-16" d="m38.31,49.44c0-.07.06-.12.12-.12s.12.06.12.12-.06.12-.12.12-.12-.06-.12-.12Z"/>
                  <path class="cls-16" d="m37.72,49.44c0-.07.06-.12.12-.12s.12.06.12.12-.06.12-.12.12-.12-.06-.12-.12Z"/>
                  <path class="cls-16" d="m37.14,49.44c0-.07.06-.12.12-.12s.12.06.12.12-.06.12-.12.12-.12-.06-.12-.12Z"/>
                  <path class="cls-16" d="m41.82,49.44c0-.07.06-.12.12-.12s.12.06.12.12-.06.12-.12.12-.12-.06-.12-.12Z"/>
                  <path class="cls-16" d="m41.24,49.44c0-.07.06-.12.12-.12s.12.06.12.12-.06.12-.12.12-.12-.06-.12-.12Z"/>
                  <path class="cls-16" d="m40.65,49.44c0-.07.06-.12.12-.12s.12.06.12.12-.06.12-.12.12-.12-.06-.12-.12Z"/>
                  <path class="cls-16" d="m42.12,49.92c0-.07.06-.12.12-.12s.12.06.12.12-.06.12-.12.12-.12-.06-.12-.12Z"/>
                  <path class="cls-16" d="m41.54,49.92c0-.07.06-.12.12-.12s.12.06.12.12-.06.12-.12.12-.12-.06-.12-.12Z"/>
                  <circle class="cls-16" cx="41.08" cy="49.92" r=".12"/>
                </g>
                <g>
                  <circle class="cls-16" cx="39.02" cy="40.6" r=".12"/>
                  <circle class="cls-16" cx="39.6" cy="40.6" r=".12"/>
                  <path class="cls-16" d="m40.31,40.6c0,.07-.06.12-.12.12s-.12-.06-.12-.12.06-.12.12-.12.12.06.12.12Z"/>
                  <path class="cls-16" d="m38.86,41.05c0,.07-.06.12-.12.12s-.12-.06-.12-.12.06-.12.12-.12.12.06.12.12Z"/>
                  <path class="cls-16" d="m39.44,41.05c0,.07-.06.12-.12.12s-.12-.06-.12-.12.06-.12.12-.12.12.06.12.12Z"/>
                  <circle class="cls-16" cx="39.9" cy="41.05" r=".12"/>
                  <path class="cls-16" d="m39.44,40.2c0,.07-.06.12-.12.12s-.12-.06-.12-.12.06-.12.12-.12.12.06.12.12Z"/>
                  <circle class="cls-16" cx="39.9" cy="40.2" r=".12"/>
                  <path class="cls-16" d="m38.86,40.2c0,.07-.06.12-.12.12s-.12-.06-.12-.12.06-.12.12-.12.12.06.12.12Z"/>
                  <path class="cls-16" d="m39.44,42.81c0,.07-.06.12-.12.12s-.12-.06-.12-.12.06-.12.12-.12.12.06.12.12Z"/>
                  <circle class="cls-16" cx="39.9" cy="42.81" r=".12"/>
                  <path class="cls-16" d="m40.61,41.05c0,.07-.06.12-.12.12s-.12-.06-.12-.12.06-.12.12-.12.12.06.12.12Z"/>
                  <path class="cls-16" d="m38.56,41.5c0,.07-.06.12-.12.12s-.12-.06-.12-.12.06-.12.12-.12.12.06.12.12Z"/>
                  <path class="cls-16" d="m39.14,41.5c0,.07-.06.12-.12.12s-.12-.06-.12-.12.06-.12.12-.12.12.06.12.12Z"/>
                  <path class="cls-16" d="m39.73,41.5c0,.07-.06.12-.12.12s-.12-.06-.12-.12.06-.12.12-.12.12.06.12.12Z"/>
                  <circle class="cls-16" cx="38.43" cy="40.6" r=".12"/>
                  <circle class="cls-16" cx="38.15" cy="41.05" r=".12"/>
                  <path class="cls-16" d="m40.31,41.5c0,.07-.06.12-.12.12s-.12-.06-.12-.12.06-.12.12-.12.12.06.12.12Z"/>
                  <path class="cls-16" d="m40.9,41.5c0,.07-.06.12-.12.12s-.12-.06-.12-.12.06-.12.12-.12.12.06.12.12Z"/>
                  <path class="cls-16" d="m38.86,41.96c0,.07-.06.12-.12.12s-.12-.06-.12-.12.06-.12.12-.12.12.06.12.12Z"/>
                  <path class="cls-16" d="m39.44,41.96c0,.07-.06.12-.12.12s-.12-.06-.12-.12.06-.12.12-.12.12.06.12.12Z"/>
                  <circle class="cls-16" cx="39.9" cy="41.96" r=".12"/>
                  <path class="cls-16" d="m40.61,41.96c0,.07-.06.12-.12.12s-.12-.06-.12-.12.06-.12.12-.12.12.06.12.12Z"/>
                  <path class="cls-16" d="m39.14,42.41c0,.07-.06.12-.12.12s-.12-.06-.12-.12.06-.12.12-.12.12.06.12.12Z"/>
                  <circle class="cls-16" cx="38.16" cy="41.96" r=".12"/>
                  <path class="cls-16" d="m38.56,42.41c0,.07-.06.12-.12.12s-.12-.06-.12-.12.06-.12.12-.12.12.06.12.12Z"/>
                  <path class="cls-16" d="m39.73,42.41c0,.07-.06.12-.12.12s-.12-.06-.12-.12.06-.12.12-.12.12.06.12.12Z"/>
                  <circle class="cls-16" cx="39.6" cy="43.15" r=".12"/>
                  <circle class="cls-16" cx="39.6" cy="39.87" r=".12"/>
                  <circle class="cls-16" cx="38.73" cy="42.81" r=".12"/>
                  <path class="cls-16" d="m40.37,40.2c0,.07.06.12.12.12s.12-.06.12-.12-.06-.12-.12-.12-.12.06-.12.12Z"/>
                  <circle class="cls-16" cx="40.8" cy="40.6" r=".12"/>
                  <circle class="cls-16" cx="41.08" cy="41.05" r=".12"/>
                  <circle class="cls-16" cx="41.07" cy="41.96" r=".12"/>
                  <path class="cls-16" d="m40.66,42.41c0,.07.06.12.12.12s.12-.06.12-.12-.06-.12-.12-.12-.12.06-.12.12Z"/>
                  <path class="cls-16" d="m40.37,42.81c0,.07.06.12.12.12s.12-.06.12-.12-.06-.12-.12-.12-.12.06-.12.12Z"/>
                  <path class="cls-16" d="m39.14,42.41c0,.07-.06.12-.12.12s-.12-.06-.12-.12.06-.12.12-.12.12.06.12.12Z"/>
                  <path class="cls-16" d="m40.31,42.41c0,.07-.06.12-.12.12s-.12-.06-.12-.12.06-.12.12-.12.12.06.12.12Z"/>
                </g>
                <g>
                  <rect class="cls-8" x="44.12" y="34.75" width="7.48" height="16.85"/>
                  <rect class="cls-3" x="44.68" y="35.23" width="6.35" height="15.78"/>
                  <g class="cls-6">
                    <path class="cls-34" d="m50.74,41.5c0,.88-.72,1.6-1.6,1.6s-1.6-.72-1.6-1.6.72-1.6,1.6-1.6,1.6.72,1.6,1.6Z"/>
                  </g>
                  <g>
                    <rect class="cls-21" x="45.14" y="36.97" width="1.32" height=".83"/>
                    <rect class="cls-37" x="45.27" y="37.08" width="1.05" height=".61"/>
                    <rect class="cls-8" x="45.3" y="37.11" width=".99" height=".55"/>
                    <rect class="cls-8" x="45.3" y="37.11" width=".13" height=".55"/>
                    <rect class="cls-37" x="45.37" y="37.11" width=".46" height=".55"/>
                  </g>
                  <g>
                    <rect class="cls-21" x="45.14" y="35.72" width="1.52" height="1.02" rx=".45" ry=".45"/>
                    <rect class="cls-37" x="45.29" y="35.86" width="1.21" height=".75" rx=".37" ry=".37"/>
                    <g>
                      <path class="cls-33" d="m45.77,36.34s-.03.07-.07.07-.07-.03-.07-.07.03-.07.07-.07.07.03.07.07Z"/>
                      <path class="cls-33" d="m46.16,36.34s-.03.07-.07.07-.07-.03-.07-.07.03-.07.07-.07.07.03.07.07Z"/>
                      <path class="cls-33" d="m45.98,36.08s-.03.07-.07.07-.07-.03-.07-.07.03-.07.07-.07.07.03.07.07Z"/>
                    </g>
                  </g>
                  <g>
                    <g>
                      <circle class="cls-8" cx="46.98" cy="35.88" r=".12"/>
                      <path class="cls-8" d="m47.69,35.88c0,.07-.06.12-.12.12s-.12-.06-.12-.12.06-.12.12-.12.12.06.12.12Z"/>
                      <circle class="cls-8" cx="48.15" cy="35.88" r=".12"/>
                      <circle class="cls-8" cx="48.74" cy="35.88" r=".12"/>
                      <path class="cls-8" d="m49.45,35.88c0,.07-.06.12-.12.12s-.12-.06-.12-.12.06-.12.12-.12.12.06.12.12Z"/>
                      <circle class="cls-8" cx="49.91" cy="35.88" r=".12"/>
                      <circle class="cls-8" cx="50.49" cy="35.88" r=".12"/>
                    </g>
                    <circle class="cls-8" cx="47.29" cy="36.33" r=".12"/>
                    <circle class="cls-8" cx="47.87" cy="36.33" r=".12"/>
                    <circle class="cls-8" cx="48.46" cy="36.33" r=".12"/>
                    <path class="cls-8" d="m49.16,36.33c0,.07-.06.12-.12.12s-.12-.06-.12-.12.06-.12.12-.12.12.06.12.12Z"/>
                    <circle class="cls-8" cx="49.62" cy="36.33" r=".12"/>
                    <circle class="cls-8" cx="50.21" cy="36.33" r=".12"/>
                    <g>
                      <circle class="cls-8" cx="46.98" cy="36.78" r=".12"/>
                      <path class="cls-8" d="m47.69,36.78c0,.07-.06.12-.12.12s-.12-.06-.12-.12.06-.12.12-.12.12.06.12.12Z"/>
                      <circle class="cls-8" cx="48.15" cy="36.78" r=".12"/>
                      <circle class="cls-8" cx="48.74" cy="36.78" r=".12"/>
                      <path class="cls-8" d="m49.45,36.78c0,.07-.06.12-.12.12s-.12-.06-.12-.12.06-.12.12-.12.12.06.12.12Z"/>
                      <circle class="cls-8" cx="49.91" cy="36.78" r=".12"/>
                      <circle class="cls-8" cx="50.49" cy="36.78" r=".12"/>
                    </g>
                    <circle class="cls-8" cx="47.29" cy="37.24" r=".12"/>
                    <circle class="cls-8" cx="47.87" cy="37.24" r=".12"/>
                    <circle class="cls-8" cx="48.46" cy="37.24" r=".12"/>
                    <path class="cls-8" d="m49.16,37.24c0,.07-.06.12-.12.12s-.12-.06-.12-.12.06-.12.12-.12.12.06.12.12Z"/>
                    <circle class="cls-8" cx="49.62" cy="37.24" r=".12"/>
                    <circle class="cls-8" cx="50.21" cy="37.24" r=".12"/>
                    <g>
                      <circle class="cls-8" cx="46.98" cy="37.69" r=".12"/>
                      <path class="cls-8" d="m47.69,37.69c0,.07-.06.12-.12.12s-.12-.06-.12-.12.06-.12.12-.12.12.06.12.12Z"/>
                      <circle class="cls-8" cx="48.15" cy="37.69" r=".12"/>
                      <circle class="cls-8" cx="48.74" cy="37.69" r=".12"/>
                      <path class="cls-8" d="m49.45,37.69c0,.07-.06.12-.12.12s-.12-.06-.12-.12.06-.12.12-.12.12.06.12.12Z"/>
                      <circle class="cls-8" cx="49.91" cy="37.69" r=".12"/>
                      <circle class="cls-8" cx="50.49" cy="37.69" r=".12"/>
                    </g>
                    <circle class="cls-8" cx="47.29" cy="38.17" r=".12"/>
                    <circle class="cls-8" cx="47.87" cy="38.17" r=".12"/>
                    <circle class="cls-8" cx="48.46" cy="38.17" r=".12"/>
                    <path class="cls-8" d="m49.16,38.17c0,.07-.06.12-.12.12s-.12-.06-.12-.12.06-.12.12-.12.12.06.12.12Z"/>
                    <circle class="cls-8" cx="49.62" cy="38.17" r=".12"/>
                    <circle class="cls-8" cx="50.21" cy="38.17" r=".12"/>
                    <circle class="cls-8" cx="45.52" cy="38.17" r=".12"/>
                    <path class="cls-8" d="m46.23,38.17c0,.07-.06.12-.12.12s-.12-.06-.12-.12.06-.12.12-.12.12.06.12.12Z"/>
                    <path class="cls-8" d="m46.82,38.17c0,.07-.06.12-.12.12s-.12-.06-.12-.12.06-.12.12-.12.12.06.12.12Z"/>
                  </g>
                  <g>
                    <circle class="cls-8" cx="50.45" cy="47.19" r=".12"/>
                    <path class="cls-8" d="m50.45,47.9c-.07,0-.12-.06-.12-.12s.06-.12.12-.12.12.06.12.12-.06.12-.12.12Z"/>
                    <circle class="cls-8" cx="50.45" cy="48.36" r=".12"/>
                    <circle class="cls-8" cx="50.45" cy="48.95" r=".12"/>
                    <circle class="cls-8" cx="50.45" cy="49.53" r=".12"/>
                    <circle class="cls-8" cx="50.45" cy="50.12" r=".12"/>
                    <g>
                      <circle class="cls-8" cx="50" cy="46.89" r=".12"/>
                      <path class="cls-8" d="m50,47.6c-.07,0-.12-.06-.12-.12s.06-.12.12-.12.12.06.12.12-.06.12-.12.12Z"/>
                      <circle class="cls-8" cx="50" cy="48.06" r=".12"/>
                      <circle class="cls-8" cx="50" cy="48.64" r=".12"/>
                      <circle class="cls-8" cx="50" cy="49.23" r=".12"/>
                      <circle class="cls-8" cx="50" cy="49.81" r=".12"/>
                      <path class="cls-8" d="m50,50.52c-.07,0-.12-.06-.12-.12s.06-.12.12-.12.12.06.12.12-.06.12-.12.12Z"/>
                    </g>
                    <circle class="cls-8" cx="50.45" cy="45.43" r=".12"/>
                    <circle class="cls-8" cx="50.45" cy="46.02" r=".12"/>
                    <circle class="cls-8" cx="50.45" cy="46.6" r=".12"/>
                    <circle class="cls-8" cx="49.52" cy="47.19" r=".12"/>
                    <path class="cls-8" d="m49.52,47.9c-.07,0-.12-.06-.12-.12s.06-.12.12-.12.12.06.12.12-.06.12-.12.12Z"/>
                    <circle class="cls-8" cx="49.52" cy="48.36" r=".12"/>
                    <circle class="cls-8" cx="49.52" cy="48.95" r=".12"/>
                    <circle class="cls-8" cx="49.52" cy="49.53" r=".12"/>
                    <circle class="cls-8" cx="49.52" cy="50.12" r=".12"/>
                    <circle class="cls-8" cx="49.52" cy="45.43" r=".12"/>
                    <circle class="cls-8" cx="49.52" cy="46.02" r=".12"/>
                    <circle class="cls-8" cx="49.52" cy="46.6" r=".12"/>
                    <circle class="cls-8" cx="50" cy="45.13" r=".12"/>
                    <circle class="cls-8" cx="50" cy="45.71" r=".12"/>
                    <circle class="cls-8" cx="50" cy="46.3" r=".12"/>
                  </g>
                  <g>
                    <rect class="cls-7" x="45.1" y="38.66" width="2.09" height="5.7"/>
                    <g>
                      <circle class="cls-15" cx="45.51" cy="39.05" r=".21"/>
                      <circle class="cls-21" cx="45.51" cy="39.05" r=".14"/>
                    </g>
                    <g>
                      <path class="cls-22" d="m46.35,39.05c0,.12-.09.21-.21.21s-.21-.09-.21-.21.09-.21.21-.21.21.09.21.21Z"/>
                      <path class="cls-21" d="m46.28,39.05c0,.07-.06.14-.14.14s-.14-.06-.14-.14.06-.14.14-.14.14.06.14.14Z"/>
                    </g>
                    <g>
                      <g>
                        <path class="cls-3" d="m45.72,43.23c0,.12-.09.21-.21.21s-.21-.09-.21-.21.09-.21.21-.21.21.09.21.21Z"/>
                        <path class="cls-21" d="m45.65,43.23c0,.07-.06.14-.14.14s-.14-.06-.14-.14.06-.14.14-.14.14.06.14.14Z"/>
                      </g>
                      <g>
                        <path class="cls-3" d="m46.35,43.23c0,.12-.09.21-.21.21s-.21-.09-.21-.21.09-.21.21-.21.21.09.21.21Z"/>
                        <path class="cls-21" d="m46.28,43.23c0,.07-.06.14-.14.14s-.14-.06-.14-.14.06-.14.14-.14.14.06.14.14Z"/>
                      </g>
                      <g>
                        <path class="cls-3" d="m46.98,43.23c0,.12-.09.21-.21.21s-.21-.09-.21-.21.09-.21.21-.21.21.09.21.21Z"/>
                        <path class="cls-21" d="m46.91,43.23c0,.07-.06.14-.14.14s-.14-.06-.14-.14.06-.14.14-.14.14.06.14.14Z"/>
                      </g>
                    </g>
                    <g>
                      <path class="cls-3" d="m45.72,43.91c0,.12-.09.21-.21.21s-.21-.09-.21-.21.09-.21.21-.21.21.09.21.21Z"/>
                      <path class="cls-21" d="m45.65,43.91c0,.07-.06.14-.14.14s-.14-.06-.14-.14.06-.14.14-.14.14.06.14.14Z"/>
                    </g>
                    <g>
                      <path class="cls-3" d="m46.35,43.91c0,.12-.09.21-.21.21s-.21-.09-.21-.21.09-.21.21-.21.21.09.21.21Z"/>
                      <path class="cls-21" d="m46.28,43.91c0,.07-.06.14-.14.14s-.14-.06-.14-.14.06-.14.14-.14.14.06.14.14Z"/>
                    </g>
                    <g>
                      <path class="cls-3" d="m46.98,43.91c0,.12-.09.21-.21.21s-.21-.09-.21-.21.09-.21.21-.21.21.09.21.21Z"/>
                      <path class="cls-21" d="m46.91,43.91c0,.07-.06.14-.14.14s-.14-.06-.14-.14.06-.14.14-.14.14.06.14.14Z"/>
                    </g>
                    <g>
                      <rect class="cls-8" x="45.3" y="41.88" width=".27" height=".8"/>
                      <rect class="cls-8" x="45.8" y="41.88" width=".27" height=".8"/>
                      <rect class="cls-8" x="46.3" y="41.88" width=".49" height=".8"/>
                      <rect class="cls-33" x="46.46" y="41.99" width=".26" height=".58"/>
                      <rect class="cls-33" x="45.93" y="41.99" width=".08" height=".58"/>
                      <rect class="cls-33" x="45.42" y="41.99" width=".08" height=".58"/>
                    </g>
                    <g>
                      <rect class="cls-3" x="45.3" y="40.71" width=".38" height=".8" rx=".15" ry=".15"/>
                      <rect class="cls-22" x="45.34" y="40.74" width=".3" height=".73" rx=".13" ry=".13"/>
                      <g>
                        <circle class="cls-33" cx="45.39" cy="40.92" r=".03"/>
                        <path class="cls-33" d="m45.42,41.01s-.01.03-.03.03-.03-.01-.03-.03.01-.03.03-.03.03.01.03.03Z"/>
                        <circle class="cls-33" cx="45.39" cy="41.11" r=".03"/>
                        <circle class="cls-33" cx="45.39" cy="41.2" r=".03"/>
                        <circle class="cls-33" cx="45.39" cy="41.29" r=".03"/>
                        <path class="cls-33" d="m45.52,40.92s-.01.03-.03.03-.03-.01-.03-.03.01-.03.03-.03.03.01.03.03Z"/>
                        <circle class="cls-33" cx="45.44" cy="40.83" r=".03"/>
                        <circle class="cls-33" cx="45.54" cy="40.83" r=".03"/>
                        <circle class="cls-33" cx="45.44" cy="41.37" r=".03"/>
                        <circle class="cls-33" cx="45.54" cy="41.37" r=".03"/>
                        <path class="cls-33" d="m45.52,41.01s-.01.03-.03.03-.03-.01-.03-.03.01-.03.03-.03.03.01.03.03Z"/>
                        <path class="cls-33" d="m45.52,41.11s-.01.03-.03.03-.03-.01-.03-.03.01-.03.03-.03.03.01.03.03Z"/>
                        <path class="cls-33" d="m45.52,41.2s-.01.03-.03.03-.03-.01-.03-.03.01-.03.03-.03.03.01.03.03Z"/>
                        <path class="cls-33" d="m45.52,41.29s-.01.03-.03.03-.03-.01-.03-.03.01-.03.03-.03.03.01.03.03Z"/>
                        <circle class="cls-33" cx="45.59" cy="40.92" r=".03"/>
                        <path class="cls-33" d="m45.62,41.01s-.01.03-.03.03-.03-.01-.03-.03.01-.03.03-.03.03.01.03.03Z"/>
                        <circle class="cls-33" cx="45.59" cy="41.11" r=".03"/>
                        <circle class="cls-33" cx="45.59" cy="41.2" r=".03"/>
                        <circle class="cls-33" cx="45.59" cy="41.29" r=".03"/>
                      </g>
                    </g>
                    <g>
                      <rect class="cls-3" x="45.3" y="39.62" width=".38" height=".8" rx=".15" ry=".15"/>
                      <rect class="cls-23" x="45.34" y="39.66" width=".3" height=".73" rx=".13" ry=".13"/>
                      <g>
                        <circle class="cls-33" cx="45.39" cy="39.84" r=".03"/>
                        <circle class="cls-33" cx="45.39" cy="39.93" r=".03"/>
                        <circle class="cls-33" cx="45.39" cy="40.02" r=".03"/>
                        <circle class="cls-33" cx="45.39" cy="40.11" r=".03"/>
                        <circle class="cls-33" cx="45.39" cy="40.2" r=".03"/>
                        <path class="cls-33" d="m45.52,39.84s-.01.03-.03.03-.03-.01-.03-.03.01-.03.03-.03.03.01.03.03Z"/>
                        <circle class="cls-33" cx="45.44" cy="39.75" r=".03"/>
                        <circle class="cls-33" cx="45.54" cy="39.75" r=".03"/>
                        <circle class="cls-33" cx="45.44" cy="40.28" r=".03"/>
                        <circle class="cls-33" cx="45.54" cy="40.28" r=".03"/>
                        <path class="cls-33" d="m45.52,39.93s-.01.03-.03.03-.03-.01-.03-.03.01-.03.03-.03.03.01.03.03Z"/>
                        <path class="cls-33" d="m45.52,40.02s-.01.03-.03.03-.03-.01-.03-.03.01-.03.03-.03.03.01.03.03Z"/>
                        <path class="cls-33" d="m45.52,40.11s-.01.03-.03.03-.03-.01-.03-.03.01-.03.03-.03.03.01.03.03Z"/>
                        <path class="cls-33" d="m45.52,40.2s-.01.03-.03.03-.03-.01-.03-.03.01-.03.03-.03.03.01.03.03Z"/>
                        <circle class="cls-33" cx="45.59" cy="39.84" r=".03"/>
                        <circle class="cls-33" cx="45.59" cy="39.93" r=".03"/>
                        <circle class="cls-33" cx="45.59" cy="40.02" r=".03"/>
                        <circle class="cls-33" cx="45.59" cy="40.11" r=".03"/>
                        <circle class="cls-33" cx="45.59" cy="40.2" r=".03"/>
                      </g>
                    </g>
                  </g>
                  <g>
                    <circle class="cls-8" cx="48.55" cy="40.6" r=".12"/>
                    <path class="cls-8" d="m49.26,40.6c0,.07-.06.12-.12.12s-.12-.06-.12-.12.06-.12.12-.12.12.06.12.12Z"/>
                    <circle class="cls-8" cx="49.72" cy="40.6" r=".12"/>
                    <circle class="cls-8" cx="48.27" cy="41.05" r=".12"/>
                    <path class="cls-8" d="m48.98,41.05c0,.07-.06.12-.12.12s-.12-.06-.12-.12.06-.12.12-.12.12.06.12.12Z"/>
                    <circle class="cls-8" cx="49.44" cy="41.05" r=".12"/>
                    <path class="cls-8" d="m48.98,40.2c0,.07-.06.12-.12.12s-.12-.06-.12-.12.06-.12.12-.12.12.06.12.12Z"/>
                    <circle class="cls-8" cx="49.44" cy="40.2" r=".12"/>
                    <circle class="cls-8" cx="48.27" cy="40.2" r=".12"/>
                    <path class="cls-8" d="m48.98,42.81c0,.07-.06.12-.12.12s-.12-.06-.12-.12.06-.12.12-.12.12.06.12.12Z"/>
                    <circle class="cls-8" cx="49.44" cy="42.81" r=".12"/>
                    <circle class="cls-8" cx="50.03" cy="41.05" r=".12"/>
                    <path class="cls-8" d="m48.09,41.5c0,.07-.06.12-.12.12s-.12-.06-.12-.12.06-.12.12-.12.12.06.12.12Z"/>
                    <path class="cls-8" d="m48.68,41.5c0,.07-.06.12-.12.12s-.12-.06-.12-.12.06-.12.12-.12.12.06.12.12Z"/>
                    <path class="cls-8" d="m49.26,41.5c0,.07-.06.12-.12.12s-.12-.06-.12-.12.06-.12.12-.12.12.06.12.12Z"/>
                    <circle class="cls-8" cx="47.97" cy="40.6" r=".12"/>
                    <circle class="cls-8" cx="47.69" cy="41.05" r=".12"/>
                    <path class="cls-8" d="m49.85,41.5c0,.07-.06.12-.12.12s-.12-.06-.12-.12.06-.12.12-.12.12.06.12.12Z"/>
                    <path class="cls-8" d="m50.43,41.5c0,.07-.06.12-.12.12s-.12-.06-.12-.12.06-.12.12-.12.12.06.12.12Z"/>
                    <circle class="cls-8" cx="48.27" cy="41.96" r=".12"/>
                    <path class="cls-8" d="m48.98,41.96c0,.07-.06.12-.12.12s-.12-.06-.12-.12.06-.12.12-.12.12.06.12.12Z"/>
                    <circle class="cls-8" cx="49.44" cy="41.96" r=".12"/>
                    <circle class="cls-8" cx="50.03" cy="41.96" r=".12"/>
                    <path class="cls-8" d="m48.68,42.41c0,.07-.06.12-.12.12s-.12-.06-.12-.12.06-.12.12-.12.12.06.12.12Z"/>
                    <circle class="cls-8" cx="47.69" cy="41.96" r=".12"/>
                    <path class="cls-8" d="m48.1,42.41c0,.07-.06.12-.12.12s-.12-.06-.12-.12.06-.12.12-.12.12.06.12.12Z"/>
                    <path class="cls-8" d="m49.26,42.41c0,.07-.06.12-.12.12s-.12-.06-.12-.12.06-.12.12-.12.12.06.12.12Z"/>
                    <path class="cls-8" d="m49.26,43.15c0,.07-.06.12-.12.12s-.12-.06-.12-.12.06-.12.12-.12.12.06.12.12Z"/>
                    <path class="cls-8" d="m49.26,39.87c0,.07-.06.12-.12.12s-.12-.06-.12-.12.06-.12.12-.12.12.06.12.12Z"/>
                    <path class="cls-8" d="m48.39,42.81c0,.07-.06.12-.12.12s-.12-.06-.12-.12.06-.12.12-.12.12.06.12.12Z"/>
                    <circle class="cls-8" cx="50.03" cy="40.2" r=".12"/>
                    <circle class="cls-8" cx="50.33" cy="40.6" r=".12"/>
                    <circle class="cls-8" cx="50.61" cy="41.05" r=".12"/>
                    <path class="cls-8" d="m50.48,41.96c0,.07.06.12.12.12s.12-.06.12-.12-.06-.12-.12-.12-.12.06-.12.12Z"/>
                    <path class="cls-8" d="m50.2,42.41c0,.07.06.12.12.12s.12-.06.12-.12-.06-.12-.12-.12-.12.06-.12.12Z"/>
                    <path class="cls-8" d="m49.9,42.81c0,.07.06.12.12.12s.12-.06.12-.12-.06-.12-.12-.12-.12.06-.12.12Z"/>
                    <path class="cls-8" d="m48.68,42.41c0,.07-.06.12-.12.12s-.12-.06-.12-.12.06-.12.12-.12.12.06.12.12Z"/>
                    <path class="cls-8" d="m49.85,42.41c0,.07-.06.12-.12.12s-.12-.06-.12-.12.06-.12.12-.12.12.06.12.12Z"/>
                  </g>
                  <rect class="cls-7" x="45.31" y="45.19" width="3.37" height=".16"/>
                  <rect class="cls-7" x="45.31" y="46.32" width="3.37" height=".16"/>
                  <rect class="cls-7" x="45.31" y="47.45" width="3.37" height=".16"/>
                  <rect class="cls-7" x="45.31" y="48.57" width="3.37" height=".16"/>
                  <rect class="cls-7" x="45.31" y="49.7" width="3.37" height=".16"/>
                  <rect class="cls-7" x="45.1" y="45.02" width="3.8" height=".98"/>
                  <rect class="cls-3" x="45.31" y="45.12" width="3.37" height=".16"/>
                  <rect class="cls-7" x="45.1" y="46.15" width="3.8" height=".98"/>
                  <rect class="cls-3" x="45.31" y="46.25" width="3.37" height=".16"/>
                  <rect class="cls-7" x="45.1" y="47.27" width="3.8" height=".98"/>
                  <rect class="cls-3" x="45.31" y="47.37" width="3.37" height=".16"/>
                  <rect class="cls-7" x="45.1" y="48.4" width="3.8" height=".98"/>
                  <rect class="cls-3" x="45.31" y="48.5" width="3.37" height=".16"/>
                  <rect class="cls-7" x="45.1" y="49.53" width="3.8" height=".98"/>
                  <rect class="cls-3" x="45.31" y="49.63" width="3.37" height=".16"/>
                </g>
              </g>
              <rect class="cls-36" x="33.67" y="51.53" width="9.82" height="1.66"/>
              <rect class="cls-36" x="33.26" y="27.72" width=".95" height="26.56"/>
              <rect class="cls-43" x="5.03" y="27.72" width=".95" height="26.56"/>
              <rect class="cls-43" x="16.79" y="27.72" width=".57" height="26.56"/>
              <rect class="cls-29" x="17.36" y="27.72" width=".57" height="26.56"/>
              <rect class="cls-43" x="5.03" y="27.8" width="12.88" height="2.77"/>
              <rect class="cls-29" x="51.35" y="27.72" width=".95" height="26.56"/>
              <rect class="cls-29" x="43.36" y="27.72" width=".95" height="26.56"/>
              <rect class="cls-29" x="17.36" y="27.8" width="34.94" height="2.77"/>
              <rect class="cls-29" x="43.36" y="51.53" width="8.94" height="1.66"/>
              <rect class="cls-29" x="43.4" y="27.72" width=".95" height="26.56"/>
              <rect class="cls-36" x="17.36" y="27.73" width="34.94" height="1.68"/>
              <rect class="cls-27" x="5.03" y="27.8" width="12.33" height="1.6"/>
              <rect class="cls-31" x="3.33" y="26.85" width="14.38" height="1.82"/>
              <rect class="cls-2" x="17.34" y="26.85" width="36.87" height="1.82"/>
              <rect class="cls-39" x="3.33" y="26.85" width="50.88" height=".38"/>
            </g>
            <g>
              <path class="cls-21" d="m32.4,33.93c-4.08,0-6.57-1.81-7.97-3.39-1.49-1.69-2.06-3.45-2.14-3.73h-4.36v-.1h4.44v.04s.54,1.92,2.15,3.73c1.38,1.56,3.85,3.35,7.89,3.35.28,0,.57,0,.86-.03,6.96-.42,9.87-7.15,9.9-7.22l.09.04c-.03.07-2.97,6.86-9.99,7.28-.3.02-.59.03-.87.03Z"/>
              <g>
                <rect class="cls-33" x="32.69" y="9.15" width=".79" height="14.72"/>
                <rect class="cls-9" x="33.17" y="9.15" width=".21" height="14.72"/>
                <rect class="cls-21" x="33.27" y="9.15" width="19.03" height="14.72"/>
                <g>
                  <rect class="cls-8" x="34.5" y="10.72" width=".37" height="1.23"/>
                  <rect class="cls-8" x="35.28" y="10.72" width=".37" height="1.23"/>
                  <rect class="cls-8" x="36.05" y="10.72" width=".37" height="1.23"/>
                  <rect class="cls-8" x="36.83" y="10.72" width=".37" height="1.23"/>
                  <rect class="cls-8" x="37.61" y="10.72" width=".37" height="1.23"/>
                  <rect class="cls-8" x="38.38" y="10.72" width=".37" height="1.23"/>
                  <rect class="cls-8" x="39.16" y="10.72" width=".37" height="1.23"/>
                </g>
                <g>
                  <rect class="cls-8" x="46.06" y="10.72" width=".37" height="1.23"/>
                  <rect class="cls-8" x="46.84" y="10.72" width=".37" height="1.23"/>
                  <rect class="cls-8" x="47.61" y="10.72" width=".37" height="1.23"/>
                  <rect class="cls-8" x="48.39" y="10.72" width=".37" height="1.23"/>
                  <rect class="cls-8" x="49.17" y="10.72" width=".37" height="1.23"/>
                  <rect class="cls-8" x="49.95" y="10.72" width=".37" height="1.23"/>
                  <rect class="cls-8" x="50.72" y="10.72" width=".37" height="1.23"/>
                </g>
                <g>
                  <circle class="cls-8" cx="35.64" cy="13.87" r=".34"/>
                  <circle class="cls-8" cx="35.64" cy="20.85" r=".34"/>
                  <path class="cls-8" d="m50.28,13.87c0,.19-.15.34-.34.34s-.34-.15-.34-.34.15-.34.34-.34.34.15.34.34Z"/>
                  <path class="cls-8" d="m50.28,20.85c0,.19-.15.34-.34.34s-.34-.15-.34-.34.15-.34.34-.34.34.15.34.34Z"/>
                </g>
                <g>
                  <rect class="cls-8" x="41.97" y="21.72" width="1.63" height="4.82"/>
                  <path class="cls-8" d="m46.27,26.85h-6.96v-.57s1.08-.44,3.52-.44,3.44.44,3.44.44v.57Z"/>
                  <rect class="cls-5" x="41.97" y="23.83" width="1.63" height=".85"/>
                </g>
                <rect class="cls-8" x="36.56" y="15.74" width="12.46" height="8.12"/>
                <rect class="cls-10" x="36.56" y="15.74" width=".82" height="8.12"/>
                <g>
                  <rect class="cls-21" x="45.28" y="22.22" width="3.02" height=".96"/>
                  <rect class="cls-33" x="48.12" y="22.22" width=".18" height=".96"/>
                  <g>
                    <path class="cls-33" d="m46.14,22.7c0,.17-.14.31-.31.31s-.31-.14-.31-.31.14-.31.31-.31.31.14.31.31Z"/>
                    <path class="cls-8" d="m46.08,22.7c0,.14-.11.25-.25.25s-.25-.11-.25-.25.11-.25.25-.25.25.11.25.25Z"/>
                    <path class="cls-33" d="m45.92,22.7s-.04.09-.09.09-.09-.04-.09-.09.04-.09.09-.09.09.04.09.09Z"/>
                  </g>
                  <g>
                    <rect class="cls-33" x="46.48" y="22.39" width="1.53" height=".62" rx=".15" ry=".15"/>
                    <rect class="cls-8" x="46.54" y="22.45" width="1.39" height=".5" rx=".13" ry=".13"/>
                    <g>
                      <g>
                        <path class="cls-33" d="m46.79,22.56s-.02.04-.04.04-.04-.02-.04-.04.02-.04.04-.04.04.02.04.04Z"/>
                        <path class="cls-33" d="m46.95,22.56s-.02.04-.04.04-.04-.02-.04-.04.02-.04.04-.04.04.02.04.04Z"/>
                        <path class="cls-33" d="m47.12,22.56s-.02.04-.04.04-.04-.02-.04-.04.02-.04.04-.04.04.02.04.04Z"/>
                        <path class="cls-33" d="m47.28,22.56s-.02.04-.04.04-.04-.02-.04-.04.02-.04.04-.04.04.02.04.04Z"/>
                        <path class="cls-33" d="m47.45,22.56s-.02.04-.04.04-.04-.02-.04-.04.02-.04.04-.04.04.02.04.04Z"/>
                        <path class="cls-33" d="m47.61,22.56s-.02.04-.04.04-.04-.02-.04-.04.02-.04.04-.04.04.02.04.04Z"/>
                        <path class="cls-33" d="m47.78,22.56s-.02.04-.04.04-.04-.02-.04-.04.02-.04.04-.04.04.02.04.04Z"/>
                      </g>
                      <g>
                        <path class="cls-33" d="m46.79,22.7s-.02.04-.04.04-.04-.02-.04-.04.02-.04.04-.04.04.02.04.04Z"/>
                        <circle class="cls-33" cx="46.91" cy="22.7" r=".04"/>
                        <path class="cls-33" d="m47.12,22.7s-.02.04-.04.04-.04-.02-.04-.04.02-.04.04-.04.04.02.04.04Z"/>
                        <circle class="cls-33" cx="47.24" cy="22.7" r=".04"/>
                        <circle class="cls-33" cx="47.41" cy="22.7" r=".04"/>
                        <path class="cls-33" d="m47.61,22.7s-.02.04-.04.04-.04-.02-.04-.04.02-.04.04-.04.04.02.04.04Z"/>
                        <circle class="cls-33" cx="47.74" cy="22.7" r=".04"/>
                      </g>
                      <g>
                        <path class="cls-33" d="m46.79,22.84s-.02.04-.04.04-.04-.02-.04-.04.02-.04.04-.04.04.02.04.04Z"/>
                        <circle class="cls-33" cx="46.91" cy="22.84" r=".04"/>
                        <path class="cls-33" d="m47.12,22.84s-.02.04-.04.04-.04-.02-.04-.04.02-.04.04-.04.04.02.04.04Z"/>
                        <circle class="cls-33" cx="47.24" cy="22.84" r=".04"/>
                        <circle class="cls-33" cx="47.41" cy="22.84" r=".04"/>
                        <path class="cls-33" d="m47.61,22.84s-.02.04-.04.04-.04-.02-.04-.04.02-.04.04-.04.04.02.04.04Z"/>
                        <circle class="cls-33" cx="47.74" cy="22.84" r=".04"/>
                      </g>
                    </g>
                  </g>
                  <rect class="cls-4" x="45.28" y="22.22" width="3.02" height=".34"/>
                </g>
                <polygon class="cls-5" points="49.75 23.86 49.02 23.86 49.02 15.74 49.75 16.55 49.75 23.86"/>
                <g>
                  <rect class="cls-10" x="38.17" y="16.28" width="3.69" height="2.44" rx=".54" ry=".54"/>
                  <g>
                    <rect class="cls-8" x="38.58" y="16.61" width="2.87" height=".27"/>
                    <rect class="cls-8" x="38.58" y="17.1" width="2.87" height=".27"/>
                    <rect class="cls-8" x="38.58" y="17.59" width="2.87" height=".27"/>
                    <rect class="cls-8" x="38.58" y="18.07" width="2.87" height=".27"/>
                    <rect class="cls-10" x="40.58" y="17.55" width=".24" height=".36"/>
                    <rect class="cls-10" x="39.14" y="16.58" width=".24" height=".36"/>
                    <rect class="cls-10" x="39.72" y="18.05" width=".24" height=".36"/>
                  </g>
                </g>
                <g>
                  <rect class="cls-8" x="36.76" y="20.82" width=".34" height="1.03"/>
                  <rect class="cls-8" x="36.76" y="22.16" width=".34" height="1.03"/>
                  <rect class="cls-10" x="36.92" y="22.23" width=".1" height=".9"/>
                  <rect class="cls-10" x="36.92" y="20.89" width=".1" height=".9"/>
                </g>
                <rect class="cls-9" x="37.27" y="15.74" width=".11" height="8.12"/>
              </g>
            </g>
            <path class="cls-8" d="m46.28,39.15c-.05,0-.11-.02-.16-.05l.05-.09c.08.04.14.05.2.01.91-.53.89-8.19.75-12.2h-12.31v-.1h12.4v.05c.02.48.39,11.64-.8,12.34-.04.03-.09.04-.14.04Z"/>
            <g>
              <g>
                <rect class="cls-16" x="46.54" y="22.45" width="1.39" height=".5" rx=".13" ry=".13"/>
                <rect class="cls-8" x="46.94" y="22.45" width="1.39" height=".5" rx=".13" ry=".13"/>
              </g>
              <path class="cls-8" d="m47.78,39.94c-.54,0-.7-.92-.86-1.89-.15-.87-.29-1.76-.73-1.76v-.1c.52,0,.67.9.83,1.85.15.89.3,1.81.76,1.81.61,0,.99-3.42,1.04-9.38.03-3.28,0-6.83-.74-7.57-.09-.09-.19-.13-.29-.13h0v-.1h0c.13,0,.26.05.37.16.76.76.8,4.19.77,7.64-.05,6.29-.43,9.48-1.14,9.48Z"/>
              <g>
                <rect class="cls-37" x="45.29" y="35.86" width="1.21" height=".75" rx=".37" ry=".37"/>
                <rect class="cls-8" x="45.59" y="35.86" width="1.21" height=".75" rx=".37" ry=".37"/>
              </g>
            </g>
          </g>
        </g>
      </g>
    </g>
  </g>
</svg>