<svg height="512" viewBox="0 0 64 64" width="512" xmlns="http://www.w3.org/2000/svg"><g id="Artboard_02" data-name="Artboard 02"><path d="m62 32a30.273 30.273 0 0 1 -12 24 30 30 0 1 1 -18-54c16.845.211 30.187 13.575 30 30z" fill="#ffc239"/><path d="m32 2a29.387 29.387 0 0 0 -22.739 10.379 30.006 30.006 0 0 0 46.739 32.621 29.663 29.663 0 0 0 4.7-4.413 31.131 31.131 0 0 0 1.3-8.587c.187-16.426-13.155-29.789-30-30z" fill="#ffd55d"/><path d="m62 32a29.343 29.343 0 0 0 -12-24 48.873 48.873 0 0 1 -6 35l1.8 6.968 8.693 1.856a30.458 30.458 0 0 0 7.507-19.824z" fill="#ffc239"/><path d="m41.5 3.6v45.465h7.068a29.953 29.953 0 0 0 7.432-4.065 29.663 29.663 0 0 0 4.7-4.413 31.131 31.131 0 0 0 1.3-8.587 29.634 29.634 0 0 0 -20.5-28.4z" fill="#ffd55d"/><path d="m49.963 7.982a30.775 30.775 0 0 0 -17.963-5.982 29.871 29.871 0 0 0 -30 30l1.75-1.9a41.111 41.111 0 0 1 33.235-12.989s7.812-5.058 13.083-8.58z" fill="#ccc"/><path d="m39.9 3.11a31.346 31.346 0 0 0 -7.9-1.11 29.387 29.387 0 0 0 -22.739 10.379 30.124 30.124 0 0 0 -.272 16.273h30.911z" fill="#f2f2f2"/><path d="m57.948 47a31.857 31.857 0 0 1 -23.081-11.654l-2.867-3.346-9.543-.348-5.457 5.348a42.027 42.027 0 0 0 27.762 18.093l5.238.907a29.811 29.811 0 0 0 7.948-9z" fill="#ccc"/><path d="m34.867 35.346-2.867-3.346-9.543-.348-5.457 5.348a42.016 42.016 0 0 0 14.209 13.221 30.1 30.1 0 0 0 6.791.779 29.845 29.845 0 0 0 15.81-4.511 31.594 31.594 0 0 1 -18.943-11.143z" fill="#f2f2f2"/><path d="m36.982 17.111a41.356 41.356 0 0 0 -28.592 8.7 29.845 29.845 0 0 0 5.652 13.243 31.47 31.47 0 0 1 9.714-5.187l8.244-1.867 2.545-5.4a22.225 22.225 0 0 0 2.437-9.489z" fill="#173e67"/><path d="m9.763 24.779c-.464.335-.922.677-1.372 1.032.449-.355.909-.697 1.372-1.032z" fill="#ffc239"/><path d="m3.75 30.1-1.75 1.9a29.846 29.846 0 0 0 4.021 15 47.27 47.27 0 0 1 8.021-7.94 29.845 29.845 0 0 1 -5.652-13.248 39.7 39.7 0 0 0 -4.64 4.288z" fill="#112f4d"/><g fill="#ffc239"><path d="m14.771 38.517c.207-.151.413-.3.623-.447-.21.146-.416.296-.623.447z"/><path d="m8.39 25.812.001-.001z"/><path d="m15.394 38.07q.908-.635 1.847-1.207-.941.573-1.847 1.207z"/><path d="m10.015 24.6-.252.182z"/><path d="m14.771 38.517c-.244.178-.489.354-.729.538.24-.184.485-.355.729-.538z"/></g><path d="m44.008 42.991a48.88 48.88 0 0 0 5.992-34.984 30.726 30.726 0 0 0 -16.978-5.967l.9 1.68c3.869 7.654 4.1 16.189.619 22.877l-2.541 5.403 2.866 3.344a31.07 31.07 0 0 0 9.142 7.647z" fill="#1f5389"/></g></svg>